%TF.GenerationSoftware,KiCad,Pcbnew,7.0.9*%
%TF.CreationDate,2024-01-20T20:31:13+09:00*%
%TF.ProjectId,cardsize_keyboad,63617264-7369-47a6-955f-6b6579626f61,rev?*%
%TF.SameCoordinates,PX34f3078PY5614798*%
%TF.FileFunction,Copper,L1,Top*%
%TF.FilePolarity,Positive*%
%FSLAX46Y46*%
G04 Gerber Fmt 4.6, Leading zero omitted, Abs format (unit mm)*
G04 Created by KiCad (PCBNEW 7.0.9) date 2024-01-20 20:31:13*
%MOMM*%
%LPD*%
G01*
G04 APERTURE LIST*
%TA.AperFunction,ComponentPad*%
%ADD10C,2.200000*%
%TD*%
%TA.AperFunction,ComponentPad*%
%ADD11R,1.600000X1.600000*%
%TD*%
%TA.AperFunction,ComponentPad*%
%ADD12O,1.600000X1.600000*%
%TD*%
%TA.AperFunction,ComponentPad*%
%ADD13R,1.700000X1.700000*%
%TD*%
%TA.AperFunction,ComponentPad*%
%ADD14C,1.700000*%
%TD*%
%TA.AperFunction,ComponentPad*%
%ADD15C,1.524000*%
%TD*%
%TA.AperFunction,ViaPad*%
%ADD16C,0.800000*%
%TD*%
%TA.AperFunction,Conductor*%
%ADD17C,0.250000*%
%TD*%
G04 APERTURE END LIST*
D10*
%TO.P,SW5,1,1*%
%TO.N,Net-(D5-A)*%
X35350000Y25090000D03*
%TO.P,SW5,2,2*%
%TO.N,7*%
X29000000Y22550000D03*
%TD*%
D11*
%TO.P,D5,1,K*%
%TO.N,Net-(D4-K)*%
X28850000Y9090000D03*
D12*
%TO.P,D5,2,A*%
%TO.N,Net-(D5-A)*%
X36470000Y9090000D03*
%TD*%
D10*
%TO.P,SW2,1,1*%
%TO.N,Net-(D2-A)*%
X35350000Y44630000D03*
%TO.P,SW2,2,2*%
%TO.N,7*%
X29000000Y42090000D03*
%TD*%
D13*
%TO.P,SW8,1,1*%
%TO.N,Net-(D8-A)*%
X18850000Y6840000D03*
D14*
X25350000Y6840000D03*
%TO.P,SW8,2,2*%
%TO.N,7*%
X18850000Y2340000D03*
X25350000Y2340000D03*
%TD*%
D11*
%TO.P,D3,1,K*%
%TO.N,Net-(D1-K)*%
X7850000Y50090000D03*
D12*
%TO.P,D3,2,A*%
%TO.N,Net-(D3-A)*%
X15470000Y50090000D03*
%TD*%
D11*
%TO.P,D8,1,K*%
%TO.N,Net-(D7-K)*%
X7850000Y2090000D03*
D12*
%TO.P,D8,2,A*%
%TO.N,Net-(D8-A)*%
X15470000Y2090000D03*
%TD*%
D11*
%TO.P,D1,1,K*%
%TO.N,Net-(D1-K)*%
X50350000Y50090000D03*
D12*
%TO.P,D1,2,A*%
%TO.N,Net-(D1-A)*%
X57970000Y50090000D03*
%TD*%
D13*
%TO.P,SW0,1,1*%
%TO.N,GND*%
X72100000Y9761400D03*
D14*
X78600000Y9761400D03*
%TO.P,SW0,2,2*%
%TO.N,Net-(U1-RST)*%
X72100000Y5261400D03*
X78600000Y5261400D03*
%TD*%
D10*
%TO.P,SW4,1,1*%
%TO.N,Net-(D4-A)*%
X54700000Y25130000D03*
%TO.P,SW4,2,2*%
%TO.N,6*%
X48350000Y22590000D03*
%TD*%
%TO.P,SW3,1,1*%
%TO.N,Net-(D3-A)*%
X16350000Y44630000D03*
%TO.P,SW3,2,2*%
%TO.N,8*%
X10000000Y42090000D03*
%TD*%
%TO.P,SW1,1,1*%
%TO.N,Net-(D1-A)*%
X54700000Y44630000D03*
%TO.P,SW1,2,2*%
%TO.N,6*%
X48350000Y42090000D03*
%TD*%
D11*
%TO.P,D7,1,K*%
%TO.N,Net-(D7-K)*%
X50350000Y2090000D03*
D12*
%TO.P,D7,2,A*%
%TO.N,Net-(D7-A)*%
X57970000Y2090000D03*
%TD*%
D13*
%TO.P,SW7,1,1*%
%TO.N,Net-(D7-A)*%
X40350000Y6840000D03*
D14*
X46850000Y6840000D03*
%TO.P,SW7,2,2*%
%TO.N,6*%
X40350000Y2340000D03*
X46850000Y2340000D03*
%TD*%
D10*
%TO.P,SW6,1,1*%
%TO.N,Net-(D6-A)*%
X16350000Y25090000D03*
%TO.P,SW6,2,2*%
%TO.N,8*%
X10000000Y22550000D03*
%TD*%
D11*
%TO.P,D2,1,K*%
%TO.N,Net-(D1-K)*%
X28850000Y50090000D03*
D12*
%TO.P,D2,2,A*%
%TO.N,Net-(D2-A)*%
X36470000Y50090000D03*
%TD*%
D11*
%TO.P,D4,1,K*%
%TO.N,Net-(D4-K)*%
X50350000Y9090000D03*
D12*
%TO.P,D4,2,A*%
%TO.N,Net-(D4-A)*%
X57970000Y9090000D03*
%TD*%
D11*
%TO.P,D6,1,K*%
%TO.N,Net-(D4-K)*%
X7850000Y9090000D03*
D12*
%TO.P,D6,2,A*%
%TO.N,Net-(D6-A)*%
X15470000Y9090000D03*
%TD*%
D15*
%TO.P,U1,1,D3/TX0*%
%TO.N,unconnected-(U1-D3{slash}TX0-Pad1)*%
X67960000Y45820000D03*
%TO.P,U1,2,D2/RX1*%
%TO.N,unconnected-(U1-D2{slash}RX1-Pad2)*%
X67960000Y43280000D03*
%TO.P,U1,3,GND*%
%TO.N,GND*%
X67960000Y40740000D03*
%TO.P,U1,4,GND*%
X67960000Y38200000D03*
%TO.P,U1,5,SDA/D1/2*%
%TO.N,Net-(D1-K)*%
X67960000Y35660000D03*
%TO.P,U1,6,SCL/D0/3*%
%TO.N,Net-(D4-K)*%
X67960000Y33120000D03*
%TO.P,U1,7,D4/4*%
%TO.N,Net-(D7-K)*%
X67960000Y30580000D03*
%TO.P,U1,8,C6/5*%
%TO.N,unconnected-(U1-C6{slash}5-Pad8)*%
X67960000Y28040000D03*
%TO.P,U1,9,D7/6*%
%TO.N,6*%
X67960000Y25500000D03*
%TO.P,U1,10,E6/7*%
%TO.N,7*%
X67960000Y22960000D03*
%TO.P,U1,11,B4/8*%
%TO.N,8*%
X67960000Y20420000D03*
%TO.P,U1,12,B5/9*%
%TO.N,unconnected-(U1-B5{slash}9-Pad12)*%
X67960000Y17880000D03*
%TO.P,U1,13,10/B6*%
%TO.N,unconnected-(U1-10{slash}B6-Pad13)*%
X83180000Y17880000D03*
%TO.P,U1,14,16/B2*%
%TO.N,unconnected-(U1-16{slash}B2-Pad14)*%
X83180000Y20420000D03*
%TO.P,U1,15,14/B3*%
%TO.N,unconnected-(U1-14{slash}B3-Pad15)*%
X83180000Y22960000D03*
%TO.P,U1,16,15/B1*%
%TO.N,unconnected-(U1-15{slash}B1-Pad16)*%
X83180000Y25500000D03*
%TO.P,U1,17,A0/F7*%
%TO.N,unconnected-(U1-A0{slash}F7-Pad17)*%
X83180000Y28040000D03*
%TO.P,U1,18,A1/F6*%
%TO.N,unconnected-(U1-A1{slash}F6-Pad18)*%
X83180000Y30580000D03*
%TO.P,U1,19,A2/F5*%
%TO.N,unconnected-(U1-A2{slash}F5-Pad19)*%
X83180000Y33120000D03*
%TO.P,U1,20,A3/F4*%
%TO.N,unconnected-(U1-A3{slash}F4-Pad20)*%
X83180000Y35660000D03*
%TO.P,U1,21,VCC*%
%TO.N,unconnected-(U1-VCC-Pad21)*%
X83180000Y38200000D03*
%TO.P,U1,22,RST*%
%TO.N,Net-(U1-RST)*%
X83180000Y40740000D03*
%TO.P,U1,23,GND*%
%TO.N,GND*%
X83180000Y43280000D03*
%TO.P,U1,24,RAW*%
%TO.N,unconnected-(U1-RAW-Pad24)*%
X83180000Y45820000D03*
%TD*%
D16*
%TO.N,6*%
X61978600Y29090000D03*
%TO.N,8*%
X40978600Y23511400D03*
%TD*%
D17*
%TO.N,6*%
X61978600Y29090000D02*
X64370000Y29090000D01*
X64370000Y29090000D02*
X67960000Y25500000D01*
%TO.N,Net-(U1-RST)*%
X80728600Y7390000D02*
X78600000Y5261400D01*
X80728600Y11761400D02*
X80728600Y7390000D01*
X77478600Y15011400D02*
X80728600Y11761400D01*
X77478600Y35038600D02*
X77478600Y15011400D01*
X83180000Y40740000D02*
X77478600Y35038600D01*
X78600000Y5261400D02*
X72100000Y5261400D01*
%TO.N,GND*%
X72100000Y9761400D02*
X78600000Y9761400D01*
X72100000Y34060000D02*
X72100000Y9761400D01*
X67960000Y38200000D02*
X72100000Y34060000D01*
%TO.N,8*%
X63520000Y20420000D02*
X67960000Y20420000D01*
X56850000Y27090000D02*
X63520000Y20420000D01*
X44557200Y27090000D02*
X56850000Y27090000D01*
X40978600Y23511400D02*
X44557200Y27090000D01*
%TO.N,*%
X66690000Y25500000D02*
X66873000Y25500000D01*
%TO.N,GND*%
X73040000Y43280000D02*
X67960000Y38200000D01*
X83180000Y43280000D02*
X73040000Y43280000D01*
X67960000Y40740000D02*
X67960000Y38200000D01*
%TO.N,6*%
X38425000Y3515000D02*
X39600000Y2340000D01*
X48350000Y22590000D02*
X48350000Y19379009D01*
X38425000Y9454009D02*
X38425000Y3515000D01*
X39600000Y2340000D02*
X46100000Y2340000D01*
X48350000Y19379009D02*
X38425000Y9454009D01*
%TO.N,7*%
X19600000Y2340000D02*
X26100000Y2340000D01*
X67960000Y22960000D02*
X64730000Y22960000D01*
X27350000Y3590000D02*
X26100000Y2340000D01*
X36211400Y29761400D02*
X29000000Y22550000D01*
X27350000Y20900000D02*
X27350000Y3590000D01*
X29000000Y22550000D02*
X29000000Y42090000D01*
X64730000Y22960000D02*
X57928600Y29761400D01*
X57928600Y29761400D02*
X36211400Y29761400D01*
X29000000Y22550000D02*
X27350000Y20900000D01*
%TO.N,8*%
X10000000Y42090000D02*
X10000000Y22550000D01*
%TO.N,Net-(D1-A)*%
X57970000Y47900000D02*
X54700000Y44630000D01*
X57970000Y50090000D02*
X57970000Y47900000D01*
%TO.N,Net-(D2-A)*%
X36470000Y50090000D02*
X36470000Y45750000D01*
X36470000Y45750000D02*
X35350000Y44630000D01*
%TO.N,Net-(D3-A)*%
X16478600Y49081400D02*
X16478600Y44758600D01*
X16478600Y44758600D02*
X16350000Y44630000D01*
X15470000Y50090000D02*
X16478600Y49081400D01*
%TO.N,Net-(D4-A)*%
X54700000Y25130000D02*
X56310000Y25130000D01*
X56310000Y25130000D02*
X57970000Y23470000D01*
X57970000Y23470000D02*
X57970000Y9090000D01*
%TO.N,Net-(D5-A)*%
X36470000Y9090000D02*
X36470000Y23970000D01*
X36470000Y23970000D02*
X35350000Y25090000D01*
%TO.N,Net-(D6-A)*%
X17600000Y11220000D02*
X17600000Y23840000D01*
X17600000Y23840000D02*
X16350000Y25090000D01*
X15470000Y9090000D02*
X17600000Y11220000D01*
%TO.N,Net-(D7-A)*%
X52850000Y6090000D02*
X53970000Y6090000D01*
X53970000Y6090000D02*
X57970000Y2090000D01*
X46100000Y6840000D02*
X52100000Y6840000D01*
X39600000Y6840000D02*
X46100000Y6840000D01*
X52100000Y6840000D02*
X52850000Y6090000D01*
%TO.N,Net-(D8-A)*%
X18100000Y6840000D02*
X19600000Y6840000D01*
X19600000Y6840000D02*
X26100000Y6840000D01*
X15470000Y2090000D02*
X15470000Y4210000D01*
X15470000Y4210000D02*
X18100000Y6840000D01*
%TD*%
M02*
