M48
; DRILL file {KiCad 7.0.9} date Sat Jan 20 20:32:05 2024
; FORMAT={-:-/ absolute / metric / decimal}
; #@! TF.CreationDate,2024-01-20T20:32:05+09:00
; #@! TF.GenerationSoftware,Kicad,Pcbnew,7.0.9
; #@! TF.FileFunction,Plated,1,2,PTH
FMAT,2
METRIC
; #@! TA.AperFunction,Plated,PTH,ViaDrill
T1C0.400
; #@! TA.AperFunction,Plated,PTH,ComponentDrill
T2C0.800
; #@! TA.AperFunction,Plated,PTH,ComponentDrill
T3C0.813
; #@! TA.AperFunction,Plated,PTH,ComponentDrill
T4C1.000
; #@! TA.AperFunction,Plated,PTH,ComponentDrill
T5C1.500
%
G90
G05
T1
X40.979Y23.511
X61.979Y29.09
T2
X7.85Y50.09
X7.85Y9.09
X7.85Y2.09
X15.47Y50.09
X15.47Y9.09
X15.47Y2.09
X28.85Y50.09
X28.85Y9.09
X36.47Y50.09
X36.47Y9.09
X50.35Y50.09
X50.35Y9.09
X50.35Y2.09
X57.97Y50.09
X57.97Y9.09
X57.97Y2.09
T3
X67.96Y45.82
X67.96Y43.28
X67.96Y40.74
X67.96Y38.2
X67.96Y35.66
X67.96Y33.12
X67.96Y30.58
X67.96Y28.04
X67.96Y25.5
X67.96Y22.96
X67.96Y20.42
X67.96Y17.88
X83.18Y45.82
X83.18Y43.28
X83.18Y40.74
X83.18Y38.2
X83.18Y35.66
X83.18Y33.12
X83.18Y30.58
X83.18Y28.04
X83.18Y25.5
X83.18Y22.96
X83.18Y20.42
X83.18Y17.88
T4
X18.85Y6.84
X18.85Y2.34
X25.35Y6.84
X25.35Y2.34
X40.35Y6.84
X40.35Y2.34
X46.85Y6.84
X46.85Y2.34
X72.1Y9.761
X72.1Y5.261
X78.6Y9.761
X78.6Y5.261
T5
X10.0Y42.09
X10.0Y22.55
X16.35Y44.63
X16.35Y25.09
X29.0Y42.09
X29.0Y22.55
X35.35Y44.63
X35.35Y25.09
X48.35Y42.09
X48.35Y22.59
X54.7Y44.63
X54.7Y25.13
T0
M30
