%TF.GenerationSoftware,KiCad,Pcbnew,7.0.9*%
%TF.CreationDate,2024-01-20T20:31:13+09:00*%
%TF.ProjectId,cardsize_keyboad,63617264-7369-47a6-955f-6b6579626f61,rev?*%
%TF.SameCoordinates,PX34f3078PY5614798*%
%TF.FileFunction,Copper,L2,Bot*%
%TF.FilePolarity,Positive*%
%FSLAX46Y46*%
G04 Gerber Fmt 4.6, Leading zero omitted, Abs format (unit mm)*
G04 Created by KiCad (PCBNEW 7.0.9) date 2024-01-20 20:31:13*
%MOMM*%
%LPD*%
G01*
G04 APERTURE LIST*
%TA.AperFunction,ComponentPad*%
%ADD10C,2.200000*%
%TD*%
%TA.AperFunction,ComponentPad*%
%ADD11R,1.600000X1.600000*%
%TD*%
%TA.AperFunction,ComponentPad*%
%ADD12O,1.600000X1.600000*%
%TD*%
%TA.AperFunction,ComponentPad*%
%ADD13R,1.700000X1.700000*%
%TD*%
%TA.AperFunction,ComponentPad*%
%ADD14C,1.700000*%
%TD*%
%TA.AperFunction,ComponentPad*%
%ADD15C,1.524000*%
%TD*%
%TA.AperFunction,ViaPad*%
%ADD16C,0.800000*%
%TD*%
%TA.AperFunction,Conductor*%
%ADD17C,0.250000*%
%TD*%
G04 APERTURE END LIST*
D10*
%TO.P,SW5,1,1*%
%TO.N,Net-(D5-A)*%
X35350000Y25090000D03*
%TO.P,SW5,2,2*%
%TO.N,7*%
X29000000Y22550000D03*
%TD*%
D11*
%TO.P,D5,1,K*%
%TO.N,Net-(D4-K)*%
X28850000Y9090000D03*
D12*
%TO.P,D5,2,A*%
%TO.N,Net-(D5-A)*%
X36470000Y9090000D03*
%TD*%
D10*
%TO.P,SW2,1,1*%
%TO.N,Net-(D2-A)*%
X35350000Y44630000D03*
%TO.P,SW2,2,2*%
%TO.N,7*%
X29000000Y42090000D03*
%TD*%
D13*
%TO.P,SW8,1,1*%
%TO.N,Net-(D8-A)*%
X18850000Y6840000D03*
D14*
X25350000Y6840000D03*
%TO.P,SW8,2,2*%
%TO.N,7*%
X18850000Y2340000D03*
X25350000Y2340000D03*
%TD*%
D11*
%TO.P,D3,1,K*%
%TO.N,Net-(D1-K)*%
X7850000Y50090000D03*
D12*
%TO.P,D3,2,A*%
%TO.N,Net-(D3-A)*%
X15470000Y50090000D03*
%TD*%
D11*
%TO.P,D8,1,K*%
%TO.N,Net-(D7-K)*%
X7850000Y2090000D03*
D12*
%TO.P,D8,2,A*%
%TO.N,Net-(D8-A)*%
X15470000Y2090000D03*
%TD*%
D11*
%TO.P,D1,1,K*%
%TO.N,Net-(D1-K)*%
X50350000Y50090000D03*
D12*
%TO.P,D1,2,A*%
%TO.N,Net-(D1-A)*%
X57970000Y50090000D03*
%TD*%
D13*
%TO.P,SW0,1,1*%
%TO.N,GND*%
X72100000Y9761400D03*
D14*
X78600000Y9761400D03*
%TO.P,SW0,2,2*%
%TO.N,Net-(U1-RST)*%
X72100000Y5261400D03*
X78600000Y5261400D03*
%TD*%
D10*
%TO.P,SW4,1,1*%
%TO.N,Net-(D4-A)*%
X54700000Y25130000D03*
%TO.P,SW4,2,2*%
%TO.N,6*%
X48350000Y22590000D03*
%TD*%
%TO.P,SW3,1,1*%
%TO.N,Net-(D3-A)*%
X16350000Y44630000D03*
%TO.P,SW3,2,2*%
%TO.N,8*%
X10000000Y42090000D03*
%TD*%
%TO.P,SW1,1,1*%
%TO.N,Net-(D1-A)*%
X54700000Y44630000D03*
%TO.P,SW1,2,2*%
%TO.N,6*%
X48350000Y42090000D03*
%TD*%
D11*
%TO.P,D7,1,K*%
%TO.N,Net-(D7-K)*%
X50350000Y2090000D03*
D12*
%TO.P,D7,2,A*%
%TO.N,Net-(D7-A)*%
X57970000Y2090000D03*
%TD*%
D13*
%TO.P,SW7,1,1*%
%TO.N,Net-(D7-A)*%
X40350000Y6840000D03*
D14*
X46850000Y6840000D03*
%TO.P,SW7,2,2*%
%TO.N,6*%
X40350000Y2340000D03*
X46850000Y2340000D03*
%TD*%
D10*
%TO.P,SW6,1,1*%
%TO.N,Net-(D6-A)*%
X16350000Y25090000D03*
%TO.P,SW6,2,2*%
%TO.N,8*%
X10000000Y22550000D03*
%TD*%
D11*
%TO.P,D2,1,K*%
%TO.N,Net-(D1-K)*%
X28850000Y50090000D03*
D12*
%TO.P,D2,2,A*%
%TO.N,Net-(D2-A)*%
X36470000Y50090000D03*
%TD*%
D11*
%TO.P,D4,1,K*%
%TO.N,Net-(D4-K)*%
X50350000Y9090000D03*
D12*
%TO.P,D4,2,A*%
%TO.N,Net-(D4-A)*%
X57970000Y9090000D03*
%TD*%
D11*
%TO.P,D6,1,K*%
%TO.N,Net-(D4-K)*%
X7850000Y9090000D03*
D12*
%TO.P,D6,2,A*%
%TO.N,Net-(D6-A)*%
X15470000Y9090000D03*
%TD*%
D15*
%TO.P,U1,1,D3/TX0*%
%TO.N,unconnected-(U1-D3{slash}TX0-Pad1)*%
X67960000Y45820000D03*
%TO.P,U1,2,D2/RX1*%
%TO.N,unconnected-(U1-D2{slash}RX1-Pad2)*%
X67960000Y43280000D03*
%TO.P,U1,3,GND*%
%TO.N,GND*%
X67960000Y40740000D03*
%TO.P,U1,4,GND*%
X67960000Y38200000D03*
%TO.P,U1,5,SDA/D1/2*%
%TO.N,Net-(D1-K)*%
X67960000Y35660000D03*
%TO.P,U1,6,SCL/D0/3*%
%TO.N,Net-(D4-K)*%
X67960000Y33120000D03*
%TO.P,U1,7,D4/4*%
%TO.N,Net-(D7-K)*%
X67960000Y30580000D03*
%TO.P,U1,8,C6/5*%
%TO.N,unconnected-(U1-C6{slash}5-Pad8)*%
X67960000Y28040000D03*
%TO.P,U1,9,D7/6*%
%TO.N,6*%
X67960000Y25500000D03*
%TO.P,U1,10,E6/7*%
%TO.N,7*%
X67960000Y22960000D03*
%TO.P,U1,11,B4/8*%
%TO.N,8*%
X67960000Y20420000D03*
%TO.P,U1,12,B5/9*%
%TO.N,unconnected-(U1-B5{slash}9-Pad12)*%
X67960000Y17880000D03*
%TO.P,U1,13,10/B6*%
%TO.N,unconnected-(U1-10{slash}B6-Pad13)*%
X83180000Y17880000D03*
%TO.P,U1,14,16/B2*%
%TO.N,unconnected-(U1-16{slash}B2-Pad14)*%
X83180000Y20420000D03*
%TO.P,U1,15,14/B3*%
%TO.N,unconnected-(U1-14{slash}B3-Pad15)*%
X83180000Y22960000D03*
%TO.P,U1,16,15/B1*%
%TO.N,unconnected-(U1-15{slash}B1-Pad16)*%
X83180000Y25500000D03*
%TO.P,U1,17,A0/F7*%
%TO.N,unconnected-(U1-A0{slash}F7-Pad17)*%
X83180000Y28040000D03*
%TO.P,U1,18,A1/F6*%
%TO.N,unconnected-(U1-A1{slash}F6-Pad18)*%
X83180000Y30580000D03*
%TO.P,U1,19,A2/F5*%
%TO.N,unconnected-(U1-A2{slash}F5-Pad19)*%
X83180000Y33120000D03*
%TO.P,U1,20,A3/F4*%
%TO.N,unconnected-(U1-A3{slash}F4-Pad20)*%
X83180000Y35660000D03*
%TO.P,U1,21,VCC*%
%TO.N,unconnected-(U1-VCC-Pad21)*%
X83180000Y38200000D03*
%TO.P,U1,22,RST*%
%TO.N,Net-(U1-RST)*%
X83180000Y40740000D03*
%TO.P,U1,23,GND*%
%TO.N,GND*%
X83180000Y43280000D03*
%TO.P,U1,24,RAW*%
%TO.N,unconnected-(U1-RAW-Pad24)*%
X83180000Y45820000D03*
%TD*%
D16*
%TO.N,6*%
X61978600Y29090000D03*
%TO.N,8*%
X40978600Y23511400D03*
%TD*%
D17*
%TO.N,6*%
X61978600Y29090000D02*
X54850000Y29090000D01*
X54850000Y29090000D02*
X48350000Y22590000D01*
%TO.N,8*%
X10540000Y23090000D02*
X10000000Y22550000D01*
X23350000Y23090000D02*
X10540000Y23090000D01*
X34307200Y16840000D02*
X29600000Y16840000D01*
X29600000Y16840000D02*
X23350000Y23090000D01*
X40978600Y23511400D02*
X34307200Y16840000D01*
%TO.N,Net-(D1-K)*%
X50350000Y50090000D02*
X48521400Y48261400D01*
X67960000Y35660000D02*
X60780000Y35660000D01*
X60780000Y35660000D02*
X50350000Y46090000D01*
X27021400Y48261400D02*
X9678600Y48261400D01*
X9678600Y48261400D02*
X7850000Y50090000D01*
X28850000Y50090000D02*
X27021400Y48261400D01*
X48521400Y48261400D02*
X30678600Y48261400D01*
X30678600Y48261400D02*
X28850000Y50090000D01*
X50350000Y46090000D02*
X50350000Y50090000D01*
%TO.N,Net-(D4-K)*%
X10021400Y11261400D02*
X26678600Y11261400D01*
X28850000Y9090000D02*
X31021400Y11261400D01*
X56850000Y22010000D02*
X67960000Y33120000D01*
X7850000Y9090000D02*
X10021400Y11261400D01*
X26678600Y11261400D02*
X28850000Y9090000D01*
X48178600Y11261400D02*
X50350000Y9090000D01*
X56850000Y17840000D02*
X56850000Y22010000D01*
X50350000Y11340000D02*
X56850000Y17840000D01*
X50350000Y9090000D02*
X50350000Y11340000D01*
X31021400Y11261400D02*
X48178600Y11261400D01*
%TO.N,Net-(D7-K)*%
X62350000Y24970000D02*
X62350000Y8340000D01*
X48100000Y4340000D02*
X50350000Y2090000D01*
X59100000Y5090000D02*
X53350000Y5090000D01*
X62350000Y8340000D02*
X59100000Y5090000D01*
X53350000Y5090000D02*
X50350000Y2090000D01*
X67960000Y30580000D02*
X62350000Y24970000D01*
X10100000Y4340000D02*
X48100000Y4340000D01*
X7850000Y2090000D02*
X10100000Y4340000D01*
%TO.N,6*%
X48350000Y42090000D02*
X48350000Y22590000D01*
%TD*%
%TA.AperFunction,NonConductor*%
G36*
X48992539Y50741715D02*
G01*
X49038294Y50688911D01*
X49049500Y50637400D01*
X49049500Y49725454D01*
X49029815Y49658415D01*
X49013181Y49637773D01*
X48298628Y48923219D01*
X48237305Y48889734D01*
X48210947Y48886900D01*
X37405449Y48886900D01*
X37338410Y48906585D01*
X37292655Y48959389D01*
X37282711Y49028547D01*
X37311736Y49092103D01*
X37317768Y49098581D01*
X37470045Y49250859D01*
X37470047Y49250861D01*
X37600568Y49437266D01*
X37696739Y49643504D01*
X37755635Y49863308D01*
X37775468Y50090000D01*
X37755635Y50316692D01*
X37696739Y50536496D01*
X37674122Y50584997D01*
X37663631Y50654072D01*
X37692150Y50717856D01*
X37750627Y50756096D01*
X37786505Y50761400D01*
X48925500Y50761400D01*
X48992539Y50741715D01*
G37*
%TD.AperFunction*%
%TA.AperFunction,NonConductor*%
G36*
X35220534Y50741715D02*
G01*
X35266289Y50688911D01*
X35276233Y50619753D01*
X35265877Y50584995D01*
X35243261Y50536498D01*
X35243258Y50536489D01*
X35184366Y50316698D01*
X35184364Y50316687D01*
X35164532Y50090002D01*
X35164532Y50089999D01*
X35184364Y49863314D01*
X35184366Y49863303D01*
X35243258Y49643512D01*
X35243261Y49643503D01*
X35339431Y49437268D01*
X35339432Y49437266D01*
X35469954Y49250859D01*
X35622232Y49098581D01*
X35655717Y49037258D01*
X35650733Y48967566D01*
X35608861Y48911633D01*
X35543397Y48887216D01*
X35534551Y48886900D01*
X30989052Y48886900D01*
X30922013Y48906585D01*
X30901371Y48923219D01*
X30186818Y49637772D01*
X30153333Y49699095D01*
X30150499Y49725453D01*
X30150499Y50637400D01*
X30170184Y50704439D01*
X30222988Y50750194D01*
X30274499Y50761400D01*
X35153495Y50761400D01*
X35220534Y50741715D01*
G37*
%TD.AperFunction*%
%TA.AperFunction,NonConductor*%
G36*
X27492539Y50741715D02*
G01*
X27538294Y50688911D01*
X27549500Y50637400D01*
X27549500Y49725454D01*
X27529815Y49658415D01*
X27513181Y49637773D01*
X26798628Y48923219D01*
X26737305Y48889734D01*
X26710947Y48886900D01*
X16405449Y48886900D01*
X16338410Y48906585D01*
X16292655Y48959389D01*
X16282711Y49028547D01*
X16311736Y49092103D01*
X16317768Y49098581D01*
X16470045Y49250859D01*
X16470047Y49250861D01*
X16600568Y49437266D01*
X16696739Y49643504D01*
X16755635Y49863308D01*
X16775468Y50090000D01*
X16755635Y50316692D01*
X16696739Y50536496D01*
X16674122Y50584997D01*
X16663631Y50654072D01*
X16692150Y50717856D01*
X16750627Y50756096D01*
X16786505Y50761400D01*
X27425500Y50761400D01*
X27492539Y50741715D01*
G37*
%TD.AperFunction*%
%TA.AperFunction,NonConductor*%
G36*
X14220534Y50741715D02*
G01*
X14266289Y50688911D01*
X14276233Y50619753D01*
X14265877Y50584995D01*
X14243261Y50536498D01*
X14243258Y50536489D01*
X14184366Y50316698D01*
X14184364Y50316687D01*
X14164532Y50090002D01*
X14164532Y50089999D01*
X14184364Y49863314D01*
X14184366Y49863303D01*
X14243258Y49643512D01*
X14243261Y49643503D01*
X14339431Y49437268D01*
X14339432Y49437266D01*
X14469954Y49250859D01*
X14622232Y49098581D01*
X14655717Y49037258D01*
X14650733Y48967566D01*
X14608861Y48911633D01*
X14543397Y48887216D01*
X14534551Y48886900D01*
X9989052Y48886900D01*
X9922013Y48906585D01*
X9901371Y48923219D01*
X9186818Y49637772D01*
X9153333Y49699095D01*
X9150499Y49725453D01*
X9150499Y50637400D01*
X9170184Y50704439D01*
X9222988Y50750194D01*
X9274499Y50761400D01*
X14153495Y50761400D01*
X14220534Y50741715D01*
G37*
%TD.AperFunction*%
%TA.AperFunction,NonConductor*%
G36*
X56720534Y50741715D02*
G01*
X56766289Y50688911D01*
X56776233Y50619753D01*
X56765877Y50584995D01*
X56743261Y50536498D01*
X56743258Y50536489D01*
X56684366Y50316698D01*
X56684364Y50316687D01*
X56664532Y50090002D01*
X56664532Y50089999D01*
X56684364Y49863314D01*
X56684366Y49863303D01*
X56743258Y49643512D01*
X56743261Y49643503D01*
X56839431Y49437268D01*
X56839432Y49437266D01*
X56969954Y49250859D01*
X57130858Y49089955D01*
X57130861Y49089953D01*
X57317266Y48959432D01*
X57523504Y48863261D01*
X57743308Y48804365D01*
X57905230Y48790199D01*
X57969998Y48784532D01*
X57970000Y48784532D01*
X57970002Y48784532D01*
X58026807Y48789502D01*
X58196692Y48804365D01*
X58416496Y48863261D01*
X58622734Y48959432D01*
X58809139Y49089953D01*
X58970047Y49250861D01*
X59100568Y49437266D01*
X59196739Y49643504D01*
X59255635Y49863308D01*
X59275468Y50090000D01*
X59255635Y50316692D01*
X59196739Y50536496D01*
X59174122Y50584997D01*
X59163631Y50654072D01*
X59192150Y50717856D01*
X59250627Y50756096D01*
X59286505Y50761400D01*
X82354600Y50761400D01*
X82421639Y50741715D01*
X82467394Y50688911D01*
X82478600Y50637400D01*
X82478600Y46934654D01*
X82458915Y46867615D01*
X82425723Y46833079D01*
X82365378Y46790826D01*
X82209175Y46634623D01*
X82082466Y46453662D01*
X82082465Y46453660D01*
X81989107Y46253452D01*
X81989104Y46253446D01*
X81931930Y46040071D01*
X81931929Y46040063D01*
X81912677Y45820003D01*
X81912677Y45819998D01*
X81931929Y45599938D01*
X81931930Y45599930D01*
X81989104Y45386555D01*
X81989105Y45386553D01*
X81989106Y45386550D01*
X82082466Y45186338D01*
X82082468Y45186334D01*
X82124637Y45126111D01*
X82209174Y45005380D01*
X82365380Y44849174D01*
X82425723Y44806922D01*
X82469348Y44752346D01*
X82478600Y44705347D01*
X82478600Y44394654D01*
X82458915Y44327615D01*
X82425723Y44293079D01*
X82365378Y44250826D01*
X82209175Y44094623D01*
X82082466Y43913662D01*
X82082465Y43913660D01*
X81989107Y43713452D01*
X81989104Y43713446D01*
X81931930Y43500071D01*
X81931929Y43500063D01*
X81912677Y43280003D01*
X81912677Y43279998D01*
X81931929Y43059938D01*
X81931930Y43059930D01*
X81989104Y42846555D01*
X81989105Y42846553D01*
X81989106Y42846550D01*
X82082466Y42646338D01*
X82082468Y42646334D01*
X82124637Y42586111D01*
X82209174Y42465380D01*
X82365380Y42309174D01*
X82425723Y42266922D01*
X82469348Y42212346D01*
X82478600Y42165347D01*
X82478600Y41854654D01*
X82458915Y41787615D01*
X82425723Y41753079D01*
X82365378Y41710826D01*
X82209175Y41554623D01*
X82082466Y41373662D01*
X82082465Y41373660D01*
X81989107Y41173452D01*
X81989104Y41173446D01*
X81931930Y40960071D01*
X81931929Y40960063D01*
X81912677Y40740003D01*
X81912677Y40739998D01*
X81931929Y40519938D01*
X81931930Y40519930D01*
X81989104Y40306555D01*
X81989105Y40306553D01*
X81989106Y40306550D01*
X82082466Y40106338D01*
X82082468Y40106334D01*
X82209170Y39925385D01*
X82209174Y39925380D01*
X82365380Y39769174D01*
X82425723Y39726922D01*
X82469348Y39672346D01*
X82478600Y39625347D01*
X82478600Y39314654D01*
X82458915Y39247615D01*
X82425723Y39213079D01*
X82365378Y39170826D01*
X82209175Y39014623D01*
X82082466Y38833662D01*
X82082465Y38833660D01*
X81989107Y38633452D01*
X81989104Y38633446D01*
X81931930Y38420071D01*
X81931929Y38420063D01*
X81912677Y38200003D01*
X81912677Y38199998D01*
X81931929Y37979938D01*
X81931930Y37979930D01*
X81989104Y37766555D01*
X81989105Y37766553D01*
X81989106Y37766550D01*
X82024596Y37690442D01*
X82082466Y37566338D01*
X82082468Y37566334D01*
X82209170Y37385385D01*
X82209174Y37385380D01*
X82365380Y37229174D01*
X82425723Y37186922D01*
X82469348Y37132346D01*
X82478600Y37085347D01*
X82478600Y36774654D01*
X82458915Y36707615D01*
X82425723Y36673079D01*
X82365378Y36630826D01*
X82209175Y36474623D01*
X82082466Y36293662D01*
X82082465Y36293660D01*
X81989107Y36093452D01*
X81989104Y36093446D01*
X81931930Y35880071D01*
X81931929Y35880063D01*
X81912677Y35660003D01*
X81912677Y35659998D01*
X81931929Y35439938D01*
X81931930Y35439930D01*
X81989104Y35226555D01*
X81989105Y35226553D01*
X81989106Y35226550D01*
X82060333Y35073803D01*
X82082466Y35026338D01*
X82082468Y35026334D01*
X82209170Y34845385D01*
X82209174Y34845380D01*
X82365380Y34689174D01*
X82425723Y34646922D01*
X82469348Y34592346D01*
X82478600Y34545347D01*
X82478600Y34234654D01*
X82458915Y34167615D01*
X82425723Y34133079D01*
X82365378Y34090826D01*
X82209175Y33934623D01*
X82082466Y33753662D01*
X82082465Y33753660D01*
X81989107Y33553452D01*
X81989104Y33553446D01*
X81931930Y33340071D01*
X81931929Y33340063D01*
X81912677Y33120003D01*
X81912677Y33119998D01*
X81931929Y32899938D01*
X81931930Y32899930D01*
X81989104Y32686555D01*
X81989105Y32686553D01*
X81989106Y32686550D01*
X82082466Y32486338D01*
X82082468Y32486334D01*
X82209170Y32305385D01*
X82209174Y32305380D01*
X82365380Y32149174D01*
X82425723Y32106922D01*
X82469348Y32052346D01*
X82478600Y32005347D01*
X82478600Y31694654D01*
X82458915Y31627615D01*
X82425723Y31593079D01*
X82365378Y31550826D01*
X82209175Y31394623D01*
X82082466Y31213662D01*
X82082465Y31213660D01*
X81989107Y31013452D01*
X81989104Y31013446D01*
X81931930Y30800071D01*
X81931929Y30800063D01*
X81912677Y30580003D01*
X81912677Y30579998D01*
X81931929Y30359938D01*
X81931930Y30359930D01*
X81989104Y30146555D01*
X81989105Y30146553D01*
X81989106Y30146550D01*
X82061873Y29990500D01*
X82082466Y29946338D01*
X82082468Y29946334D01*
X82133013Y29874149D01*
X82209174Y29765380D01*
X82365380Y29609174D01*
X82425723Y29566922D01*
X82469348Y29512346D01*
X82478600Y29465347D01*
X82478600Y29154654D01*
X82458915Y29087615D01*
X82425723Y29053079D01*
X82365378Y29010826D01*
X82209175Y28854623D01*
X82082466Y28673662D01*
X82082465Y28673660D01*
X81989107Y28473452D01*
X81989104Y28473446D01*
X81931930Y28260071D01*
X81931929Y28260063D01*
X81912677Y28040003D01*
X81912677Y28039998D01*
X81931929Y27819938D01*
X81931930Y27819930D01*
X81989104Y27606555D01*
X81989105Y27606553D01*
X81989106Y27606550D01*
X82082466Y27406338D01*
X82082468Y27406334D01*
X82209170Y27225385D01*
X82209174Y27225380D01*
X82365380Y27069174D01*
X82425723Y27026922D01*
X82469348Y26972346D01*
X82478600Y26925347D01*
X82478600Y26614654D01*
X82458915Y26547615D01*
X82425723Y26513079D01*
X82365378Y26470826D01*
X82209175Y26314623D01*
X82082466Y26133662D01*
X82082465Y26133660D01*
X81989107Y25933452D01*
X81989104Y25933446D01*
X81931930Y25720071D01*
X81931929Y25720063D01*
X81912677Y25500003D01*
X81912677Y25499998D01*
X81931929Y25279938D01*
X81931930Y25279930D01*
X81989104Y25066555D01*
X81989105Y25066553D01*
X81989106Y25066550D01*
X82011173Y25019227D01*
X82082466Y24866338D01*
X82082468Y24866334D01*
X82209170Y24685385D01*
X82209174Y24685380D01*
X82365380Y24529174D01*
X82425723Y24486922D01*
X82469348Y24432346D01*
X82478600Y24385347D01*
X82478600Y24074654D01*
X82458915Y24007615D01*
X82425723Y23973079D01*
X82365378Y23930826D01*
X82209175Y23774623D01*
X82082466Y23593662D01*
X82082465Y23593660D01*
X81989107Y23393452D01*
X81989104Y23393446D01*
X81931930Y23180071D01*
X81931929Y23180063D01*
X81912677Y22960003D01*
X81912677Y22959998D01*
X81931929Y22739938D01*
X81931930Y22739930D01*
X81989104Y22526555D01*
X81989105Y22526553D01*
X81989106Y22526550D01*
X82039265Y22418983D01*
X82082466Y22326338D01*
X82082468Y22326334D01*
X82184415Y22180739D01*
X82209174Y22145380D01*
X82365380Y21989174D01*
X82425723Y21946922D01*
X82469348Y21892346D01*
X82478600Y21845347D01*
X82478600Y21534654D01*
X82458915Y21467615D01*
X82425723Y21433079D01*
X82365378Y21390826D01*
X82209175Y21234623D01*
X82082466Y21053662D01*
X82082465Y21053660D01*
X81989107Y20853452D01*
X81989104Y20853446D01*
X81931930Y20640071D01*
X81931929Y20640063D01*
X81912677Y20420003D01*
X81912677Y20419998D01*
X81931929Y20199938D01*
X81931930Y20199930D01*
X81989104Y19986555D01*
X81989105Y19986553D01*
X81989106Y19986550D01*
X82013318Y19934627D01*
X82082466Y19786338D01*
X82082468Y19786334D01*
X82188547Y19634838D01*
X82209174Y19605380D01*
X82365380Y19449174D01*
X82425723Y19406922D01*
X82469348Y19352346D01*
X82478600Y19305347D01*
X82478600Y18994654D01*
X82458915Y18927615D01*
X82425723Y18893079D01*
X82365378Y18850826D01*
X82209175Y18694623D01*
X82082466Y18513662D01*
X82082465Y18513660D01*
X81989107Y18313452D01*
X81989104Y18313446D01*
X81931930Y18100071D01*
X81931929Y18100063D01*
X81912677Y17880003D01*
X81912677Y17879998D01*
X81931929Y17659938D01*
X81931930Y17659930D01*
X81989104Y17446555D01*
X81989105Y17446553D01*
X81989106Y17446550D01*
X81998911Y17425524D01*
X82082466Y17246338D01*
X82082468Y17246334D01*
X82209170Y17065385D01*
X82209174Y17065380D01*
X82365380Y16909174D01*
X82425723Y16866922D01*
X82469348Y16812346D01*
X82478600Y16765347D01*
X82478600Y1385400D01*
X82458915Y1318361D01*
X82406111Y1272606D01*
X82354600Y1261400D01*
X59213202Y1261400D01*
X59146163Y1281085D01*
X59100408Y1333889D01*
X59090464Y1403047D01*
X59100820Y1437805D01*
X59156655Y1557545D01*
X59196739Y1643504D01*
X59255635Y1863308D01*
X59275468Y2090000D01*
X59255635Y2316692D01*
X59210916Y2483585D01*
X59196741Y2536489D01*
X59196738Y2536498D01*
X59100568Y2742733D01*
X59100567Y2742735D01*
X58970045Y2929142D01*
X58809141Y3090046D01*
X58622734Y3220568D01*
X58622732Y3220569D01*
X58416497Y3316739D01*
X58416488Y3316742D01*
X58196697Y3375634D01*
X58196693Y3375635D01*
X58196692Y3375635D01*
X58196691Y3375636D01*
X58196686Y3375636D01*
X57970002Y3395468D01*
X57969998Y3395468D01*
X57743313Y3375636D01*
X57743302Y3375634D01*
X57523511Y3316742D01*
X57523502Y3316739D01*
X57317267Y3220569D01*
X57317265Y3220568D01*
X57130858Y3090046D01*
X56969954Y2929142D01*
X56839432Y2742735D01*
X56839431Y2742733D01*
X56743261Y2536498D01*
X56743258Y2536489D01*
X56684366Y2316698D01*
X56684364Y2316687D01*
X56664532Y2090002D01*
X56664532Y2089999D01*
X56684364Y1863314D01*
X56684366Y1863303D01*
X56743258Y1643512D01*
X56743260Y1643508D01*
X56743261Y1643504D01*
X56769355Y1587545D01*
X56839180Y1437805D01*
X56849672Y1368727D01*
X56821152Y1304943D01*
X56762676Y1266704D01*
X56726798Y1261400D01*
X51774500Y1261400D01*
X51707461Y1281085D01*
X51661706Y1333889D01*
X51650500Y1385400D01*
X51650499Y2454549D01*
X51670183Y2521588D01*
X51686813Y2542225D01*
X53572771Y4428181D01*
X53634094Y4461666D01*
X53660452Y4464500D01*
X59017257Y4464500D01*
X59032877Y4462776D01*
X59032904Y4463061D01*
X59040660Y4462329D01*
X59040667Y4462327D01*
X59109814Y4464500D01*
X59139350Y4464500D01*
X59146228Y4465370D01*
X59152041Y4465828D01*
X59198627Y4467291D01*
X59217869Y4472883D01*
X59236912Y4476826D01*
X59256792Y4479336D01*
X59300122Y4496493D01*
X59305646Y4498383D01*
X59309396Y4499473D01*
X59350390Y4511382D01*
X59367629Y4521578D01*
X59385103Y4530138D01*
X59403727Y4537512D01*
X59403727Y4537513D01*
X59403732Y4537514D01*
X59441449Y4564918D01*
X59446305Y4568108D01*
X59486420Y4591830D01*
X59500589Y4606001D01*
X59515379Y4618632D01*
X59531587Y4630406D01*
X59561299Y4666324D01*
X59565212Y4670624D01*
X60155988Y5261400D01*
X70744341Y5261400D01*
X70764936Y5025997D01*
X70764938Y5025987D01*
X70826094Y4797745D01*
X70826096Y4797741D01*
X70826097Y4797737D01*
X70915512Y4605987D01*
X70925965Y4583570D01*
X70925967Y4583566D01*
X71010860Y4462327D01*
X71061505Y4389999D01*
X71228599Y4222905D01*
X71325384Y4155135D01*
X71422165Y4087368D01*
X71422167Y4087367D01*
X71422170Y4087365D01*
X71636337Y3987497D01*
X71864592Y3926337D01*
X72052918Y3909861D01*
X72099999Y3905741D01*
X72100000Y3905741D01*
X72100001Y3905741D01*
X72139234Y3909174D01*
X72335408Y3926337D01*
X72563663Y3987497D01*
X72777830Y4087365D01*
X72971401Y4222905D01*
X73138495Y4389999D01*
X73274035Y4583570D01*
X73373903Y4797737D01*
X73435063Y5025992D01*
X73455659Y5261400D01*
X77244341Y5261400D01*
X77264936Y5025997D01*
X77264938Y5025987D01*
X77326094Y4797745D01*
X77326096Y4797741D01*
X77326097Y4797737D01*
X77415512Y4605987D01*
X77425965Y4583570D01*
X77425967Y4583566D01*
X77510860Y4462327D01*
X77561505Y4389999D01*
X77728599Y4222905D01*
X77825384Y4155135D01*
X77922165Y4087368D01*
X77922167Y4087367D01*
X77922170Y4087365D01*
X78136337Y3987497D01*
X78364592Y3926337D01*
X78552918Y3909861D01*
X78599999Y3905741D01*
X78600000Y3905741D01*
X78600001Y3905741D01*
X78639234Y3909174D01*
X78835408Y3926337D01*
X79063663Y3987497D01*
X79277830Y4087365D01*
X79471401Y4222905D01*
X79638495Y4389999D01*
X79774035Y4583570D01*
X79873903Y4797737D01*
X79935063Y5025992D01*
X79955659Y5261400D01*
X79935063Y5496808D01*
X79873903Y5725063D01*
X79774035Y5939229D01*
X79772006Y5942128D01*
X79638494Y6132803D01*
X79471402Y6299894D01*
X79471395Y6299899D01*
X79277834Y6435433D01*
X79277830Y6435435D01*
X79277828Y6435436D01*
X79063663Y6535303D01*
X79063659Y6535304D01*
X79063655Y6535306D01*
X78835413Y6596462D01*
X78835403Y6596464D01*
X78600001Y6617059D01*
X78599999Y6617059D01*
X78364596Y6596464D01*
X78364586Y6596462D01*
X78136344Y6535306D01*
X78136335Y6535302D01*
X77922171Y6435436D01*
X77922169Y6435435D01*
X77728597Y6299895D01*
X77561505Y6132803D01*
X77425965Y5939231D01*
X77425964Y5939229D01*
X77326098Y5725065D01*
X77326094Y5725056D01*
X77264938Y5496814D01*
X77264936Y5496804D01*
X77244341Y5261401D01*
X77244341Y5261400D01*
X73455659Y5261400D01*
X73435063Y5496808D01*
X73373903Y5725063D01*
X73274035Y5939229D01*
X73272006Y5942128D01*
X73138494Y6132803D01*
X72971402Y6299894D01*
X72971395Y6299899D01*
X72777834Y6435433D01*
X72777830Y6435435D01*
X72777828Y6435436D01*
X72563663Y6535303D01*
X72563659Y6535304D01*
X72563655Y6535306D01*
X72335413Y6596462D01*
X72335403Y6596464D01*
X72100001Y6617059D01*
X72099999Y6617059D01*
X71864596Y6596464D01*
X71864586Y6596462D01*
X71636344Y6535306D01*
X71636335Y6535302D01*
X71422171Y6435436D01*
X71422169Y6435435D01*
X71228597Y6299895D01*
X71061505Y6132803D01*
X70925965Y5939231D01*
X70925964Y5939229D01*
X70826098Y5725065D01*
X70826094Y5725056D01*
X70764938Y5496814D01*
X70764936Y5496804D01*
X70744341Y5261401D01*
X70744341Y5261400D01*
X60155988Y5261400D01*
X62733788Y7839199D01*
X62746042Y7849014D01*
X62745859Y7849236D01*
X62751866Y7854208D01*
X62751877Y7854214D01*
X62782775Y7887118D01*
X62799227Y7904636D01*
X62809671Y7915082D01*
X62820120Y7925529D01*
X62824379Y7931022D01*
X62828152Y7935439D01*
X62860062Y7969418D01*
X62869713Y7986976D01*
X62880396Y8003239D01*
X62892673Y8019064D01*
X62911185Y8061847D01*
X62913738Y8067059D01*
X62936197Y8107908D01*
X62941180Y8127320D01*
X62947481Y8145720D01*
X62955437Y8164104D01*
X62962729Y8210148D01*
X62963906Y8215829D01*
X62975500Y8260981D01*
X62975500Y8281017D01*
X62977027Y8300418D01*
X62980160Y8320196D01*
X62975775Y8366585D01*
X62975500Y8372423D01*
X62975500Y8863530D01*
X70749500Y8863530D01*
X70749501Y8863524D01*
X70755908Y8803917D01*
X70806202Y8669072D01*
X70806206Y8669065D01*
X70892452Y8553856D01*
X70892455Y8553853D01*
X71007664Y8467607D01*
X71007671Y8467603D01*
X71142517Y8417309D01*
X71142516Y8417309D01*
X71149444Y8416565D01*
X71202127Y8410900D01*
X72997872Y8410901D01*
X73057483Y8417309D01*
X73192331Y8467604D01*
X73307546Y8553854D01*
X73393796Y8669069D01*
X73444091Y8803917D01*
X73450500Y8863527D01*
X73450499Y9761400D01*
X77244341Y9761400D01*
X77264936Y9525997D01*
X77264938Y9525987D01*
X77326094Y9297745D01*
X77326096Y9297741D01*
X77326097Y9297737D01*
X77422966Y9090002D01*
X77425965Y9083570D01*
X77425967Y9083566D01*
X77534281Y8928879D01*
X77561505Y8889999D01*
X77728599Y8722905D01*
X77825384Y8655135D01*
X77922165Y8587368D01*
X77922167Y8587367D01*
X77922170Y8587365D01*
X78136337Y8487497D01*
X78364592Y8426337D01*
X78541034Y8410900D01*
X78599999Y8405741D01*
X78600000Y8405741D01*
X78600001Y8405741D01*
X78658966Y8410900D01*
X78835408Y8426337D01*
X79063663Y8487497D01*
X79277830Y8587365D01*
X79471401Y8722905D01*
X79638495Y8889999D01*
X79774035Y9083570D01*
X79873903Y9297737D01*
X79935063Y9525992D01*
X79955659Y9761400D01*
X79935063Y9996808D01*
X79888626Y10170115D01*
X79873905Y10225056D01*
X79873904Y10225057D01*
X79873903Y10225063D01*
X79774035Y10439229D01*
X79757399Y10462989D01*
X79638494Y10632803D01*
X79471402Y10799894D01*
X79471395Y10799899D01*
X79277834Y10935433D01*
X79277830Y10935435D01*
X79277828Y10935436D01*
X79063663Y11035303D01*
X79063659Y11035304D01*
X79063655Y11035306D01*
X78835413Y11096462D01*
X78835403Y11096464D01*
X78600001Y11117059D01*
X78599999Y11117059D01*
X78364596Y11096464D01*
X78364586Y11096462D01*
X78136344Y11035306D01*
X78136335Y11035302D01*
X77922171Y10935436D01*
X77922169Y10935435D01*
X77728597Y10799895D01*
X77561505Y10632803D01*
X77425965Y10439231D01*
X77425964Y10439229D01*
X77326098Y10225065D01*
X77326094Y10225056D01*
X77264938Y9996814D01*
X77264936Y9996804D01*
X77244341Y9761401D01*
X77244341Y9761400D01*
X73450499Y9761400D01*
X73450499Y10659272D01*
X73444091Y10718883D01*
X73418812Y10786659D01*
X73393797Y10853729D01*
X73393793Y10853736D01*
X73307547Y10968945D01*
X73307544Y10968948D01*
X73192335Y11055194D01*
X73192328Y11055198D01*
X73057482Y11105492D01*
X73057483Y11105492D01*
X72997883Y11111899D01*
X72997881Y11111900D01*
X72997873Y11111900D01*
X72997864Y11111900D01*
X71202129Y11111900D01*
X71202123Y11111899D01*
X71142516Y11105492D01*
X71007671Y11055198D01*
X71007664Y11055194D01*
X70892455Y10968948D01*
X70892452Y10968945D01*
X70806206Y10853736D01*
X70806202Y10853729D01*
X70755908Y10718883D01*
X70749501Y10659284D01*
X70749501Y10659277D01*
X70749500Y10659265D01*
X70749500Y8863530D01*
X62975500Y8863530D01*
X62975500Y24659549D01*
X62995185Y24726588D01*
X63011814Y24747225D01*
X66488985Y28224397D01*
X66550306Y28257880D01*
X66619998Y28252896D01*
X66675931Y28211024D01*
X66700348Y28145560D01*
X66700192Y28125908D01*
X66692677Y28040004D01*
X66692677Y28039998D01*
X66711929Y27819938D01*
X66711930Y27819930D01*
X66769104Y27606555D01*
X66769105Y27606553D01*
X66769106Y27606550D01*
X66862466Y27406338D01*
X66862468Y27406334D01*
X66989170Y27225385D01*
X66989175Y27225379D01*
X67145378Y27069176D01*
X67145384Y27069171D01*
X67326333Y26942469D01*
X67326335Y26942468D01*
X67326338Y26942466D01*
X67445748Y26886785D01*
X67455189Y26882382D01*
X67507628Y26836210D01*
X67526780Y26769016D01*
X67506564Y26702135D01*
X67455189Y26657618D01*
X67326340Y26597535D01*
X67326338Y26597534D01*
X67145377Y26470825D01*
X66989175Y26314623D01*
X66862466Y26133662D01*
X66862465Y26133660D01*
X66769107Y25933452D01*
X66769104Y25933446D01*
X66711930Y25720071D01*
X66711929Y25720063D01*
X66692677Y25500003D01*
X66692677Y25499998D01*
X66711929Y25279938D01*
X66711930Y25279930D01*
X66769104Y25066555D01*
X66769105Y25066553D01*
X66769106Y25066550D01*
X66791173Y25019227D01*
X66862466Y24866338D01*
X66862468Y24866334D01*
X66989170Y24685385D01*
X66989175Y24685379D01*
X67145378Y24529176D01*
X67145384Y24529171D01*
X67326333Y24402469D01*
X67326335Y24402468D01*
X67326338Y24402466D01*
X67414960Y24361141D01*
X67455189Y24342382D01*
X67507628Y24296210D01*
X67526780Y24229016D01*
X67506564Y24162135D01*
X67455189Y24117618D01*
X67326340Y24057535D01*
X67326338Y24057534D01*
X67145377Y23930825D01*
X66989175Y23774623D01*
X66862466Y23593662D01*
X66862465Y23593660D01*
X66769107Y23393452D01*
X66769104Y23393446D01*
X66711930Y23180071D01*
X66711929Y23180063D01*
X66692677Y22960003D01*
X66692677Y22959998D01*
X66711929Y22739938D01*
X66711930Y22739930D01*
X66769104Y22526555D01*
X66769105Y22526553D01*
X66769106Y22526550D01*
X66819265Y22418983D01*
X66862466Y22326338D01*
X66862468Y22326334D01*
X66989170Y22145385D01*
X66989175Y22145379D01*
X67145378Y21989176D01*
X67145384Y21989171D01*
X67326333Y21862469D01*
X67326335Y21862468D01*
X67326338Y21862466D01*
X67414960Y21821141D01*
X67455189Y21802382D01*
X67507628Y21756210D01*
X67526780Y21689016D01*
X67506564Y21622135D01*
X67455189Y21577618D01*
X67326340Y21517535D01*
X67326338Y21517534D01*
X67145377Y21390825D01*
X66989175Y21234623D01*
X66862466Y21053662D01*
X66862465Y21053660D01*
X66769107Y20853452D01*
X66769104Y20853446D01*
X66711930Y20640071D01*
X66711929Y20640063D01*
X66692677Y20420003D01*
X66692677Y20419998D01*
X66711929Y20199938D01*
X66711930Y20199930D01*
X66769104Y19986555D01*
X66769105Y19986553D01*
X66769106Y19986550D01*
X66793318Y19934627D01*
X66862466Y19786338D01*
X66862468Y19786334D01*
X66989170Y19605385D01*
X66989175Y19605379D01*
X67145378Y19449176D01*
X67145384Y19449171D01*
X67326333Y19322469D01*
X67326335Y19322468D01*
X67326338Y19322466D01*
X67445748Y19266785D01*
X67455189Y19262382D01*
X67507628Y19216210D01*
X67526780Y19149016D01*
X67506564Y19082135D01*
X67455189Y19037618D01*
X67326340Y18977535D01*
X67326338Y18977534D01*
X67145377Y18850825D01*
X66989175Y18694623D01*
X66862466Y18513662D01*
X66862465Y18513660D01*
X66769107Y18313452D01*
X66769104Y18313446D01*
X66711930Y18100071D01*
X66711929Y18100063D01*
X66692677Y17880003D01*
X66692677Y17879998D01*
X66711929Y17659938D01*
X66711930Y17659930D01*
X66769104Y17446555D01*
X66769105Y17446553D01*
X66769106Y17446550D01*
X66778911Y17425524D01*
X66862466Y17246338D01*
X66862468Y17246334D01*
X66989170Y17065385D01*
X66989175Y17065379D01*
X67145378Y16909176D01*
X67145384Y16909171D01*
X67326333Y16782469D01*
X67326335Y16782468D01*
X67326338Y16782466D01*
X67526550Y16689106D01*
X67739932Y16631930D01*
X67897123Y16618178D01*
X67959998Y16612677D01*
X67960000Y16612677D01*
X67960002Y16612677D01*
X68015017Y16617491D01*
X68180068Y16631930D01*
X68393450Y16689106D01*
X68593662Y16782466D01*
X68774620Y16909174D01*
X68930826Y17065380D01*
X69057534Y17246338D01*
X69150894Y17446550D01*
X69208070Y17659932D01*
X69226851Y17874605D01*
X69227323Y17879998D01*
X69227323Y17880003D01*
X69219148Y17973442D01*
X69208070Y18100068D01*
X69150894Y18313450D01*
X69057534Y18513661D01*
X68930826Y18694620D01*
X68774620Y18850826D01*
X68774616Y18850829D01*
X68774615Y18850830D01*
X68593666Y18977532D01*
X68593658Y18977536D01*
X68464811Y19037618D01*
X68412371Y19083790D01*
X68393219Y19150983D01*
X68413435Y19217865D01*
X68464811Y19262382D01*
X68470802Y19265176D01*
X68593662Y19322466D01*
X68774620Y19449174D01*
X68930826Y19605380D01*
X69057534Y19786338D01*
X69150894Y19986550D01*
X69208070Y20199932D01*
X69227323Y20420000D01*
X69226871Y20425161D01*
X69208070Y20640063D01*
X69208070Y20640068D01*
X69150894Y20853450D01*
X69057534Y21053661D01*
X68930826Y21234620D01*
X68774620Y21390826D01*
X68774616Y21390829D01*
X68774615Y21390830D01*
X68593666Y21517532D01*
X68593658Y21517536D01*
X68464811Y21577618D01*
X68412371Y21623790D01*
X68393219Y21690983D01*
X68413435Y21757865D01*
X68464811Y21802382D01*
X68502893Y21820140D01*
X68593662Y21862466D01*
X68774620Y21989174D01*
X68930826Y22145380D01*
X69057534Y22326338D01*
X69150894Y22526550D01*
X69208070Y22739932D01*
X69227323Y22960000D01*
X69225644Y22979186D01*
X69216290Y23086111D01*
X69208070Y23180068D01*
X69150894Y23393450D01*
X69057534Y23593661D01*
X68972222Y23715500D01*
X68930827Y23774619D01*
X68856606Y23848840D01*
X68774620Y23930826D01*
X68774616Y23930829D01*
X68774615Y23930830D01*
X68593666Y24057532D01*
X68593658Y24057536D01*
X68464811Y24117618D01*
X68412371Y24163790D01*
X68393219Y24230983D01*
X68413435Y24297865D01*
X68464811Y24342382D01*
X68470802Y24345176D01*
X68593662Y24402466D01*
X68774620Y24529174D01*
X68930826Y24685380D01*
X69057534Y24866338D01*
X69150894Y25066550D01*
X69208070Y25279932D01*
X69223922Y25461122D01*
X69227323Y25499998D01*
X69227323Y25500003D01*
X69208070Y25720063D01*
X69208070Y25720068D01*
X69150894Y25933450D01*
X69057534Y26133661D01*
X68930826Y26314620D01*
X68774620Y26470826D01*
X68774616Y26470829D01*
X68774615Y26470830D01*
X68593666Y26597532D01*
X68593658Y26597536D01*
X68464811Y26657618D01*
X68412371Y26703790D01*
X68393219Y26770983D01*
X68413435Y26837865D01*
X68464811Y26882382D01*
X68470802Y26885176D01*
X68593662Y26942466D01*
X68774620Y27069174D01*
X68930826Y27225380D01*
X69057534Y27406338D01*
X69150894Y27606550D01*
X69208070Y27819932D01*
X69227323Y28040000D01*
X69208070Y28260068D01*
X69150894Y28473450D01*
X69057534Y28673661D01*
X68930826Y28854620D01*
X68774620Y29010826D01*
X68774616Y29010829D01*
X68774615Y29010830D01*
X68593666Y29137532D01*
X68593658Y29137536D01*
X68464811Y29197618D01*
X68412371Y29243790D01*
X68393219Y29310983D01*
X68413435Y29377865D01*
X68464811Y29422382D01*
X68470802Y29425176D01*
X68593662Y29482466D01*
X68774620Y29609174D01*
X68930826Y29765380D01*
X69057534Y29946338D01*
X69150894Y30146550D01*
X69208070Y30359932D01*
X69227323Y30580000D01*
X69208070Y30800068D01*
X69150894Y31013450D01*
X69057534Y31213661D01*
X68930826Y31394620D01*
X68774620Y31550826D01*
X68774616Y31550829D01*
X68774615Y31550830D01*
X68593666Y31677532D01*
X68593658Y31677536D01*
X68464811Y31737618D01*
X68412371Y31783790D01*
X68393219Y31850983D01*
X68413435Y31917865D01*
X68464811Y31962382D01*
X68470802Y31965176D01*
X68593662Y32022466D01*
X68774620Y32149174D01*
X68930826Y32305380D01*
X69057534Y32486338D01*
X69150894Y32686550D01*
X69208070Y32899932D01*
X69227323Y33120000D01*
X69208070Y33340068D01*
X69150894Y33553450D01*
X69057534Y33753661D01*
X68930826Y33934620D01*
X68774620Y34090826D01*
X68774616Y34090829D01*
X68774615Y34090830D01*
X68593666Y34217532D01*
X68593658Y34217536D01*
X68464811Y34277618D01*
X68412371Y34323790D01*
X68393219Y34390983D01*
X68413435Y34457865D01*
X68464811Y34502382D01*
X68470802Y34505176D01*
X68593662Y34562466D01*
X68774620Y34689174D01*
X68930826Y34845380D01*
X69057534Y35026338D01*
X69150894Y35226550D01*
X69208070Y35439932D01*
X69227323Y35660000D01*
X69208070Y35880068D01*
X69150894Y36093450D01*
X69057534Y36293661D01*
X68930826Y36474620D01*
X68774620Y36630826D01*
X68774616Y36630829D01*
X68774615Y36630830D01*
X68593666Y36757532D01*
X68593658Y36757536D01*
X68464811Y36817618D01*
X68412371Y36863790D01*
X68393219Y36930983D01*
X68413435Y36997865D01*
X68464811Y37042382D01*
X68470802Y37045176D01*
X68593662Y37102466D01*
X68774620Y37229174D01*
X68930826Y37385380D01*
X69057534Y37566338D01*
X69150894Y37766550D01*
X69208070Y37979932D01*
X69227323Y38200000D01*
X69226267Y38212065D01*
X69215396Y38336329D01*
X69208070Y38420068D01*
X69150894Y38633450D01*
X69057534Y38833661D01*
X68930826Y39014620D01*
X68774620Y39170826D01*
X68774616Y39170829D01*
X68774615Y39170830D01*
X68593666Y39297532D01*
X68593658Y39297536D01*
X68464811Y39357618D01*
X68412371Y39403790D01*
X68393219Y39470983D01*
X68413435Y39537865D01*
X68464811Y39582382D01*
X68470802Y39585176D01*
X68593662Y39642466D01*
X68774620Y39769174D01*
X68930826Y39925380D01*
X69057534Y40106338D01*
X69150894Y40306550D01*
X69208070Y40519932D01*
X69227323Y40740000D01*
X69208070Y40960068D01*
X69150894Y41173450D01*
X69057534Y41373661D01*
X68930826Y41554620D01*
X68774620Y41710826D01*
X68774616Y41710829D01*
X68774615Y41710830D01*
X68593666Y41837532D01*
X68593658Y41837536D01*
X68464811Y41897618D01*
X68412371Y41943790D01*
X68393219Y42010983D01*
X68413435Y42077865D01*
X68464811Y42122382D01*
X68470802Y42125176D01*
X68593662Y42182466D01*
X68774620Y42309174D01*
X68930826Y42465380D01*
X69057534Y42646338D01*
X69150894Y42846550D01*
X69208070Y43059932D01*
X69227323Y43280000D01*
X69208070Y43500068D01*
X69150894Y43713450D01*
X69057534Y43913661D01*
X68930826Y44094620D01*
X68774620Y44250826D01*
X68774616Y44250829D01*
X68774615Y44250830D01*
X68593666Y44377532D01*
X68593658Y44377536D01*
X68464811Y44437618D01*
X68412371Y44483790D01*
X68393219Y44550983D01*
X68413435Y44617865D01*
X68464811Y44662382D01*
X68470802Y44665176D01*
X68593662Y44722466D01*
X68774620Y44849174D01*
X68930826Y45005380D01*
X69057534Y45186338D01*
X69150894Y45386550D01*
X69208070Y45599932D01*
X69227323Y45820000D01*
X69225607Y45839610D01*
X69214833Y45962767D01*
X69208070Y46040068D01*
X69150894Y46253450D01*
X69057534Y46453661D01*
X68930826Y46634620D01*
X68774620Y46790826D01*
X68774616Y46790829D01*
X68774615Y46790830D01*
X68593666Y46917532D01*
X68593662Y46917534D01*
X68556948Y46934654D01*
X68393450Y47010894D01*
X68393447Y47010895D01*
X68393445Y47010896D01*
X68180070Y47068070D01*
X68180062Y47068071D01*
X67960002Y47087323D01*
X67959998Y47087323D01*
X67739937Y47068071D01*
X67739929Y47068070D01*
X67526554Y47010896D01*
X67526548Y47010893D01*
X67326340Y46917535D01*
X67326338Y46917534D01*
X67145377Y46790825D01*
X66989175Y46634623D01*
X66862466Y46453662D01*
X66862465Y46453660D01*
X66769107Y46253452D01*
X66769104Y46253446D01*
X66711930Y46040071D01*
X66711929Y46040063D01*
X66692677Y45820003D01*
X66692677Y45819998D01*
X66711929Y45599938D01*
X66711930Y45599930D01*
X66769104Y45386555D01*
X66769105Y45386553D01*
X66769106Y45386550D01*
X66862466Y45186338D01*
X66862468Y45186334D01*
X66989170Y45005385D01*
X66989175Y45005379D01*
X67145378Y44849176D01*
X67145384Y44849171D01*
X67326333Y44722469D01*
X67326335Y44722468D01*
X67326338Y44722466D01*
X67445748Y44666785D01*
X67455189Y44662382D01*
X67507628Y44616210D01*
X67526780Y44549016D01*
X67506564Y44482135D01*
X67455189Y44437618D01*
X67326340Y44377535D01*
X67326338Y44377534D01*
X67145377Y44250825D01*
X66989175Y44094623D01*
X66862466Y43913662D01*
X66862465Y43913660D01*
X66769107Y43713452D01*
X66769104Y43713446D01*
X66711930Y43500071D01*
X66711929Y43500063D01*
X66692677Y43280003D01*
X66692677Y43279998D01*
X66711929Y43059938D01*
X66711930Y43059930D01*
X66769104Y42846555D01*
X66769105Y42846553D01*
X66769106Y42846550D01*
X66862466Y42646338D01*
X66862468Y42646334D01*
X66989170Y42465385D01*
X66989175Y42465379D01*
X67145378Y42309176D01*
X67145384Y42309171D01*
X67326333Y42182469D01*
X67326335Y42182468D01*
X67326338Y42182466D01*
X67445748Y42126785D01*
X67455189Y42122382D01*
X67507628Y42076210D01*
X67526780Y42009016D01*
X67506564Y41942135D01*
X67455189Y41897618D01*
X67326340Y41837535D01*
X67326338Y41837534D01*
X67145377Y41710825D01*
X66989175Y41554623D01*
X66862466Y41373662D01*
X66862465Y41373660D01*
X66769107Y41173452D01*
X66769104Y41173446D01*
X66711930Y40960071D01*
X66711929Y40960063D01*
X66692677Y40740003D01*
X66692677Y40739998D01*
X66711929Y40519938D01*
X66711930Y40519930D01*
X66769104Y40306555D01*
X66769105Y40306553D01*
X66769106Y40306550D01*
X66862466Y40106338D01*
X66862468Y40106334D01*
X66989170Y39925385D01*
X66989175Y39925379D01*
X67145378Y39769176D01*
X67145384Y39769171D01*
X67326333Y39642469D01*
X67326335Y39642468D01*
X67326338Y39642466D01*
X67445748Y39586785D01*
X67455189Y39582382D01*
X67507628Y39536210D01*
X67526780Y39469016D01*
X67506564Y39402135D01*
X67455189Y39357618D01*
X67326340Y39297535D01*
X67326338Y39297534D01*
X67145377Y39170825D01*
X66989175Y39014623D01*
X66862466Y38833662D01*
X66862465Y38833660D01*
X66769107Y38633452D01*
X66769104Y38633446D01*
X66711930Y38420071D01*
X66711929Y38420063D01*
X66692677Y38200003D01*
X66692677Y38199998D01*
X66711929Y37979938D01*
X66711930Y37979930D01*
X66769104Y37766555D01*
X66769105Y37766553D01*
X66769106Y37766550D01*
X66804596Y37690442D01*
X66862466Y37566338D01*
X66862468Y37566334D01*
X66989170Y37385385D01*
X66989175Y37385379D01*
X67145378Y37229176D01*
X67145384Y37229171D01*
X67326333Y37102469D01*
X67326335Y37102468D01*
X67326338Y37102466D01*
X67445748Y37046785D01*
X67455189Y37042382D01*
X67507628Y36996210D01*
X67526780Y36929016D01*
X67506564Y36862135D01*
X67455189Y36817618D01*
X67326340Y36757535D01*
X67326338Y36757534D01*
X67145377Y36630825D01*
X66989175Y36474623D01*
X66893776Y36338377D01*
X66839199Y36294752D01*
X66792201Y36285500D01*
X61090453Y36285500D01*
X61023414Y36305185D01*
X61002772Y36321819D01*
X54503543Y42821048D01*
X54470058Y42882371D01*
X54475042Y42952063D01*
X54516914Y43007996D01*
X54582378Y43032413D01*
X54600943Y43032348D01*
X54700000Y43024551D01*
X54951148Y43044317D01*
X55196111Y43103127D01*
X55428859Y43199534D01*
X55643659Y43331164D01*
X55835224Y43494776D01*
X55998836Y43686341D01*
X56130466Y43901141D01*
X56226873Y44133889D01*
X56285683Y44378852D01*
X56305449Y44630000D01*
X56285683Y44881148D01*
X56226873Y45126111D01*
X56130466Y45358859D01*
X56130466Y45358860D01*
X55998839Y45573654D01*
X55998838Y45573657D01*
X55926448Y45658414D01*
X55835224Y45765224D01*
X55692452Y45887163D01*
X55643656Y45928839D01*
X55643653Y45928840D01*
X55428859Y46060467D01*
X55196110Y46156874D01*
X54951151Y46215683D01*
X54700000Y46235449D01*
X54448848Y46215683D01*
X54203889Y46156874D01*
X53971140Y46060467D01*
X53756346Y45928840D01*
X53756343Y45928839D01*
X53564776Y45765224D01*
X53401161Y45573657D01*
X53401160Y45573654D01*
X53269533Y45358860D01*
X53173126Y45126111D01*
X53114317Y44881152D01*
X53094551Y44630000D01*
X53102346Y44530954D01*
X53087982Y44462576D01*
X53038930Y44412820D01*
X52970765Y44397481D01*
X52905128Y44421430D01*
X52891047Y44433544D01*
X51011819Y46312772D01*
X50978334Y46374095D01*
X50975500Y46400453D01*
X50975500Y48665501D01*
X50995185Y48732540D01*
X51047989Y48778295D01*
X51099500Y48789501D01*
X51197871Y48789501D01*
X51197872Y48789501D01*
X51257483Y48795909D01*
X51392331Y48846204D01*
X51507546Y48932454D01*
X51593796Y49047669D01*
X51644091Y49182517D01*
X51650500Y49242127D01*
X51650499Y50637401D01*
X51670184Y50704439D01*
X51722987Y50750194D01*
X51774499Y50761400D01*
X56653495Y50761400D01*
X56720534Y50741715D01*
G37*
%TD.AperFunction*%
%TA.AperFunction,NonConductor*%
G36*
X47856587Y3694815D02*
G01*
X47877229Y3678181D01*
X49013181Y2542229D01*
X49046666Y2480906D01*
X49049500Y2454549D01*
X49049500Y1876336D01*
X49049501Y1385400D01*
X49029817Y1318361D01*
X48977013Y1272606D01*
X48925501Y1261400D01*
X47980553Y1261400D01*
X47913514Y1281085D01*
X47867759Y1333889D01*
X47857815Y1403047D01*
X47885566Y1465109D01*
X47888488Y1468593D01*
X47888495Y1468599D01*
X48024035Y1662170D01*
X48123903Y1876337D01*
X48185063Y2104592D01*
X48205659Y2340000D01*
X48185063Y2575408D01*
X48123903Y2803663D01*
X48024035Y3017829D01*
X47973469Y3090046D01*
X47888494Y3211403D01*
X47721402Y3378494D01*
X47721396Y3378499D01*
X47563691Y3488925D01*
X47520066Y3543502D01*
X47512872Y3613000D01*
X47544395Y3675355D01*
X47604625Y3710769D01*
X47634814Y3714500D01*
X47789548Y3714500D01*
X47856587Y3694815D01*
G37*
%TD.AperFunction*%
%TA.AperFunction,NonConductor*%
G36*
X46132226Y3694815D02*
G01*
X46177981Y3642011D01*
X46187925Y3572853D01*
X46158900Y3509297D01*
X46136310Y3488925D01*
X45978596Y3378494D01*
X45811505Y3211403D01*
X45675965Y3017831D01*
X45675964Y3017829D01*
X45576098Y2803665D01*
X45576094Y2803656D01*
X45514938Y2575414D01*
X45514936Y2575404D01*
X45494341Y2340001D01*
X45494341Y2340000D01*
X45514936Y2104597D01*
X45514938Y2104587D01*
X45576094Y1876345D01*
X45576096Y1876341D01*
X45576097Y1876337D01*
X45648823Y1720377D01*
X45675965Y1662170D01*
X45675967Y1662166D01*
X45811500Y1468605D01*
X45814434Y1465109D01*
X45842449Y1401102D01*
X45831412Y1332109D01*
X45784827Y1280036D01*
X45719447Y1261400D01*
X41480553Y1261400D01*
X41413514Y1281085D01*
X41367759Y1333889D01*
X41357815Y1403047D01*
X41385566Y1465109D01*
X41388488Y1468593D01*
X41388495Y1468599D01*
X41524035Y1662170D01*
X41623903Y1876337D01*
X41685063Y2104592D01*
X41705659Y2340000D01*
X41685063Y2575408D01*
X41623903Y2803663D01*
X41524035Y3017829D01*
X41473469Y3090046D01*
X41388494Y3211403D01*
X41221402Y3378494D01*
X41221396Y3378499D01*
X41063691Y3488925D01*
X41020066Y3543502D01*
X41012872Y3613000D01*
X41044395Y3675355D01*
X41104625Y3710769D01*
X41134814Y3714500D01*
X46065187Y3714500D01*
X46132226Y3694815D01*
G37*
%TD.AperFunction*%
%TA.AperFunction,NonConductor*%
G36*
X39632226Y3694815D02*
G01*
X39677981Y3642011D01*
X39687925Y3572853D01*
X39658900Y3509297D01*
X39636310Y3488925D01*
X39478596Y3378494D01*
X39311505Y3211403D01*
X39175965Y3017831D01*
X39175964Y3017829D01*
X39076098Y2803665D01*
X39076094Y2803656D01*
X39014938Y2575414D01*
X39014936Y2575404D01*
X38994341Y2340001D01*
X38994341Y2340000D01*
X39014936Y2104597D01*
X39014938Y2104587D01*
X39076094Y1876345D01*
X39076096Y1876341D01*
X39076097Y1876337D01*
X39148823Y1720377D01*
X39175965Y1662170D01*
X39175967Y1662166D01*
X39311500Y1468605D01*
X39314434Y1465109D01*
X39342449Y1401102D01*
X39331412Y1332109D01*
X39284827Y1280036D01*
X39219447Y1261400D01*
X26480553Y1261400D01*
X26413514Y1281085D01*
X26367759Y1333889D01*
X26357815Y1403047D01*
X26385566Y1465109D01*
X26388488Y1468593D01*
X26388495Y1468599D01*
X26524035Y1662170D01*
X26623903Y1876337D01*
X26685063Y2104592D01*
X26705659Y2340000D01*
X26685063Y2575408D01*
X26623903Y2803663D01*
X26524035Y3017829D01*
X26473469Y3090046D01*
X26388494Y3211403D01*
X26221402Y3378494D01*
X26221396Y3378499D01*
X26063691Y3488925D01*
X26020066Y3543502D01*
X26012872Y3613000D01*
X26044395Y3675355D01*
X26104625Y3710769D01*
X26134814Y3714500D01*
X39565187Y3714500D01*
X39632226Y3694815D01*
G37*
%TD.AperFunction*%
%TA.AperFunction,NonConductor*%
G36*
X24632226Y3694815D02*
G01*
X24677981Y3642011D01*
X24687925Y3572853D01*
X24658900Y3509297D01*
X24636310Y3488925D01*
X24478596Y3378494D01*
X24311505Y3211403D01*
X24175965Y3017831D01*
X24175964Y3017829D01*
X24076098Y2803665D01*
X24076094Y2803656D01*
X24014938Y2575414D01*
X24014936Y2575404D01*
X23994341Y2340001D01*
X23994341Y2340000D01*
X24014936Y2104597D01*
X24014938Y2104587D01*
X24076094Y1876345D01*
X24076096Y1876341D01*
X24076097Y1876337D01*
X24148823Y1720377D01*
X24175965Y1662170D01*
X24175967Y1662166D01*
X24311500Y1468605D01*
X24314434Y1465109D01*
X24342449Y1401102D01*
X24331412Y1332109D01*
X24284827Y1280036D01*
X24219447Y1261400D01*
X19980553Y1261400D01*
X19913514Y1281085D01*
X19867759Y1333889D01*
X19857815Y1403047D01*
X19885566Y1465109D01*
X19888488Y1468593D01*
X19888495Y1468599D01*
X20024035Y1662170D01*
X20123903Y1876337D01*
X20185063Y2104592D01*
X20205659Y2340000D01*
X20185063Y2575408D01*
X20123903Y2803663D01*
X20024035Y3017829D01*
X19973469Y3090046D01*
X19888494Y3211403D01*
X19721402Y3378494D01*
X19721396Y3378499D01*
X19563691Y3488925D01*
X19520066Y3543502D01*
X19512872Y3613000D01*
X19544395Y3675355D01*
X19604625Y3710769D01*
X19634814Y3714500D01*
X24565187Y3714500D01*
X24632226Y3694815D01*
G37*
%TD.AperFunction*%
%TA.AperFunction,NonConductor*%
G36*
X18132226Y3694815D02*
G01*
X18177981Y3642011D01*
X18187925Y3572853D01*
X18158900Y3509297D01*
X18136310Y3488925D01*
X17978596Y3378494D01*
X17811505Y3211403D01*
X17675965Y3017831D01*
X17675964Y3017829D01*
X17576098Y2803665D01*
X17576094Y2803656D01*
X17514938Y2575414D01*
X17514936Y2575404D01*
X17494341Y2340001D01*
X17494341Y2340000D01*
X17514936Y2104597D01*
X17514938Y2104587D01*
X17576094Y1876345D01*
X17576096Y1876341D01*
X17576097Y1876337D01*
X17648823Y1720377D01*
X17675965Y1662170D01*
X17675967Y1662166D01*
X17811500Y1468605D01*
X17814434Y1465109D01*
X17842449Y1401102D01*
X17831412Y1332109D01*
X17784827Y1280036D01*
X17719447Y1261400D01*
X16713202Y1261400D01*
X16646163Y1281085D01*
X16600408Y1333889D01*
X16590464Y1403047D01*
X16600820Y1437805D01*
X16656655Y1557545D01*
X16696739Y1643504D01*
X16755635Y1863308D01*
X16775468Y2090000D01*
X16755635Y2316692D01*
X16710916Y2483585D01*
X16696741Y2536489D01*
X16696738Y2536498D01*
X16600568Y2742733D01*
X16600567Y2742735D01*
X16470045Y2929142D01*
X16309141Y3090046D01*
X16122734Y3220568D01*
X16122732Y3220569D01*
X15916497Y3316739D01*
X15916488Y3316742D01*
X15696697Y3375634D01*
X15696693Y3375635D01*
X15696692Y3375635D01*
X15696691Y3375636D01*
X15696686Y3375636D01*
X15470002Y3395468D01*
X15469998Y3395468D01*
X15243313Y3375636D01*
X15243302Y3375634D01*
X15023511Y3316742D01*
X15023502Y3316739D01*
X14817267Y3220569D01*
X14817265Y3220568D01*
X14630858Y3090046D01*
X14469954Y2929142D01*
X14339432Y2742735D01*
X14339431Y2742733D01*
X14243261Y2536498D01*
X14243258Y2536489D01*
X14184366Y2316698D01*
X14184364Y2316687D01*
X14164532Y2090002D01*
X14164532Y2089999D01*
X14184364Y1863314D01*
X14184366Y1863303D01*
X14243258Y1643512D01*
X14243260Y1643508D01*
X14243261Y1643504D01*
X14269355Y1587545D01*
X14339180Y1437805D01*
X14349672Y1368727D01*
X14321152Y1304943D01*
X14262676Y1266704D01*
X14226798Y1261400D01*
X9274500Y1261400D01*
X9207461Y1281085D01*
X9161706Y1333889D01*
X9150500Y1385400D01*
X9150499Y2454549D01*
X9170183Y2521588D01*
X9186813Y2542225D01*
X10322771Y3678181D01*
X10384094Y3711666D01*
X10410452Y3714500D01*
X18065187Y3714500D01*
X18132226Y3694815D01*
G37*
%TD.AperFunction*%
%TA.AperFunction,NonConductor*%
G36*
X6492539Y50741715D02*
G01*
X6538294Y50688911D01*
X6549500Y50637400D01*
X6549500Y49242130D01*
X6549501Y49242124D01*
X6555908Y49182517D01*
X6606202Y49047672D01*
X6606206Y49047665D01*
X6692452Y48932456D01*
X6692455Y48932453D01*
X6807664Y48846207D01*
X6807671Y48846203D01*
X6942517Y48795909D01*
X6942516Y48795909D01*
X6949444Y48795165D01*
X7002127Y48789500D01*
X8214546Y48789501D01*
X8281585Y48769816D01*
X8302227Y48753182D01*
X9177797Y47877612D01*
X9187622Y47865349D01*
X9187843Y47865531D01*
X9192814Y47859522D01*
X9213643Y47839963D01*
X9243235Y47812174D01*
X9264129Y47791280D01*
X9269611Y47787027D01*
X9274043Y47783243D01*
X9308018Y47751338D01*
X9325576Y47741686D01*
X9341833Y47731007D01*
X9357664Y47718727D01*
X9377337Y47710214D01*
X9400433Y47700218D01*
X9405677Y47697650D01*
X9446508Y47675203D01*
X9459123Y47671965D01*
X9465905Y47670223D01*
X9484319Y47663919D01*
X9502704Y47655962D01*
X9548757Y47648668D01*
X9554426Y47647494D01*
X9599581Y47635900D01*
X9619616Y47635900D01*
X9639013Y47634374D01*
X9658796Y47631240D01*
X9705184Y47635625D01*
X9711022Y47635900D01*
X26938657Y47635900D01*
X26954277Y47634176D01*
X26954304Y47634461D01*
X26962060Y47633729D01*
X26962067Y47633727D01*
X27031214Y47635900D01*
X27060750Y47635900D01*
X27067628Y47636770D01*
X27073441Y47637228D01*
X27120027Y47638691D01*
X27139269Y47644283D01*
X27158312Y47648226D01*
X27178192Y47650736D01*
X27221522Y47667893D01*
X27227046Y47669783D01*
X27230796Y47670873D01*
X27271790Y47682782D01*
X27289029Y47692978D01*
X27306503Y47701538D01*
X27325127Y47708912D01*
X27325127Y47708913D01*
X27325132Y47708914D01*
X27362849Y47736318D01*
X27367705Y47739508D01*
X27407820Y47763230D01*
X27421989Y47777401D01*
X27436779Y47790032D01*
X27452987Y47801806D01*
X27482699Y47837724D01*
X27486612Y47842024D01*
X28397771Y48753182D01*
X28459094Y48786667D01*
X28485452Y48789501D01*
X29214546Y48789501D01*
X29281585Y48769816D01*
X29302227Y48753182D01*
X30177797Y47877612D01*
X30187622Y47865349D01*
X30187843Y47865531D01*
X30192814Y47859522D01*
X30213643Y47839963D01*
X30243235Y47812174D01*
X30264129Y47791280D01*
X30269611Y47787027D01*
X30274043Y47783243D01*
X30308018Y47751338D01*
X30325576Y47741686D01*
X30341833Y47731007D01*
X30357664Y47718727D01*
X30377337Y47710214D01*
X30400433Y47700218D01*
X30405677Y47697650D01*
X30446508Y47675203D01*
X30459123Y47671965D01*
X30465905Y47670223D01*
X30484319Y47663919D01*
X30502704Y47655962D01*
X30548757Y47648668D01*
X30554426Y47647494D01*
X30599581Y47635900D01*
X30619616Y47635900D01*
X30639013Y47634374D01*
X30658796Y47631240D01*
X30705184Y47635625D01*
X30711022Y47635900D01*
X48438657Y47635900D01*
X48454277Y47634176D01*
X48454304Y47634461D01*
X48462060Y47633729D01*
X48462067Y47633727D01*
X48531214Y47635900D01*
X48560750Y47635900D01*
X48567628Y47636770D01*
X48573441Y47637228D01*
X48620027Y47638691D01*
X48639269Y47644283D01*
X48658312Y47648226D01*
X48678192Y47650736D01*
X48721522Y47667893D01*
X48727046Y47669783D01*
X48730796Y47670873D01*
X48771790Y47682782D01*
X48789029Y47692978D01*
X48806503Y47701538D01*
X48825127Y47708912D01*
X48825127Y47708913D01*
X48825132Y47708914D01*
X48862849Y47736318D01*
X48867705Y47739508D01*
X48907820Y47763230D01*
X48921989Y47777401D01*
X48936779Y47790032D01*
X48952987Y47801806D01*
X48982699Y47837724D01*
X48986612Y47842024D01*
X49512820Y48368231D01*
X49574142Y48401715D01*
X49643834Y48396731D01*
X49699767Y48354859D01*
X49724184Y48289395D01*
X49724500Y48280549D01*
X49724500Y46172745D01*
X49722775Y46157128D01*
X49723061Y46157101D01*
X49722326Y46149335D01*
X49724500Y46080186D01*
X49724500Y46050657D01*
X49724501Y46050640D01*
X49725368Y46043769D01*
X49725826Y46037950D01*
X49727290Y45991376D01*
X49727291Y45991373D01*
X49732880Y45972133D01*
X49736824Y45953089D01*
X49739336Y45933208D01*
X49741066Y45928839D01*
X49756490Y45889881D01*
X49758382Y45884353D01*
X49771381Y45839612D01*
X49781580Y45822366D01*
X49790138Y45804897D01*
X49797514Y45786268D01*
X49824898Y45748577D01*
X49828106Y45743693D01*
X49851827Y45703584D01*
X49851833Y45703576D01*
X49865990Y45689420D01*
X49878628Y45674624D01*
X49890405Y45658414D01*
X49890406Y45658413D01*
X49926309Y45628712D01*
X49930620Y45624790D01*
X57775548Y37779861D01*
X60279197Y35276212D01*
X60289022Y35263949D01*
X60289243Y35264131D01*
X60294214Y35258122D01*
X60320217Y35233705D01*
X60344635Y35210774D01*
X60365529Y35189880D01*
X60371011Y35185627D01*
X60375443Y35181843D01*
X60409418Y35149938D01*
X60426976Y35140286D01*
X60443235Y35129605D01*
X60459064Y35117327D01*
X60501838Y35098818D01*
X60507056Y35096262D01*
X60547908Y35073803D01*
X60567316Y35068820D01*
X60585717Y35062520D01*
X60604104Y35054563D01*
X60647488Y35047692D01*
X60650119Y35047275D01*
X60655839Y35046091D01*
X60700981Y35034500D01*
X60721016Y35034500D01*
X60740414Y35032974D01*
X60760194Y35029841D01*
X60760195Y35029840D01*
X60760195Y35029841D01*
X60760196Y35029840D01*
X60806584Y35034225D01*
X60812422Y35034500D01*
X66792200Y35034500D01*
X66859239Y35014815D01*
X66893775Y34981624D01*
X66989174Y34845380D01*
X66989175Y34845379D01*
X67145378Y34689176D01*
X67145384Y34689171D01*
X67326333Y34562469D01*
X67326335Y34562468D01*
X67326338Y34562466D01*
X67445748Y34506785D01*
X67455189Y34502382D01*
X67507628Y34456210D01*
X67526780Y34389016D01*
X67506564Y34322135D01*
X67455189Y34277618D01*
X67326340Y34217535D01*
X67326338Y34217534D01*
X67145377Y34090825D01*
X66989175Y33934623D01*
X66862466Y33753662D01*
X66862465Y33753660D01*
X66769107Y33553452D01*
X66769104Y33553446D01*
X66711930Y33340071D01*
X66711929Y33340063D01*
X66692677Y33120003D01*
X66692677Y33120000D01*
X66711929Y32899938D01*
X66711930Y32899934D01*
X66711930Y32899930D01*
X66723707Y32855979D01*
X66722044Y32786129D01*
X66691613Y32736205D01*
X63083232Y29127824D01*
X63021909Y29094339D01*
X62952217Y29099323D01*
X62896284Y29141195D01*
X62872231Y29202541D01*
X62864274Y29278256D01*
X62805779Y29458284D01*
X62711133Y29622216D01*
X62584471Y29762888D01*
X62584470Y29762889D01*
X62431334Y29874149D01*
X62431329Y29874152D01*
X62258407Y29951143D01*
X62258402Y29951145D01*
X62112601Y29982135D01*
X62073246Y29990500D01*
X61883954Y29990500D01*
X61851497Y29983602D01*
X61698797Y29951145D01*
X61698792Y29951143D01*
X61525870Y29874152D01*
X61525865Y29874149D01*
X61372730Y29762890D01*
X61372726Y29762886D01*
X61367000Y29756526D01*
X61307513Y29719879D01*
X61274852Y29715500D01*
X54932738Y29715500D01*
X54917121Y29717224D01*
X54917094Y29716938D01*
X54909332Y29717673D01*
X54840204Y29715500D01*
X54810650Y29715500D01*
X54809929Y29715410D01*
X54803757Y29714631D01*
X54797945Y29714174D01*
X54751373Y29712710D01*
X54751372Y29712710D01*
X54732129Y29707119D01*
X54713079Y29703175D01*
X54693211Y29700666D01*
X54693209Y29700665D01*
X54649884Y29683512D01*
X54644357Y29681620D01*
X54599610Y29668619D01*
X54599609Y29668618D01*
X54582367Y29658421D01*
X54564899Y29649863D01*
X54546269Y29642487D01*
X54546267Y29642486D01*
X54508576Y29615102D01*
X54503694Y29611895D01*
X54463579Y29588170D01*
X54449408Y29574000D01*
X54434623Y29561372D01*
X54418412Y29549593D01*
X54388709Y29513690D01*
X54384777Y29509369D01*
X49187181Y24311773D01*
X49125858Y24278288D01*
X49056166Y24283272D01*
X49000233Y24325144D01*
X48975816Y24390608D01*
X48975500Y24399454D01*
X48975500Y39474627D01*
X49905723Y39474627D01*
X49935881Y39174840D01*
X49935882Y39174838D01*
X50005728Y38881748D01*
X50005733Y38881734D01*
X50114020Y38600573D01*
X50114024Y38600564D01*
X50258825Y38336335D01*
X50258829Y38336329D01*
X50359275Y38200003D01*
X50437554Y38093762D01*
X50437561Y38093755D01*
X50647019Y37877177D01*
X50883478Y37690447D01*
X50883480Y37690446D01*
X50883485Y37690442D01*
X51142730Y37536891D01*
X51420128Y37419264D01*
X51710729Y37339660D01*
X52009347Y37299500D01*
X52009351Y37299500D01*
X52235252Y37299500D01*
X52399164Y37310474D01*
X52460634Y37314588D01*
X52755903Y37374604D01*
X53040537Y37473440D01*
X53309459Y37609332D01*
X53557869Y37779856D01*
X53781333Y37981968D01*
X53975865Y38212061D01*
X54137993Y38466030D01*
X54264823Y38739342D01*
X54354093Y39027121D01*
X54404209Y39324230D01*
X54414277Y39625369D01*
X54384118Y39925162D01*
X54314269Y40218261D01*
X54205977Y40499434D01*
X54061175Y40763665D01*
X53882446Y41006238D01*
X53672980Y41222824D01*
X53549742Y41320144D01*
X53436521Y41409554D01*
X53436517Y41409557D01*
X53436515Y41409558D01*
X53177270Y41563109D01*
X52899872Y41680736D01*
X52899863Y41680739D01*
X52609272Y41760340D01*
X52534616Y41770380D01*
X52310653Y41800500D01*
X52084756Y41800500D01*
X52084748Y41800500D01*
X51859368Y41785413D01*
X51859359Y41785411D01*
X51564094Y41725396D01*
X51279464Y41626561D01*
X51279459Y41626559D01*
X51010546Y41490672D01*
X50762125Y41320140D01*
X50538665Y41118031D01*
X50344132Y40887936D01*
X50182006Y40633970D01*
X50182005Y40633968D01*
X50112669Y40484551D01*
X50055177Y40360658D01*
X50055176Y40360654D01*
X49965907Y40072882D01*
X49941028Y39925385D01*
X49915791Y39775770D01*
X49909326Y39582382D01*
X49905723Y39474627D01*
X48975500Y39474627D01*
X48975500Y40533868D01*
X48995185Y40600907D01*
X49047989Y40646662D01*
X49052027Y40648421D01*
X49078859Y40659534D01*
X49293659Y40791164D01*
X49485224Y40954776D01*
X49648836Y41146341D01*
X49780466Y41361141D01*
X49876873Y41593889D01*
X49935683Y41838852D01*
X49955449Y42090000D01*
X49935683Y42341148D01*
X49876873Y42586111D01*
X49780466Y42818859D01*
X49780466Y42818860D01*
X49649640Y43032347D01*
X49648838Y43033655D01*
X49648838Y43033657D01*
X49611875Y43076934D01*
X49485224Y43225224D01*
X49358571Y43333396D01*
X49293656Y43388839D01*
X49293653Y43388840D01*
X49078859Y43520467D01*
X48846110Y43616874D01*
X48601151Y43675683D01*
X48350000Y43695449D01*
X48098848Y43675683D01*
X47853889Y43616874D01*
X47621140Y43520467D01*
X47406346Y43388840D01*
X47406343Y43388839D01*
X47214776Y43225224D01*
X47051161Y43033657D01*
X47051160Y43033654D01*
X46919533Y42818860D01*
X46823126Y42586111D01*
X46764317Y42341152D01*
X46744551Y42090000D01*
X46764317Y41838849D01*
X46823126Y41593890D01*
X46919533Y41361141D01*
X47051160Y41146347D01*
X47051161Y41146344D01*
X47051164Y41146341D01*
X47214776Y40954776D01*
X47293036Y40887936D01*
X47406343Y40791162D01*
X47406345Y40791162D01*
X47621141Y40659534D01*
X47647951Y40648430D01*
X47702355Y40604590D01*
X47724421Y40538297D01*
X47724500Y40533868D01*
X47724500Y24146134D01*
X47704815Y24079095D01*
X47652011Y24033340D01*
X47647955Y24031574D01*
X47621142Y24020468D01*
X47621141Y24020467D01*
X47406346Y23888840D01*
X47406343Y23888839D01*
X47214776Y23725224D01*
X47051161Y23533657D01*
X47051160Y23533654D01*
X46919533Y23318860D01*
X46823126Y23086111D01*
X46764317Y22841152D01*
X46744551Y22590000D01*
X46764317Y22338849D01*
X46823126Y22093890D01*
X46919533Y21861141D01*
X47051160Y21646347D01*
X47051161Y21646344D01*
X47085322Y21606347D01*
X47214776Y21454776D01*
X47293036Y21387936D01*
X47406343Y21291162D01*
X47406346Y21291161D01*
X47621140Y21159534D01*
X47779427Y21093970D01*
X47853889Y21063127D01*
X48098852Y21004317D01*
X48350000Y20984551D01*
X48601148Y21004317D01*
X48846111Y21063127D01*
X49078859Y21159534D01*
X49293659Y21291164D01*
X49485224Y21454776D01*
X49648836Y21646341D01*
X49780466Y21861141D01*
X49876873Y22093889D01*
X49935683Y22338852D01*
X49955449Y22590000D01*
X49935683Y22841148D01*
X49876873Y23086111D01*
X49876872Y23086116D01*
X49865767Y23112926D01*
X49858298Y23182395D01*
X49889573Y23244874D01*
X49892618Y23248030D01*
X51774589Y25130000D01*
X53094551Y25130000D01*
X53114317Y24878849D01*
X53173126Y24633890D01*
X53269533Y24401141D01*
X53401160Y24186347D01*
X53401161Y24186344D01*
X53435322Y24146347D01*
X53564776Y23994776D01*
X53704684Y23875283D01*
X53756343Y23831162D01*
X53756346Y23831161D01*
X53971140Y23699534D01*
X54132558Y23632673D01*
X54203889Y23603127D01*
X54448852Y23544317D01*
X54700000Y23524551D01*
X54951148Y23544317D01*
X55196111Y23603127D01*
X55428859Y23699534D01*
X55643659Y23831164D01*
X55835224Y23994776D01*
X55998836Y24186341D01*
X56130466Y24401141D01*
X56226873Y24633889D01*
X56285683Y24878852D01*
X56305449Y25130000D01*
X56285683Y25381148D01*
X56226873Y25626111D01*
X56187954Y25720071D01*
X56130466Y25858860D01*
X55998839Y26073654D01*
X55998838Y26073657D01*
X55947589Y26133661D01*
X55835224Y26265224D01*
X55690493Y26388836D01*
X55643656Y26428839D01*
X55643653Y26428840D01*
X55428859Y26560467D01*
X55196110Y26656874D01*
X54951151Y26715683D01*
X54700000Y26735449D01*
X54448848Y26715683D01*
X54203889Y26656874D01*
X53971140Y26560467D01*
X53756346Y26428840D01*
X53756343Y26428839D01*
X53564776Y26265224D01*
X53401161Y26073657D01*
X53401160Y26073654D01*
X53269533Y25858860D01*
X53173126Y25626111D01*
X53114317Y25381152D01*
X53094551Y25130000D01*
X51774589Y25130000D01*
X55072772Y28428181D01*
X55134095Y28461666D01*
X55160453Y28464500D01*
X61274852Y28464500D01*
X61341891Y28444815D01*
X61367000Y28423474D01*
X61372726Y28417115D01*
X61372730Y28417111D01*
X61525865Y28305852D01*
X61525870Y28305849D01*
X61698792Y28228858D01*
X61698793Y28228858D01*
X61698797Y28228856D01*
X61875774Y28191239D01*
X61937256Y28158047D01*
X61971033Y28096884D01*
X61966381Y28027170D01*
X61937675Y27982268D01*
X56466208Y22510801D01*
X56453951Y22500980D01*
X56454134Y22500759D01*
X56448123Y22495787D01*
X56400772Y22445364D01*
X56379889Y22424481D01*
X56379877Y22424468D01*
X56375621Y22418983D01*
X56371837Y22414553D01*
X56339937Y22380582D01*
X56339936Y22380580D01*
X56330284Y22363024D01*
X56319610Y22346774D01*
X56307329Y22330939D01*
X56307324Y22330932D01*
X56288815Y22288162D01*
X56286245Y22282916D01*
X56263803Y22242094D01*
X56258822Y22222693D01*
X56252521Y22204290D01*
X56244562Y22185898D01*
X56244561Y22185895D01*
X56237271Y22139873D01*
X56236087Y22134154D01*
X56224501Y22089028D01*
X56224500Y22089018D01*
X56224500Y22068984D01*
X56222973Y22049585D01*
X56219840Y22029806D01*
X56219840Y22029805D01*
X56224225Y21983417D01*
X56224500Y21977579D01*
X56224500Y18150454D01*
X56204815Y18083415D01*
X56188181Y18062773D01*
X49966208Y11840801D01*
X49953951Y11830980D01*
X49954134Y11830759D01*
X49948123Y11825787D01*
X49900772Y11775364D01*
X49879889Y11754481D01*
X49879877Y11754468D01*
X49875621Y11748983D01*
X49871837Y11744553D01*
X49839937Y11710582D01*
X49839936Y11710580D01*
X49830284Y11693024D01*
X49819610Y11676774D01*
X49807329Y11660939D01*
X49807324Y11660932D01*
X49788815Y11618162D01*
X49786245Y11612916D01*
X49763803Y11572094D01*
X49758822Y11552693D01*
X49752521Y11534290D01*
X49744562Y11515898D01*
X49744561Y11515895D01*
X49737271Y11469873D01*
X49736087Y11464154D01*
X49724501Y11419028D01*
X49724500Y11419018D01*
X49724500Y11398984D01*
X49722973Y11379585D01*
X49719840Y11359806D01*
X49719840Y11359805D01*
X49724225Y11313417D01*
X49724500Y11307579D01*
X49724500Y10899453D01*
X49704815Y10832414D01*
X49652011Y10786659D01*
X49582853Y10776715D01*
X49519297Y10805740D01*
X49512819Y10811772D01*
X48679403Y11645188D01*
X48669580Y11657450D01*
X48669359Y11657266D01*
X48664386Y11663277D01*
X48645759Y11680769D01*
X48613964Y11710627D01*
X48603519Y11721072D01*
X48593075Y11731517D01*
X48587586Y11735775D01*
X48583161Y11739553D01*
X48549182Y11771462D01*
X48549180Y11771464D01*
X48549177Y11771465D01*
X48531629Y11781112D01*
X48515363Y11791796D01*
X48499533Y11804075D01*
X48456768Y11822582D01*
X48451522Y11825152D01*
X48410693Y11847597D01*
X48410692Y11847598D01*
X48391293Y11852578D01*
X48372881Y11858882D01*
X48354498Y11866838D01*
X48354492Y11866840D01*
X48308474Y11874128D01*
X48302752Y11875313D01*
X48257621Y11886900D01*
X48257619Y11886900D01*
X48237584Y11886900D01*
X48218186Y11888427D01*
X48210762Y11889603D01*
X48198405Y11891560D01*
X48198404Y11891560D01*
X48152016Y11887175D01*
X48146178Y11886900D01*
X31104137Y11886900D01*
X31088520Y11888624D01*
X31088493Y11888338D01*
X31080731Y11889073D01*
X31011603Y11886900D01*
X30982050Y11886900D01*
X30981329Y11886810D01*
X30975157Y11886031D01*
X30969345Y11885574D01*
X30922778Y11884110D01*
X30922767Y11884108D01*
X30903534Y11878521D01*
X30884494Y11874578D01*
X30864617Y11872066D01*
X30864610Y11872065D01*
X30864608Y11872064D01*
X30864606Y11872064D01*
X30864605Y11872063D01*
X30821268Y11854906D01*
X30815742Y11853014D01*
X30771011Y11840018D01*
X30771008Y11840017D01*
X30753763Y11829819D01*
X30736301Y11821265D01*
X30717672Y11813889D01*
X30717667Y11813887D01*
X30679964Y11786494D01*
X30675082Y11783288D01*
X30634980Y11759572D01*
X30620808Y11745400D01*
X30606023Y11732772D01*
X30589812Y11720993D01*
X30560109Y11685090D01*
X30556177Y11680769D01*
X29302227Y10426819D01*
X29240904Y10393334D01*
X29214546Y10390500D01*
X28485453Y10390500D01*
X28418414Y10410185D01*
X28397772Y10426819D01*
X27179403Y11645188D01*
X27169580Y11657450D01*
X27169359Y11657266D01*
X27164386Y11663277D01*
X27145759Y11680769D01*
X27113964Y11710627D01*
X27103519Y11721072D01*
X27093075Y11731517D01*
X27087586Y11735775D01*
X27083161Y11739553D01*
X27049182Y11771462D01*
X27049180Y11771464D01*
X27049177Y11771465D01*
X27031629Y11781112D01*
X27015363Y11791796D01*
X26999533Y11804075D01*
X26956768Y11822582D01*
X26951522Y11825152D01*
X26910693Y11847597D01*
X26910692Y11847598D01*
X26891293Y11852578D01*
X26872881Y11858882D01*
X26854498Y11866838D01*
X26854492Y11866840D01*
X26808474Y11874128D01*
X26802752Y11875313D01*
X26757621Y11886900D01*
X26757619Y11886900D01*
X26737584Y11886900D01*
X26718186Y11888427D01*
X26710762Y11889603D01*
X26698405Y11891560D01*
X26698404Y11891560D01*
X26652016Y11887175D01*
X26646178Y11886900D01*
X10104137Y11886900D01*
X10088520Y11888624D01*
X10088493Y11888338D01*
X10080731Y11889073D01*
X10011603Y11886900D01*
X9982050Y11886900D01*
X9981329Y11886810D01*
X9975157Y11886031D01*
X9969345Y11885574D01*
X9922778Y11884110D01*
X9922767Y11884108D01*
X9903534Y11878521D01*
X9884494Y11874578D01*
X9864617Y11872066D01*
X9864610Y11872065D01*
X9864608Y11872064D01*
X9864606Y11872064D01*
X9864605Y11872063D01*
X9821268Y11854906D01*
X9815742Y11853014D01*
X9771011Y11840018D01*
X9771008Y11840017D01*
X9753763Y11829819D01*
X9736301Y11821265D01*
X9717672Y11813889D01*
X9717667Y11813887D01*
X9679964Y11786494D01*
X9675082Y11783288D01*
X9634980Y11759572D01*
X9620808Y11745400D01*
X9606023Y11732772D01*
X9589812Y11720993D01*
X9560109Y11685090D01*
X9556177Y11680769D01*
X8302226Y10426819D01*
X8240903Y10393334D01*
X8214545Y10390500D01*
X7002129Y10390500D01*
X7002123Y10390499D01*
X6942516Y10384092D01*
X6807671Y10333798D01*
X6807664Y10333794D01*
X6692455Y10247548D01*
X6692452Y10247545D01*
X6606206Y10132336D01*
X6606202Y10132329D01*
X6555908Y9997483D01*
X6549501Y9937884D01*
X6549501Y9937877D01*
X6549500Y9937865D01*
X6549500Y8242130D01*
X6549501Y8242124D01*
X6555908Y8182517D01*
X6606202Y8047672D01*
X6606206Y8047665D01*
X6692452Y7932456D01*
X6692455Y7932453D01*
X6807664Y7846207D01*
X6807671Y7846203D01*
X6942517Y7795909D01*
X6942516Y7795909D01*
X6949444Y7795165D01*
X7002127Y7789500D01*
X8697872Y7789501D01*
X8757483Y7795909D01*
X8892331Y7846204D01*
X9007546Y7932454D01*
X9093796Y8047669D01*
X9144091Y8182517D01*
X9150500Y8242127D01*
X9150499Y9089999D01*
X14164532Y9089999D01*
X14184364Y8863314D01*
X14184366Y8863303D01*
X14243258Y8643512D01*
X14243261Y8643503D01*
X14339431Y8437268D01*
X14339432Y8437266D01*
X14469954Y8250859D01*
X14630858Y8089955D01*
X14630861Y8089953D01*
X14817266Y7959432D01*
X15023504Y7863261D01*
X15023509Y7863260D01*
X15023511Y7863259D01*
X15057268Y7854214D01*
X15243308Y7804365D01*
X15405230Y7790199D01*
X15469998Y7784532D01*
X15470000Y7784532D01*
X15470002Y7784532D01*
X15526807Y7789502D01*
X15696692Y7804365D01*
X15916496Y7863261D01*
X16122734Y7959432D01*
X16309139Y8089953D01*
X16470047Y8250861D01*
X16600568Y8437266D01*
X16696739Y8643504D01*
X16755635Y8863308D01*
X16774905Y9083566D01*
X16775468Y9089999D01*
X16775468Y9090002D01*
X16757293Y9297737D01*
X16755635Y9316692D01*
X16704935Y9505909D01*
X16696741Y9536489D01*
X16696738Y9536498D01*
X16600568Y9742733D01*
X16600567Y9742735D01*
X16470045Y9929142D01*
X16309141Y10090046D01*
X16122734Y10220568D01*
X16122732Y10220569D01*
X15916497Y10316739D01*
X15916488Y10316742D01*
X15696697Y10375634D01*
X15696693Y10375635D01*
X15696692Y10375635D01*
X15696691Y10375636D01*
X15696686Y10375636D01*
X15551108Y10388372D01*
X15486039Y10413824D01*
X15472580Y10432411D01*
X15471798Y10430697D01*
X15413020Y10392923D01*
X15388892Y10388372D01*
X15243313Y10375636D01*
X15243302Y10375634D01*
X15023511Y10316742D01*
X15023502Y10316739D01*
X14817267Y10220569D01*
X14817265Y10220568D01*
X14630858Y10090046D01*
X14469954Y9929142D01*
X14339432Y9742735D01*
X14339431Y9742733D01*
X14243261Y9536498D01*
X14243258Y9536489D01*
X14184366Y9316698D01*
X14184364Y9316687D01*
X14164532Y9090002D01*
X14164532Y9089999D01*
X9150499Y9089999D01*
X9150499Y9454549D01*
X9170184Y9521587D01*
X9186813Y9542224D01*
X10244172Y10599581D01*
X10305495Y10633066D01*
X10331853Y10635900D01*
X15378085Y10635900D01*
X15445124Y10616215D01*
X15468796Y10588896D01*
X15475636Y10600961D01*
X15537483Y10633469D01*
X15561915Y10635900D01*
X26368148Y10635900D01*
X26435187Y10616215D01*
X26455829Y10599581D01*
X27513181Y9542229D01*
X27546666Y9480906D01*
X27549500Y9454548D01*
X27549500Y8242130D01*
X27549501Y8242124D01*
X27555908Y8182517D01*
X27606202Y8047672D01*
X27606206Y8047665D01*
X27692452Y7932456D01*
X27692455Y7932453D01*
X27807664Y7846207D01*
X27807671Y7846203D01*
X27942517Y7795909D01*
X27942516Y7795909D01*
X27949444Y7795165D01*
X28002127Y7789500D01*
X29697872Y7789501D01*
X29757483Y7795909D01*
X29892331Y7846204D01*
X30007546Y7932454D01*
X30093796Y8047669D01*
X30144091Y8182517D01*
X30150500Y8242127D01*
X30150499Y9089999D01*
X35164532Y9089999D01*
X35184364Y8863314D01*
X35184366Y8863303D01*
X35243258Y8643512D01*
X35243261Y8643503D01*
X35339431Y8437268D01*
X35339432Y8437266D01*
X35469954Y8250859D01*
X35630858Y8089955D01*
X35630861Y8089953D01*
X35817266Y7959432D01*
X36023504Y7863261D01*
X36023509Y7863260D01*
X36023511Y7863259D01*
X36057268Y7854214D01*
X36243308Y7804365D01*
X36405230Y7790199D01*
X36469998Y7784532D01*
X36470000Y7784532D01*
X36470002Y7784532D01*
X36526807Y7789502D01*
X36696692Y7804365D01*
X36916496Y7863261D01*
X37122734Y7959432D01*
X37309139Y8089953D01*
X37470047Y8250861D01*
X37600568Y8437266D01*
X37696739Y8643504D01*
X37755635Y8863308D01*
X37774905Y9083566D01*
X37775468Y9089999D01*
X37775468Y9090002D01*
X37757293Y9297737D01*
X37755635Y9316692D01*
X37704935Y9505909D01*
X37696741Y9536489D01*
X37696738Y9536498D01*
X37600568Y9742733D01*
X37600567Y9742735D01*
X37470045Y9929142D01*
X37309141Y10090046D01*
X37122734Y10220568D01*
X37122732Y10220569D01*
X36916497Y10316739D01*
X36916488Y10316742D01*
X36696697Y10375634D01*
X36696693Y10375635D01*
X36696692Y10375635D01*
X36696691Y10375636D01*
X36696686Y10375636D01*
X36551108Y10388372D01*
X36486039Y10413824D01*
X36472580Y10432411D01*
X36471798Y10430697D01*
X36413020Y10392923D01*
X36388892Y10388372D01*
X36243313Y10375636D01*
X36243302Y10375634D01*
X36023511Y10316742D01*
X36023502Y10316739D01*
X35817267Y10220569D01*
X35817265Y10220568D01*
X35630858Y10090046D01*
X35469954Y9929142D01*
X35339432Y9742735D01*
X35339431Y9742733D01*
X35243261Y9536498D01*
X35243258Y9536489D01*
X35184366Y9316698D01*
X35184364Y9316687D01*
X35164532Y9090002D01*
X35164532Y9089999D01*
X30150499Y9089999D01*
X30150499Y9454549D01*
X30170184Y9521587D01*
X30186813Y9542224D01*
X31244172Y10599581D01*
X31305495Y10633066D01*
X31331853Y10635900D01*
X36378085Y10635900D01*
X36445124Y10616215D01*
X36468796Y10588896D01*
X36475636Y10600961D01*
X36537483Y10633469D01*
X36561915Y10635900D01*
X47868148Y10635900D01*
X47935187Y10616215D01*
X47955829Y10599581D01*
X49013181Y9542229D01*
X49046666Y9480906D01*
X49049500Y9454548D01*
X49049500Y8242130D01*
X49049501Y8242124D01*
X49055908Y8182517D01*
X49106202Y8047672D01*
X49106206Y8047665D01*
X49192452Y7932456D01*
X49192455Y7932453D01*
X49307664Y7846207D01*
X49307671Y7846203D01*
X49442517Y7795909D01*
X49442516Y7795909D01*
X49449444Y7795165D01*
X49502127Y7789500D01*
X51197872Y7789501D01*
X51257483Y7795909D01*
X51392331Y7846204D01*
X51507546Y7932454D01*
X51593796Y8047669D01*
X51644091Y8182517D01*
X51650500Y8242127D01*
X51650500Y9089999D01*
X56664532Y9089999D01*
X56684364Y8863314D01*
X56684366Y8863303D01*
X56743258Y8643512D01*
X56743261Y8643503D01*
X56839431Y8437268D01*
X56839432Y8437266D01*
X56969954Y8250859D01*
X57130858Y8089955D01*
X57130861Y8089953D01*
X57317266Y7959432D01*
X57523504Y7863261D01*
X57523509Y7863260D01*
X57523511Y7863259D01*
X57557268Y7854214D01*
X57743308Y7804365D01*
X57905230Y7790199D01*
X57969998Y7784532D01*
X57970000Y7784532D01*
X57970002Y7784532D01*
X58026807Y7789502D01*
X58196692Y7804365D01*
X58416496Y7863261D01*
X58622734Y7959432D01*
X58809139Y8089953D01*
X58970047Y8250861D01*
X59100568Y8437266D01*
X59196739Y8643504D01*
X59255635Y8863308D01*
X59274905Y9083566D01*
X59275468Y9089999D01*
X59275468Y9090002D01*
X59257293Y9297737D01*
X59255635Y9316692D01*
X59204935Y9505909D01*
X59196741Y9536489D01*
X59196738Y9536498D01*
X59100568Y9742733D01*
X59100567Y9742735D01*
X58970045Y9929142D01*
X58809141Y10090046D01*
X58622734Y10220568D01*
X58622732Y10220569D01*
X58416497Y10316739D01*
X58416488Y10316742D01*
X58196697Y10375634D01*
X58196693Y10375635D01*
X58196692Y10375635D01*
X58196691Y10375636D01*
X58196686Y10375636D01*
X57970002Y10395468D01*
X57969998Y10395468D01*
X57743313Y10375636D01*
X57743302Y10375634D01*
X57523511Y10316742D01*
X57523502Y10316739D01*
X57317267Y10220569D01*
X57317265Y10220568D01*
X57130858Y10090046D01*
X56969954Y9929142D01*
X56839432Y9742735D01*
X56839431Y9742733D01*
X56743261Y9536498D01*
X56743258Y9536489D01*
X56684366Y9316698D01*
X56684364Y9316687D01*
X56664532Y9090002D01*
X56664532Y9089999D01*
X51650500Y9089999D01*
X51650499Y9937872D01*
X51644091Y9997483D01*
X51609567Y10090046D01*
X51593797Y10132329D01*
X51593793Y10132336D01*
X51507547Y10247545D01*
X51507544Y10247548D01*
X51392335Y10333794D01*
X51392328Y10333798D01*
X51257482Y10384092D01*
X51257483Y10384092D01*
X51197883Y10390499D01*
X51197881Y10390500D01*
X51197873Y10390500D01*
X51197865Y10390500D01*
X51099500Y10390500D01*
X51032461Y10410185D01*
X50986706Y10462989D01*
X50975500Y10514500D01*
X50975500Y11029548D01*
X50995185Y11096587D01*
X51011819Y11117229D01*
X51786150Y11891560D01*
X57233788Y17339199D01*
X57246042Y17349014D01*
X57245859Y17349236D01*
X57251866Y17354208D01*
X57251877Y17354214D01*
X57282775Y17387118D01*
X57299227Y17404636D01*
X57309671Y17415082D01*
X57320120Y17425529D01*
X57324379Y17431022D01*
X57328152Y17435439D01*
X57360062Y17469418D01*
X57369713Y17486976D01*
X57380396Y17503239D01*
X57392673Y17519064D01*
X57411185Y17561847D01*
X57413738Y17567059D01*
X57436197Y17607908D01*
X57441180Y17627320D01*
X57447481Y17645720D01*
X57455437Y17664104D01*
X57462729Y17710148D01*
X57463906Y17715829D01*
X57475500Y17760981D01*
X57475500Y17781017D01*
X57477027Y17800418D01*
X57480160Y17820196D01*
X57475775Y17866585D01*
X57475500Y17872423D01*
X57475500Y21699549D01*
X57495185Y21766588D01*
X57511814Y21787225D01*
X66488985Y30764397D01*
X66550306Y30797880D01*
X66619998Y30792896D01*
X66675931Y30751024D01*
X66700348Y30685560D01*
X66700192Y30665908D01*
X66692677Y30580004D01*
X66692677Y30580000D01*
X66711929Y30359938D01*
X66711930Y30359934D01*
X66711930Y30359930D01*
X66723707Y30315979D01*
X66722044Y30246129D01*
X66691613Y30196205D01*
X61966208Y25470801D01*
X61953951Y25460980D01*
X61954134Y25460759D01*
X61948123Y25455787D01*
X61900772Y25405364D01*
X61879889Y25384481D01*
X61879877Y25384468D01*
X61875621Y25378983D01*
X61871837Y25374553D01*
X61839937Y25340582D01*
X61839936Y25340580D01*
X61830284Y25323024D01*
X61819610Y25306774D01*
X61807329Y25290939D01*
X61807324Y25290932D01*
X61788815Y25248162D01*
X61786245Y25242916D01*
X61763803Y25202094D01*
X61758822Y25182693D01*
X61752521Y25164290D01*
X61744562Y25145898D01*
X61744561Y25145895D01*
X61737271Y25099873D01*
X61736087Y25094154D01*
X61724501Y25049028D01*
X61724500Y25049018D01*
X61724500Y25028984D01*
X61722973Y25009585D01*
X61719840Y24989806D01*
X61719840Y24989805D01*
X61724225Y24943417D01*
X61724500Y24937579D01*
X61724500Y8650453D01*
X61704815Y8583414D01*
X61688181Y8562772D01*
X58877228Y5751819D01*
X58815905Y5718334D01*
X58789547Y5715500D01*
X53432743Y5715500D01*
X53417122Y5717225D01*
X53417095Y5716939D01*
X53409333Y5717674D01*
X53340172Y5715500D01*
X53310649Y5715500D01*
X53303778Y5714633D01*
X53297959Y5714175D01*
X53251374Y5712711D01*
X53251368Y5712710D01*
X53232126Y5707120D01*
X53213087Y5703177D01*
X53193217Y5700666D01*
X53193203Y5700663D01*
X53149883Y5683512D01*
X53144358Y5681620D01*
X53099613Y5668620D01*
X53099610Y5668619D01*
X53082366Y5658421D01*
X53064905Y5649867D01*
X53046274Y5642490D01*
X53046262Y5642483D01*
X53008570Y5615098D01*
X53003687Y5611891D01*
X52963580Y5588171D01*
X52949414Y5574005D01*
X52934624Y5561373D01*
X52918414Y5549596D01*
X52918411Y5549593D01*
X52888710Y5513691D01*
X52884777Y5509369D01*
X50802228Y3426819D01*
X50740905Y3393334D01*
X50714547Y3390500D01*
X49985453Y3390500D01*
X49918414Y3410185D01*
X49897772Y3426819D01*
X48600803Y4723788D01*
X48590980Y4736050D01*
X48590759Y4735866D01*
X48585786Y4741877D01*
X48567159Y4759369D01*
X48535364Y4789227D01*
X48524919Y4799672D01*
X48514475Y4810117D01*
X48508986Y4814375D01*
X48504561Y4818153D01*
X48470582Y4850062D01*
X48470580Y4850064D01*
X48470577Y4850065D01*
X48453029Y4859712D01*
X48436763Y4870396D01*
X48420933Y4882675D01*
X48378168Y4901182D01*
X48372922Y4903752D01*
X48332093Y4926197D01*
X48332092Y4926198D01*
X48312693Y4931178D01*
X48294281Y4937482D01*
X48275898Y4945438D01*
X48275892Y4945440D01*
X48229874Y4952728D01*
X48224152Y4953913D01*
X48179021Y4965500D01*
X48179019Y4965500D01*
X48158984Y4965500D01*
X48139586Y4967027D01*
X48132162Y4968203D01*
X48119805Y4970160D01*
X48119804Y4970160D01*
X48073416Y4965775D01*
X48067578Y4965500D01*
X10182743Y4965500D01*
X10167122Y4967225D01*
X10167095Y4966939D01*
X10159333Y4967674D01*
X10090172Y4965500D01*
X10060649Y4965500D01*
X10053778Y4964633D01*
X10047959Y4964175D01*
X10001374Y4962711D01*
X10001368Y4962710D01*
X9982126Y4957120D01*
X9963087Y4953177D01*
X9943217Y4950666D01*
X9943200Y4950662D01*
X9899882Y4933512D01*
X9894358Y4931621D01*
X9849607Y4918617D01*
X9849604Y4918616D01*
X9832358Y4908417D01*
X9814893Y4899861D01*
X9809010Y4897532D01*
X9796266Y4892486D01*
X9758572Y4865101D01*
X9753691Y4861895D01*
X9713580Y4838172D01*
X9699408Y4824000D01*
X9684623Y4811372D01*
X9668412Y4799593D01*
X9638709Y4763690D01*
X9634777Y4759369D01*
X8302226Y3426819D01*
X8240903Y3393334D01*
X8214545Y3390500D01*
X7002129Y3390500D01*
X7002123Y3390499D01*
X6942516Y3384092D01*
X6807671Y3333798D01*
X6807664Y3333794D01*
X6692455Y3247548D01*
X6692452Y3247545D01*
X6606206Y3132336D01*
X6606202Y3132329D01*
X6555908Y2997483D01*
X6549501Y2937884D01*
X6549500Y2937873D01*
X6549500Y2090002D01*
X6549501Y1385400D01*
X6529816Y1318361D01*
X6477013Y1272606D01*
X6425501Y1261400D01*
X2352600Y1261400D01*
X2285561Y1281085D01*
X2239806Y1333889D01*
X2228600Y1385400D01*
X2228600Y5942130D01*
X17499500Y5942130D01*
X17499501Y5942124D01*
X17505908Y5882517D01*
X17556202Y5747672D01*
X17556206Y5747665D01*
X17642452Y5632456D01*
X17642455Y5632453D01*
X17757664Y5546207D01*
X17757671Y5546203D01*
X17892517Y5495909D01*
X17892516Y5495909D01*
X17899444Y5495165D01*
X17952127Y5489500D01*
X19747872Y5489501D01*
X19807483Y5495909D01*
X19942331Y5546204D01*
X20057546Y5632454D01*
X20143796Y5747669D01*
X20194091Y5882517D01*
X20200500Y5942127D01*
X20200499Y6840000D01*
X23994341Y6840000D01*
X24014936Y6604597D01*
X24014938Y6604587D01*
X24076094Y6376345D01*
X24076096Y6376341D01*
X24076097Y6376337D01*
X24111741Y6299899D01*
X24175965Y6162170D01*
X24175967Y6162166D01*
X24196529Y6132801D01*
X24311505Y5968599D01*
X24478599Y5801505D01*
X24575384Y5733735D01*
X24672165Y5665968D01*
X24672167Y5665967D01*
X24672170Y5665965D01*
X24886337Y5566097D01*
X25114592Y5504937D01*
X25291034Y5489500D01*
X25349999Y5484341D01*
X25350000Y5484341D01*
X25350001Y5484341D01*
X25408966Y5489500D01*
X25585408Y5504937D01*
X25813663Y5566097D01*
X26027830Y5665965D01*
X26221401Y5801505D01*
X26362026Y5942130D01*
X38999500Y5942130D01*
X38999501Y5942124D01*
X39005908Y5882517D01*
X39056202Y5747672D01*
X39056206Y5747665D01*
X39142452Y5632456D01*
X39142455Y5632453D01*
X39257664Y5546207D01*
X39257671Y5546203D01*
X39392517Y5495909D01*
X39392516Y5495909D01*
X39399444Y5495165D01*
X39452127Y5489500D01*
X41247872Y5489501D01*
X41307483Y5495909D01*
X41442331Y5546204D01*
X41557546Y5632454D01*
X41643796Y5747669D01*
X41694091Y5882517D01*
X41700500Y5942127D01*
X41700499Y6840000D01*
X45494341Y6840000D01*
X45514936Y6604597D01*
X45514938Y6604587D01*
X45576094Y6376345D01*
X45576096Y6376341D01*
X45576097Y6376337D01*
X45611741Y6299899D01*
X45675965Y6162170D01*
X45675967Y6162166D01*
X45696529Y6132801D01*
X45811505Y5968599D01*
X45978599Y5801505D01*
X46075384Y5733735D01*
X46172165Y5665968D01*
X46172167Y5665967D01*
X46172170Y5665965D01*
X46386337Y5566097D01*
X46614592Y5504937D01*
X46791034Y5489500D01*
X46849999Y5484341D01*
X46850000Y5484341D01*
X46850001Y5484341D01*
X46908966Y5489500D01*
X47085408Y5504937D01*
X47313663Y5566097D01*
X47527830Y5665965D01*
X47721401Y5801505D01*
X47888495Y5968599D01*
X48024035Y6162170D01*
X48123903Y6376337D01*
X48185063Y6604592D01*
X48205659Y6840000D01*
X48185063Y7075408D01*
X48123903Y7303663D01*
X48024035Y7517829D01*
X47888495Y7711401D01*
X47888494Y7711403D01*
X47721402Y7878494D01*
X47721395Y7878499D01*
X47527834Y8014033D01*
X47527830Y8014035D01*
X47517043Y8019065D01*
X47313663Y8113903D01*
X47313659Y8113904D01*
X47313655Y8113906D01*
X47085413Y8175062D01*
X47085403Y8175064D01*
X46850001Y8195659D01*
X46849999Y8195659D01*
X46614596Y8175064D01*
X46614586Y8175062D01*
X46386344Y8113906D01*
X46386335Y8113902D01*
X46172171Y8014036D01*
X46172169Y8014035D01*
X45978597Y7878495D01*
X45811505Y7711403D01*
X45675965Y7517831D01*
X45675964Y7517829D01*
X45576098Y7303665D01*
X45576094Y7303656D01*
X45514938Y7075414D01*
X45514936Y7075404D01*
X45494341Y6840001D01*
X45494341Y6840000D01*
X41700499Y6840000D01*
X41700499Y7737872D01*
X41694091Y7797483D01*
X41691524Y7804365D01*
X41643797Y7932329D01*
X41643793Y7932336D01*
X41557547Y8047545D01*
X41557544Y8047548D01*
X41442335Y8133794D01*
X41442328Y8133798D01*
X41307482Y8184092D01*
X41307483Y8184092D01*
X41247883Y8190499D01*
X41247881Y8190500D01*
X41247873Y8190500D01*
X41247864Y8190500D01*
X39452129Y8190500D01*
X39452123Y8190499D01*
X39392516Y8184092D01*
X39257671Y8133798D01*
X39257664Y8133794D01*
X39142455Y8047548D01*
X39142452Y8047545D01*
X39056206Y7932336D01*
X39056202Y7932329D01*
X39005908Y7797483D01*
X38999501Y7737884D01*
X38999501Y7737877D01*
X38999500Y7737865D01*
X38999500Y5942130D01*
X26362026Y5942130D01*
X26388495Y5968599D01*
X26524035Y6162170D01*
X26623903Y6376337D01*
X26685063Y6604592D01*
X26705659Y6840000D01*
X26685063Y7075408D01*
X26623903Y7303663D01*
X26524035Y7517829D01*
X26388495Y7711401D01*
X26388494Y7711403D01*
X26221402Y7878494D01*
X26221395Y7878499D01*
X26027834Y8014033D01*
X26027830Y8014035D01*
X26017043Y8019065D01*
X25813663Y8113903D01*
X25813659Y8113904D01*
X25813655Y8113906D01*
X25585413Y8175062D01*
X25585403Y8175064D01*
X25350001Y8195659D01*
X25349999Y8195659D01*
X25114596Y8175064D01*
X25114586Y8175062D01*
X24886344Y8113906D01*
X24886335Y8113902D01*
X24672171Y8014036D01*
X24672169Y8014035D01*
X24478597Y7878495D01*
X24311505Y7711403D01*
X24175965Y7517831D01*
X24175964Y7517829D01*
X24076098Y7303665D01*
X24076094Y7303656D01*
X24014938Y7075414D01*
X24014936Y7075404D01*
X23994341Y6840001D01*
X23994341Y6840000D01*
X20200499Y6840000D01*
X20200499Y7737872D01*
X20194091Y7797483D01*
X20191524Y7804365D01*
X20143797Y7932329D01*
X20143793Y7932336D01*
X20057547Y8047545D01*
X20057544Y8047548D01*
X19942335Y8133794D01*
X19942328Y8133798D01*
X19807482Y8184092D01*
X19807483Y8184092D01*
X19747883Y8190499D01*
X19747881Y8190500D01*
X19747873Y8190500D01*
X19747864Y8190500D01*
X17952129Y8190500D01*
X17952123Y8190499D01*
X17892516Y8184092D01*
X17757671Y8133798D01*
X17757664Y8133794D01*
X17642455Y8047548D01*
X17642452Y8047545D01*
X17556206Y7932336D01*
X17556202Y7932329D01*
X17505908Y7797483D01*
X17499501Y7737884D01*
X17499501Y7737877D01*
X17499500Y7737865D01*
X17499500Y5942130D01*
X2228600Y5942130D01*
X2228600Y22550000D01*
X8394551Y22550000D01*
X8414317Y22298849D01*
X8473126Y22053890D01*
X8569533Y21821141D01*
X8701160Y21606347D01*
X8701161Y21606344D01*
X8701164Y21606341D01*
X8864776Y21414776D01*
X8943036Y21347936D01*
X9056343Y21251162D01*
X9056346Y21251161D01*
X9271140Y21119534D01*
X9503889Y21023127D01*
X9748852Y20964317D01*
X10000000Y20944551D01*
X10251148Y20964317D01*
X10496111Y21023127D01*
X10728859Y21119534D01*
X10943659Y21251164D01*
X11135224Y21414776D01*
X11298836Y21606341D01*
X11430466Y21821141D01*
X11526873Y22053889D01*
X11585683Y22298852D01*
X11589726Y22350232D01*
X11614610Y22415518D01*
X11670842Y22456988D01*
X11713344Y22464500D01*
X13354650Y22464500D01*
X13421689Y22444815D01*
X13467444Y22392011D01*
X13477388Y22322853D01*
X13448363Y22259297D01*
X13389585Y22221523D01*
X13379349Y22218985D01*
X13214094Y22185396D01*
X12929464Y22086561D01*
X12929459Y22086559D01*
X12660546Y21950672D01*
X12412125Y21780140D01*
X12188665Y21578031D01*
X11994132Y21347936D01*
X11832006Y21093970D01*
X11832005Y21093968D01*
X11762669Y20944551D01*
X11705177Y20820658D01*
X11705176Y20820654D01*
X11615907Y20532882D01*
X11565791Y20235770D01*
X11555723Y19934627D01*
X11585881Y19634840D01*
X11585882Y19634838D01*
X11655728Y19341748D01*
X11655730Y19341741D01*
X11655731Y19341739D01*
X11663154Y19322466D01*
X11764020Y19060573D01*
X11764024Y19060564D01*
X11908825Y18796335D01*
X11908829Y18796329D01*
X12058079Y18593766D01*
X12087554Y18553762D01*
X12087561Y18553755D01*
X12297019Y18337177D01*
X12533478Y18150447D01*
X12533480Y18150446D01*
X12533485Y18150442D01*
X12792730Y17996891D01*
X13070128Y17879264D01*
X13360729Y17799660D01*
X13659347Y17759500D01*
X13659351Y17759500D01*
X13885252Y17759500D01*
X14049164Y17770474D01*
X14110634Y17774588D01*
X14405903Y17834604D01*
X14690537Y17933440D01*
X14959459Y18069332D01*
X15207869Y18239856D01*
X15431333Y18441968D01*
X15625865Y18672061D01*
X15787993Y18926030D01*
X15914823Y19199342D01*
X16004093Y19487121D01*
X16054209Y19784230D01*
X16064277Y20085369D01*
X16034118Y20385162D01*
X15964269Y20678261D01*
X15855977Y20959434D01*
X15711175Y21223665D01*
X15532446Y21466238D01*
X15322980Y21682824D01*
X15301801Y21699549D01*
X15086521Y21869554D01*
X15086517Y21869557D01*
X15086515Y21869558D01*
X14827270Y22023109D01*
X14549872Y22140736D01*
X14549863Y22140739D01*
X14285186Y22213241D01*
X14259271Y22220340D01*
X14259269Y22220341D01*
X14257204Y22220906D01*
X14197747Y22257602D01*
X14167568Y22320618D01*
X14176249Y22389947D01*
X14221034Y22443576D01*
X14287703Y22464479D01*
X14289964Y22464500D01*
X23039548Y22464500D01*
X23106587Y22444815D01*
X23127229Y22428181D01*
X29099194Y16456216D01*
X29109019Y16443952D01*
X29109240Y16444134D01*
X29114210Y16438127D01*
X29114213Y16438124D01*
X29114214Y16438123D01*
X29164651Y16390759D01*
X29185530Y16369880D01*
X29191004Y16365634D01*
X29195442Y16361844D01*
X29229418Y16329938D01*
X29229422Y16329936D01*
X29246973Y16320287D01*
X29263231Y16309608D01*
X29279064Y16297326D01*
X29301015Y16287828D01*
X29321837Y16278817D01*
X29327081Y16276248D01*
X29367908Y16253803D01*
X29387312Y16248821D01*
X29405710Y16242522D01*
X29424105Y16234562D01*
X29470129Y16227274D01*
X29475832Y16226093D01*
X29520981Y16214500D01*
X29541016Y16214500D01*
X29560413Y16212974D01*
X29580196Y16209840D01*
X29626584Y16214225D01*
X29632422Y16214500D01*
X34224457Y16214500D01*
X34240077Y16212776D01*
X34240104Y16213061D01*
X34247860Y16212329D01*
X34247867Y16212327D01*
X34317014Y16214500D01*
X34346550Y16214500D01*
X34353428Y16215370D01*
X34359241Y16215828D01*
X34405827Y16217291D01*
X34425069Y16222883D01*
X34444112Y16226826D01*
X34463992Y16229336D01*
X34507322Y16246493D01*
X34512846Y16248383D01*
X34516596Y16249473D01*
X34557590Y16261382D01*
X34574829Y16271578D01*
X34592303Y16280138D01*
X34610927Y16287512D01*
X34610927Y16287513D01*
X34610932Y16287514D01*
X34648649Y16314918D01*
X34653505Y16318108D01*
X34693620Y16341830D01*
X34707789Y16356001D01*
X34722579Y16368632D01*
X34738787Y16380406D01*
X34768499Y16416324D01*
X34772412Y16420624D01*
X38326417Y19974627D01*
X49905723Y19974627D01*
X49935881Y19674840D01*
X49935882Y19674838D01*
X50005728Y19381748D01*
X50005733Y19381734D01*
X50114020Y19100573D01*
X50114024Y19100564D01*
X50258825Y18836335D01*
X50258829Y18836329D01*
X50363239Y18694623D01*
X50437554Y18593762D01*
X50437561Y18593755D01*
X50647019Y18377177D01*
X50883478Y18190447D01*
X50883480Y18190446D01*
X50883485Y18190442D01*
X51142730Y18036891D01*
X51420128Y17919264D01*
X51710729Y17839660D01*
X52009347Y17799500D01*
X52009351Y17799500D01*
X52235252Y17799500D01*
X52399164Y17810474D01*
X52460634Y17814588D01*
X52755903Y17874604D01*
X53040537Y17973440D01*
X53309459Y18109332D01*
X53557869Y18279856D01*
X53781333Y18481968D01*
X53975865Y18712061D01*
X54137993Y18966030D01*
X54264823Y19239342D01*
X54354093Y19527121D01*
X54404209Y19824230D01*
X54414277Y20125369D01*
X54384118Y20425162D01*
X54314269Y20718261D01*
X54205977Y20999434D01*
X54061175Y21263665D01*
X53999081Y21347939D01*
X53984623Y21367562D01*
X53882446Y21506238D01*
X53672980Y21722824D01*
X53600395Y21780144D01*
X53436521Y21909554D01*
X53436517Y21909557D01*
X53436515Y21909558D01*
X53177270Y22063109D01*
X52899872Y22180736D01*
X52899863Y22180739D01*
X52609272Y22260340D01*
X52534616Y22270380D01*
X52310653Y22300500D01*
X52084756Y22300500D01*
X52084748Y22300500D01*
X51859368Y22285413D01*
X51859359Y22285411D01*
X51564094Y22225396D01*
X51279464Y22126561D01*
X51279459Y22126559D01*
X51010546Y21990672D01*
X50762125Y21820140D01*
X50538665Y21618031D01*
X50344132Y21387936D01*
X50182006Y21133970D01*
X50182005Y21133968D01*
X50094107Y20944551D01*
X50055177Y20860658D01*
X50055176Y20860654D01*
X49965907Y20572882D01*
X49940119Y20419998D01*
X49915791Y20275770D01*
X49906122Y19986549D01*
X49905723Y19974627D01*
X38326417Y19974627D01*
X40926372Y22574581D01*
X40987695Y22608066D01*
X41014053Y22610900D01*
X41073244Y22610900D01*
X41073246Y22610900D01*
X41258403Y22650256D01*
X41431330Y22727249D01*
X41584471Y22838512D01*
X41711133Y22979184D01*
X41805779Y23143116D01*
X41864274Y23323144D01*
X41884060Y23511400D01*
X41864274Y23699656D01*
X41805779Y23879684D01*
X41711133Y24043616D01*
X41584471Y24184288D01*
X41584470Y24184289D01*
X41431334Y24295549D01*
X41431329Y24295552D01*
X41258407Y24372543D01*
X41258402Y24372545D01*
X41112601Y24403535D01*
X41073246Y24411900D01*
X40883954Y24411900D01*
X40851497Y24405002D01*
X40698797Y24372545D01*
X40698792Y24372543D01*
X40525870Y24295552D01*
X40525865Y24295549D01*
X40372729Y24184289D01*
X40246066Y24043615D01*
X40151421Y23879685D01*
X40151418Y23879678D01*
X40099588Y23720160D01*
X40092926Y23699656D01*
X40075479Y23533657D01*
X40075279Y23531751D01*
X40048694Y23467137D01*
X40039639Y23457032D01*
X34084428Y17501819D01*
X34023105Y17468334D01*
X33996747Y17465500D01*
X29910452Y17465500D01*
X29843413Y17485185D01*
X29822771Y17501819D01*
X27389963Y19934627D01*
X30555723Y19934627D01*
X30585881Y19634840D01*
X30585882Y19634838D01*
X30655728Y19341748D01*
X30655730Y19341741D01*
X30655731Y19341739D01*
X30663154Y19322466D01*
X30764020Y19060573D01*
X30764024Y19060564D01*
X30908825Y18796335D01*
X30908829Y18796329D01*
X31058079Y18593766D01*
X31087554Y18553762D01*
X31087561Y18553755D01*
X31297019Y18337177D01*
X31533478Y18150447D01*
X31533480Y18150446D01*
X31533485Y18150442D01*
X31792730Y17996891D01*
X32070128Y17879264D01*
X32360729Y17799660D01*
X32659347Y17759500D01*
X32659351Y17759500D01*
X32885252Y17759500D01*
X33049164Y17770474D01*
X33110634Y17774588D01*
X33405903Y17834604D01*
X33690537Y17933440D01*
X33959459Y18069332D01*
X34207869Y18239856D01*
X34431333Y18441968D01*
X34625865Y18672061D01*
X34787993Y18926030D01*
X34914823Y19199342D01*
X35004093Y19487121D01*
X35054209Y19784230D01*
X35064277Y20085369D01*
X35034118Y20385162D01*
X34964269Y20678261D01*
X34855977Y20959434D01*
X34711175Y21223665D01*
X34532446Y21466238D01*
X34322980Y21682824D01*
X34301801Y21699549D01*
X34086521Y21869554D01*
X34086517Y21869557D01*
X34086515Y21869558D01*
X33827270Y22023109D01*
X33549872Y22140736D01*
X33549863Y22140739D01*
X33259272Y22220340D01*
X33184616Y22230380D01*
X32960653Y22260500D01*
X32734756Y22260500D01*
X32734748Y22260500D01*
X32509368Y22245413D01*
X32509359Y22245411D01*
X32214094Y22185396D01*
X31929464Y22086561D01*
X31929459Y22086559D01*
X31660546Y21950672D01*
X31412125Y21780140D01*
X31188665Y21578031D01*
X30994132Y21347936D01*
X30832006Y21093970D01*
X30832005Y21093968D01*
X30762669Y20944551D01*
X30705177Y20820658D01*
X30705176Y20820654D01*
X30615907Y20532882D01*
X30565791Y20235770D01*
X30555723Y19934627D01*
X27389963Y19934627D01*
X24774591Y22550000D01*
X27394551Y22550000D01*
X27414317Y22298849D01*
X27473126Y22053890D01*
X27569533Y21821141D01*
X27701160Y21606347D01*
X27701161Y21606344D01*
X27701164Y21606341D01*
X27864776Y21414776D01*
X27943036Y21347936D01*
X28056343Y21251162D01*
X28056346Y21251161D01*
X28271140Y21119534D01*
X28503889Y21023127D01*
X28748852Y20964317D01*
X29000000Y20944551D01*
X29251148Y20964317D01*
X29496111Y21023127D01*
X29728859Y21119534D01*
X29943659Y21251164D01*
X30135224Y21414776D01*
X30298836Y21606341D01*
X30430466Y21821141D01*
X30526873Y22053889D01*
X30585683Y22298852D01*
X30605449Y22550000D01*
X30585683Y22801148D01*
X30526873Y23046111D01*
X30510305Y23086111D01*
X30430466Y23278860D01*
X30298839Y23493654D01*
X30298838Y23493657D01*
X30236911Y23566164D01*
X30135224Y23685224D01*
X29964353Y23831162D01*
X29943656Y23848839D01*
X29943653Y23848840D01*
X29728859Y23980467D01*
X29496110Y24076874D01*
X29251151Y24135683D01*
X29000000Y24155449D01*
X28748848Y24135683D01*
X28503889Y24076874D01*
X28271140Y23980467D01*
X28056346Y23848840D01*
X28056343Y23848839D01*
X27864776Y23685224D01*
X27701161Y23493657D01*
X27701160Y23493654D01*
X27569533Y23278860D01*
X27473126Y23046111D01*
X27414317Y22801152D01*
X27394551Y22550000D01*
X24774591Y22550000D01*
X23850803Y23473788D01*
X23840980Y23486050D01*
X23840759Y23485866D01*
X23835786Y23491877D01*
X23833894Y23493654D01*
X23785364Y23539227D01*
X23774919Y23549672D01*
X23764475Y23560117D01*
X23758986Y23564375D01*
X23754561Y23568153D01*
X23720582Y23600062D01*
X23720580Y23600064D01*
X23720577Y23600065D01*
X23703029Y23609712D01*
X23686763Y23620396D01*
X23670933Y23632675D01*
X23628168Y23651182D01*
X23622922Y23653752D01*
X23582093Y23676197D01*
X23582092Y23676198D01*
X23562693Y23681178D01*
X23544281Y23687482D01*
X23525898Y23695438D01*
X23525892Y23695440D01*
X23479874Y23702728D01*
X23474152Y23703913D01*
X23429021Y23715500D01*
X23429019Y23715500D01*
X23408984Y23715500D01*
X23389586Y23717027D01*
X23382162Y23718203D01*
X23369805Y23720160D01*
X23369804Y23720160D01*
X23323416Y23715775D01*
X23317578Y23715500D01*
X17541184Y23715500D01*
X17474145Y23735185D01*
X17428390Y23787989D01*
X17418446Y23857147D01*
X17447471Y23920703D01*
X17460648Y23933787D01*
X17485224Y23954776D01*
X17648836Y24146341D01*
X17780466Y24361141D01*
X17876873Y24593889D01*
X17935683Y24838852D01*
X17955449Y25090000D01*
X33744551Y25090000D01*
X33764317Y24838849D01*
X33823126Y24593890D01*
X33919533Y24361141D01*
X34051160Y24146347D01*
X34051161Y24146344D01*
X34075696Y24117618D01*
X34214776Y23954776D01*
X34329085Y23857147D01*
X34406343Y23791162D01*
X34406346Y23791161D01*
X34621140Y23659534D01*
X34841714Y23568170D01*
X34853889Y23563127D01*
X35098852Y23504317D01*
X35350000Y23484551D01*
X35601148Y23504317D01*
X35846111Y23563127D01*
X36078859Y23659534D01*
X36293659Y23791164D01*
X36485224Y23954776D01*
X36648836Y24146341D01*
X36780466Y24361141D01*
X36876873Y24593889D01*
X36935683Y24838852D01*
X36955449Y25090000D01*
X36935683Y25341148D01*
X36876873Y25586111D01*
X36860305Y25626111D01*
X36780466Y25818860D01*
X36648839Y26033654D01*
X36648838Y26033657D01*
X36563425Y26133662D01*
X36485224Y26225224D01*
X36358571Y26333396D01*
X36293656Y26388839D01*
X36293653Y26388840D01*
X36078859Y26520467D01*
X35846110Y26616874D01*
X35601151Y26675683D01*
X35350000Y26695449D01*
X35098848Y26675683D01*
X34853889Y26616874D01*
X34621140Y26520467D01*
X34406346Y26388840D01*
X34406343Y26388839D01*
X34214776Y26225224D01*
X34051161Y26033657D01*
X34051160Y26033654D01*
X33919533Y25818860D01*
X33823126Y25586111D01*
X33764317Y25341152D01*
X33744551Y25090000D01*
X17955449Y25090000D01*
X17935683Y25341148D01*
X17876873Y25586111D01*
X17860305Y25626111D01*
X17780466Y25818860D01*
X17648839Y26033654D01*
X17648838Y26033657D01*
X17563425Y26133662D01*
X17485224Y26225224D01*
X17358571Y26333396D01*
X17293656Y26388839D01*
X17293653Y26388840D01*
X17078859Y26520467D01*
X16846110Y26616874D01*
X16601151Y26675683D01*
X16350000Y26695449D01*
X16098848Y26675683D01*
X15853889Y26616874D01*
X15621140Y26520467D01*
X15406346Y26388840D01*
X15406343Y26388839D01*
X15214776Y26225224D01*
X15051161Y26033657D01*
X15051160Y26033654D01*
X14919533Y25818860D01*
X14823126Y25586111D01*
X14764317Y25341152D01*
X14744551Y25090000D01*
X14764317Y24838849D01*
X14823126Y24593890D01*
X14919533Y24361141D01*
X15051160Y24146347D01*
X15051161Y24146344D01*
X15075696Y24117618D01*
X15214776Y23954776D01*
X15239348Y23933789D01*
X15277541Y23875283D01*
X15278040Y23805416D01*
X15240686Y23746369D01*
X15177339Y23716891D01*
X15158816Y23715500D01*
X11145521Y23715500D01*
X11078482Y23735185D01*
X11064989Y23745210D01*
X10943656Y23848839D01*
X10943653Y23848840D01*
X10728859Y23980467D01*
X10496110Y24076874D01*
X10251151Y24135683D01*
X10000000Y24155449D01*
X9748848Y24135683D01*
X9503889Y24076874D01*
X9271140Y23980467D01*
X9056346Y23848840D01*
X9056343Y23848839D01*
X8864776Y23685224D01*
X8701161Y23493657D01*
X8701160Y23493654D01*
X8569533Y23278860D01*
X8473126Y23046111D01*
X8414317Y22801152D01*
X8394551Y22550000D01*
X2228600Y22550000D01*
X2228600Y39474627D01*
X11555723Y39474627D01*
X11585881Y39174840D01*
X11585882Y39174838D01*
X11655728Y38881748D01*
X11655733Y38881734D01*
X11764020Y38600573D01*
X11764024Y38600564D01*
X11908825Y38336335D01*
X11908829Y38336329D01*
X12009275Y38200003D01*
X12087554Y38093762D01*
X12087561Y38093755D01*
X12297019Y37877177D01*
X12533478Y37690447D01*
X12533480Y37690446D01*
X12533485Y37690442D01*
X12792730Y37536891D01*
X13070128Y37419264D01*
X13360729Y37339660D01*
X13659347Y37299500D01*
X13659351Y37299500D01*
X13885252Y37299500D01*
X14049164Y37310474D01*
X14110634Y37314588D01*
X14405903Y37374604D01*
X14690537Y37473440D01*
X14959459Y37609332D01*
X15207869Y37779856D01*
X15431333Y37981968D01*
X15625865Y38212061D01*
X15787993Y38466030D01*
X15914823Y38739342D01*
X16004093Y39027121D01*
X16054209Y39324230D01*
X16059237Y39474627D01*
X30555723Y39474627D01*
X30585881Y39174840D01*
X30585882Y39174838D01*
X30655728Y38881748D01*
X30655733Y38881734D01*
X30764020Y38600573D01*
X30764024Y38600564D01*
X30908825Y38336335D01*
X30908829Y38336329D01*
X31009275Y38200003D01*
X31087554Y38093762D01*
X31087561Y38093755D01*
X31297019Y37877177D01*
X31533478Y37690447D01*
X31533480Y37690446D01*
X31533485Y37690442D01*
X31792730Y37536891D01*
X32070128Y37419264D01*
X32360729Y37339660D01*
X32659347Y37299500D01*
X32659351Y37299500D01*
X32885252Y37299500D01*
X33049164Y37310474D01*
X33110634Y37314588D01*
X33405903Y37374604D01*
X33690537Y37473440D01*
X33959459Y37609332D01*
X34207869Y37779856D01*
X34431333Y37981968D01*
X34625865Y38212061D01*
X34787993Y38466030D01*
X34914823Y38739342D01*
X35004093Y39027121D01*
X35054209Y39324230D01*
X35064277Y39625369D01*
X35034118Y39925162D01*
X34964269Y40218261D01*
X34855977Y40499434D01*
X34711175Y40763665D01*
X34532446Y41006238D01*
X34322980Y41222824D01*
X34199742Y41320144D01*
X34086521Y41409554D01*
X34086517Y41409557D01*
X34086515Y41409558D01*
X33827270Y41563109D01*
X33549872Y41680736D01*
X33549863Y41680739D01*
X33259272Y41760340D01*
X33184616Y41770380D01*
X32960653Y41800500D01*
X32734756Y41800500D01*
X32734748Y41800500D01*
X32509368Y41785413D01*
X32509359Y41785411D01*
X32214094Y41725396D01*
X31929464Y41626561D01*
X31929459Y41626559D01*
X31660546Y41490672D01*
X31412125Y41320140D01*
X31188665Y41118031D01*
X30994132Y40887936D01*
X30832006Y40633970D01*
X30832005Y40633968D01*
X30762669Y40484551D01*
X30705177Y40360658D01*
X30705176Y40360654D01*
X30615907Y40072882D01*
X30591028Y39925385D01*
X30565791Y39775770D01*
X30559326Y39582382D01*
X30555723Y39474627D01*
X16059237Y39474627D01*
X16064277Y39625369D01*
X16034118Y39925162D01*
X15964269Y40218261D01*
X15855977Y40499434D01*
X15711175Y40763665D01*
X15532446Y41006238D01*
X15322980Y41222824D01*
X15199742Y41320144D01*
X15086521Y41409554D01*
X15086517Y41409557D01*
X15086515Y41409558D01*
X14827270Y41563109D01*
X14549872Y41680736D01*
X14549863Y41680739D01*
X14259272Y41760340D01*
X14184616Y41770380D01*
X13960653Y41800500D01*
X13734756Y41800500D01*
X13734748Y41800500D01*
X13509368Y41785413D01*
X13509359Y41785411D01*
X13214094Y41725396D01*
X12929464Y41626561D01*
X12929459Y41626559D01*
X12660546Y41490672D01*
X12412125Y41320140D01*
X12188665Y41118031D01*
X11994132Y40887936D01*
X11832006Y40633970D01*
X11832005Y40633968D01*
X11762669Y40484551D01*
X11705177Y40360658D01*
X11705176Y40360654D01*
X11615907Y40072882D01*
X11591028Y39925385D01*
X11565791Y39775770D01*
X11559326Y39582382D01*
X11555723Y39474627D01*
X2228600Y39474627D01*
X2228600Y42090000D01*
X8394551Y42090000D01*
X8414317Y41838849D01*
X8473126Y41593890D01*
X8569533Y41361141D01*
X8701160Y41146347D01*
X8701161Y41146344D01*
X8701164Y41146341D01*
X8864776Y40954776D01*
X8943036Y40887936D01*
X9056343Y40791162D01*
X9056346Y40791161D01*
X9271140Y40659534D01*
X9503889Y40563127D01*
X9748852Y40504317D01*
X10000000Y40484551D01*
X10251148Y40504317D01*
X10496111Y40563127D01*
X10728859Y40659534D01*
X10943659Y40791164D01*
X11135224Y40954776D01*
X11298836Y41146341D01*
X11430466Y41361141D01*
X11526873Y41593889D01*
X11585683Y41838852D01*
X11605449Y42090000D01*
X27394551Y42090000D01*
X27414317Y41838849D01*
X27473126Y41593890D01*
X27569533Y41361141D01*
X27701160Y41146347D01*
X27701161Y41146344D01*
X27701164Y41146341D01*
X27864776Y40954776D01*
X27943036Y40887936D01*
X28056343Y40791162D01*
X28056346Y40791161D01*
X28271140Y40659534D01*
X28503889Y40563127D01*
X28748852Y40504317D01*
X29000000Y40484551D01*
X29251148Y40504317D01*
X29496111Y40563127D01*
X29728859Y40659534D01*
X29943659Y40791164D01*
X30135224Y40954776D01*
X30298836Y41146341D01*
X30430466Y41361141D01*
X30526873Y41593889D01*
X30585683Y41838852D01*
X30605449Y42090000D01*
X30585683Y42341148D01*
X30526873Y42586111D01*
X30430466Y42818859D01*
X30430466Y42818860D01*
X30299640Y43032347D01*
X30298838Y43033655D01*
X30298838Y43033657D01*
X30261875Y43076934D01*
X30135224Y43225224D01*
X30008571Y43333396D01*
X29943656Y43388839D01*
X29943653Y43388840D01*
X29728859Y43520467D01*
X29496110Y43616874D01*
X29251151Y43675683D01*
X29000000Y43695449D01*
X28748848Y43675683D01*
X28503889Y43616874D01*
X28271140Y43520467D01*
X28056346Y43388840D01*
X28056343Y43388839D01*
X27864776Y43225224D01*
X27701161Y43033657D01*
X27701160Y43033654D01*
X27569533Y42818860D01*
X27473126Y42586111D01*
X27414317Y42341152D01*
X27394551Y42090000D01*
X11605449Y42090000D01*
X11585683Y42341148D01*
X11526873Y42586111D01*
X11430466Y42818859D01*
X11430466Y42818860D01*
X11299640Y43032347D01*
X11298838Y43033655D01*
X11298838Y43033657D01*
X11261875Y43076934D01*
X11135224Y43225224D01*
X11008571Y43333396D01*
X10943656Y43388839D01*
X10943653Y43388840D01*
X10728859Y43520467D01*
X10496110Y43616874D01*
X10251151Y43675683D01*
X10000000Y43695449D01*
X9748848Y43675683D01*
X9503889Y43616874D01*
X9271140Y43520467D01*
X9056346Y43388840D01*
X9056343Y43388839D01*
X8864776Y43225224D01*
X8701161Y43033657D01*
X8701160Y43033654D01*
X8569533Y42818860D01*
X8473126Y42586111D01*
X8414317Y42341152D01*
X8394551Y42090000D01*
X2228600Y42090000D01*
X2228600Y44630000D01*
X14744551Y44630000D01*
X14764317Y44378849D01*
X14823126Y44133890D01*
X14919533Y43901141D01*
X15051160Y43686347D01*
X15051161Y43686344D01*
X15106604Y43621429D01*
X15214776Y43494776D01*
X15338811Y43388840D01*
X15406343Y43331162D01*
X15406346Y43331161D01*
X15621140Y43199534D01*
X15853889Y43103127D01*
X16098852Y43044317D01*
X16350000Y43024551D01*
X16601148Y43044317D01*
X16846111Y43103127D01*
X17078859Y43199534D01*
X17293659Y43331164D01*
X17485224Y43494776D01*
X17648836Y43686341D01*
X17780466Y43901141D01*
X17876873Y44133889D01*
X17935683Y44378852D01*
X17955449Y44630000D01*
X33744551Y44630000D01*
X33764317Y44378849D01*
X33823126Y44133890D01*
X33919533Y43901141D01*
X34051160Y43686347D01*
X34051161Y43686344D01*
X34106604Y43621429D01*
X34214776Y43494776D01*
X34338811Y43388840D01*
X34406343Y43331162D01*
X34406346Y43331161D01*
X34621140Y43199534D01*
X34853889Y43103127D01*
X35098852Y43044317D01*
X35350000Y43024551D01*
X35601148Y43044317D01*
X35846111Y43103127D01*
X36078859Y43199534D01*
X36293659Y43331164D01*
X36485224Y43494776D01*
X36648836Y43686341D01*
X36780466Y43901141D01*
X36876873Y44133889D01*
X36935683Y44378852D01*
X36955449Y44630000D01*
X36935683Y44881148D01*
X36876873Y45126111D01*
X36780466Y45358859D01*
X36780466Y45358860D01*
X36648839Y45573654D01*
X36648838Y45573657D01*
X36576448Y45658414D01*
X36485224Y45765224D01*
X36342452Y45887163D01*
X36293656Y45928839D01*
X36293653Y45928840D01*
X36078859Y46060467D01*
X35846110Y46156874D01*
X35601151Y46215683D01*
X35350000Y46235449D01*
X35098848Y46215683D01*
X34853889Y46156874D01*
X34621140Y46060467D01*
X34406346Y45928840D01*
X34406343Y45928839D01*
X34214776Y45765224D01*
X34051161Y45573657D01*
X34051160Y45573654D01*
X33919533Y45358860D01*
X33823126Y45126111D01*
X33764317Y44881152D01*
X33744551Y44630000D01*
X17955449Y44630000D01*
X17935683Y44881148D01*
X17876873Y45126111D01*
X17780466Y45358859D01*
X17780466Y45358860D01*
X17648839Y45573654D01*
X17648838Y45573657D01*
X17576448Y45658414D01*
X17485224Y45765224D01*
X17342452Y45887163D01*
X17293656Y45928839D01*
X17293653Y45928840D01*
X17078859Y46060467D01*
X16846110Y46156874D01*
X16601151Y46215683D01*
X16350000Y46235449D01*
X16098848Y46215683D01*
X15853889Y46156874D01*
X15621140Y46060467D01*
X15406346Y45928840D01*
X15406343Y45928839D01*
X15214776Y45765224D01*
X15051161Y45573657D01*
X15051160Y45573654D01*
X14919533Y45358860D01*
X14823126Y45126111D01*
X14764317Y44881152D01*
X14744551Y44630000D01*
X2228600Y44630000D01*
X2228600Y50637400D01*
X2248285Y50704439D01*
X2301089Y50750194D01*
X2352600Y50761400D01*
X6425500Y50761400D01*
X6492539Y50741715D01*
G37*
%TD.AperFunction*%
M02*
