%TF.GenerationSoftware,KiCad,Pcbnew,7.0.9*%
%TF.CreationDate,2024-01-20T20:31:14+09:00*%
%TF.ProjectId,cardsize_keyboad,63617264-7369-47a6-955f-6b6579626f61,rev?*%
%TF.SameCoordinates,PX34f3078PY5614798*%
%TF.FileFunction,Legend,Bot*%
%TF.FilePolarity,Positive*%
%FSLAX46Y46*%
G04 Gerber Fmt 4.6, Leading zero omitted, Abs format (unit mm)*
G04 Created by KiCad (PCBNEW 7.0.9) date 2024-01-20 20:31:14*
%MOMM*%
%LPD*%
G01*
G04 APERTURE LIST*
%ADD10C,0.125000*%
%ADD11C,0.120000*%
%ADD12C,0.150000*%
G04 APERTURE END LIST*
D10*
X81076875Y43665822D02*
X81140685Y43701536D01*
X81140685Y43701536D02*
X81236399Y43701536D01*
X81236399Y43701536D02*
X81332113Y43665822D01*
X81332113Y43665822D02*
X81395923Y43594393D01*
X81395923Y43594393D02*
X81427828Y43522965D01*
X81427828Y43522965D02*
X81459732Y43380108D01*
X81459732Y43380108D02*
X81459732Y43272965D01*
X81459732Y43272965D02*
X81427828Y43130108D01*
X81427828Y43130108D02*
X81395923Y43058679D01*
X81395923Y43058679D02*
X81332113Y42987250D01*
X81332113Y42987250D02*
X81236399Y42951536D01*
X81236399Y42951536D02*
X81172590Y42951536D01*
X81172590Y42951536D02*
X81076875Y42987250D01*
X81076875Y42987250D02*
X81044971Y43022965D01*
X81044971Y43022965D02*
X81044971Y43272965D01*
X81044971Y43272965D02*
X81172590Y43272965D01*
X80757828Y42951536D02*
X80757828Y43701536D01*
X80757828Y43701536D02*
X80374971Y42951536D01*
X80374971Y42951536D02*
X80374971Y43701536D01*
X80055923Y42951536D02*
X80055923Y43701536D01*
X80055923Y43701536D02*
X79896399Y43701536D01*
X79896399Y43701536D02*
X79800685Y43665822D01*
X79800685Y43665822D02*
X79736875Y43594393D01*
X79736875Y43594393D02*
X79704970Y43522965D01*
X79704970Y43522965D02*
X79673066Y43380108D01*
X79673066Y43380108D02*
X79673066Y43272965D01*
X79673066Y43272965D02*
X79704970Y43130108D01*
X79704970Y43130108D02*
X79736875Y43058679D01*
X79736875Y43058679D02*
X79800685Y42987250D01*
X79800685Y42987250D02*
X79896399Y42951536D01*
X79896399Y42951536D02*
X80055923Y42951536D01*
X81099018Y20051536D02*
X81481875Y20051536D01*
X81290447Y20051536D02*
X81290447Y20801536D01*
X81290447Y20801536D02*
X81354256Y20694393D01*
X81354256Y20694393D02*
X81418066Y20622965D01*
X81418066Y20622965D02*
X81481875Y20587250D01*
X80524733Y20801536D02*
X80652352Y20801536D01*
X80652352Y20801536D02*
X80716161Y20765822D01*
X80716161Y20765822D02*
X80748066Y20730108D01*
X80748066Y20730108D02*
X80811876Y20622965D01*
X80811876Y20622965D02*
X80843780Y20480108D01*
X80843780Y20480108D02*
X80843780Y20194393D01*
X80843780Y20194393D02*
X80811876Y20122965D01*
X80811876Y20122965D02*
X80779971Y20087250D01*
X80779971Y20087250D02*
X80716161Y20051536D01*
X80716161Y20051536D02*
X80588542Y20051536D01*
X80588542Y20051536D02*
X80524733Y20087250D01*
X80524733Y20087250D02*
X80492828Y20122965D01*
X80492828Y20122965D02*
X80460923Y20194393D01*
X80460923Y20194393D02*
X80460923Y20372965D01*
X80460923Y20372965D02*
X80492828Y20444393D01*
X80492828Y20444393D02*
X80524733Y20480108D01*
X80524733Y20480108D02*
X80588542Y20515822D01*
X80588542Y20515822D02*
X80716161Y20515822D01*
X80716161Y20515822D02*
X80779971Y20480108D01*
X80779971Y20480108D02*
X80811876Y20444393D01*
X80811876Y20444393D02*
X80843780Y20372965D01*
X79695209Y20837250D02*
X80269495Y19872965D01*
X79248542Y20444393D02*
X79152828Y20408679D01*
X79152828Y20408679D02*
X79120923Y20372965D01*
X79120923Y20372965D02*
X79089019Y20301536D01*
X79089019Y20301536D02*
X79089019Y20194393D01*
X79089019Y20194393D02*
X79120923Y20122965D01*
X79120923Y20122965D02*
X79152828Y20087250D01*
X79152828Y20087250D02*
X79216638Y20051536D01*
X79216638Y20051536D02*
X79471876Y20051536D01*
X79471876Y20051536D02*
X79471876Y20801536D01*
X79471876Y20801536D02*
X79248542Y20801536D01*
X79248542Y20801536D02*
X79184733Y20765822D01*
X79184733Y20765822D02*
X79152828Y20730108D01*
X79152828Y20730108D02*
X79120923Y20658679D01*
X79120923Y20658679D02*
X79120923Y20587250D01*
X79120923Y20587250D02*
X79152828Y20515822D01*
X79152828Y20515822D02*
X79184733Y20480108D01*
X79184733Y20480108D02*
X79248542Y20444393D01*
X79248542Y20444393D02*
X79471876Y20444393D01*
X78833780Y20730108D02*
X78801876Y20765822D01*
X78801876Y20765822D02*
X78738066Y20801536D01*
X78738066Y20801536D02*
X78578542Y20801536D01*
X78578542Y20801536D02*
X78514733Y20765822D01*
X78514733Y20765822D02*
X78482828Y20730108D01*
X78482828Y20730108D02*
X78450923Y20658679D01*
X78450923Y20658679D02*
X78450923Y20587250D01*
X78450923Y20587250D02*
X78482828Y20480108D01*
X78482828Y20480108D02*
X78865685Y20051536D01*
X78865685Y20051536D02*
X78450923Y20051536D01*
X71807589Y20594393D02*
X71711875Y20558679D01*
X71711875Y20558679D02*
X71679970Y20522965D01*
X71679970Y20522965D02*
X71648066Y20451536D01*
X71648066Y20451536D02*
X71648066Y20344393D01*
X71648066Y20344393D02*
X71679970Y20272965D01*
X71679970Y20272965D02*
X71711875Y20237250D01*
X71711875Y20237250D02*
X71775685Y20201536D01*
X71775685Y20201536D02*
X72030923Y20201536D01*
X72030923Y20201536D02*
X72030923Y20951536D01*
X72030923Y20951536D02*
X71807589Y20951536D01*
X71807589Y20951536D02*
X71743780Y20915822D01*
X71743780Y20915822D02*
X71711875Y20880108D01*
X71711875Y20880108D02*
X71679970Y20808679D01*
X71679970Y20808679D02*
X71679970Y20737250D01*
X71679970Y20737250D02*
X71711875Y20665822D01*
X71711875Y20665822D02*
X71743780Y20630108D01*
X71743780Y20630108D02*
X71807589Y20594393D01*
X71807589Y20594393D02*
X72030923Y20594393D01*
X71073780Y20701536D02*
X71073780Y20201536D01*
X71233304Y20987250D02*
X71392827Y20451536D01*
X71392827Y20451536D02*
X70978066Y20451536D01*
X70244256Y20987250D02*
X70818542Y20022965D01*
X69925208Y20630108D02*
X69989018Y20665822D01*
X69989018Y20665822D02*
X70020923Y20701536D01*
X70020923Y20701536D02*
X70052827Y20772965D01*
X70052827Y20772965D02*
X70052827Y20808679D01*
X70052827Y20808679D02*
X70020923Y20880108D01*
X70020923Y20880108D02*
X69989018Y20915822D01*
X69989018Y20915822D02*
X69925208Y20951536D01*
X69925208Y20951536D02*
X69797589Y20951536D01*
X69797589Y20951536D02*
X69733780Y20915822D01*
X69733780Y20915822D02*
X69701875Y20880108D01*
X69701875Y20880108D02*
X69669970Y20808679D01*
X69669970Y20808679D02*
X69669970Y20772965D01*
X69669970Y20772965D02*
X69701875Y20701536D01*
X69701875Y20701536D02*
X69733780Y20665822D01*
X69733780Y20665822D02*
X69797589Y20630108D01*
X69797589Y20630108D02*
X69925208Y20630108D01*
X69925208Y20630108D02*
X69989018Y20594393D01*
X69989018Y20594393D02*
X70020923Y20558679D01*
X70020923Y20558679D02*
X70052827Y20487250D01*
X70052827Y20487250D02*
X70052827Y20344393D01*
X70052827Y20344393D02*
X70020923Y20272965D01*
X70020923Y20272965D02*
X69989018Y20237250D01*
X69989018Y20237250D02*
X69925208Y20201536D01*
X69925208Y20201536D02*
X69797589Y20201536D01*
X69797589Y20201536D02*
X69733780Y20237250D01*
X69733780Y20237250D02*
X69701875Y20272965D01*
X69701875Y20272965D02*
X69669970Y20344393D01*
X69669970Y20344393D02*
X69669970Y20487250D01*
X69669970Y20487250D02*
X69701875Y20558679D01*
X69701875Y20558679D02*
X69733780Y20594393D01*
X69733780Y20594393D02*
X69797589Y20630108D01*
D11*
X78067828Y49951276D02*
X78067828Y50701276D01*
X78067828Y50701276D02*
X77817828Y50165562D01*
X77817828Y50165562D02*
X77567828Y50701276D01*
X77567828Y50701276D02*
X77567828Y49951276D01*
X77210685Y49951276D02*
X77210685Y50451276D01*
X77210685Y50701276D02*
X77246399Y50665562D01*
X77246399Y50665562D02*
X77210685Y50629848D01*
X77210685Y50629848D02*
X77174971Y50665562D01*
X77174971Y50665562D02*
X77210685Y50701276D01*
X77210685Y50701276D02*
X77210685Y50629848D01*
X76532114Y49986990D02*
X76603542Y49951276D01*
X76603542Y49951276D02*
X76746399Y49951276D01*
X76746399Y49951276D02*
X76817828Y49986990D01*
X76817828Y49986990D02*
X76853542Y50022705D01*
X76853542Y50022705D02*
X76889256Y50094133D01*
X76889256Y50094133D02*
X76889256Y50308419D01*
X76889256Y50308419D02*
X76853542Y50379848D01*
X76853542Y50379848D02*
X76817828Y50415562D01*
X76817828Y50415562D02*
X76746399Y50451276D01*
X76746399Y50451276D02*
X76603542Y50451276D01*
X76603542Y50451276D02*
X76532114Y50415562D01*
X76210685Y49951276D02*
X76210685Y50451276D01*
X76210685Y50308419D02*
X76174971Y50379848D01*
X76174971Y50379848D02*
X76139257Y50415562D01*
X76139257Y50415562D02*
X76067828Y50451276D01*
X76067828Y50451276D02*
X75996399Y50451276D01*
X75639256Y49951276D02*
X75710685Y49986990D01*
X75710685Y49986990D02*
X75746399Y50022705D01*
X75746399Y50022705D02*
X75782113Y50094133D01*
X75782113Y50094133D02*
X75782113Y50308419D01*
X75782113Y50308419D02*
X75746399Y50379848D01*
X75746399Y50379848D02*
X75710685Y50415562D01*
X75710685Y50415562D02*
X75639256Y50451276D01*
X75639256Y50451276D02*
X75532113Y50451276D01*
X75532113Y50451276D02*
X75460685Y50415562D01*
X75460685Y50415562D02*
X75424971Y50379848D01*
X75424971Y50379848D02*
X75389256Y50308419D01*
X75389256Y50308419D02*
X75389256Y50094133D01*
X75389256Y50094133D02*
X75424971Y50022705D01*
X75424971Y50022705D02*
X75460685Y49986990D01*
X75460685Y49986990D02*
X75532113Y49951276D01*
X75532113Y49951276D02*
X75639256Y49951276D01*
X75067828Y50701276D02*
X75067828Y50094133D01*
X75067828Y50094133D02*
X75032114Y50022705D01*
X75032114Y50022705D02*
X74996400Y49986990D01*
X74996400Y49986990D02*
X74924971Y49951276D01*
X74924971Y49951276D02*
X74782114Y49951276D01*
X74782114Y49951276D02*
X74710685Y49986990D01*
X74710685Y49986990D02*
X74674971Y50022705D01*
X74674971Y50022705D02*
X74639257Y50094133D01*
X74639257Y50094133D02*
X74639257Y50701276D01*
X74317828Y49986990D02*
X74210686Y49951276D01*
X74210686Y49951276D02*
X74032114Y49951276D01*
X74032114Y49951276D02*
X73960686Y49986990D01*
X73960686Y49986990D02*
X73924971Y50022705D01*
X73924971Y50022705D02*
X73889257Y50094133D01*
X73889257Y50094133D02*
X73889257Y50165562D01*
X73889257Y50165562D02*
X73924971Y50236990D01*
X73924971Y50236990D02*
X73960686Y50272705D01*
X73960686Y50272705D02*
X74032114Y50308419D01*
X74032114Y50308419D02*
X74174971Y50344133D01*
X74174971Y50344133D02*
X74246400Y50379848D01*
X74246400Y50379848D02*
X74282114Y50415562D01*
X74282114Y50415562D02*
X74317828Y50486990D01*
X74317828Y50486990D02*
X74317828Y50558419D01*
X74317828Y50558419D02*
X74282114Y50629848D01*
X74282114Y50629848D02*
X74246400Y50665562D01*
X74246400Y50665562D02*
X74174971Y50701276D01*
X74174971Y50701276D02*
X73996400Y50701276D01*
X73996400Y50701276D02*
X73889257Y50665562D01*
X73317828Y50344133D02*
X73210685Y50308419D01*
X73210685Y50308419D02*
X73174971Y50272705D01*
X73174971Y50272705D02*
X73139257Y50201276D01*
X73139257Y50201276D02*
X73139257Y50094133D01*
X73139257Y50094133D02*
X73174971Y50022705D01*
X73174971Y50022705D02*
X73210685Y49986990D01*
X73210685Y49986990D02*
X73282114Y49951276D01*
X73282114Y49951276D02*
X73567828Y49951276D01*
X73567828Y49951276D02*
X73567828Y50701276D01*
X73567828Y50701276D02*
X73317828Y50701276D01*
X73317828Y50701276D02*
X73246400Y50665562D01*
X73246400Y50665562D02*
X73210685Y50629848D01*
X73210685Y50629848D02*
X73174971Y50558419D01*
X73174971Y50558419D02*
X73174971Y50486990D01*
X73174971Y50486990D02*
X73210685Y50415562D01*
X73210685Y50415562D02*
X73246400Y50379848D01*
X73246400Y50379848D02*
X73317828Y50344133D01*
X73317828Y50344133D02*
X73567828Y50344133D01*
D10*
X81402113Y35465822D02*
X81083066Y35465822D01*
X81465923Y35251536D02*
X81242590Y36001536D01*
X81242590Y36001536D02*
X81019256Y35251536D01*
X80859732Y36001536D02*
X80444970Y36001536D01*
X80444970Y36001536D02*
X80668304Y35715822D01*
X80668304Y35715822D02*
X80572589Y35715822D01*
X80572589Y35715822D02*
X80508780Y35680108D01*
X80508780Y35680108D02*
X80476875Y35644393D01*
X80476875Y35644393D02*
X80444970Y35572965D01*
X80444970Y35572965D02*
X80444970Y35394393D01*
X80444970Y35394393D02*
X80476875Y35322965D01*
X80476875Y35322965D02*
X80508780Y35287250D01*
X80508780Y35287250D02*
X80572589Y35251536D01*
X80572589Y35251536D02*
X80764018Y35251536D01*
X80764018Y35251536D02*
X80827827Y35287250D01*
X80827827Y35287250D02*
X80859732Y35322965D01*
X79679256Y36037250D02*
X80253542Y35072965D01*
X79232589Y35644393D02*
X79455923Y35644393D01*
X79455923Y35251536D02*
X79455923Y36001536D01*
X79455923Y36001536D02*
X79136875Y36001536D01*
X78594494Y35751536D02*
X78594494Y35251536D01*
X78754018Y36037250D02*
X78913541Y35501536D01*
X78913541Y35501536D02*
X78498780Y35501536D01*
X81402113Y32965822D02*
X81083066Y32965822D01*
X81465923Y32751536D02*
X81242590Y33501536D01*
X81242590Y33501536D02*
X81019256Y32751536D01*
X80827827Y33430108D02*
X80795923Y33465822D01*
X80795923Y33465822D02*
X80732113Y33501536D01*
X80732113Y33501536D02*
X80572589Y33501536D01*
X80572589Y33501536D02*
X80508780Y33465822D01*
X80508780Y33465822D02*
X80476875Y33430108D01*
X80476875Y33430108D02*
X80444970Y33358679D01*
X80444970Y33358679D02*
X80444970Y33287250D01*
X80444970Y33287250D02*
X80476875Y33180108D01*
X80476875Y33180108D02*
X80859732Y32751536D01*
X80859732Y32751536D02*
X80444970Y32751536D01*
X79679256Y33537250D02*
X80253542Y32572965D01*
X79232589Y33144393D02*
X79455923Y33144393D01*
X79455923Y32751536D02*
X79455923Y33501536D01*
X79455923Y33501536D02*
X79136875Y33501536D01*
X78562589Y33501536D02*
X78881637Y33501536D01*
X78881637Y33501536D02*
X78913541Y33144393D01*
X78913541Y33144393D02*
X78881637Y33180108D01*
X78881637Y33180108D02*
X78817827Y33215822D01*
X78817827Y33215822D02*
X78658303Y33215822D01*
X78658303Y33215822D02*
X78594494Y33180108D01*
X78594494Y33180108D02*
X78562589Y33144393D01*
X78562589Y33144393D02*
X78530684Y33072965D01*
X78530684Y33072965D02*
X78530684Y32894393D01*
X78530684Y32894393D02*
X78562589Y32822965D01*
X78562589Y32822965D02*
X78594494Y32787250D01*
X78594494Y32787250D02*
X78658303Y32751536D01*
X78658303Y32751536D02*
X78817827Y32751536D01*
X78817827Y32751536D02*
X78881637Y32787250D01*
X78881637Y32787250D02*
X78913541Y32822965D01*
X72030923Y25301536D02*
X72030923Y26051536D01*
X72030923Y26051536D02*
X71871399Y26051536D01*
X71871399Y26051536D02*
X71775685Y26015822D01*
X71775685Y26015822D02*
X71711875Y25944393D01*
X71711875Y25944393D02*
X71679970Y25872965D01*
X71679970Y25872965D02*
X71648066Y25730108D01*
X71648066Y25730108D02*
X71648066Y25622965D01*
X71648066Y25622965D02*
X71679970Y25480108D01*
X71679970Y25480108D02*
X71711875Y25408679D01*
X71711875Y25408679D02*
X71775685Y25337250D01*
X71775685Y25337250D02*
X71871399Y25301536D01*
X71871399Y25301536D02*
X72030923Y25301536D01*
X71424732Y26051536D02*
X70978066Y26051536D01*
X70978066Y26051536D02*
X71265208Y25301536D01*
X70244256Y26087250D02*
X70818542Y25122965D01*
X69733780Y26051536D02*
X69861399Y26051536D01*
X69861399Y26051536D02*
X69925208Y26015822D01*
X69925208Y26015822D02*
X69957113Y25980108D01*
X69957113Y25980108D02*
X70020923Y25872965D01*
X70020923Y25872965D02*
X70052827Y25730108D01*
X70052827Y25730108D02*
X70052827Y25444393D01*
X70052827Y25444393D02*
X70020923Y25372965D01*
X70020923Y25372965D02*
X69989018Y25337250D01*
X69989018Y25337250D02*
X69925208Y25301536D01*
X69925208Y25301536D02*
X69797589Y25301536D01*
X69797589Y25301536D02*
X69733780Y25337250D01*
X69733780Y25337250D02*
X69701875Y25372965D01*
X69701875Y25372965D02*
X69669970Y25444393D01*
X69669970Y25444393D02*
X69669970Y25622965D01*
X69669970Y25622965D02*
X69701875Y25694393D01*
X69701875Y25694393D02*
X69733780Y25730108D01*
X69733780Y25730108D02*
X69797589Y25765822D01*
X69797589Y25765822D02*
X69925208Y25765822D01*
X69925208Y25765822D02*
X69989018Y25730108D01*
X69989018Y25730108D02*
X70020923Y25694393D01*
X70020923Y25694393D02*
X70052827Y25622965D01*
X74589018Y32937250D02*
X74493304Y32901536D01*
X74493304Y32901536D02*
X74333780Y32901536D01*
X74333780Y32901536D02*
X74269971Y32937250D01*
X74269971Y32937250D02*
X74238066Y32972965D01*
X74238066Y32972965D02*
X74206161Y33044393D01*
X74206161Y33044393D02*
X74206161Y33115822D01*
X74206161Y33115822D02*
X74238066Y33187250D01*
X74238066Y33187250D02*
X74269971Y33222965D01*
X74269971Y33222965D02*
X74333780Y33258679D01*
X74333780Y33258679D02*
X74461399Y33294393D01*
X74461399Y33294393D02*
X74525209Y33330108D01*
X74525209Y33330108D02*
X74557114Y33365822D01*
X74557114Y33365822D02*
X74589018Y33437250D01*
X74589018Y33437250D02*
X74589018Y33508679D01*
X74589018Y33508679D02*
X74557114Y33580108D01*
X74557114Y33580108D02*
X74525209Y33615822D01*
X74525209Y33615822D02*
X74461399Y33651536D01*
X74461399Y33651536D02*
X74301876Y33651536D01*
X74301876Y33651536D02*
X74206161Y33615822D01*
X73536162Y32972965D02*
X73568066Y32937250D01*
X73568066Y32937250D02*
X73663781Y32901536D01*
X73663781Y32901536D02*
X73727590Y32901536D01*
X73727590Y32901536D02*
X73823304Y32937250D01*
X73823304Y32937250D02*
X73887114Y33008679D01*
X73887114Y33008679D02*
X73919019Y33080108D01*
X73919019Y33080108D02*
X73950923Y33222965D01*
X73950923Y33222965D02*
X73950923Y33330108D01*
X73950923Y33330108D02*
X73919019Y33472965D01*
X73919019Y33472965D02*
X73887114Y33544393D01*
X73887114Y33544393D02*
X73823304Y33615822D01*
X73823304Y33615822D02*
X73727590Y33651536D01*
X73727590Y33651536D02*
X73663781Y33651536D01*
X73663781Y33651536D02*
X73568066Y33615822D01*
X73568066Y33615822D02*
X73536162Y33580108D01*
X72929971Y32901536D02*
X73249019Y32901536D01*
X73249019Y32901536D02*
X73249019Y33651536D01*
X72228066Y33687250D02*
X72802352Y32722965D01*
X72004733Y32901536D02*
X72004733Y33651536D01*
X72004733Y33651536D02*
X71845209Y33651536D01*
X71845209Y33651536D02*
X71749495Y33615822D01*
X71749495Y33615822D02*
X71685685Y33544393D01*
X71685685Y33544393D02*
X71653780Y33472965D01*
X71653780Y33472965D02*
X71621876Y33330108D01*
X71621876Y33330108D02*
X71621876Y33222965D01*
X71621876Y33222965D02*
X71653780Y33080108D01*
X71653780Y33080108D02*
X71685685Y33008679D01*
X71685685Y33008679D02*
X71749495Y32937250D01*
X71749495Y32937250D02*
X71845209Y32901536D01*
X71845209Y32901536D02*
X72004733Y32901536D01*
X71207114Y33651536D02*
X71143304Y33651536D01*
X71143304Y33651536D02*
X71079495Y33615822D01*
X71079495Y33615822D02*
X71047590Y33580108D01*
X71047590Y33580108D02*
X71015685Y33508679D01*
X71015685Y33508679D02*
X70983780Y33365822D01*
X70983780Y33365822D02*
X70983780Y33187250D01*
X70983780Y33187250D02*
X71015685Y33044393D01*
X71015685Y33044393D02*
X71047590Y32972965D01*
X71047590Y32972965D02*
X71079495Y32937250D01*
X71079495Y32937250D02*
X71143304Y32901536D01*
X71143304Y32901536D02*
X71207114Y32901536D01*
X71207114Y32901536D02*
X71270923Y32937250D01*
X71270923Y32937250D02*
X71302828Y32972965D01*
X71302828Y32972965D02*
X71334733Y33044393D01*
X71334733Y33044393D02*
X71366637Y33187250D01*
X71366637Y33187250D02*
X71366637Y33365822D01*
X71366637Y33365822D02*
X71334733Y33508679D01*
X71334733Y33508679D02*
X71302828Y33580108D01*
X71302828Y33580108D02*
X71270923Y33615822D01*
X71270923Y33615822D02*
X71207114Y33651536D01*
X70218066Y33687250D02*
X70792352Y32722965D01*
X70058542Y33651536D02*
X69643780Y33651536D01*
X69643780Y33651536D02*
X69867114Y33365822D01*
X69867114Y33365822D02*
X69771399Y33365822D01*
X69771399Y33365822D02*
X69707590Y33330108D01*
X69707590Y33330108D02*
X69675685Y33294393D01*
X69675685Y33294393D02*
X69643780Y33222965D01*
X69643780Y33222965D02*
X69643780Y33044393D01*
X69643780Y33044393D02*
X69675685Y32972965D01*
X69675685Y32972965D02*
X69707590Y32937250D01*
X69707590Y32937250D02*
X69771399Y32901536D01*
X69771399Y32901536D02*
X69962828Y32901536D01*
X69962828Y32901536D02*
X70026637Y32937250D01*
X70026637Y32937250D02*
X70058542Y32972965D01*
X80933304Y40401536D02*
X81156637Y40758679D01*
X81316161Y40401536D02*
X81316161Y41151536D01*
X81316161Y41151536D02*
X81060923Y41151536D01*
X81060923Y41151536D02*
X80997113Y41115822D01*
X80997113Y41115822D02*
X80965208Y41080108D01*
X80965208Y41080108D02*
X80933304Y41008679D01*
X80933304Y41008679D02*
X80933304Y40901536D01*
X80933304Y40901536D02*
X80965208Y40830108D01*
X80965208Y40830108D02*
X80997113Y40794393D01*
X80997113Y40794393D02*
X81060923Y40758679D01*
X81060923Y40758679D02*
X81316161Y40758679D01*
X80678065Y40437250D02*
X80582351Y40401536D01*
X80582351Y40401536D02*
X80422827Y40401536D01*
X80422827Y40401536D02*
X80359018Y40437250D01*
X80359018Y40437250D02*
X80327113Y40472965D01*
X80327113Y40472965D02*
X80295208Y40544393D01*
X80295208Y40544393D02*
X80295208Y40615822D01*
X80295208Y40615822D02*
X80327113Y40687250D01*
X80327113Y40687250D02*
X80359018Y40722965D01*
X80359018Y40722965D02*
X80422827Y40758679D01*
X80422827Y40758679D02*
X80550446Y40794393D01*
X80550446Y40794393D02*
X80614256Y40830108D01*
X80614256Y40830108D02*
X80646161Y40865822D01*
X80646161Y40865822D02*
X80678065Y40937250D01*
X80678065Y40937250D02*
X80678065Y41008679D01*
X80678065Y41008679D02*
X80646161Y41080108D01*
X80646161Y41080108D02*
X80614256Y41115822D01*
X80614256Y41115822D02*
X80550446Y41151536D01*
X80550446Y41151536D02*
X80390923Y41151536D01*
X80390923Y41151536D02*
X80295208Y41115822D01*
X80103780Y41151536D02*
X79720923Y41151536D01*
X79912351Y40401536D02*
X79912351Y41151536D01*
X74604970Y35437250D02*
X74509256Y35401536D01*
X74509256Y35401536D02*
X74349732Y35401536D01*
X74349732Y35401536D02*
X74285923Y35437250D01*
X74285923Y35437250D02*
X74254018Y35472965D01*
X74254018Y35472965D02*
X74222113Y35544393D01*
X74222113Y35544393D02*
X74222113Y35615822D01*
X74222113Y35615822D02*
X74254018Y35687250D01*
X74254018Y35687250D02*
X74285923Y35722965D01*
X74285923Y35722965D02*
X74349732Y35758679D01*
X74349732Y35758679D02*
X74477351Y35794393D01*
X74477351Y35794393D02*
X74541161Y35830108D01*
X74541161Y35830108D02*
X74573066Y35865822D01*
X74573066Y35865822D02*
X74604970Y35937250D01*
X74604970Y35937250D02*
X74604970Y36008679D01*
X74604970Y36008679D02*
X74573066Y36080108D01*
X74573066Y36080108D02*
X74541161Y36115822D01*
X74541161Y36115822D02*
X74477351Y36151536D01*
X74477351Y36151536D02*
X74317828Y36151536D01*
X74317828Y36151536D02*
X74222113Y36115822D01*
X73934971Y35401536D02*
X73934971Y36151536D01*
X73934971Y36151536D02*
X73775447Y36151536D01*
X73775447Y36151536D02*
X73679733Y36115822D01*
X73679733Y36115822D02*
X73615923Y36044393D01*
X73615923Y36044393D02*
X73584018Y35972965D01*
X73584018Y35972965D02*
X73552114Y35830108D01*
X73552114Y35830108D02*
X73552114Y35722965D01*
X73552114Y35722965D02*
X73584018Y35580108D01*
X73584018Y35580108D02*
X73615923Y35508679D01*
X73615923Y35508679D02*
X73679733Y35437250D01*
X73679733Y35437250D02*
X73775447Y35401536D01*
X73775447Y35401536D02*
X73934971Y35401536D01*
X73296875Y35615822D02*
X72977828Y35615822D01*
X73360685Y35401536D02*
X73137352Y36151536D01*
X73137352Y36151536D02*
X72914018Y35401536D01*
X72212113Y36187250D02*
X72786399Y35222965D01*
X71988780Y35401536D02*
X71988780Y36151536D01*
X71988780Y36151536D02*
X71829256Y36151536D01*
X71829256Y36151536D02*
X71733542Y36115822D01*
X71733542Y36115822D02*
X71669732Y36044393D01*
X71669732Y36044393D02*
X71637827Y35972965D01*
X71637827Y35972965D02*
X71605923Y35830108D01*
X71605923Y35830108D02*
X71605923Y35722965D01*
X71605923Y35722965D02*
X71637827Y35580108D01*
X71637827Y35580108D02*
X71669732Y35508679D01*
X71669732Y35508679D02*
X71733542Y35437250D01*
X71733542Y35437250D02*
X71829256Y35401536D01*
X71829256Y35401536D02*
X71988780Y35401536D01*
X70967827Y35401536D02*
X71350684Y35401536D01*
X71159256Y35401536D02*
X71159256Y36151536D01*
X71159256Y36151536D02*
X71223065Y36044393D01*
X71223065Y36044393D02*
X71286875Y35972965D01*
X71286875Y35972965D02*
X71350684Y35937250D01*
X70202113Y36187250D02*
X70776399Y35222965D01*
X70010684Y36080108D02*
X69978780Y36115822D01*
X69978780Y36115822D02*
X69914970Y36151536D01*
X69914970Y36151536D02*
X69755446Y36151536D01*
X69755446Y36151536D02*
X69691637Y36115822D01*
X69691637Y36115822D02*
X69659732Y36080108D01*
X69659732Y36080108D02*
X69627827Y36008679D01*
X69627827Y36008679D02*
X69627827Y35937250D01*
X69627827Y35937250D02*
X69659732Y35830108D01*
X69659732Y35830108D02*
X70042589Y35401536D01*
X70042589Y35401536D02*
X69627827Y35401536D01*
X73155209Y45451536D02*
X73155209Y46201536D01*
X73155209Y46201536D02*
X72995685Y46201536D01*
X72995685Y46201536D02*
X72899971Y46165822D01*
X72899971Y46165822D02*
X72836161Y46094393D01*
X72836161Y46094393D02*
X72804256Y46022965D01*
X72804256Y46022965D02*
X72772352Y45880108D01*
X72772352Y45880108D02*
X72772352Y45772965D01*
X72772352Y45772965D02*
X72804256Y45630108D01*
X72804256Y45630108D02*
X72836161Y45558679D01*
X72836161Y45558679D02*
X72899971Y45487250D01*
X72899971Y45487250D02*
X72995685Y45451536D01*
X72995685Y45451536D02*
X73155209Y45451536D01*
X72549018Y46201536D02*
X72134256Y46201536D01*
X72134256Y46201536D02*
X72357590Y45915822D01*
X72357590Y45915822D02*
X72261875Y45915822D01*
X72261875Y45915822D02*
X72198066Y45880108D01*
X72198066Y45880108D02*
X72166161Y45844393D01*
X72166161Y45844393D02*
X72134256Y45772965D01*
X72134256Y45772965D02*
X72134256Y45594393D01*
X72134256Y45594393D02*
X72166161Y45522965D01*
X72166161Y45522965D02*
X72198066Y45487250D01*
X72198066Y45487250D02*
X72261875Y45451536D01*
X72261875Y45451536D02*
X72453304Y45451536D01*
X72453304Y45451536D02*
X72517113Y45487250D01*
X72517113Y45487250D02*
X72549018Y45522965D01*
X71368542Y46237250D02*
X71942828Y45272965D01*
X71240923Y46201536D02*
X70858066Y46201536D01*
X71049494Y45451536D02*
X71049494Y46201536D01*
X70698542Y46201536D02*
X70251876Y45451536D01*
X70251876Y46201536D02*
X70698542Y45451536D01*
X69869019Y46201536D02*
X69805209Y46201536D01*
X69805209Y46201536D02*
X69741400Y46165822D01*
X69741400Y46165822D02*
X69709495Y46130108D01*
X69709495Y46130108D02*
X69677590Y46058679D01*
X69677590Y46058679D02*
X69645685Y45915822D01*
X69645685Y45915822D02*
X69645685Y45737250D01*
X69645685Y45737250D02*
X69677590Y45594393D01*
X69677590Y45594393D02*
X69709495Y45522965D01*
X69709495Y45522965D02*
X69741400Y45487250D01*
X69741400Y45487250D02*
X69805209Y45451536D01*
X69805209Y45451536D02*
X69869019Y45451536D01*
X69869019Y45451536D02*
X69932828Y45487250D01*
X69932828Y45487250D02*
X69964733Y45522965D01*
X69964733Y45522965D02*
X69996638Y45594393D01*
X69996638Y45594393D02*
X70028542Y45737250D01*
X70028542Y45737250D02*
X70028542Y45915822D01*
X70028542Y45915822D02*
X69996638Y46058679D01*
X69996638Y46058679D02*
X69964733Y46130108D01*
X69964733Y46130108D02*
X69932828Y46165822D01*
X69932828Y46165822D02*
X69869019Y46201536D01*
X71807589Y18094393D02*
X71711875Y18058679D01*
X71711875Y18058679D02*
X71679970Y18022965D01*
X71679970Y18022965D02*
X71648066Y17951536D01*
X71648066Y17951536D02*
X71648066Y17844393D01*
X71648066Y17844393D02*
X71679970Y17772965D01*
X71679970Y17772965D02*
X71711875Y17737250D01*
X71711875Y17737250D02*
X71775685Y17701536D01*
X71775685Y17701536D02*
X72030923Y17701536D01*
X72030923Y17701536D02*
X72030923Y18451536D01*
X72030923Y18451536D02*
X71807589Y18451536D01*
X71807589Y18451536D02*
X71743780Y18415822D01*
X71743780Y18415822D02*
X71711875Y18380108D01*
X71711875Y18380108D02*
X71679970Y18308679D01*
X71679970Y18308679D02*
X71679970Y18237250D01*
X71679970Y18237250D02*
X71711875Y18165822D01*
X71711875Y18165822D02*
X71743780Y18130108D01*
X71743780Y18130108D02*
X71807589Y18094393D01*
X71807589Y18094393D02*
X72030923Y18094393D01*
X71041875Y18451536D02*
X71360923Y18451536D01*
X71360923Y18451536D02*
X71392827Y18094393D01*
X71392827Y18094393D02*
X71360923Y18130108D01*
X71360923Y18130108D02*
X71297113Y18165822D01*
X71297113Y18165822D02*
X71137589Y18165822D01*
X71137589Y18165822D02*
X71073780Y18130108D01*
X71073780Y18130108D02*
X71041875Y18094393D01*
X71041875Y18094393D02*
X71009970Y18022965D01*
X71009970Y18022965D02*
X71009970Y17844393D01*
X71009970Y17844393D02*
X71041875Y17772965D01*
X71041875Y17772965D02*
X71073780Y17737250D01*
X71073780Y17737250D02*
X71137589Y17701536D01*
X71137589Y17701536D02*
X71297113Y17701536D01*
X71297113Y17701536D02*
X71360923Y17737250D01*
X71360923Y17737250D02*
X71392827Y17772965D01*
X70244256Y18487250D02*
X70818542Y17522965D01*
X69989018Y17701536D02*
X69861399Y17701536D01*
X69861399Y17701536D02*
X69797589Y17737250D01*
X69797589Y17737250D02*
X69765685Y17772965D01*
X69765685Y17772965D02*
X69701875Y17880108D01*
X69701875Y17880108D02*
X69669970Y18022965D01*
X69669970Y18022965D02*
X69669970Y18308679D01*
X69669970Y18308679D02*
X69701875Y18380108D01*
X69701875Y18380108D02*
X69733780Y18415822D01*
X69733780Y18415822D02*
X69797589Y18451536D01*
X69797589Y18451536D02*
X69925208Y18451536D01*
X69925208Y18451536D02*
X69989018Y18415822D01*
X69989018Y18415822D02*
X70020923Y18380108D01*
X70020923Y18380108D02*
X70052827Y18308679D01*
X70052827Y18308679D02*
X70052827Y18130108D01*
X70052827Y18130108D02*
X70020923Y18058679D01*
X70020923Y18058679D02*
X69989018Y18022965D01*
X69989018Y18022965D02*
X69925208Y17987250D01*
X69925208Y17987250D02*
X69797589Y17987250D01*
X69797589Y17987250D02*
X69733780Y18022965D01*
X69733780Y18022965D02*
X69701875Y18058679D01*
X69701875Y18058679D02*
X69669970Y18130108D01*
X71126875Y41065822D02*
X71190685Y41101536D01*
X71190685Y41101536D02*
X71286399Y41101536D01*
X71286399Y41101536D02*
X71382113Y41065822D01*
X71382113Y41065822D02*
X71445923Y40994393D01*
X71445923Y40994393D02*
X71477828Y40922965D01*
X71477828Y40922965D02*
X71509732Y40780108D01*
X71509732Y40780108D02*
X71509732Y40672965D01*
X71509732Y40672965D02*
X71477828Y40530108D01*
X71477828Y40530108D02*
X71445923Y40458679D01*
X71445923Y40458679D02*
X71382113Y40387250D01*
X71382113Y40387250D02*
X71286399Y40351536D01*
X71286399Y40351536D02*
X71222590Y40351536D01*
X71222590Y40351536D02*
X71126875Y40387250D01*
X71126875Y40387250D02*
X71094971Y40422965D01*
X71094971Y40422965D02*
X71094971Y40672965D01*
X71094971Y40672965D02*
X71222590Y40672965D01*
X70807828Y40351536D02*
X70807828Y41101536D01*
X70807828Y41101536D02*
X70424971Y40351536D01*
X70424971Y40351536D02*
X70424971Y41101536D01*
X70105923Y40351536D02*
X70105923Y41101536D01*
X70105923Y41101536D02*
X69946399Y41101536D01*
X69946399Y41101536D02*
X69850685Y41065822D01*
X69850685Y41065822D02*
X69786875Y40994393D01*
X69786875Y40994393D02*
X69754970Y40922965D01*
X69754970Y40922965D02*
X69723066Y40780108D01*
X69723066Y40780108D02*
X69723066Y40672965D01*
X69723066Y40672965D02*
X69754970Y40530108D01*
X69754970Y40530108D02*
X69786875Y40458679D01*
X69786875Y40458679D02*
X69850685Y40387250D01*
X69850685Y40387250D02*
X69946399Y40351536D01*
X69946399Y40351536D02*
X70105923Y40351536D01*
X81099018Y25151536D02*
X81481875Y25151536D01*
X81290447Y25151536D02*
X81290447Y25901536D01*
X81290447Y25901536D02*
X81354256Y25794393D01*
X81354256Y25794393D02*
X81418066Y25722965D01*
X81418066Y25722965D02*
X81481875Y25687250D01*
X80492828Y25901536D02*
X80811876Y25901536D01*
X80811876Y25901536D02*
X80843780Y25544393D01*
X80843780Y25544393D02*
X80811876Y25580108D01*
X80811876Y25580108D02*
X80748066Y25615822D01*
X80748066Y25615822D02*
X80588542Y25615822D01*
X80588542Y25615822D02*
X80524733Y25580108D01*
X80524733Y25580108D02*
X80492828Y25544393D01*
X80492828Y25544393D02*
X80460923Y25472965D01*
X80460923Y25472965D02*
X80460923Y25294393D01*
X80460923Y25294393D02*
X80492828Y25222965D01*
X80492828Y25222965D02*
X80524733Y25187250D01*
X80524733Y25187250D02*
X80588542Y25151536D01*
X80588542Y25151536D02*
X80748066Y25151536D01*
X80748066Y25151536D02*
X80811876Y25187250D01*
X80811876Y25187250D02*
X80843780Y25222965D01*
X79695209Y25937250D02*
X80269495Y24972965D01*
X79248542Y25544393D02*
X79152828Y25508679D01*
X79152828Y25508679D02*
X79120923Y25472965D01*
X79120923Y25472965D02*
X79089019Y25401536D01*
X79089019Y25401536D02*
X79089019Y25294393D01*
X79089019Y25294393D02*
X79120923Y25222965D01*
X79120923Y25222965D02*
X79152828Y25187250D01*
X79152828Y25187250D02*
X79216638Y25151536D01*
X79216638Y25151536D02*
X79471876Y25151536D01*
X79471876Y25151536D02*
X79471876Y25901536D01*
X79471876Y25901536D02*
X79248542Y25901536D01*
X79248542Y25901536D02*
X79184733Y25865822D01*
X79184733Y25865822D02*
X79152828Y25830108D01*
X79152828Y25830108D02*
X79120923Y25758679D01*
X79120923Y25758679D02*
X79120923Y25687250D01*
X79120923Y25687250D02*
X79152828Y25615822D01*
X79152828Y25615822D02*
X79184733Y25580108D01*
X79184733Y25580108D02*
X79248542Y25544393D01*
X79248542Y25544393D02*
X79471876Y25544393D01*
X78450923Y25151536D02*
X78833780Y25151536D01*
X78642352Y25151536D02*
X78642352Y25901536D01*
X78642352Y25901536D02*
X78706161Y25794393D01*
X78706161Y25794393D02*
X78769971Y25722965D01*
X78769971Y25722965D02*
X78833780Y25687250D01*
X71126875Y38615822D02*
X71190685Y38651536D01*
X71190685Y38651536D02*
X71286399Y38651536D01*
X71286399Y38651536D02*
X71382113Y38615822D01*
X71382113Y38615822D02*
X71445923Y38544393D01*
X71445923Y38544393D02*
X71477828Y38472965D01*
X71477828Y38472965D02*
X71509732Y38330108D01*
X71509732Y38330108D02*
X71509732Y38222965D01*
X71509732Y38222965D02*
X71477828Y38080108D01*
X71477828Y38080108D02*
X71445923Y38008679D01*
X71445923Y38008679D02*
X71382113Y37937250D01*
X71382113Y37937250D02*
X71286399Y37901536D01*
X71286399Y37901536D02*
X71222590Y37901536D01*
X71222590Y37901536D02*
X71126875Y37937250D01*
X71126875Y37937250D02*
X71094971Y37972965D01*
X71094971Y37972965D02*
X71094971Y38222965D01*
X71094971Y38222965D02*
X71222590Y38222965D01*
X70807828Y37901536D02*
X70807828Y38651536D01*
X70807828Y38651536D02*
X70424971Y37901536D01*
X70424971Y37901536D02*
X70424971Y38651536D01*
X70105923Y37901536D02*
X70105923Y38651536D01*
X70105923Y38651536D02*
X69946399Y38651536D01*
X69946399Y38651536D02*
X69850685Y38615822D01*
X69850685Y38615822D02*
X69786875Y38544393D01*
X69786875Y38544393D02*
X69754970Y38472965D01*
X69754970Y38472965D02*
X69723066Y38330108D01*
X69723066Y38330108D02*
X69723066Y38222965D01*
X69723066Y38222965D02*
X69754970Y38080108D01*
X69754970Y38080108D02*
X69786875Y38008679D01*
X69786875Y38008679D02*
X69850685Y37937250D01*
X69850685Y37937250D02*
X69946399Y37901536D01*
X69946399Y37901536D02*
X70105923Y37901536D01*
X81099018Y22601536D02*
X81481875Y22601536D01*
X81290447Y22601536D02*
X81290447Y23351536D01*
X81290447Y23351536D02*
X81354256Y23244393D01*
X81354256Y23244393D02*
X81418066Y23172965D01*
X81418066Y23172965D02*
X81481875Y23137250D01*
X80524733Y23101536D02*
X80524733Y22601536D01*
X80684257Y23387250D02*
X80843780Y22851536D01*
X80843780Y22851536D02*
X80429019Y22851536D01*
X79695209Y23387250D02*
X80269495Y22422965D01*
X79248542Y22994393D02*
X79152828Y22958679D01*
X79152828Y22958679D02*
X79120923Y22922965D01*
X79120923Y22922965D02*
X79089019Y22851536D01*
X79089019Y22851536D02*
X79089019Y22744393D01*
X79089019Y22744393D02*
X79120923Y22672965D01*
X79120923Y22672965D02*
X79152828Y22637250D01*
X79152828Y22637250D02*
X79216638Y22601536D01*
X79216638Y22601536D02*
X79471876Y22601536D01*
X79471876Y22601536D02*
X79471876Y23351536D01*
X79471876Y23351536D02*
X79248542Y23351536D01*
X79248542Y23351536D02*
X79184733Y23315822D01*
X79184733Y23315822D02*
X79152828Y23280108D01*
X79152828Y23280108D02*
X79120923Y23208679D01*
X79120923Y23208679D02*
X79120923Y23137250D01*
X79120923Y23137250D02*
X79152828Y23065822D01*
X79152828Y23065822D02*
X79184733Y23030108D01*
X79184733Y23030108D02*
X79248542Y22994393D01*
X79248542Y22994393D02*
X79471876Y22994393D01*
X78865685Y23351536D02*
X78450923Y23351536D01*
X78450923Y23351536D02*
X78674257Y23065822D01*
X78674257Y23065822D02*
X78578542Y23065822D01*
X78578542Y23065822D02*
X78514733Y23030108D01*
X78514733Y23030108D02*
X78482828Y22994393D01*
X78482828Y22994393D02*
X78450923Y22922965D01*
X78450923Y22922965D02*
X78450923Y22744393D01*
X78450923Y22744393D02*
X78482828Y22672965D01*
X78482828Y22672965D02*
X78514733Y22637250D01*
X78514733Y22637250D02*
X78578542Y22601536D01*
X78578542Y22601536D02*
X78769971Y22601536D01*
X78769971Y22601536D02*
X78833780Y22637250D01*
X78833780Y22637250D02*
X78865685Y22672965D01*
X73234971Y42901536D02*
X73234971Y43651536D01*
X73234971Y43651536D02*
X73075447Y43651536D01*
X73075447Y43651536D02*
X72979733Y43615822D01*
X72979733Y43615822D02*
X72915923Y43544393D01*
X72915923Y43544393D02*
X72884018Y43472965D01*
X72884018Y43472965D02*
X72852114Y43330108D01*
X72852114Y43330108D02*
X72852114Y43222965D01*
X72852114Y43222965D02*
X72884018Y43080108D01*
X72884018Y43080108D02*
X72915923Y43008679D01*
X72915923Y43008679D02*
X72979733Y42937250D01*
X72979733Y42937250D02*
X73075447Y42901536D01*
X73075447Y42901536D02*
X73234971Y42901536D01*
X72596875Y43580108D02*
X72564971Y43615822D01*
X72564971Y43615822D02*
X72501161Y43651536D01*
X72501161Y43651536D02*
X72341637Y43651536D01*
X72341637Y43651536D02*
X72277828Y43615822D01*
X72277828Y43615822D02*
X72245923Y43580108D01*
X72245923Y43580108D02*
X72214018Y43508679D01*
X72214018Y43508679D02*
X72214018Y43437250D01*
X72214018Y43437250D02*
X72245923Y43330108D01*
X72245923Y43330108D02*
X72628780Y42901536D01*
X72628780Y42901536D02*
X72214018Y42901536D01*
X71448304Y43687250D02*
X72022590Y42722965D01*
X70842114Y42901536D02*
X71065447Y43258679D01*
X71224971Y42901536D02*
X71224971Y43651536D01*
X71224971Y43651536D02*
X70969733Y43651536D01*
X70969733Y43651536D02*
X70905923Y43615822D01*
X70905923Y43615822D02*
X70874018Y43580108D01*
X70874018Y43580108D02*
X70842114Y43508679D01*
X70842114Y43508679D02*
X70842114Y43401536D01*
X70842114Y43401536D02*
X70874018Y43330108D01*
X70874018Y43330108D02*
X70905923Y43294393D01*
X70905923Y43294393D02*
X70969733Y43258679D01*
X70969733Y43258679D02*
X71224971Y43258679D01*
X70618780Y43651536D02*
X70172114Y42901536D01*
X70172114Y43651536D02*
X70618780Y42901536D01*
X69565923Y42901536D02*
X69948780Y42901536D01*
X69757352Y42901536D02*
X69757352Y43651536D01*
X69757352Y43651536D02*
X69821161Y43544393D01*
X69821161Y43544393D02*
X69884971Y43472965D01*
X69884971Y43472965D02*
X69948780Y43437250D01*
X81402113Y27915822D02*
X81083066Y27915822D01*
X81465923Y27701536D02*
X81242590Y28451536D01*
X81242590Y28451536D02*
X81019256Y27701536D01*
X80668304Y28451536D02*
X80604494Y28451536D01*
X80604494Y28451536D02*
X80540685Y28415822D01*
X80540685Y28415822D02*
X80508780Y28380108D01*
X80508780Y28380108D02*
X80476875Y28308679D01*
X80476875Y28308679D02*
X80444970Y28165822D01*
X80444970Y28165822D02*
X80444970Y27987250D01*
X80444970Y27987250D02*
X80476875Y27844393D01*
X80476875Y27844393D02*
X80508780Y27772965D01*
X80508780Y27772965D02*
X80540685Y27737250D01*
X80540685Y27737250D02*
X80604494Y27701536D01*
X80604494Y27701536D02*
X80668304Y27701536D01*
X80668304Y27701536D02*
X80732113Y27737250D01*
X80732113Y27737250D02*
X80764018Y27772965D01*
X80764018Y27772965D02*
X80795923Y27844393D01*
X80795923Y27844393D02*
X80827827Y27987250D01*
X80827827Y27987250D02*
X80827827Y28165822D01*
X80827827Y28165822D02*
X80795923Y28308679D01*
X80795923Y28308679D02*
X80764018Y28380108D01*
X80764018Y28380108D02*
X80732113Y28415822D01*
X80732113Y28415822D02*
X80668304Y28451536D01*
X79679256Y28487250D02*
X80253542Y27522965D01*
X79232589Y28094393D02*
X79455923Y28094393D01*
X79455923Y27701536D02*
X79455923Y28451536D01*
X79455923Y28451536D02*
X79136875Y28451536D01*
X78945446Y28451536D02*
X78498780Y28451536D01*
X78498780Y28451536D02*
X78785922Y27701536D01*
X81402113Y30465822D02*
X81083066Y30465822D01*
X81465923Y30251536D02*
X81242590Y31001536D01*
X81242590Y31001536D02*
X81019256Y30251536D01*
X80444970Y30251536D02*
X80827827Y30251536D01*
X80636399Y30251536D02*
X80636399Y31001536D01*
X80636399Y31001536D02*
X80700208Y30894393D01*
X80700208Y30894393D02*
X80764018Y30822965D01*
X80764018Y30822965D02*
X80827827Y30787250D01*
X79679256Y31037250D02*
X80253542Y30072965D01*
X79232589Y30644393D02*
X79455923Y30644393D01*
X79455923Y30251536D02*
X79455923Y31001536D01*
X79455923Y31001536D02*
X79136875Y31001536D01*
X78594494Y31001536D02*
X78722113Y31001536D01*
X78722113Y31001536D02*
X78785922Y30965822D01*
X78785922Y30965822D02*
X78817827Y30930108D01*
X78817827Y30930108D02*
X78881637Y30822965D01*
X78881637Y30822965D02*
X78913541Y30680108D01*
X78913541Y30680108D02*
X78913541Y30394393D01*
X78913541Y30394393D02*
X78881637Y30322965D01*
X78881637Y30322965D02*
X78849732Y30287250D01*
X78849732Y30287250D02*
X78785922Y30251536D01*
X78785922Y30251536D02*
X78658303Y30251536D01*
X78658303Y30251536D02*
X78594494Y30287250D01*
X78594494Y30287250D02*
X78562589Y30322965D01*
X78562589Y30322965D02*
X78530684Y30394393D01*
X78530684Y30394393D02*
X78530684Y30572965D01*
X78530684Y30572965D02*
X78562589Y30644393D01*
X78562589Y30644393D02*
X78594494Y30680108D01*
X78594494Y30680108D02*
X78658303Y30715822D01*
X78658303Y30715822D02*
X78785922Y30715822D01*
X78785922Y30715822D02*
X78849732Y30680108D01*
X78849732Y30680108D02*
X78881637Y30644393D01*
X78881637Y30644393D02*
X78913541Y30572965D01*
X81099018Y17551536D02*
X81481875Y17551536D01*
X81290447Y17551536D02*
X81290447Y18301536D01*
X81290447Y18301536D02*
X81354256Y18194393D01*
X81354256Y18194393D02*
X81418066Y18122965D01*
X81418066Y18122965D02*
X81481875Y18087250D01*
X80684257Y18301536D02*
X80620447Y18301536D01*
X80620447Y18301536D02*
X80556638Y18265822D01*
X80556638Y18265822D02*
X80524733Y18230108D01*
X80524733Y18230108D02*
X80492828Y18158679D01*
X80492828Y18158679D02*
X80460923Y18015822D01*
X80460923Y18015822D02*
X80460923Y17837250D01*
X80460923Y17837250D02*
X80492828Y17694393D01*
X80492828Y17694393D02*
X80524733Y17622965D01*
X80524733Y17622965D02*
X80556638Y17587250D01*
X80556638Y17587250D02*
X80620447Y17551536D01*
X80620447Y17551536D02*
X80684257Y17551536D01*
X80684257Y17551536D02*
X80748066Y17587250D01*
X80748066Y17587250D02*
X80779971Y17622965D01*
X80779971Y17622965D02*
X80811876Y17694393D01*
X80811876Y17694393D02*
X80843780Y17837250D01*
X80843780Y17837250D02*
X80843780Y18015822D01*
X80843780Y18015822D02*
X80811876Y18158679D01*
X80811876Y18158679D02*
X80779971Y18230108D01*
X80779971Y18230108D02*
X80748066Y18265822D01*
X80748066Y18265822D02*
X80684257Y18301536D01*
X79695209Y18337250D02*
X80269495Y17372965D01*
X79248542Y17944393D02*
X79152828Y17908679D01*
X79152828Y17908679D02*
X79120923Y17872965D01*
X79120923Y17872965D02*
X79089019Y17801536D01*
X79089019Y17801536D02*
X79089019Y17694393D01*
X79089019Y17694393D02*
X79120923Y17622965D01*
X79120923Y17622965D02*
X79152828Y17587250D01*
X79152828Y17587250D02*
X79216638Y17551536D01*
X79216638Y17551536D02*
X79471876Y17551536D01*
X79471876Y17551536D02*
X79471876Y18301536D01*
X79471876Y18301536D02*
X79248542Y18301536D01*
X79248542Y18301536D02*
X79184733Y18265822D01*
X79184733Y18265822D02*
X79152828Y18230108D01*
X79152828Y18230108D02*
X79120923Y18158679D01*
X79120923Y18158679D02*
X79120923Y18087250D01*
X79120923Y18087250D02*
X79152828Y18015822D01*
X79152828Y18015822D02*
X79184733Y17980108D01*
X79184733Y17980108D02*
X79248542Y17944393D01*
X79248542Y17944393D02*
X79471876Y17944393D01*
X78514733Y18301536D02*
X78642352Y18301536D01*
X78642352Y18301536D02*
X78706161Y18265822D01*
X78706161Y18265822D02*
X78738066Y18230108D01*
X78738066Y18230108D02*
X78801876Y18122965D01*
X78801876Y18122965D02*
X78833780Y17980108D01*
X78833780Y17980108D02*
X78833780Y17694393D01*
X78833780Y17694393D02*
X78801876Y17622965D01*
X78801876Y17622965D02*
X78769971Y17587250D01*
X78769971Y17587250D02*
X78706161Y17551536D01*
X78706161Y17551536D02*
X78578542Y17551536D01*
X78578542Y17551536D02*
X78514733Y17587250D01*
X78514733Y17587250D02*
X78482828Y17622965D01*
X78482828Y17622965D02*
X78450923Y17694393D01*
X78450923Y17694393D02*
X78450923Y17872965D01*
X78450923Y17872965D02*
X78482828Y17944393D01*
X78482828Y17944393D02*
X78514733Y17980108D01*
X78514733Y17980108D02*
X78578542Y18015822D01*
X78578542Y18015822D02*
X78706161Y18015822D01*
X78706161Y18015822D02*
X78769971Y17980108D01*
X78769971Y17980108D02*
X78801876Y17944393D01*
X78801876Y17944393D02*
X78833780Y17872965D01*
X81029019Y45501536D02*
X81252352Y45858679D01*
X81411876Y45501536D02*
X81411876Y46251536D01*
X81411876Y46251536D02*
X81156638Y46251536D01*
X81156638Y46251536D02*
X81092828Y46215822D01*
X81092828Y46215822D02*
X81060923Y46180108D01*
X81060923Y46180108D02*
X81029019Y46108679D01*
X81029019Y46108679D02*
X81029019Y46001536D01*
X81029019Y46001536D02*
X81060923Y45930108D01*
X81060923Y45930108D02*
X81092828Y45894393D01*
X81092828Y45894393D02*
X81156638Y45858679D01*
X81156638Y45858679D02*
X81411876Y45858679D01*
X80773780Y45715822D02*
X80454733Y45715822D01*
X80837590Y45501536D02*
X80614257Y46251536D01*
X80614257Y46251536D02*
X80390923Y45501536D01*
X80231399Y46251536D02*
X80071875Y45501536D01*
X80071875Y45501536D02*
X79944256Y46037250D01*
X79944256Y46037250D02*
X79816637Y45501536D01*
X79816637Y45501536D02*
X79657114Y46251536D01*
X72030923Y30401536D02*
X72030923Y31151536D01*
X72030923Y31151536D02*
X71871399Y31151536D01*
X71871399Y31151536D02*
X71775685Y31115822D01*
X71775685Y31115822D02*
X71711875Y31044393D01*
X71711875Y31044393D02*
X71679970Y30972965D01*
X71679970Y30972965D02*
X71648066Y30830108D01*
X71648066Y30830108D02*
X71648066Y30722965D01*
X71648066Y30722965D02*
X71679970Y30580108D01*
X71679970Y30580108D02*
X71711875Y30508679D01*
X71711875Y30508679D02*
X71775685Y30437250D01*
X71775685Y30437250D02*
X71871399Y30401536D01*
X71871399Y30401536D02*
X72030923Y30401536D01*
X71073780Y30901536D02*
X71073780Y30401536D01*
X71233304Y31187250D02*
X71392827Y30651536D01*
X71392827Y30651536D02*
X70978066Y30651536D01*
X70244256Y31187250D02*
X70818542Y30222965D01*
X69733780Y30901536D02*
X69733780Y30401536D01*
X69893304Y31187250D02*
X70052827Y30651536D01*
X70052827Y30651536D02*
X69638066Y30651536D01*
X81459733Y38701536D02*
X81236400Y37951536D01*
X81236400Y37951536D02*
X81013066Y38701536D01*
X80406876Y38022965D02*
X80438780Y37987250D01*
X80438780Y37987250D02*
X80534495Y37951536D01*
X80534495Y37951536D02*
X80598304Y37951536D01*
X80598304Y37951536D02*
X80694018Y37987250D01*
X80694018Y37987250D02*
X80757828Y38058679D01*
X80757828Y38058679D02*
X80789733Y38130108D01*
X80789733Y38130108D02*
X80821637Y38272965D01*
X80821637Y38272965D02*
X80821637Y38380108D01*
X80821637Y38380108D02*
X80789733Y38522965D01*
X80789733Y38522965D02*
X80757828Y38594393D01*
X80757828Y38594393D02*
X80694018Y38665822D01*
X80694018Y38665822D02*
X80598304Y38701536D01*
X80598304Y38701536D02*
X80534495Y38701536D01*
X80534495Y38701536D02*
X80438780Y38665822D01*
X80438780Y38665822D02*
X80406876Y38630108D01*
X79736876Y38022965D02*
X79768780Y37987250D01*
X79768780Y37987250D02*
X79864495Y37951536D01*
X79864495Y37951536D02*
X79928304Y37951536D01*
X79928304Y37951536D02*
X80024018Y37987250D01*
X80024018Y37987250D02*
X80087828Y38058679D01*
X80087828Y38058679D02*
X80119733Y38130108D01*
X80119733Y38130108D02*
X80151637Y38272965D01*
X80151637Y38272965D02*
X80151637Y38380108D01*
X80151637Y38380108D02*
X80119733Y38522965D01*
X80119733Y38522965D02*
X80087828Y38594393D01*
X80087828Y38594393D02*
X80024018Y38665822D01*
X80024018Y38665822D02*
X79928304Y38701536D01*
X79928304Y38701536D02*
X79864495Y38701536D01*
X79864495Y38701536D02*
X79768780Y38665822D01*
X79768780Y38665822D02*
X79736876Y38630108D01*
D11*
X78067828Y49951276D02*
X78067828Y50701276D01*
X78067828Y50701276D02*
X77817828Y50165562D01*
X77817828Y50165562D02*
X77567828Y50701276D01*
X77567828Y50701276D02*
X77567828Y49951276D01*
X77210685Y49951276D02*
X77210685Y50451276D01*
X77210685Y50701276D02*
X77246399Y50665562D01*
X77246399Y50665562D02*
X77210685Y50629848D01*
X77210685Y50629848D02*
X77174971Y50665562D01*
X77174971Y50665562D02*
X77210685Y50701276D01*
X77210685Y50701276D02*
X77210685Y50629848D01*
X76532114Y49986990D02*
X76603542Y49951276D01*
X76603542Y49951276D02*
X76746399Y49951276D01*
X76746399Y49951276D02*
X76817828Y49986990D01*
X76817828Y49986990D02*
X76853542Y50022705D01*
X76853542Y50022705D02*
X76889256Y50094133D01*
X76889256Y50094133D02*
X76889256Y50308419D01*
X76889256Y50308419D02*
X76853542Y50379848D01*
X76853542Y50379848D02*
X76817828Y50415562D01*
X76817828Y50415562D02*
X76746399Y50451276D01*
X76746399Y50451276D02*
X76603542Y50451276D01*
X76603542Y50451276D02*
X76532114Y50415562D01*
X76210685Y49951276D02*
X76210685Y50451276D01*
X76210685Y50308419D02*
X76174971Y50379848D01*
X76174971Y50379848D02*
X76139257Y50415562D01*
X76139257Y50415562D02*
X76067828Y50451276D01*
X76067828Y50451276D02*
X75996399Y50451276D01*
X75639256Y49951276D02*
X75710685Y49986990D01*
X75710685Y49986990D02*
X75746399Y50022705D01*
X75746399Y50022705D02*
X75782113Y50094133D01*
X75782113Y50094133D02*
X75782113Y50308419D01*
X75782113Y50308419D02*
X75746399Y50379848D01*
X75746399Y50379848D02*
X75710685Y50415562D01*
X75710685Y50415562D02*
X75639256Y50451276D01*
X75639256Y50451276D02*
X75532113Y50451276D01*
X75532113Y50451276D02*
X75460685Y50415562D01*
X75460685Y50415562D02*
X75424971Y50379848D01*
X75424971Y50379848D02*
X75389256Y50308419D01*
X75389256Y50308419D02*
X75389256Y50094133D01*
X75389256Y50094133D02*
X75424971Y50022705D01*
X75424971Y50022705D02*
X75460685Y49986990D01*
X75460685Y49986990D02*
X75532113Y49951276D01*
X75532113Y49951276D02*
X75639256Y49951276D01*
X75067828Y50701276D02*
X75067828Y50094133D01*
X75067828Y50094133D02*
X75032114Y50022705D01*
X75032114Y50022705D02*
X74996400Y49986990D01*
X74996400Y49986990D02*
X74924971Y49951276D01*
X74924971Y49951276D02*
X74782114Y49951276D01*
X74782114Y49951276D02*
X74710685Y49986990D01*
X74710685Y49986990D02*
X74674971Y50022705D01*
X74674971Y50022705D02*
X74639257Y50094133D01*
X74639257Y50094133D02*
X74639257Y50701276D01*
X74317828Y49986990D02*
X74210686Y49951276D01*
X74210686Y49951276D02*
X74032114Y49951276D01*
X74032114Y49951276D02*
X73960686Y49986990D01*
X73960686Y49986990D02*
X73924971Y50022705D01*
X73924971Y50022705D02*
X73889257Y50094133D01*
X73889257Y50094133D02*
X73889257Y50165562D01*
X73889257Y50165562D02*
X73924971Y50236990D01*
X73924971Y50236990D02*
X73960686Y50272705D01*
X73960686Y50272705D02*
X74032114Y50308419D01*
X74032114Y50308419D02*
X74174971Y50344133D01*
X74174971Y50344133D02*
X74246400Y50379848D01*
X74246400Y50379848D02*
X74282114Y50415562D01*
X74282114Y50415562D02*
X74317828Y50486990D01*
X74317828Y50486990D02*
X74317828Y50558419D01*
X74317828Y50558419D02*
X74282114Y50629848D01*
X74282114Y50629848D02*
X74246400Y50665562D01*
X74246400Y50665562D02*
X74174971Y50701276D01*
X74174971Y50701276D02*
X73996400Y50701276D01*
X73996400Y50701276D02*
X73889257Y50665562D01*
X73317828Y50344133D02*
X73210685Y50308419D01*
X73210685Y50308419D02*
X73174971Y50272705D01*
X73174971Y50272705D02*
X73139257Y50201276D01*
X73139257Y50201276D02*
X73139257Y50094133D01*
X73139257Y50094133D02*
X73174971Y50022705D01*
X73174971Y50022705D02*
X73210685Y49986990D01*
X73210685Y49986990D02*
X73282114Y49951276D01*
X73282114Y49951276D02*
X73567828Y49951276D01*
X73567828Y49951276D02*
X73567828Y50701276D01*
X73567828Y50701276D02*
X73317828Y50701276D01*
X73317828Y50701276D02*
X73246400Y50665562D01*
X73246400Y50665562D02*
X73210685Y50629848D01*
X73210685Y50629848D02*
X73174971Y50558419D01*
X73174971Y50558419D02*
X73174971Y50486990D01*
X73174971Y50486990D02*
X73210685Y50415562D01*
X73210685Y50415562D02*
X73246400Y50379848D01*
X73246400Y50379848D02*
X73317828Y50344133D01*
X73317828Y50344133D02*
X73567828Y50344133D01*
D10*
X71648066Y27922965D02*
X71679970Y27887250D01*
X71679970Y27887250D02*
X71775685Y27851536D01*
X71775685Y27851536D02*
X71839494Y27851536D01*
X71839494Y27851536D02*
X71935208Y27887250D01*
X71935208Y27887250D02*
X71999018Y27958679D01*
X71999018Y27958679D02*
X72030923Y28030108D01*
X72030923Y28030108D02*
X72062827Y28172965D01*
X72062827Y28172965D02*
X72062827Y28280108D01*
X72062827Y28280108D02*
X72030923Y28422965D01*
X72030923Y28422965D02*
X71999018Y28494393D01*
X71999018Y28494393D02*
X71935208Y28565822D01*
X71935208Y28565822D02*
X71839494Y28601536D01*
X71839494Y28601536D02*
X71775685Y28601536D01*
X71775685Y28601536D02*
X71679970Y28565822D01*
X71679970Y28565822D02*
X71648066Y28530108D01*
X71073780Y28601536D02*
X71201399Y28601536D01*
X71201399Y28601536D02*
X71265208Y28565822D01*
X71265208Y28565822D02*
X71297113Y28530108D01*
X71297113Y28530108D02*
X71360923Y28422965D01*
X71360923Y28422965D02*
X71392827Y28280108D01*
X71392827Y28280108D02*
X71392827Y27994393D01*
X71392827Y27994393D02*
X71360923Y27922965D01*
X71360923Y27922965D02*
X71329018Y27887250D01*
X71329018Y27887250D02*
X71265208Y27851536D01*
X71265208Y27851536D02*
X71137589Y27851536D01*
X71137589Y27851536D02*
X71073780Y27887250D01*
X71073780Y27887250D02*
X71041875Y27922965D01*
X71041875Y27922965D02*
X71009970Y27994393D01*
X71009970Y27994393D02*
X71009970Y28172965D01*
X71009970Y28172965D02*
X71041875Y28244393D01*
X71041875Y28244393D02*
X71073780Y28280108D01*
X71073780Y28280108D02*
X71137589Y28315822D01*
X71137589Y28315822D02*
X71265208Y28315822D01*
X71265208Y28315822D02*
X71329018Y28280108D01*
X71329018Y28280108D02*
X71360923Y28244393D01*
X71360923Y28244393D02*
X71392827Y28172965D01*
X70244256Y28637250D02*
X70818542Y27672965D01*
X69701875Y28601536D02*
X70020923Y28601536D01*
X70020923Y28601536D02*
X70052827Y28244393D01*
X70052827Y28244393D02*
X70020923Y28280108D01*
X70020923Y28280108D02*
X69957113Y28315822D01*
X69957113Y28315822D02*
X69797589Y28315822D01*
X69797589Y28315822D02*
X69733780Y28280108D01*
X69733780Y28280108D02*
X69701875Y28244393D01*
X69701875Y28244393D02*
X69669970Y28172965D01*
X69669970Y28172965D02*
X69669970Y27994393D01*
X69669970Y27994393D02*
X69701875Y27922965D01*
X69701875Y27922965D02*
X69733780Y27887250D01*
X69733780Y27887250D02*
X69797589Y27851536D01*
X69797589Y27851536D02*
X69957113Y27851536D01*
X69957113Y27851536D02*
X70020923Y27887250D01*
X70020923Y27887250D02*
X70052827Y27922965D01*
X71999018Y23144393D02*
X71775684Y23144393D01*
X71679970Y22751536D02*
X71999018Y22751536D01*
X71999018Y22751536D02*
X71999018Y23501536D01*
X71999018Y23501536D02*
X71679970Y23501536D01*
X71105685Y23501536D02*
X71233304Y23501536D01*
X71233304Y23501536D02*
X71297113Y23465822D01*
X71297113Y23465822D02*
X71329018Y23430108D01*
X71329018Y23430108D02*
X71392828Y23322965D01*
X71392828Y23322965D02*
X71424732Y23180108D01*
X71424732Y23180108D02*
X71424732Y22894393D01*
X71424732Y22894393D02*
X71392828Y22822965D01*
X71392828Y22822965D02*
X71360923Y22787250D01*
X71360923Y22787250D02*
X71297113Y22751536D01*
X71297113Y22751536D02*
X71169494Y22751536D01*
X71169494Y22751536D02*
X71105685Y22787250D01*
X71105685Y22787250D02*
X71073780Y22822965D01*
X71073780Y22822965D02*
X71041875Y22894393D01*
X71041875Y22894393D02*
X71041875Y23072965D01*
X71041875Y23072965D02*
X71073780Y23144393D01*
X71073780Y23144393D02*
X71105685Y23180108D01*
X71105685Y23180108D02*
X71169494Y23215822D01*
X71169494Y23215822D02*
X71297113Y23215822D01*
X71297113Y23215822D02*
X71360923Y23180108D01*
X71360923Y23180108D02*
X71392828Y23144393D01*
X71392828Y23144393D02*
X71424732Y23072965D01*
X70276161Y23537250D02*
X70850447Y22572965D01*
X70116637Y23501536D02*
X69669971Y23501536D01*
X69669971Y23501536D02*
X69957113Y22751536D01*
%TO.C,G\u002A\u002A\u002A*%
G36*
X47448169Y28112805D02*
G01*
X47441774Y27901619D01*
X47427592Y27747438D01*
X47403451Y27631072D01*
X47367178Y27533331D01*
X47261466Y27369103D01*
X47087604Y27204261D01*
X46885325Y27088123D01*
X46883859Y27087557D01*
X46797732Y27070936D01*
X46646512Y27056940D01*
X46451108Y27047024D01*
X46232431Y27042646D01*
X46136682Y27042333D01*
X45929550Y27044306D01*
X45781784Y27052483D01*
X45673474Y27069516D01*
X45584707Y27098055D01*
X45495571Y27140752D01*
X45440866Y27173703D01*
X45294066Y27292156D01*
X45174504Y27426036D01*
X45172726Y27428560D01*
X45119982Y27507308D01*
X45083606Y27579577D01*
X45060012Y27664000D01*
X45045616Y27779205D01*
X45036830Y27943824D01*
X45030069Y28176488D01*
X45028680Y28275983D01*
X45369556Y28275983D01*
X45373057Y28096943D01*
X45395984Y27863853D01*
X45444506Y27692128D01*
X45523502Y27567188D01*
X45637852Y27474457D01*
X45671556Y27455253D01*
X45756691Y27420763D01*
X45865166Y27399941D01*
X46018059Y27389707D01*
X46236450Y27386980D01*
X46384183Y27389238D01*
X46645480Y27412934D01*
X46836906Y27470329D01*
X46968432Y27571133D01*
X47050032Y27725059D01*
X47091678Y27941817D01*
X47103344Y28231118D01*
X47099933Y28413345D01*
X47073634Y28670606D01*
X47013178Y28858864D01*
X46908897Y28988032D01*
X46751125Y29068023D01*
X46530199Y29108748D01*
X46236450Y29120120D01*
X46088717Y29117862D01*
X45827419Y29094166D01*
X45635994Y29036772D01*
X45504468Y28935967D01*
X45422868Y28782041D01*
X45381222Y28565284D01*
X45369556Y28275983D01*
X45028680Y28275983D01*
X45027237Y28379281D01*
X45035834Y28642673D01*
X45064065Y28845590D01*
X45115938Y29003532D01*
X45195458Y29132003D01*
X45306633Y29246503D01*
X45367087Y29296104D01*
X45488502Y29371669D01*
X45628814Y29422355D01*
X45804801Y29451660D01*
X46033237Y29463082D01*
X46330901Y29460121D01*
X46539639Y29453863D01*
X46707044Y29445001D01*
X46824054Y29430506D01*
X46909793Y29406605D01*
X46983387Y29369526D01*
X47063962Y29315496D01*
X47115910Y29274653D01*
X47248906Y29138467D01*
X47349248Y28994429D01*
X47365545Y28962769D01*
X47403233Y28875426D01*
X47427735Y28781171D01*
X47441753Y28660067D01*
X47447991Y28492178D01*
X47449150Y28257569D01*
X47448971Y28231118D01*
X47448169Y28112805D01*
G37*
G36*
X43933407Y29736633D02*
G01*
X43974274Y29614537D01*
X43975147Y29607096D01*
X44017742Y29500059D01*
X44125889Y29423857D01*
X44250056Y29329352D01*
X44316954Y29196214D01*
X44318243Y29051181D01*
X44253985Y28917153D01*
X44124242Y28817031D01*
X44055155Y28779852D01*
X43997613Y28711794D01*
X43983463Y28598974D01*
X43987939Y28516401D01*
X44023760Y28443958D01*
X44115292Y28395820D01*
X44209730Y28339253D01*
X44294215Y28223775D01*
X44294864Y28222088D01*
X44367364Y28117712D01*
X44475605Y28036827D01*
X44596996Y27943204D01*
X44663521Y27809676D01*
X44664580Y27664272D01*
X44600348Y27530033D01*
X44471000Y27430001D01*
X44454575Y27421979D01*
X44366587Y27362844D01*
X44330221Y27308833D01*
X44329683Y27303241D01*
X44294415Y27232386D01*
X44221199Y27144598D01*
X44179485Y27105598D01*
X44120505Y27068598D01*
X44042237Y27049796D01*
X43922259Y27044756D01*
X43738152Y27049043D01*
X43564400Y27057479D01*
X43434037Y27072995D01*
X43356966Y27098410D01*
X43315484Y27137424D01*
X43291019Y27195518D01*
X43315445Y27289130D01*
X43326448Y27303894D01*
X43386471Y27342032D01*
X43495716Y27365101D01*
X43672817Y27377719D01*
X43982525Y27390454D01*
X43982525Y27735313D01*
X43982525Y28080171D01*
X43568780Y28080171D01*
X43390248Y28081482D01*
X43254736Y28088649D01*
X43166194Y28106040D01*
X43103689Y28138012D01*
X43046284Y28188922D01*
X42983849Y28263932D01*
X42951228Y28358817D01*
X42950729Y28498731D01*
X42978653Y28658694D01*
X43039777Y28747353D01*
X43068986Y28762073D01*
X43165303Y28761408D01*
X43241634Y28690856D01*
X43280920Y28563428D01*
X43283333Y28540816D01*
X43302711Y28464115D01*
X43354249Y28432868D01*
X43465135Y28426929D01*
X43520144Y28427277D01*
X43601195Y28439391D01*
X43631328Y28487744D01*
X43635767Y28597562D01*
X43635637Y28625842D01*
X43626240Y28722657D01*
X43587499Y28765573D01*
X43499268Y28781777D01*
X43488206Y28783029D01*
X43361924Y28827550D01*
X43299576Y28905609D01*
X43301292Y28994326D01*
X43367198Y29070822D01*
X43497422Y29112217D01*
X43632075Y29125661D01*
X43644757Y29432761D01*
X43647401Y29488040D01*
X43662550Y29644444D01*
X43689628Y29738052D01*
X43733293Y29787525D01*
X43757235Y29800061D01*
X43854657Y29803071D01*
X43933407Y29736633D01*
G37*
G36*
X41457846Y27362606D02*
G01*
X41524452Y27293865D01*
X41548039Y27199520D01*
X41510148Y27102833D01*
X41473456Y27071160D01*
X41381842Y27039898D01*
X41357764Y27041429D01*
X41265014Y27086970D01*
X41220911Y27174502D01*
X41232291Y27275169D01*
X41305989Y27360116D01*
X41366677Y27382484D01*
X41457846Y27362606D01*
G37*
G36*
X39130175Y29467202D02*
G01*
X39302425Y29467202D01*
X39474675Y29467202D01*
X39474675Y29880947D01*
X39475902Y30053434D01*
X39482878Y30191374D01*
X39499888Y30281396D01*
X39531196Y30344350D01*
X39581067Y30401084D01*
X39615250Y30432322D01*
X39726028Y30491044D01*
X39879172Y30507475D01*
X39933395Y30505777D01*
X40079253Y30471748D01*
X40151287Y30393339D01*
X40150532Y30269642D01*
X40133043Y30218969D01*
X40080107Y30172206D01*
X39972313Y30160717D01*
X39821433Y30160717D01*
X39821433Y29813960D01*
X39821433Y29467202D01*
X39946160Y29467202D01*
X40074382Y29438595D01*
X40147888Y29355491D01*
X40150532Y29229369D01*
X40133043Y29178696D01*
X40080107Y29131933D01*
X39972313Y29120444D01*
X39821433Y29120444D01*
X39821433Y28773687D01*
X39821433Y28426929D01*
X40061799Y28426929D01*
X40097271Y28426471D01*
X40292969Y28397870D01*
X40422053Y28318650D01*
X40493165Y28180168D01*
X40514948Y27973780D01*
X40514972Y27961027D01*
X40521261Y27823111D01*
X40541984Y27752972D01*
X40581935Y27733414D01*
X40586953Y27733147D01*
X40664598Y27699613D01*
X40755314Y27627022D01*
X40781953Y27598299D01*
X40844166Y27485973D01*
X40861706Y27332278D01*
X40860215Y27286070D01*
X40841995Y27165209D01*
X40809692Y27091912D01*
X40779339Y27068816D01*
X40688327Y27039898D01*
X40626957Y27051798D01*
X40545397Y27127001D01*
X40514948Y27255788D01*
X40514237Y27276457D01*
X40480882Y27360640D01*
X40382181Y27417765D01*
X40292105Y27470348D01*
X40199299Y27600646D01*
X40161193Y27679905D01*
X40098922Y27723598D01*
X39985309Y27733414D01*
X39935158Y27733071D01*
X39855832Y27720963D01*
X39825996Y27672605D01*
X39821433Y27562781D01*
X39821563Y27534501D01*
X39830960Y27437685D01*
X39869701Y27394770D01*
X39957932Y27378566D01*
X40000127Y27371956D01*
X40112331Y27320150D01*
X40163863Y27236288D01*
X40141728Y27137424D01*
X40112813Y27106381D01*
X40043894Y27077221D01*
X39924356Y27059372D01*
X39736197Y27048904D01*
X39662314Y27047068D01*
X39442949Y27056670D01*
X39291750Y27095368D01*
X39196650Y27167859D01*
X39145579Y27278843D01*
X39118520Y27386656D01*
X38429703Y27386656D01*
X38199787Y27385928D01*
X38002806Y27382581D01*
X37870342Y27375441D01*
X37790478Y27363348D01*
X37751299Y27345143D01*
X37740887Y27319669D01*
X37716961Y27242666D01*
X37633063Y27145425D01*
X37515904Y27070132D01*
X37394129Y27039898D01*
X37329417Y27047184D01*
X37188639Y27115610D01*
X37086667Y27236725D01*
X37047371Y27386656D01*
X37068713Y27485929D01*
X37135556Y27604100D01*
X37226061Y27696255D01*
X37317639Y27733414D01*
X38087644Y27733414D01*
X38781160Y27733414D01*
X39474675Y27733414D01*
X39474675Y28253550D01*
X39474675Y28773687D01*
X39301296Y28773687D01*
X39127917Y28773687D01*
X39127917Y28533321D01*
X39116868Y28395021D01*
X39054932Y28223351D01*
X38941787Y28116778D01*
X38781160Y28080171D01*
X38685720Y28099475D01*
X38565196Y28167165D01*
X38471875Y28261691D01*
X38434402Y28359942D01*
X38430345Y28382166D01*
X38380332Y28416731D01*
X38261023Y28426929D01*
X38087644Y28426929D01*
X38087644Y28080171D01*
X38087644Y27733414D01*
X37317639Y27733414D01*
X37321020Y27733631D01*
X37375005Y27774975D01*
X37425238Y27866181D01*
X37477821Y27956257D01*
X37608119Y28049063D01*
X37678679Y28081617D01*
X37729218Y28142885D01*
X37740887Y28253550D01*
X37735795Y28337514D01*
X37699507Y28409974D01*
X37608119Y28458038D01*
X37518044Y28510621D01*
X37425238Y28640919D01*
X37402106Y28697661D01*
X37368912Y28741523D01*
X37310887Y28764103D01*
X37207413Y28772469D01*
X37037869Y28773687D01*
X37740887Y28773687D01*
X38261023Y28773687D01*
X38781160Y28773687D01*
X38781160Y29293823D01*
X38781160Y29813960D01*
X38261023Y29813960D01*
X37740887Y29813960D01*
X37740887Y29293823D01*
X37740887Y28773687D01*
X37037869Y28773687D01*
X36700614Y28773687D01*
X36700614Y28602207D01*
X36700614Y28430727D01*
X37010322Y28417992D01*
X37070577Y28415091D01*
X37225777Y28399878D01*
X37318604Y28372855D01*
X37367694Y28329403D01*
X37382006Y28301272D01*
X37382158Y28204740D01*
X37312563Y28127949D01*
X37186426Y28088452D01*
X37125084Y28078949D01*
X37062300Y28038017D01*
X37039091Y27941117D01*
X37038167Y27932775D01*
X36994388Y27807817D01*
X36916461Y27745124D01*
X36827541Y27745129D01*
X36750786Y27808264D01*
X36709353Y27934961D01*
X36707676Y27949182D01*
X36667479Y28049880D01*
X36565750Y28112071D01*
X36476984Y28164494D01*
X36385756Y28292065D01*
X36380061Y28306536D01*
X36315230Y28400552D01*
X36208646Y28435669D01*
X36207186Y28435819D01*
X36081631Y28478058D01*
X36019000Y28555898D01*
X36019292Y28645531D01*
X36082507Y28723150D01*
X36208646Y28764947D01*
X36222867Y28766624D01*
X36323564Y28806821D01*
X36385756Y28908551D01*
X36438178Y28997316D01*
X36565750Y29088544D01*
X36580221Y29094239D01*
X36674237Y29159070D01*
X36709353Y29265655D01*
X36710643Y29276801D01*
X36755180Y29399170D01*
X36833204Y29457764D01*
X36921824Y29453188D01*
X36998147Y29386046D01*
X37039281Y29256943D01*
X37041695Y29234331D01*
X37061073Y29157630D01*
X37112611Y29126383D01*
X37223496Y29120444D01*
X37394129Y29120444D01*
X37394129Y29637835D01*
X37394129Y30155225D01*
X37257630Y30168807D01*
X37215474Y30175409D01*
X37103253Y30227208D01*
X37051697Y30311073D01*
X37073807Y30409950D01*
X37084809Y30424713D01*
X37144833Y30462851D01*
X37254078Y30485920D01*
X37431179Y30498538D01*
X37740887Y30511273D01*
X37740887Y30856132D01*
X37740887Y31200990D01*
X37570254Y31200990D01*
X37541974Y31200860D01*
X37445158Y31191464D01*
X37402243Y31152723D01*
X37386039Y31064491D01*
X37379438Y31022335D01*
X37327638Y30910114D01*
X37243773Y30858558D01*
X37144897Y30880668D01*
X37130919Y30890986D01*
X37092354Y30950654D01*
X37069045Y31059501D01*
X37056346Y31236179D01*
X37043649Y31544025D01*
X36735802Y31556723D01*
X36679092Y31559440D01*
X36523036Y31574608D01*
X36429653Y31601671D01*
X36380291Y31645274D01*
X36348255Y31743376D01*
X36394236Y31816030D01*
X36520576Y31863016D01*
X36728810Y31885390D01*
X36799920Y31888544D01*
X36875831Y31894506D01*
X37740887Y31894506D01*
X37740887Y31721127D01*
X37740887Y31547748D01*
X37914266Y31547748D01*
X38087644Y31547748D01*
X38087644Y31721127D01*
X38087644Y31894506D01*
X37914266Y31894506D01*
X37740887Y31894506D01*
X36875831Y31894506D01*
X36931001Y31898839D01*
X37006384Y31919594D01*
X37048337Y31959936D01*
X37079129Y32028994D01*
X37131629Y32118041D01*
X37259265Y32209364D01*
X37273736Y32215059D01*
X37367752Y32279889D01*
X37402869Y32386474D01*
X37404159Y32397620D01*
X37448695Y32519989D01*
X37526720Y32578583D01*
X37615339Y32574007D01*
X37691663Y32506865D01*
X37732797Y32377763D01*
X37735210Y32355150D01*
X37754588Y32278449D01*
X37806126Y32247202D01*
X37917012Y32241263D01*
X38087644Y32241263D01*
X38087644Y32655008D01*
X38088871Y32827495D01*
X38095847Y32965435D01*
X38112857Y33055457D01*
X38144165Y33118411D01*
X38194036Y33175145D01*
X38227239Y33204918D01*
X38375541Y33275051D01*
X38531543Y33265127D01*
X38674768Y33175145D01*
X38718807Y33126337D01*
X38752483Y33065530D01*
X38771257Y32980606D01*
X38779395Y32850715D01*
X38781160Y32655008D01*
X38781160Y32241263D01*
X39252644Y32241263D01*
X39371213Y32240519D01*
X39574313Y32231969D01*
X39708254Y32210018D01*
X39784916Y32169898D01*
X39816179Y32106844D01*
X39813924Y32016090D01*
X39801127Y31968036D01*
X39749470Y31922568D01*
X39637218Y31902725D01*
X39530225Y31886644D01*
X39484351Y31848473D01*
X39474675Y31767163D01*
X39453775Y31657444D01*
X39375265Y31572332D01*
X39249501Y31555257D01*
X39201448Y31568054D01*
X39155979Y31619711D01*
X39136137Y31731963D01*
X39132232Y31775423D01*
X39113373Y31857608D01*
X39062352Y31889288D01*
X38951922Y31894506D01*
X38781160Y31894506D01*
X38781160Y31637584D01*
X38779789Y31541983D01*
X38766911Y31427273D01*
X38732490Y31353243D01*
X38666953Y31290826D01*
X38629060Y31264384D01*
X38500757Y31215531D01*
X38320195Y31200990D01*
X38087644Y31200990D01*
X38087644Y31027612D01*
X38089212Y30970090D01*
X38108535Y30880628D01*
X38154632Y30854233D01*
X38159649Y30853966D01*
X38237295Y30820432D01*
X38328011Y30747841D01*
X38334420Y30741350D01*
X38396744Y30658547D01*
X38426682Y30556171D01*
X38434402Y30401084D01*
X38434402Y30160717D01*
X38605882Y30160717D01*
X38777362Y30160717D01*
X38790097Y30470425D01*
X38792997Y30530680D01*
X38808211Y30685881D01*
X38835233Y30778708D01*
X38878685Y30827798D01*
X38936853Y30852241D01*
X39030392Y30827678D01*
X39053444Y30807963D01*
X39076899Y30763668D01*
X39093424Y30686545D01*
X39104698Y30563127D01*
X39112400Y30379950D01*
X39118210Y30123548D01*
X39123854Y29813960D01*
X39130175Y29467202D01*
G37*
G36*
X36603238Y27362606D02*
G01*
X36669845Y27293865D01*
X36693431Y27199520D01*
X36655541Y27102833D01*
X36618848Y27071160D01*
X36527235Y27039898D01*
X36503156Y27041429D01*
X36410407Y27086970D01*
X36366304Y27174502D01*
X36377684Y27275169D01*
X36451382Y27360116D01*
X36512070Y27382484D01*
X36603238Y27362606D01*
G37*
G36*
X43139077Y27720229D02*
G01*
X43227650Y27687034D01*
X43263874Y27644647D01*
X43285376Y27538294D01*
X43235199Y27436873D01*
X43213658Y27421753D01*
X43110289Y27395265D01*
X42968326Y27390663D01*
X42818872Y27405548D01*
X42693027Y27437520D01*
X42621895Y27484182D01*
X42597524Y27542095D01*
X42621875Y27635888D01*
X42632397Y27648396D01*
X42719562Y27691780D01*
X42853851Y27719969D01*
X43004084Y27730329D01*
X43139077Y27720229D01*
G37*
G36*
X42492954Y28401980D02*
G01*
X42554036Y28324453D01*
X42589030Y28210915D01*
X42593165Y28079989D01*
X42561668Y27950301D01*
X42489770Y27840473D01*
X42445544Y27799095D01*
X42386299Y27761951D01*
X42308027Y27743175D01*
X42188219Y27738224D01*
X42004363Y27742558D01*
X41830612Y27750994D01*
X41700249Y27766511D01*
X41623177Y27791925D01*
X41581695Y27830939D01*
X41557230Y27889033D01*
X41581656Y27982646D01*
X41591699Y27996304D01*
X41651224Y28035043D01*
X41759911Y28058449D01*
X41936420Y28071181D01*
X42243519Y28083864D01*
X42256964Y28218517D01*
X42287915Y28325867D01*
X42346262Y28400664D01*
X42410554Y28424872D01*
X42492954Y28401980D01*
G37*
G36*
X41111088Y28056121D02*
G01*
X41177694Y27987380D01*
X41201281Y27893036D01*
X41163391Y27796348D01*
X41126698Y27764675D01*
X41035085Y27733414D01*
X41011006Y27734944D01*
X40918256Y27780486D01*
X40874154Y27868018D01*
X40885534Y27968685D01*
X40959231Y28053631D01*
X41019920Y28075999D01*
X41111088Y28056121D01*
G37*
G36*
X36256481Y28056121D02*
G01*
X36323087Y27987380D01*
X36346673Y27893036D01*
X36308783Y27796348D01*
X36272091Y27764675D01*
X36180477Y27733414D01*
X36156399Y27734944D01*
X36063649Y27780486D01*
X36019546Y27868018D01*
X36030926Y27968685D01*
X36104624Y28053631D01*
X36165312Y28075999D01*
X36256481Y28056121D01*
G37*
G36*
X42335370Y31191072D02*
G01*
X42599510Y31187048D01*
X42834604Y31181561D01*
X43004484Y31174149D01*
X43120679Y31163723D01*
X43194717Y31149193D01*
X43238125Y31129470D01*
X43262431Y31103465D01*
X43287053Y31045031D01*
X43262455Y30951758D01*
X43244186Y30929940D01*
X43200819Y30905983D01*
X43125025Y30889122D01*
X43003237Y30877645D01*
X42821890Y30869838D01*
X42567420Y30863989D01*
X41920169Y30852073D01*
X41870463Y30720385D01*
X41817828Y30630792D01*
X41687989Y30538584D01*
X41631246Y30515452D01*
X41587384Y30482258D01*
X41564804Y30424233D01*
X41556439Y30320759D01*
X41555221Y30151215D01*
X41555221Y29813960D01*
X41795587Y29813960D01*
X41810105Y29813924D01*
X41959974Y29804859D01*
X42059675Y29772796D01*
X42142345Y29707568D01*
X42150699Y29699037D01*
X42220212Y29611287D01*
X42248737Y29543692D01*
X42248954Y29540311D01*
X42290298Y29486326D01*
X42381504Y29436094D01*
X42471879Y29383208D01*
X42563594Y29255308D01*
X42569289Y29240837D01*
X42634120Y29146821D01*
X42740705Y29111705D01*
X42776235Y29106214D01*
X42886495Y29054810D01*
X42937591Y28970201D01*
X42915817Y28871212D01*
X42904814Y28856449D01*
X42844790Y28818310D01*
X42735546Y28795242D01*
X42558445Y28782624D01*
X42472326Y28778288D01*
X42338074Y28764265D01*
X42268562Y28741031D01*
X42248737Y28704801D01*
X42248458Y28699807D01*
X42214880Y28623434D01*
X42142345Y28533321D01*
X42135853Y28526911D01*
X42053051Y28464587D01*
X41950674Y28434649D01*
X41795587Y28426929D01*
X41661010Y28424722D01*
X41588085Y28410904D01*
X41559899Y28374758D01*
X41555221Y28305564D01*
X41542095Y28212056D01*
X41503208Y28132185D01*
X41472854Y28109089D01*
X41381842Y28080171D01*
X41316930Y28093388D01*
X41237529Y28171192D01*
X41208463Y28305564D01*
X41208463Y28426929D01*
X40884204Y28426929D01*
X40788666Y28427259D01*
X40659824Y28432125D01*
X40587462Y28447738D01*
X40551687Y28480260D01*
X40532606Y28535854D01*
X40533376Y28656442D01*
X40603382Y28742332D01*
X40734233Y28773687D01*
X40795113Y28777876D01*
X40848837Y28814150D01*
X40869796Y28910186D01*
X40876345Y28952096D01*
X40928102Y29064429D01*
X41011986Y29116129D01*
X41110938Y29094179D01*
X41168029Y29021503D01*
X41200374Y28910186D01*
X41213956Y28773687D01*
X41557967Y28773687D01*
X41901979Y28773687D01*
X41901979Y28947066D01*
X41901979Y29120444D01*
X41661613Y29120444D01*
X41626141Y29120903D01*
X41430442Y29149503D01*
X41301359Y29228723D01*
X41230247Y29367205D01*
X41208463Y29573594D01*
X41208463Y29813960D01*
X40968097Y29813960D01*
X40947477Y29814033D01*
X40800474Y29823526D01*
X40702151Y29856270D01*
X40618981Y29922710D01*
X40556546Y29997720D01*
X40523924Y30092605D01*
X40523425Y30232520D01*
X40551349Y30392482D01*
X40612474Y30481141D01*
X40641682Y30495861D01*
X40738000Y30495196D01*
X40814330Y30424645D01*
X40853616Y30297216D01*
X40856029Y30274604D01*
X40875407Y30197903D01*
X40926945Y30166656D01*
X41037831Y30160717D01*
X41092840Y30161066D01*
X41173891Y30173179D01*
X41204024Y30221532D01*
X41208463Y30331350D01*
X41208333Y30359630D01*
X41198937Y30456446D01*
X41160196Y30499362D01*
X41071964Y30515565D01*
X41060850Y30516826D01*
X40935079Y30561305D01*
X40872614Y30639330D01*
X40873736Y30728017D01*
X40938730Y30804481D01*
X41067878Y30845838D01*
X41076345Y30846755D01*
X41179020Y30881128D01*
X41226738Y30964488D01*
X41243669Y31020151D01*
X41278560Y31082853D01*
X41336010Y31129156D01*
X41426696Y31161243D01*
X41561298Y31181295D01*
X41750492Y31191496D01*
X42004956Y31194027D01*
X42335370Y31191072D01*
G37*
G36*
X43191484Y30481001D02*
G01*
X43226735Y30445827D01*
X43253539Y30373799D01*
X43270015Y30250535D01*
X43279865Y30058333D01*
X43283639Y29921969D01*
X43281879Y29785013D01*
X43267694Y29696528D01*
X43236649Y29634092D01*
X43184310Y29575285D01*
X43149721Y29544310D01*
X43000921Y29473726D01*
X42845093Y29483464D01*
X42701886Y29573594D01*
X42694106Y29581545D01*
X42624205Y29671733D01*
X42595494Y29744226D01*
X42562967Y29792899D01*
X42458995Y29822050D01*
X42416839Y29828651D01*
X42304618Y29880451D01*
X42253062Y29964316D01*
X42275172Y30063192D01*
X42285214Y30076850D01*
X42344739Y30115589D01*
X42453427Y30138996D01*
X42629935Y30151728D01*
X42937035Y30164410D01*
X42950480Y30299063D01*
X42956855Y30339856D01*
X43008586Y30451648D01*
X43092600Y30503078D01*
X43191484Y30481001D01*
G37*
G36*
X47263066Y30489212D02*
G01*
X47384182Y30437266D01*
X47445070Y30360573D01*
X47443077Y30277812D01*
X47375553Y30207664D01*
X47239843Y30168807D01*
X47143300Y30143892D01*
X47103344Y30090984D01*
X47103002Y30085508D01*
X47068928Y30009521D01*
X46996070Y29919469D01*
X46888796Y29812194D01*
X45992991Y29823913D01*
X45705626Y29828247D01*
X45472897Y29833740D01*
X45304729Y29841172D01*
X45189707Y29851603D01*
X45116417Y29866093D01*
X45073446Y29885700D01*
X45049378Y29911485D01*
X45024743Y29969962D01*
X45049373Y30063192D01*
X45063026Y30080392D01*
X45098832Y30102953D01*
X45161710Y30119588D01*
X45263584Y30131494D01*
X45416377Y30139867D01*
X45632012Y30145904D01*
X45922413Y30150802D01*
X46747650Y30162558D01*
X46774479Y30269451D01*
X46779608Y30287354D01*
X46861450Y30410121D01*
X47003926Y30483357D01*
X47192915Y30499304D01*
X47263066Y30489212D01*
G37*
G36*
X46652851Y31869743D02*
G01*
X46714342Y31792558D01*
X46749918Y31679269D01*
X46754719Y31548573D01*
X46723885Y31419165D01*
X46652554Y31309741D01*
X46600987Y31263159D01*
X46539984Y31229425D01*
X46455118Y31210723D01*
X46325455Y31202697D01*
X46130058Y31200990D01*
X45716313Y31200990D01*
X45716313Y30960624D01*
X45716240Y30940004D01*
X45706748Y30793001D01*
X45674003Y30694678D01*
X45607563Y30611508D01*
X45532553Y30549073D01*
X45437668Y30516451D01*
X45297754Y30515952D01*
X45137791Y30543876D01*
X45049132Y30605001D01*
X45034412Y30634209D01*
X45035077Y30730527D01*
X45105628Y30806857D01*
X45233057Y30846143D01*
X45255669Y30848556D01*
X45332370Y30867934D01*
X45363617Y30919472D01*
X45369556Y31030358D01*
X45369556Y31200990D01*
X45022798Y31200990D01*
X44676040Y31200990D01*
X44672626Y30865069D01*
X44671777Y30669126D01*
X44672807Y30445740D01*
X44675606Y30258431D01*
X44675598Y30130780D01*
X44668182Y29989621D01*
X44654427Y29900837D01*
X44646388Y29882009D01*
X44575177Y29824710D01*
X44474543Y29817799D01*
X44381296Y29865973D01*
X44346847Y29931050D01*
X44329283Y30039352D01*
X44324911Y30107303D01*
X44297545Y30144124D01*
X44225957Y30158355D01*
X44088916Y30160717D01*
X44074399Y30160754D01*
X43924530Y30169818D01*
X43824828Y30201881D01*
X43742159Y30267109D01*
X43734379Y30275060D01*
X43664478Y30365248D01*
X43635767Y30437742D01*
X43603240Y30486415D01*
X43499268Y30515565D01*
X43488189Y30516820D01*
X43362069Y30561328D01*
X43299684Y30639376D01*
X43301212Y30728084D01*
X43366829Y30804569D01*
X43496713Y30845952D01*
X43558054Y30855455D01*
X43620839Y30896387D01*
X43644048Y30993287D01*
X43650320Y31033482D01*
X43702011Y31145142D01*
X43786089Y31196568D01*
X43884999Y31174555D01*
X43899763Y31163552D01*
X43937901Y31103529D01*
X43960970Y30994284D01*
X43973588Y30817183D01*
X43986323Y30507475D01*
X44157803Y30507475D01*
X44329283Y30507475D01*
X44329283Y31024865D01*
X44329283Y31542256D01*
X44192784Y31555838D01*
X44125729Y31567559D01*
X44019748Y31622200D01*
X43980809Y31700078D01*
X44006258Y31782513D01*
X44093443Y31850825D01*
X44239712Y31886335D01*
X44264320Y31887702D01*
X44448753Y31864422D01*
X44584726Y31784495D01*
X44658379Y31655562D01*
X44669240Y31618450D01*
X44695854Y31578973D01*
X44751071Y31557828D01*
X44854250Y31549319D01*
X45024751Y31547748D01*
X45364063Y31547748D01*
X45377646Y31684247D01*
X45378891Y31695265D01*
X45423446Y31821969D01*
X45501532Y31884220D01*
X45590275Y31882016D01*
X45666797Y31815359D01*
X45708223Y31684247D01*
X45721806Y31547748D01*
X46063071Y31547748D01*
X46404336Y31547748D01*
X46417919Y31684247D01*
X46449325Y31793635D01*
X46507354Y31868240D01*
X46570307Y31892127D01*
X46652851Y31869743D01*
G37*
G36*
X36623657Y30121500D02*
G01*
X36680516Y30039643D01*
X36682270Y29920151D01*
X36675723Y29896669D01*
X36631055Y29829604D01*
X36540931Y29822063D01*
X36517236Y29825893D01*
X36409740Y29877503D01*
X36359174Y29963922D01*
X36380177Y30063192D01*
X36440231Y30127034D01*
X36535594Y30154402D01*
X36623657Y30121500D01*
G37*
G36*
X42171779Y30468257D02*
G01*
X42228639Y30386401D01*
X42230393Y30266909D01*
X42223846Y30243427D01*
X42179178Y30176362D01*
X42089054Y30168820D01*
X42065359Y30172651D01*
X41957863Y30224260D01*
X41907296Y30310680D01*
X41928300Y30409950D01*
X41988353Y30473792D01*
X42083717Y30501160D01*
X42171779Y30468257D01*
G37*
G36*
X36256481Y30483425D02*
G01*
X36323087Y30414684D01*
X36346673Y30320340D01*
X36308783Y30223652D01*
X36272091Y30191979D01*
X36180477Y30160717D01*
X36156399Y30162248D01*
X36063649Y30207790D01*
X36019546Y30295321D01*
X36030926Y30395988D01*
X36104624Y30480935D01*
X36165312Y30503303D01*
X36256481Y30483425D01*
G37*
G36*
X46312453Y30830183D02*
G01*
X46379060Y30761441D01*
X46402646Y30667097D01*
X46364756Y30570410D01*
X46328063Y30538736D01*
X46236450Y30507475D01*
X46212371Y30509006D01*
X46119622Y30554547D01*
X46075519Y30642079D01*
X46086899Y30742746D01*
X46160597Y30827693D01*
X46221285Y30850061D01*
X46312453Y30830183D01*
G37*
G36*
X36765048Y30852859D02*
G01*
X36927558Y30829329D01*
X37018834Y30773396D01*
X37047371Y30680854D01*
X37041928Y30644617D01*
X36995358Y30559489D01*
X36946425Y30536683D01*
X36827569Y30515512D01*
X36671098Y30507475D01*
X36664369Y30507477D01*
X36517449Y30510353D01*
X36434356Y30524124D01*
X36393055Y30556803D01*
X36371514Y30616400D01*
X36361770Y30705904D01*
X36402692Y30791552D01*
X36512299Y30839373D01*
X36697252Y30854233D01*
X36765048Y30852859D01*
G37*
G36*
X47352727Y31176940D02*
G01*
X47419333Y31108199D01*
X47442919Y31013855D01*
X47405029Y30917168D01*
X47368336Y30885494D01*
X47276723Y30854233D01*
X47252645Y30855763D01*
X47159895Y30901305D01*
X47115792Y30988837D01*
X47127172Y31089504D01*
X47200870Y31174451D01*
X47261558Y31196819D01*
X47352727Y31176940D01*
G37*
G36*
X40764179Y31177011D02*
G01*
X40830864Y31108247D01*
X40854503Y31013870D01*
X40816633Y30917168D01*
X40792109Y30893183D01*
X40684834Y30856621D01*
X40565337Y30892307D01*
X40543793Y30912531D01*
X40521282Y30997720D01*
X40546266Y31097616D01*
X40612474Y31174670D01*
X40672911Y31196875D01*
X40764179Y31177011D01*
G37*
G36*
X40018258Y31187805D02*
G01*
X40106831Y31154611D01*
X40143055Y31112224D01*
X40164557Y31005871D01*
X40114380Y30904450D01*
X40092839Y30889330D01*
X39989470Y30862842D01*
X39847507Y30858240D01*
X39698053Y30873124D01*
X39572208Y30905097D01*
X39501076Y30951758D01*
X39476705Y31009672D01*
X39501056Y31103465D01*
X39511578Y31115972D01*
X39598742Y31159357D01*
X39733032Y31187546D01*
X39883265Y31197906D01*
X40018258Y31187805D01*
G37*
G36*
X36271094Y31172388D02*
G01*
X36333488Y31084832D01*
X36336198Y30963157D01*
X36329223Y30938941D01*
X36280625Y30871861D01*
X36180477Y30854233D01*
X36151744Y30854994D01*
X36065917Y30881942D01*
X36024756Y30963157D01*
X36023563Y31071132D01*
X36079486Y31164281D01*
X36180477Y31200990D01*
X36271094Y31172388D01*
G37*
G36*
X41819831Y34253938D02*
G01*
X42001035Y34247488D01*
X42136238Y34229107D01*
X42254469Y34193537D01*
X42384757Y34135522D01*
X42440604Y34106732D01*
X42721186Y33911474D01*
X42964518Y33659122D01*
X43146067Y33374212D01*
X43173290Y33316657D01*
X43221191Y33195485D01*
X43248816Y33074636D01*
X43261376Y32925147D01*
X43264079Y32718055D01*
X43263412Y32620984D01*
X43256419Y32442010D01*
X43237451Y32308120D01*
X43201120Y32190210D01*
X43142032Y32059175D01*
X43027518Y31871043D01*
X42841355Y31650755D01*
X42626962Y31461565D01*
X42410495Y31329561D01*
X42354498Y31305623D01*
X42246308Y31268279D01*
X42183719Y31259529D01*
X42176999Y31263361D01*
X42146322Y31324627D01*
X42126922Y31431901D01*
X42125693Y31446835D01*
X42124938Y31544029D01*
X42155677Y31583773D01*
X42235284Y31591685D01*
X42408151Y31608645D01*
X42527428Y31666687D01*
X42615898Y31778396D01*
X42616863Y31780080D01*
X42698061Y31905297D01*
X42782681Y32013704D01*
X42833183Y32073003D01*
X42841498Y32104995D01*
X42793111Y32111229D01*
X42763853Y32104385D01*
X42675066Y32050150D01*
X42576590Y31959523D01*
X42509603Y31892484D01*
X42404752Y31825963D01*
X42285125Y31807816D01*
X42230970Y31809873D01*
X42138822Y31839272D01*
X42082315Y31918218D01*
X42066529Y31953165D01*
X42037609Y32032266D01*
X42053619Y32062822D01*
X42120429Y32067885D01*
X42218887Y32085613D01*
X42371119Y32152602D01*
X42516257Y32250253D01*
X42618899Y32357965D01*
X42628895Y32374485D01*
X42678551Y32514276D01*
X42703050Y32691077D01*
X42702207Y32874954D01*
X42675838Y33035971D01*
X42623757Y33144192D01*
X42577475Y33217327D01*
X42573872Y33281618D01*
X42576249Y33286111D01*
X42587038Y33365314D01*
X42576154Y33479400D01*
X42551193Y33564677D01*
X42495286Y33619529D01*
X42400560Y33612481D01*
X42253455Y33546347D01*
X42176932Y33510737D01*
X42062254Y33489218D01*
X41917533Y33508330D01*
X41774654Y33525921D01*
X41539667Y33508330D01*
X41444816Y33492114D01*
X41324329Y33497209D01*
X41203745Y33546347D01*
X41086214Y33602063D01*
X40980319Y33623347D01*
X40916450Y33583397D01*
X40881046Y33479400D01*
X40878863Y33467065D01*
X40870286Y33354555D01*
X40883328Y33281618D01*
X40882437Y33224798D01*
X40833443Y33144192D01*
X40823625Y33132005D01*
X40775564Y33013583D01*
X40753187Y32847032D01*
X40756307Y32662289D01*
X40784740Y32489288D01*
X40838301Y32357965D01*
X40907575Y32279003D01*
X41046819Y32175480D01*
X41203367Y32098225D01*
X41341408Y32067885D01*
X41349886Y32067805D01*
X41409136Y32050868D01*
X41399502Y31992031D01*
X41379802Y31913139D01*
X41361259Y31776603D01*
X41348143Y31612765D01*
X41347842Y31607280D01*
X41334674Y31451764D01*
X41316222Y31331736D01*
X41296381Y31272779D01*
X41287956Y31266647D01*
X41212046Y31267498D01*
X41091845Y31312151D01*
X40945850Y31390897D01*
X40792559Y31494025D01*
X40650470Y31611826D01*
X40565595Y31700240D01*
X40432033Y31874725D01*
X40319045Y32063144D01*
X40240658Y32240881D01*
X40210896Y32383319D01*
X40208764Y32441223D01*
X40194685Y32443765D01*
X40155630Y32371298D01*
X40144322Y32351152D01*
X40058456Y32269979D01*
X39956945Y32251348D01*
X39868242Y32302107D01*
X39835207Y32362553D01*
X39836574Y32461558D01*
X39889345Y32542450D01*
X39975082Y32582400D01*
X40075351Y32558577D01*
X40093804Y32547752D01*
X40129047Y32540053D01*
X40151210Y32573543D01*
X40166251Y32663345D01*
X40180125Y32824582D01*
X40208886Y33031306D01*
X40321504Y33376078D01*
X40507208Y33681265D01*
X40759640Y33937526D01*
X41072443Y34135522D01*
X41127523Y34161603D01*
X41249544Y34210068D01*
X41371043Y34238177D01*
X41521052Y34251187D01*
X41728600Y34254355D01*
X41819831Y34253938D01*
G37*
G36*
X47373145Y31855288D02*
G01*
X47430004Y31773432D01*
X47431758Y31653940D01*
X47425211Y31630458D01*
X47380543Y31563393D01*
X47290419Y31555851D01*
X47266724Y31559682D01*
X47159228Y31611291D01*
X47108662Y31697710D01*
X47129665Y31796980D01*
X47189719Y31860822D01*
X47285082Y31888191D01*
X47373145Y31855288D01*
G37*
G36*
X47005969Y32217213D02*
G01*
X47072575Y32148472D01*
X47096161Y32054128D01*
X47058271Y31957441D01*
X47021579Y31925767D01*
X46929965Y31894506D01*
X46905887Y31896036D01*
X46813137Y31941578D01*
X46769034Y32029110D01*
X46780414Y32129777D01*
X46854112Y32214724D01*
X46914800Y32237092D01*
X47005969Y32217213D01*
G37*
G36*
X44907805Y33938651D02*
G01*
X44996464Y33877526D01*
X45011184Y33848318D01*
X45010519Y33752000D01*
X44939967Y33675670D01*
X44812539Y33636384D01*
X44676040Y33622802D01*
X44676040Y33114914D01*
X44676040Y32607027D01*
X44808808Y32556913D01*
X44898883Y32504330D01*
X44991689Y32374031D01*
X45003605Y32344780D01*
X45063579Y32263416D01*
X45157028Y32241263D01*
X45275515Y32213937D01*
X45348831Y32130014D01*
X45351898Y32003430D01*
X45341709Y31968758D01*
X45308044Y31920071D01*
X45238075Y31899038D01*
X45106691Y31894506D01*
X44985632Y31900241D01*
X44873327Y31931582D01*
X44782432Y32000897D01*
X44774886Y32008611D01*
X44704827Y32099784D01*
X44676040Y32174276D01*
X44661344Y32212444D01*
X44592497Y32241263D01*
X44589238Y32241346D01*
X44504911Y32276270D01*
X44419118Y32355471D01*
X44384105Y32406991D01*
X44359506Y32468062D01*
X44343548Y32554057D01*
X44334407Y32680415D01*
X44330260Y32862574D01*
X44329283Y33115973D01*
X44329383Y33257713D01*
X44330976Y33467783D01*
X44336253Y33614421D01*
X44347405Y33712846D01*
X44366625Y33778275D01*
X44396103Y33825927D01*
X44438033Y33871019D01*
X44513043Y33933454D01*
X44607928Y33966076D01*
X44747842Y33966575D01*
X44907805Y33938651D01*
G37*
G36*
X43558273Y32206411D02*
G01*
X43615689Y32121810D01*
X43618109Y32003430D01*
X43586479Y31937330D01*
X43496182Y31894052D01*
X43357572Y31920816D01*
X43341969Y31928975D01*
X43296926Y32000971D01*
X43295796Y32100956D01*
X43341023Y32189250D01*
X43369598Y32213149D01*
X43468647Y32241950D01*
X43558273Y32206411D01*
G37*
G36*
X37045607Y33890988D02*
G01*
X37047371Y33695281D01*
X37047371Y33281537D01*
X37220750Y33281537D01*
X37394129Y33281537D01*
X37394129Y33801673D01*
X37394129Y34321810D01*
X37243248Y34321810D01*
X37172193Y34325254D01*
X37099952Y34354997D01*
X37065029Y34430734D01*
X37057539Y34469995D01*
X37077066Y34580917D01*
X37169671Y34646806D01*
X37336390Y34668567D01*
X37394315Y34666933D01*
X37529018Y34638045D01*
X37634495Y34562176D01*
X37657845Y34538154D01*
X37692000Y34494033D01*
X37715219Y34438547D01*
X37729610Y34356634D01*
X37737280Y34233227D01*
X37740336Y34053262D01*
X37740887Y33801673D01*
X37740777Y33658007D01*
X37739156Y33446393D01*
X37733908Y33298390D01*
X37722926Y33198931D01*
X37704101Y33132951D01*
X37675327Y33085386D01*
X37634495Y33041170D01*
X37553559Y32977003D01*
X37450991Y32943527D01*
X37297240Y32934779D01*
X37189987Y32933046D01*
X37100915Y32918809D01*
X37051930Y32879347D01*
X37016263Y32802011D01*
X36961809Y32709921D01*
X36840280Y32621734D01*
X36752297Y32567727D01*
X36666901Y32448355D01*
X36612825Y32360124D01*
X36486623Y32272372D01*
X36436155Y32250668D01*
X36370170Y32190480D01*
X36353856Y32087278D01*
X36353856Y32087028D01*
X36345350Y31983360D01*
X36324960Y31923402D01*
X36320920Y31919718D01*
X36238800Y31894932D01*
X36134068Y31908154D01*
X36055097Y31953916D01*
X36054655Y31954469D01*
X36039292Y32006679D01*
X36027762Y32121569D01*
X36019930Y32303929D01*
X36015662Y32558549D01*
X36014823Y32890221D01*
X36017149Y33281537D01*
X36353856Y33281537D01*
X36527235Y33281537D01*
X36700614Y33281537D01*
X36700614Y33628294D01*
X36700614Y33975052D01*
X36527235Y33975052D01*
X36353856Y33975052D01*
X36353856Y33628294D01*
X36353856Y33281537D01*
X36017149Y33281537D01*
X36017281Y33303734D01*
X36019254Y33514625D01*
X36023063Y33842317D01*
X36027604Y34097826D01*
X36033491Y34290560D01*
X36041339Y34429930D01*
X36051763Y34525347D01*
X36065375Y34586219D01*
X36082791Y34621956D01*
X36104624Y34641970D01*
X36134067Y34656870D01*
X36230260Y34656237D01*
X36306509Y34585722D01*
X36345766Y34458309D01*
X36345814Y34457827D01*
X36357728Y34379885D01*
X36388481Y34339428D01*
X36460689Y34324166D01*
X36596968Y34321810D01*
X36604451Y34321800D01*
X36756434Y34313098D01*
X36857447Y34281090D01*
X36940980Y34215418D01*
X36985018Y34166610D01*
X37018694Y34105803D01*
X37037469Y34020879D01*
X37040340Y33975052D01*
X37045607Y33890988D01*
G37*
G36*
X46286199Y34309495D02*
G01*
X46362473Y34238969D01*
X46401739Y34111551D01*
X46401787Y34111069D01*
X46413701Y34033128D01*
X46444454Y33992671D01*
X46516662Y33977408D01*
X46652941Y33975052D01*
X46660424Y33975042D01*
X46812407Y33966340D01*
X46913420Y33934332D01*
X46996952Y33868660D01*
X47004498Y33860947D01*
X47074557Y33769774D01*
X47103344Y33695281D01*
X47111633Y33663103D01*
X47170331Y33628294D01*
X47175349Y33628027D01*
X47252994Y33594493D01*
X47343710Y33521903D01*
X47379323Y33483886D01*
X47412442Y33432920D01*
X47433215Y33364362D01*
X47444506Y33260938D01*
X47449180Y33105376D01*
X47450102Y32880401D01*
X47449439Y32764836D01*
X47441452Y32522885D01*
X47424361Y32365982D01*
X47398088Y32293277D01*
X47367735Y32270181D01*
X47276723Y32241263D01*
X47208077Y32254308D01*
X47146617Y32316993D01*
X47113343Y32441802D01*
X47103344Y32640035D01*
X47102375Y32734532D01*
X47093727Y32856853D01*
X47072979Y32918066D01*
X47036357Y32934779D01*
X47031339Y32935046D01*
X46953694Y32968580D01*
X46862978Y33041170D01*
X46856568Y33047662D01*
X46794245Y33130465D01*
X46764306Y33232841D01*
X46756586Y33387928D01*
X46756586Y33628294D01*
X46583208Y33628294D01*
X46409829Y33628294D01*
X46409829Y33286235D01*
X46410355Y33165077D01*
X46415751Y33040236D01*
X46431679Y32970142D01*
X46463767Y32935525D01*
X46517642Y32917117D01*
X46535364Y32912056D01*
X46658847Y32830232D01*
X46732411Y32687743D01*
X46748415Y32498451D01*
X46738323Y32428299D01*
X46686377Y32307183D01*
X46609684Y32246296D01*
X46526924Y32248288D01*
X46456775Y32315813D01*
X46417919Y32451522D01*
X46415942Y32470287D01*
X46396916Y32549448D01*
X46346226Y32581816D01*
X46236450Y32588021D01*
X46213361Y32587933D01*
X46115096Y32578867D01*
X46071444Y32540273D01*
X46054981Y32451522D01*
X46048432Y32409612D01*
X45996675Y32297279D01*
X45912791Y32245579D01*
X45813839Y32267529D01*
X45756748Y32340205D01*
X45724403Y32451522D01*
X45710821Y32588021D01*
X45389308Y32588021D01*
X45298163Y32588322D01*
X45168510Y32593093D01*
X45095668Y32608627D01*
X45059647Y32641163D01*
X45040456Y32696946D01*
X45041611Y32818898D01*
X45112550Y32903887D01*
X45244829Y32934779D01*
X45265218Y32934944D01*
X45335339Y32946791D01*
X45364040Y32995299D01*
X45369556Y33105411D01*
X45369425Y33133691D01*
X45360029Y33230507D01*
X45321288Y33273423D01*
X45233057Y33289626D01*
X45221977Y33290882D01*
X45095857Y33335390D01*
X45033473Y33413438D01*
X45035000Y33502145D01*
X45100618Y33578631D01*
X45230501Y33620014D01*
X45291843Y33629517D01*
X45354627Y33670449D01*
X45377836Y33767349D01*
X45384108Y33807543D01*
X45435800Y33919203D01*
X45519878Y33970630D01*
X45618788Y33948617D01*
X45633551Y33937614D01*
X45671690Y33877590D01*
X45694758Y33768346D01*
X45707376Y33591245D01*
X45720111Y33281537D01*
X45890171Y33281537D01*
X46060232Y33281537D01*
X46072488Y33764542D01*
X46077440Y33923629D01*
X46087295Y34090732D01*
X46102693Y34197857D01*
X46126254Y34260784D01*
X46160597Y34295293D01*
X46189968Y34310138D01*
X46286199Y34309495D01*
G37*
G36*
X43885150Y32563971D02*
G01*
X43951756Y32495230D01*
X43975342Y32400886D01*
X43937452Y32304198D01*
X43900760Y32272525D01*
X43809146Y32241263D01*
X43785068Y32242794D01*
X43692318Y32288336D01*
X43648215Y32375867D01*
X43659595Y32476534D01*
X43733293Y32561481D01*
X43793981Y32583849D01*
X43885150Y32563971D01*
G37*
G36*
X38908315Y33974546D02*
G01*
X39077682Y33970943D01*
X39191165Y33961390D01*
X39265961Y33943050D01*
X39319268Y33913086D01*
X39368284Y33868660D01*
X39376063Y33860709D01*
X39445964Y33770521D01*
X39474675Y33698028D01*
X39507202Y33649355D01*
X39611174Y33620204D01*
X39622192Y33618959D01*
X39748896Y33574404D01*
X39811146Y33496318D01*
X39808943Y33407575D01*
X39742286Y33331053D01*
X39611174Y33289626D01*
X39588562Y33287213D01*
X39511861Y33267835D01*
X39480614Y33216297D01*
X39474675Y33105411D01*
X39474796Y33077518D01*
X39483456Y32981589D01*
X39518914Y32942324D01*
X39599402Y32934779D01*
X39727625Y32906171D01*
X39801131Y32823068D01*
X39803775Y32696946D01*
X39793586Y32662273D01*
X39759921Y32613586D01*
X39689952Y32592553D01*
X39558569Y32588021D01*
X39437509Y32593756D01*
X39325204Y32625097D01*
X39234309Y32694413D01*
X39190271Y32743221D01*
X39156594Y32804028D01*
X39137820Y32888952D01*
X39129682Y33018843D01*
X39127917Y33214549D01*
X39127917Y33628294D01*
X38630279Y33628294D01*
X38445422Y33628646D01*
X38292592Y33631807D01*
X38197753Y33641011D01*
X38145317Y33659491D01*
X38119696Y33690482D01*
X38105302Y33737219D01*
X38092049Y33823262D01*
X38109968Y33888972D01*
X38171279Y33932856D01*
X38286769Y33959065D01*
X38467221Y33971747D01*
X38723420Y33975052D01*
X38908315Y33974546D01*
G37*
G36*
X43884999Y34295275D02*
G01*
X43887595Y34293596D01*
X43919396Y34260204D01*
X43941601Y34199746D01*
X43956441Y34097318D01*
X43966140Y33938014D01*
X43972928Y33706929D01*
X43975463Y33582014D01*
X43976780Y33390139D01*
X43971392Y33258563D01*
X43957192Y33169780D01*
X43932074Y33106282D01*
X43893929Y33050562D01*
X43872255Y33024263D01*
X43804482Y32967043D01*
X43713758Y32940968D01*
X43568430Y32934779D01*
X43471691Y32936106D01*
X43377682Y32947931D01*
X43330694Y32980460D01*
X43306668Y33043704D01*
X43307623Y33164954D01*
X43378079Y33250407D01*
X43509621Y33281537D01*
X43632928Y33281537D01*
X43645184Y33764542D01*
X43650136Y33923629D01*
X43659991Y34090732D01*
X43675389Y34197857D01*
X43698950Y34260784D01*
X43733293Y34295293D01*
X43791609Y34319842D01*
X43884999Y34295275D01*
G37*
G36*
X40091233Y33242319D02*
G01*
X40148093Y33160462D01*
X40149847Y33040970D01*
X40143300Y33017489D01*
X40098631Y32950423D01*
X40008508Y32942882D01*
X39984813Y32946712D01*
X39877317Y32998322D01*
X39826750Y33084741D01*
X39847754Y33184011D01*
X39907807Y33247853D01*
X40003171Y33275222D01*
X40091233Y33242319D01*
G37*
G36*
X40070665Y34295409D02*
G01*
X40104544Y34252423D01*
X40140384Y34142176D01*
X40161577Y33999303D01*
X40166022Y33852853D01*
X40151616Y33731873D01*
X40116257Y33665413D01*
X40066864Y33644933D01*
X39963129Y33628958D01*
X39906930Y33640356D01*
X39851486Y33705005D01*
X39826678Y33834718D01*
X39829569Y34038502D01*
X39843540Y34145275D01*
X39893157Y34270462D01*
X39970724Y34322488D01*
X40070665Y34295409D01*
G37*
G36*
X47352576Y34642187D02*
G01*
X47365084Y34631664D01*
X47408468Y34544500D01*
X47436657Y34410210D01*
X47447017Y34259978D01*
X47436917Y34124984D01*
X47403722Y34036412D01*
X47368894Y34006312D01*
X47276723Y33975052D01*
X47235668Y33979293D01*
X47156708Y34032681D01*
X47116467Y34152694D01*
X47111908Y34346174D01*
X47128601Y34489455D01*
X47176663Y34619716D01*
X47252000Y34671462D01*
X47352576Y34642187D01*
G37*
G36*
X45292599Y34282592D02*
G01*
X45349458Y34200735D01*
X45351212Y34081243D01*
X45344665Y34057762D01*
X45299997Y33990696D01*
X45209873Y33983155D01*
X45186178Y33986985D01*
X45078682Y34038595D01*
X45028116Y34125014D01*
X45049119Y34224284D01*
X45109173Y34288126D01*
X45204536Y34315495D01*
X45292599Y34282592D01*
G37*
G36*
X46644988Y34650655D02*
G01*
X46724220Y34586475D01*
X46756586Y34471821D01*
X46745131Y34406057D01*
X46702405Y34349714D01*
X46661891Y34336772D01*
X46547950Y34339940D01*
X46458595Y34391512D01*
X46414507Y34474281D01*
X46436369Y34571042D01*
X46453129Y34594378D01*
X46545691Y34656058D01*
X46644988Y34650655D01*
G37*
G36*
X46916309Y35690577D02*
G01*
X47037424Y35638631D01*
X47098312Y35561938D01*
X47096320Y35479178D01*
X47028795Y35409029D01*
X46893085Y35370173D01*
X46796542Y35345257D01*
X46756586Y35292349D01*
X46756303Y35287368D01*
X46722705Y35211562D01*
X46650195Y35121716D01*
X46643703Y35115307D01*
X46560901Y35052983D01*
X46458524Y35023045D01*
X46303437Y35015325D01*
X46063071Y35015325D01*
X46063071Y34720581D01*
X46057856Y34579600D01*
X46039426Y34445277D01*
X46011057Y34373823D01*
X45994610Y34359737D01*
X45900326Y34324945D01*
X45803104Y34335972D01*
X45742623Y34390372D01*
X45727257Y34449924D01*
X45716313Y34561852D01*
X45715772Y34585319D01*
X45703296Y34629885D01*
X45660026Y34655468D01*
X45567338Y34669023D01*
X45406605Y34677505D01*
X45346350Y34680405D01*
X45191150Y34695618D01*
X45098323Y34722641D01*
X45049233Y34766093D01*
X45034444Y34795392D01*
X45035096Y34891661D01*
X45105634Y34967960D01*
X45233057Y35007235D01*
X45329600Y35032150D01*
X45369556Y35085058D01*
X45369839Y35090040D01*
X45403437Y35165845D01*
X45475947Y35255691D01*
X45522895Y35298285D01*
X45583637Y35332708D01*
X45667944Y35351921D01*
X45796850Y35360266D01*
X45991385Y35362083D01*
X46034254Y35362098D01*
X46209991Y35363692D01*
X46319787Y35370968D01*
X46381038Y35388227D01*
X46411140Y35419769D01*
X46427490Y35469896D01*
X46432552Y35487617D01*
X46514375Y35611101D01*
X46656864Y35684665D01*
X46846157Y35700669D01*
X46916309Y35690577D01*
G37*
G36*
X44578515Y35335589D02*
G01*
X44589338Y35327913D01*
X44622581Y35283405D01*
X44644469Y35202703D01*
X44658165Y35068982D01*
X44666827Y34865416D01*
X44666974Y34860364D01*
X44667794Y34624590D01*
X44654994Y34463405D01*
X44629011Y34382387D01*
X44616683Y34368721D01*
X44523403Y34319935D01*
X44429984Y34340762D01*
X44358064Y34419502D01*
X44329283Y34544456D01*
X44325274Y34601765D01*
X44288999Y34655490D01*
X44192784Y34676657D01*
X44181704Y34677912D01*
X44055584Y34722420D01*
X43993200Y34800469D01*
X43994727Y34889176D01*
X44060345Y34965662D01*
X44190228Y35007044D01*
X44251570Y35016547D01*
X44314354Y35057479D01*
X44337563Y35154380D01*
X44343853Y35194658D01*
X44395559Y35306280D01*
X44479631Y35357657D01*
X44578515Y35335589D01*
G37*
G36*
X41823503Y36361975D02*
G01*
X41870489Y36235635D01*
X41892863Y36027402D01*
X41896018Y35956292D01*
X41906312Y35825211D01*
X41927067Y35749828D01*
X41967409Y35707875D01*
X42036467Y35677082D01*
X42125514Y35624583D01*
X42216837Y35496947D01*
X42222532Y35482476D01*
X42287362Y35388460D01*
X42393947Y35353343D01*
X42405093Y35352053D01*
X42527462Y35307516D01*
X42586056Y35229492D01*
X42581480Y35140872D01*
X42514338Y35064549D01*
X42385236Y35023415D01*
X42362623Y35021001D01*
X42285922Y35001624D01*
X42254675Y34950086D01*
X42248737Y34839200D01*
X42248834Y34814417D01*
X42257212Y34716801D01*
X42291735Y34676479D01*
X42370102Y34668567D01*
X42496719Y34640661D01*
X42576991Y34568407D01*
X42596309Y34472345D01*
X42542677Y34373019D01*
X42525182Y34362585D01*
X42454657Y34346931D01*
X42328607Y34336348D01*
X42139261Y34330519D01*
X41878850Y34329123D01*
X41539602Y34331842D01*
X41476481Y34332631D01*
X41177377Y34337152D01*
X40951891Y34342678D01*
X40788959Y34350180D01*
X40677519Y34360627D01*
X40606510Y34374988D01*
X40564868Y34394235D01*
X40541532Y34419335D01*
X40516971Y34477529D01*
X40541383Y34571042D01*
X40551426Y34584700D01*
X40610951Y34623438D01*
X40719638Y34646845D01*
X40896147Y34659577D01*
X41203246Y34672260D01*
X41216691Y34806913D01*
X41217946Y34817961D01*
X41262496Y34943745D01*
X41340569Y35005220D01*
X41429286Y35002514D01*
X41505767Y34935753D01*
X41547131Y34805066D01*
X41549545Y34782454D01*
X41568923Y34705753D01*
X41620461Y34674506D01*
X41731346Y34668567D01*
X41783565Y34668896D01*
X41866162Y34680525D01*
X41897227Y34726968D01*
X41901979Y34832443D01*
X41895344Y34932777D01*
X41858256Y35000707D01*
X41769211Y35046433D01*
X41679136Y35099016D01*
X41586330Y35229315D01*
X41568159Y35275086D01*
X41535977Y35324927D01*
X41481855Y35350805D01*
X41384210Y35360572D01*
X41221459Y35362083D01*
X41141244Y35362317D01*
X41009535Y35366850D01*
X40935479Y35382179D01*
X40898835Y35414750D01*
X40879364Y35471007D01*
X40874797Y35490981D01*
X40874963Y35594901D01*
X40932377Y35662025D01*
X41056106Y35698093D01*
X41255217Y35708840D01*
X41551423Y35708840D01*
X41564158Y36018548D01*
X41567059Y36078803D01*
X41582272Y36234004D01*
X41609295Y36326831D01*
X41652747Y36375920D01*
X41750849Y36407957D01*
X41823503Y36361975D01*
G37*
G36*
X38683785Y34644517D02*
G01*
X38750391Y34575776D01*
X38773977Y34481432D01*
X38736087Y34384744D01*
X38699394Y34353071D01*
X38607781Y34321810D01*
X38583703Y34323340D01*
X38490953Y34368882D01*
X38446850Y34456413D01*
X38458230Y34557080D01*
X38531928Y34642027D01*
X38592616Y34664395D01*
X38683785Y34644517D01*
G37*
G36*
X43191484Y35335724D02*
G01*
X43206060Y35324722D01*
X43256255Y35233871D01*
X43280272Y35069838D01*
X43282981Y35015435D01*
X43278322Y34899883D01*
X43245896Y34825247D01*
X43174320Y34758023D01*
X43128266Y34727224D01*
X42997896Y34679836D01*
X42861379Y34671201D01*
X42737110Y34695999D01*
X42643487Y34748911D01*
X42598905Y34824617D01*
X42621760Y34917799D01*
X42692681Y34974328D01*
X42803197Y35007044D01*
X42864539Y35016547D01*
X42927323Y35057479D01*
X42950532Y35154380D01*
X42956782Y35194464D01*
X43008453Y35306174D01*
X43092540Y35357665D01*
X43191484Y35335724D01*
G37*
G36*
X40417573Y34991275D02*
G01*
X40484179Y34922534D01*
X40507766Y34828189D01*
X40469875Y34731502D01*
X40433183Y34699829D01*
X40341569Y34668567D01*
X40317491Y34670098D01*
X40224741Y34715639D01*
X40180638Y34803171D01*
X40192018Y34903838D01*
X40265716Y34988785D01*
X40326404Y35011153D01*
X40417573Y34991275D01*
G37*
G36*
X39719363Y35337060D02*
G01*
X39780284Y35259398D01*
X39815048Y35145761D01*
X39818919Y35014745D01*
X39787162Y34884946D01*
X39715041Y34774959D01*
X39637100Y34709964D01*
X39542325Y34677452D01*
X39402873Y34677044D01*
X39242910Y34704969D01*
X39154251Y34766093D01*
X39140007Y34794134D01*
X39139868Y34890713D01*
X39209479Y34967536D01*
X39335620Y35007044D01*
X39396962Y35016547D01*
X39459746Y35057479D01*
X39482956Y35154380D01*
X39513729Y35260947D01*
X39572201Y35335817D01*
X39637022Y35360151D01*
X39719363Y35337060D01*
G37*
G36*
X38039874Y35627271D02*
G01*
X38079364Y35501137D01*
X38088867Y35439795D01*
X38129799Y35377011D01*
X38226699Y35353802D01*
X38237759Y35352543D01*
X38363190Y35307995D01*
X38424367Y35229927D01*
X38421467Y35141220D01*
X38354667Y35064756D01*
X38224143Y35023415D01*
X38158655Y35013415D01*
X38100985Y34976153D01*
X38087644Y34891213D01*
X38074877Y34800815D01*
X38035631Y34720581D01*
X38005219Y34697658D01*
X37910904Y34668567D01*
X37849417Y34678333D01*
X37794574Y34725155D01*
X37762118Y34821696D01*
X37748483Y34980015D01*
X37750100Y35212173D01*
X37752032Y35272406D01*
X37761692Y35456311D01*
X37777202Y35574720D01*
X37801722Y35644456D01*
X37838412Y35682346D01*
X37866596Y35696699D01*
X37963100Y35696858D01*
X38039874Y35627271D01*
G37*
G36*
X37025524Y35706037D02*
G01*
X37140891Y35691942D01*
X37219447Y35659688D01*
X37287737Y35602449D01*
X37353610Y35514212D01*
X37394129Y35362083D01*
X37374825Y35266643D01*
X37307135Y35146119D01*
X37212609Y35052798D01*
X37114359Y35015325D01*
X37068340Y34991552D01*
X37047371Y34893960D01*
X37034245Y34800452D01*
X36995358Y34720581D01*
X36978910Y34706495D01*
X36884626Y34671703D01*
X36787404Y34682730D01*
X36726923Y34737129D01*
X36711557Y34796682D01*
X36700614Y34908609D01*
X36700073Y34932077D01*
X36687597Y34976643D01*
X36644327Y35002226D01*
X36551638Y35015781D01*
X36390906Y35024262D01*
X36330651Y35027163D01*
X36175450Y35042376D01*
X36082623Y35069399D01*
X36033533Y35112851D01*
X36018744Y35142149D01*
X36019397Y35238419D01*
X36089934Y35314718D01*
X36217357Y35353993D01*
X36313900Y35378908D01*
X36353856Y35431816D01*
X36354140Y35436797D01*
X36387738Y35512603D01*
X36460248Y35602449D01*
X36519829Y35653931D01*
X36595603Y35688987D01*
X36704809Y35705015D01*
X36873993Y35708840D01*
X37025524Y35706037D01*
G37*
G36*
X47352727Y35338032D02*
G01*
X47419333Y35269291D01*
X47442919Y35174947D01*
X47405029Y35078260D01*
X47368336Y35046586D01*
X47276723Y35015325D01*
X47252645Y35016855D01*
X47159895Y35062397D01*
X47115792Y35149929D01*
X47127172Y35250596D01*
X47200870Y35335543D01*
X47261558Y35357911D01*
X47352727Y35338032D01*
G37*
G36*
X43884999Y35335543D02*
G01*
X43939574Y35286365D01*
X43975641Y35181761D01*
X43935633Y35076068D01*
X43874538Y35037287D01*
X43769512Y35023970D01*
X43732893Y35029957D01*
X43672395Y35068691D01*
X43657440Y35162307D01*
X43660473Y35204434D01*
X43704755Y35309359D01*
X43786275Y35358147D01*
X43884999Y35335543D01*
G37*
G36*
X40784749Y35322865D02*
G01*
X40841608Y35241008D01*
X40843362Y35121516D01*
X40836815Y35098035D01*
X40792147Y35030969D01*
X40702023Y35023428D01*
X40678328Y35027258D01*
X40570832Y35078868D01*
X40520266Y35165287D01*
X40541269Y35264557D01*
X40601323Y35328399D01*
X40696686Y35355768D01*
X40784749Y35322865D01*
G37*
G36*
X45272180Y35684790D02*
G01*
X45338787Y35616049D01*
X45362373Y35521705D01*
X45324483Y35425017D01*
X45287790Y35393344D01*
X45196177Y35362083D01*
X45172098Y35363613D01*
X45079349Y35409155D01*
X45035246Y35496687D01*
X45046626Y35597353D01*
X45120324Y35682300D01*
X45181012Y35704668D01*
X45272180Y35684790D01*
G37*
G36*
X44252326Y35669623D02*
G01*
X44309185Y35587766D01*
X44310939Y35468274D01*
X44304392Y35444792D01*
X44259724Y35377727D01*
X44169600Y35370186D01*
X44145905Y35374016D01*
X44038409Y35425625D01*
X43987843Y35512045D01*
X44008846Y35611315D01*
X44068900Y35675157D01*
X44164263Y35702525D01*
X44252326Y35669623D01*
G37*
G36*
X43538242Y36029217D02*
G01*
X43550749Y36018695D01*
X43594134Y35931531D01*
X43622323Y35797241D01*
X43632683Y35647009D01*
X43622582Y35512015D01*
X43589387Y35423443D01*
X43554559Y35393342D01*
X43462388Y35362083D01*
X43421333Y35366324D01*
X43342373Y35419712D01*
X43302133Y35539725D01*
X43297574Y35733205D01*
X43314267Y35876486D01*
X43362329Y36006746D01*
X43437666Y36058492D01*
X43538242Y36029217D01*
G37*
G36*
X41110938Y38109681D02*
G01*
X41141981Y38080766D01*
X41171141Y38011848D01*
X41188990Y37892309D01*
X41199458Y37704150D01*
X41201294Y37630268D01*
X41191692Y37410902D01*
X41152994Y37259704D01*
X41080503Y37164603D01*
X40969519Y37113533D01*
X40917234Y37095770D01*
X40880463Y37056866D01*
X40864915Y36977363D01*
X40861706Y36834250D01*
X40860551Y36747530D01*
X40848013Y36630697D01*
X40813616Y36555429D01*
X40747499Y36492191D01*
X40742680Y36488441D01*
X40647069Y36427515D01*
X40574120Y36402356D01*
X40567705Y36401851D01*
X40527919Y36354922D01*
X40514948Y36228977D01*
X40515113Y36196179D01*
X40524060Y36101564D01*
X40559641Y36062961D01*
X40639675Y36055598D01*
X40752022Y36034377D01*
X40837236Y35956061D01*
X40854197Y35830424D01*
X40841400Y35782370D01*
X40789743Y35736902D01*
X40677491Y35717060D01*
X40572359Y35701456D01*
X40525107Y35664092D01*
X40514948Y35584859D01*
X40502164Y35494313D01*
X40462934Y35414096D01*
X40446487Y35400010D01*
X40352203Y35365218D01*
X40254981Y35376245D01*
X40194500Y35430645D01*
X40186748Y35470972D01*
X40177173Y35588261D01*
X40170620Y35755464D01*
X40168190Y35950781D01*
X40167564Y36083408D01*
X40162813Y36244437D01*
X40151586Y36341720D01*
X40131758Y36389584D01*
X40101203Y36402356D01*
X40024200Y36426281D01*
X39926959Y36510179D01*
X39851666Y36627338D01*
X39821433Y36749113D01*
X39834933Y36850653D01*
X39914570Y36983552D01*
X40060084Y37066958D01*
X40265079Y37095871D01*
X40372333Y37097603D01*
X40461404Y37111840D01*
X40510390Y37151303D01*
X40546057Y37228639D01*
X40598870Y37318938D01*
X40727218Y37410871D01*
X40758180Y37422986D01*
X40814940Y37455486D01*
X40846548Y37507841D01*
X40862133Y37602320D01*
X40870822Y37761190D01*
X40892811Y37967546D01*
X40939515Y38094799D01*
X41011873Y38141667D01*
X41110938Y38109681D01*
G37*
G36*
X38683785Y35684790D02*
G01*
X38750391Y35616049D01*
X38773977Y35521705D01*
X38736087Y35425017D01*
X38699394Y35393344D01*
X38607781Y35362083D01*
X38583703Y35363613D01*
X38490953Y35409155D01*
X38446850Y35496687D01*
X38458230Y35597353D01*
X38531928Y35682300D01*
X38592616Y35704668D01*
X38683785Y35684790D01*
G37*
G36*
X42497969Y36375975D02*
G01*
X42510476Y36365453D01*
X42553861Y36278288D01*
X42582050Y36143999D01*
X42592410Y35993766D01*
X42582309Y35858773D01*
X42549114Y35770200D01*
X42497882Y35733339D01*
X42395961Y35708840D01*
X42332069Y35722660D01*
X42277578Y35788251D01*
X42253655Y35917011D01*
X42256873Y36119048D01*
X42270836Y36225783D01*
X42320449Y36350990D01*
X42398018Y36403034D01*
X42497969Y36375975D01*
G37*
G36*
X39723907Y36375975D02*
G01*
X39736415Y36365453D01*
X39779799Y36278288D01*
X39807988Y36143999D01*
X39818348Y35993766D01*
X39808248Y35858773D01*
X39775053Y35770200D01*
X39723821Y35733339D01*
X39621900Y35708840D01*
X39558008Y35722660D01*
X39503517Y35788251D01*
X39479594Y35917011D01*
X39482811Y36119048D01*
X39496775Y36225783D01*
X39546388Y36350990D01*
X39623957Y36403034D01*
X39723907Y36375975D01*
G37*
G36*
X47448169Y37128504D02*
G01*
X47441774Y36917318D01*
X47427592Y36763137D01*
X47403451Y36646771D01*
X47367178Y36549030D01*
X47261466Y36384802D01*
X47087604Y36219961D01*
X46885325Y36103823D01*
X46883859Y36103256D01*
X46797732Y36086636D01*
X46646512Y36072639D01*
X46451108Y36062724D01*
X46232431Y36058345D01*
X46136682Y36058033D01*
X45929550Y36060006D01*
X45781784Y36068183D01*
X45673474Y36085215D01*
X45584707Y36113754D01*
X45495571Y36156451D01*
X45440866Y36189403D01*
X45294066Y36307856D01*
X45174504Y36441736D01*
X45172726Y36444259D01*
X45119982Y36523007D01*
X45083606Y36595277D01*
X45060012Y36679699D01*
X45045616Y36794905D01*
X45036830Y36959524D01*
X45030069Y37192188D01*
X45028680Y37291683D01*
X45369556Y37291683D01*
X45373057Y37112643D01*
X45395984Y36879553D01*
X45444506Y36707827D01*
X45523502Y36582888D01*
X45637852Y36490156D01*
X45671556Y36470953D01*
X45756691Y36436463D01*
X45865166Y36415641D01*
X46018059Y36405407D01*
X46236450Y36402680D01*
X46384183Y36404938D01*
X46645480Y36428634D01*
X46836906Y36486028D01*
X46968432Y36586833D01*
X47050032Y36740759D01*
X47091678Y36957516D01*
X47103344Y37246817D01*
X47099933Y37429045D01*
X47073634Y37686305D01*
X47013178Y37874564D01*
X46908897Y38003732D01*
X46751125Y38083722D01*
X46530199Y38124448D01*
X46236450Y38135820D01*
X46088717Y38133562D01*
X45827419Y38109866D01*
X45635994Y38052471D01*
X45504468Y37951667D01*
X45422868Y37797741D01*
X45381222Y37580983D01*
X45369556Y37291683D01*
X45028680Y37291683D01*
X45027237Y37394980D01*
X45035834Y37658373D01*
X45064065Y37861289D01*
X45115938Y38019232D01*
X45195458Y38147703D01*
X45306633Y38262203D01*
X45367087Y38311803D01*
X45488502Y38387369D01*
X45628814Y38438055D01*
X45804801Y38467359D01*
X46033237Y38478782D01*
X46330901Y38475821D01*
X46539639Y38469563D01*
X46707044Y38460700D01*
X46824054Y38446205D01*
X46909793Y38422305D01*
X46983387Y38385226D01*
X47063962Y38331195D01*
X47115910Y38290353D01*
X47248906Y38154166D01*
X47349248Y38010129D01*
X47365545Y37978469D01*
X47403233Y37891126D01*
X47427735Y37796870D01*
X47441753Y37675766D01*
X47447991Y37507878D01*
X47449150Y37273269D01*
X47448971Y37246817D01*
X47448169Y37128504D01*
G37*
G36*
X44578515Y36722733D02*
G01*
X44591022Y36712210D01*
X44634407Y36625046D01*
X44662596Y36490756D01*
X44672956Y36340524D01*
X44662855Y36205530D01*
X44629660Y36116958D01*
X44594832Y36086858D01*
X44502661Y36055598D01*
X44461606Y36059839D01*
X44382646Y36113227D01*
X44342406Y36233240D01*
X44337847Y36426720D01*
X44354540Y36570001D01*
X44402602Y36700262D01*
X44477939Y36752008D01*
X44578515Y36722733D01*
G37*
G36*
X43885150Y36378306D02*
G01*
X43951756Y36309564D01*
X43975342Y36215220D01*
X43937452Y36118533D01*
X43900760Y36086859D01*
X43809146Y36055598D01*
X43785068Y36057128D01*
X43692318Y36102670D01*
X43648215Y36190202D01*
X43659595Y36290869D01*
X43733293Y36375816D01*
X43793981Y36398184D01*
X43885150Y36378306D01*
G37*
G36*
X43212052Y36363138D02*
G01*
X43268912Y36281282D01*
X43270666Y36161789D01*
X43264119Y36138308D01*
X43219451Y36071243D01*
X43129327Y36063701D01*
X43105632Y36067531D01*
X42998136Y36119141D01*
X42947570Y36205560D01*
X42968573Y36304830D01*
X43028626Y36368672D01*
X43123990Y36396041D01*
X43212052Y36363138D01*
G37*
G36*
X41111088Y36378306D02*
G01*
X41177694Y36309564D01*
X41201281Y36215220D01*
X41163391Y36118533D01*
X41126698Y36086859D01*
X41035085Y36055598D01*
X41011006Y36057128D01*
X40918256Y36102670D01*
X40874154Y36190202D01*
X40885534Y36290869D01*
X40959231Y36375816D01*
X41019920Y36398184D01*
X41111088Y36378306D01*
G37*
G36*
X39030392Y36722733D02*
G01*
X39042899Y36712210D01*
X39086284Y36625046D01*
X39114473Y36490756D01*
X39124833Y36340524D01*
X39114732Y36205530D01*
X39081538Y36116958D01*
X39030305Y36080097D01*
X38928385Y36055598D01*
X38864493Y36069418D01*
X38810002Y36135009D01*
X38786078Y36263769D01*
X38789296Y36465805D01*
X38803259Y36572541D01*
X38852872Y36697748D01*
X38930442Y36749792D01*
X39030392Y36722733D01*
G37*
G36*
X38432470Y37128504D02*
G01*
X38426075Y36917318D01*
X38411892Y36763137D01*
X38387751Y36646771D01*
X38351479Y36549030D01*
X38245767Y36384802D01*
X38071905Y36219961D01*
X37869626Y36103823D01*
X37868159Y36103256D01*
X37782033Y36086636D01*
X37630812Y36072639D01*
X37435408Y36062724D01*
X37216731Y36058345D01*
X37120983Y36058033D01*
X36913850Y36060006D01*
X36766085Y36068183D01*
X36657774Y36085215D01*
X36569007Y36113754D01*
X36479871Y36156451D01*
X36425167Y36189403D01*
X36278366Y36307856D01*
X36158805Y36441736D01*
X36157027Y36444259D01*
X36104282Y36523007D01*
X36067906Y36595277D01*
X36044313Y36679699D01*
X36029916Y36794905D01*
X36021130Y36959524D01*
X36014369Y37192188D01*
X36012980Y37291683D01*
X36353856Y37291683D01*
X36357358Y37112643D01*
X36380285Y36879553D01*
X36428806Y36707827D01*
X36507802Y36582888D01*
X36622152Y36490156D01*
X36655857Y36470953D01*
X36740992Y36436463D01*
X36849466Y36415641D01*
X37002360Y36405407D01*
X37220750Y36402680D01*
X37368483Y36404938D01*
X37629781Y36428634D01*
X37821206Y36486028D01*
X37952732Y36586833D01*
X38034332Y36740759D01*
X38075978Y36957516D01*
X38087644Y37246817D01*
X38084233Y37429045D01*
X38057935Y37686305D01*
X37997478Y37874564D01*
X37893197Y38003732D01*
X37735426Y38083722D01*
X37514499Y38124448D01*
X37220750Y38135820D01*
X37073017Y38133562D01*
X36811720Y38109866D01*
X36620294Y38052471D01*
X36488768Y37951667D01*
X36407168Y37797741D01*
X36365522Y37580983D01*
X36353856Y37291683D01*
X36012980Y37291683D01*
X36011537Y37394980D01*
X36020134Y37658373D01*
X36048365Y37861289D01*
X36100238Y38019232D01*
X36179759Y38147703D01*
X36290934Y38262203D01*
X36351388Y38311803D01*
X36472802Y38387369D01*
X36613115Y38438055D01*
X36789101Y38467359D01*
X37017538Y38478782D01*
X37315201Y38475821D01*
X37523939Y38469563D01*
X37691345Y38460700D01*
X37808354Y38446205D01*
X37894093Y38422305D01*
X37967687Y38385226D01*
X38048262Y38331195D01*
X38100210Y38290353D01*
X38233207Y38154166D01*
X38333549Y38010129D01*
X38349845Y37978469D01*
X38387534Y37891126D01*
X38412036Y37796870D01*
X38426054Y37675766D01*
X38432291Y37507878D01*
X38433450Y37273269D01*
X38433271Y37246817D01*
X38432470Y37128504D01*
G37*
G36*
X42844877Y36725063D02*
G01*
X42911483Y36656322D01*
X42935069Y36561978D01*
X42897179Y36465290D01*
X42860487Y36433617D01*
X42768873Y36402356D01*
X42744795Y36403886D01*
X42652045Y36449428D01*
X42607942Y36536960D01*
X42619322Y36637626D01*
X42693020Y36722573D01*
X42753708Y36744941D01*
X42844877Y36725063D01*
G37*
G36*
X41997419Y37770083D02*
G01*
X42117943Y37702393D01*
X42211264Y37607867D01*
X42248737Y37509616D01*
X42251887Y37489706D01*
X42299900Y37453409D01*
X42417416Y37442629D01*
X42516768Y37448250D01*
X42581631Y37478857D01*
X42613156Y37550442D01*
X42618217Y37568164D01*
X42700041Y37691647D01*
X42842530Y37765211D01*
X43031823Y37781215D01*
X43101974Y37771123D01*
X43223090Y37719177D01*
X43283977Y37642484D01*
X43281985Y37559724D01*
X43214460Y37489575D01*
X43078751Y37450719D01*
X42982208Y37425804D01*
X42942252Y37372895D01*
X42941968Y37367914D01*
X42908370Y37292108D01*
X42835860Y37202263D01*
X42829369Y37195853D01*
X42746566Y37133529D01*
X42644190Y37103591D01*
X42489103Y37095871D01*
X42248737Y37095871D01*
X42248737Y36817675D01*
X42245765Y36681895D01*
X42236238Y36548601D01*
X42222427Y36470918D01*
X42177147Y36425538D01*
X42075358Y36402356D01*
X41978453Y36422786D01*
X41919661Y36499368D01*
X41901979Y36644297D01*
X41901949Y36650445D01*
X41890174Y36715024D01*
X41840466Y36743032D01*
X41728600Y36749113D01*
X41698890Y36748976D01*
X41602598Y36740312D01*
X41562946Y36705670D01*
X41555221Y36627748D01*
X41543723Y36536073D01*
X41477583Y36436531D01*
X41356138Y36402356D01*
X41322279Y36405107D01*
X41254778Y36444890D01*
X41218975Y36542483D01*
X41208463Y36711284D01*
X41224641Y36820744D01*
X41287898Y36956703D01*
X41381906Y37056856D01*
X41488234Y37095871D01*
X41491788Y37095955D01*
X41530224Y37118522D01*
X41549771Y37192883D01*
X41555221Y37336237D01*
X41566271Y37474537D01*
X41628207Y37646207D01*
X41741351Y37752780D01*
X41901979Y37789386D01*
X41997419Y37770083D01*
G37*
G36*
X44578515Y38109670D02*
G01*
X44613766Y38074496D01*
X44640570Y38002467D01*
X44657046Y37879204D01*
X44666896Y37687002D01*
X44670670Y37550638D01*
X44668910Y37413682D01*
X44654725Y37325196D01*
X44623680Y37262761D01*
X44571340Y37203954D01*
X44562715Y37195466D01*
X44479628Y37133225D01*
X44377493Y37103482D01*
X44222891Y37095871D01*
X44103609Y37092027D01*
X44010782Y37073427D01*
X43982525Y37036699D01*
X43982447Y37034131D01*
X43954882Y36958958D01*
X43892690Y36863321D01*
X43820945Y36797185D01*
X43686942Y36750357D01*
X43545187Y36765118D01*
X43417239Y36833160D01*
X43324660Y36946180D01*
X43289010Y37095871D01*
X43308714Y37192089D01*
X43376247Y37312134D01*
X43469973Y37405219D01*
X43566881Y37442629D01*
X43585135Y37446411D01*
X43615013Y37486866D01*
X43633609Y37583824D01*
X43644705Y37752337D01*
X43647605Y37812592D01*
X43662818Y37967792D01*
X43689841Y38060619D01*
X43733293Y38109709D01*
X43762592Y38124498D01*
X43858861Y38123846D01*
X43935160Y38053308D01*
X43974435Y37925885D01*
X43976411Y37907120D01*
X43995438Y37827960D01*
X44046127Y37795592D01*
X44155904Y37789386D01*
X44178993Y37789475D01*
X44277258Y37798540D01*
X44320909Y37837134D01*
X44337373Y37925885D01*
X44343986Y37968098D01*
X44395795Y38080293D01*
X44479656Y38131816D01*
X44578515Y38109670D01*
G37*
G36*
X39362683Y38112411D02*
G01*
X39430995Y38025226D01*
X39466504Y37878957D01*
X39467871Y37854349D01*
X39444592Y37669916D01*
X39364664Y37533943D01*
X39235731Y37460290D01*
X39232860Y37459558D01*
X39150689Y37413015D01*
X39127917Y37316565D01*
X39115411Y37228383D01*
X39075904Y37147885D01*
X39045551Y37124789D01*
X38954539Y37095871D01*
X38904668Y37105005D01*
X38826368Y37172758D01*
X38782888Y37287385D01*
X38776847Y37425934D01*
X38810861Y37565454D01*
X38887551Y37682995D01*
X38895502Y37690774D01*
X38985690Y37760675D01*
X39058184Y37789386D01*
X39106857Y37821914D01*
X39136007Y37925885D01*
X39147728Y37992940D01*
X39202370Y38098921D01*
X39280248Y38137860D01*
X39362683Y38112411D01*
G37*
G36*
X40417573Y37765336D02*
G01*
X40484179Y37696595D01*
X40507766Y37602251D01*
X40469875Y37505564D01*
X40415582Y37462401D01*
X40308697Y37448326D01*
X40213263Y37505564D01*
X40181077Y37565591D01*
X40187811Y37673346D01*
X40265716Y37762846D01*
X40326404Y37785214D01*
X40417573Y37765336D01*
G37*
G36*
X42763552Y38460794D02*
G01*
X42962646Y38457666D01*
X43098073Y38450154D01*
X43183837Y38436663D01*
X43233941Y38415602D01*
X43262392Y38385376D01*
X43286982Y38327151D01*
X43262574Y38233670D01*
X43251571Y38218906D01*
X43191548Y38180768D01*
X43082303Y38157699D01*
X42905202Y38145081D01*
X42803346Y38140596D01*
X42684359Y38130788D01*
X42622522Y38111555D01*
X42599134Y38074913D01*
X42595494Y38012880D01*
X42582615Y37921521D01*
X42543481Y37841400D01*
X42513127Y37818304D01*
X42422115Y37789386D01*
X42358213Y37802217D01*
X42278191Y37879268D01*
X42248737Y38012033D01*
X42244728Y38069342D01*
X42208452Y38123067D01*
X42112237Y38144234D01*
X42069818Y38150891D01*
X41957716Y38202737D01*
X41906316Y38286581D01*
X41928597Y38385376D01*
X41945121Y38405935D01*
X41985878Y38430088D01*
X42057290Y38446102D01*
X42173361Y38455568D01*
X42348094Y38460079D01*
X42595494Y38461229D01*
X42763552Y38460794D01*
G37*
G36*
X44231907Y38458852D02*
G01*
X44298514Y38390110D01*
X44322100Y38295766D01*
X44284210Y38199079D01*
X44229917Y38155916D01*
X44123031Y38141842D01*
X44027598Y38199079D01*
X43995411Y38259107D01*
X44002145Y38366861D01*
X44080051Y38456362D01*
X44140739Y38478730D01*
X44231907Y38458852D01*
G37*
G36*
X40764331Y38458852D02*
G01*
X40830937Y38390110D01*
X40854523Y38295766D01*
X40816633Y38199079D01*
X40762340Y38155916D01*
X40655455Y38141842D01*
X40560021Y38199079D01*
X40527835Y38259107D01*
X40534569Y38366861D01*
X40612474Y38456362D01*
X40673162Y38478730D01*
X40764331Y38458852D01*
G37*
G36*
X40070665Y38456362D02*
G01*
X40125110Y38407209D01*
X40161552Y38303183D01*
X40123118Y38199079D01*
X40068825Y38155916D01*
X39961939Y38141842D01*
X39866506Y38199079D01*
X39834794Y38257964D01*
X39837147Y38355942D01*
X39889548Y38437175D01*
X39973540Y38478401D01*
X40070665Y38456362D01*
G37*
G36*
X39030392Y38456362D02*
G01*
X39084837Y38407209D01*
X39121279Y38303183D01*
X39082845Y38199079D01*
X39028552Y38155916D01*
X38921666Y38141842D01*
X38826233Y38199079D01*
X38794521Y38257964D01*
X38796874Y38355942D01*
X38849275Y38437175D01*
X38933267Y38478401D01*
X39030392Y38456362D01*
G37*
G36*
X46387981Y28770883D02*
G01*
X46503348Y28756788D01*
X46581904Y28724534D01*
X46650195Y28667295D01*
X46701678Y28607714D01*
X46736733Y28531939D01*
X46752761Y28422733D01*
X46756586Y28253550D01*
X46753783Y28102019D01*
X46739688Y27986652D01*
X46707434Y27908096D01*
X46650195Y27839805D01*
X46590614Y27788322D01*
X46514839Y27753267D01*
X46405633Y27737239D01*
X46236450Y27733414D01*
X46084919Y27736217D01*
X45969552Y27750312D01*
X45890996Y27782566D01*
X45822705Y27839805D01*
X45771222Y27899386D01*
X45736167Y27975161D01*
X45720139Y28084367D01*
X45716313Y28253550D01*
X45719117Y28405081D01*
X45733212Y28520448D01*
X45765466Y28599004D01*
X45822705Y28667295D01*
X45882286Y28718778D01*
X45958061Y28753833D01*
X46067267Y28769861D01*
X46236450Y28773687D01*
X46387981Y28770883D01*
G37*
G36*
X38357445Y29427984D02*
G01*
X38414304Y29346128D01*
X38416058Y29226636D01*
X38409511Y29203154D01*
X38364843Y29136089D01*
X38274719Y29128547D01*
X38251025Y29132378D01*
X38143528Y29183987D01*
X38092962Y29270407D01*
X38113965Y29369676D01*
X38174019Y29433519D01*
X38269382Y29460887D01*
X38357445Y29427984D01*
G37*
G36*
X46387981Y37786583D02*
G01*
X46503348Y37772488D01*
X46581904Y37740234D01*
X46650195Y37682995D01*
X46701678Y37623414D01*
X46736733Y37547639D01*
X46752761Y37438433D01*
X46756586Y37269250D01*
X46753783Y37117719D01*
X46739688Y37002352D01*
X46707434Y36923796D01*
X46650195Y36855505D01*
X46590614Y36804022D01*
X46514839Y36768967D01*
X46405633Y36752939D01*
X46236450Y36749113D01*
X46084919Y36751917D01*
X45969552Y36766012D01*
X45890996Y36798266D01*
X45822705Y36855505D01*
X45771222Y36915086D01*
X45736167Y36990861D01*
X45720139Y37100067D01*
X45716313Y37269250D01*
X45719117Y37420781D01*
X45733212Y37536148D01*
X45765466Y37614704D01*
X45822705Y37682995D01*
X45882286Y37734478D01*
X45958061Y37769533D01*
X46067267Y37785561D01*
X46236450Y37789386D01*
X46387981Y37786583D01*
G37*
G36*
X37372281Y37786583D02*
G01*
X37487648Y37772488D01*
X37566204Y37740234D01*
X37634495Y37682995D01*
X37685978Y37623414D01*
X37721033Y37547639D01*
X37737061Y37438433D01*
X37740887Y37269250D01*
X37738083Y37117719D01*
X37723988Y37002352D01*
X37691734Y36923796D01*
X37634495Y36855505D01*
X37574914Y36804022D01*
X37499139Y36768967D01*
X37389933Y36752939D01*
X37220750Y36749113D01*
X37069219Y36751917D01*
X36953852Y36766012D01*
X36875296Y36798266D01*
X36807005Y36855505D01*
X36755522Y36915086D01*
X36720467Y36990861D01*
X36704439Y37100067D01*
X36700614Y37269250D01*
X36703417Y37420781D01*
X36717512Y37536148D01*
X36749766Y37614704D01*
X36807005Y37682995D01*
X36866586Y37734478D01*
X36942361Y37769533D01*
X37051567Y37785561D01*
X37220750Y37789386D01*
X37372281Y37786583D01*
G37*
D12*
%TO.C,U1*%
X84321400Y16742000D02*
X83471400Y16742000D01*
X84321400Y17642000D02*
X84321400Y16742000D01*
X84321400Y46942000D02*
X84321400Y46092000D01*
X84321400Y46942000D02*
X83471400Y46942000D01*
X79321400Y51242000D02*
X71821400Y51242000D01*
X79321400Y52542000D02*
X79321400Y51242000D01*
X76071400Y52192000D02*
X75071400Y52192000D01*
X75921400Y52042000D02*
X75221400Y52042000D01*
X75821400Y51892000D02*
X75321400Y51892000D01*
X75721400Y51742000D02*
X75421400Y51742000D01*
X75571400Y51542000D02*
X76071400Y52192000D01*
X75071400Y52192000D02*
X75571400Y51542000D01*
X71821400Y51242000D02*
X71821400Y52542000D01*
X71821400Y52542000D02*
X79321400Y52542000D01*
X66821400Y16742000D02*
X67681400Y16742000D01*
X66821400Y17592000D02*
X66821400Y16742000D01*
X66821400Y46942000D02*
X67621400Y46942000D01*
X66821400Y46942000D02*
X66821400Y46092000D01*
%TD*%
M02*
