%TF.GenerationSoftware,KiCad,Pcbnew,7.0.9*%
%TF.CreationDate,2024-01-20T20:31:14+09:00*%
%TF.ProjectId,cardsize_keyboad,63617264-7369-47a6-955f-6b6579626f61,rev?*%
%TF.SameCoordinates,PX34f3078PY5614798*%
%TF.FileFunction,Legend,Top*%
%TF.FilePolarity,Positive*%
%FSLAX46Y46*%
G04 Gerber Fmt 4.6, Leading zero omitted, Abs format (unit mm)*
G04 Created by KiCad (PCBNEW 7.0.9) date 2024-01-20 20:31:14*
%MOMM*%
%LPD*%
G01*
G04 APERTURE LIST*
%ADD10C,0.150000*%
%ADD11C,0.120000*%
G04 APERTURE END LIST*
D10*
X65162969Y28470181D02*
X64686779Y28470181D01*
X64686779Y28470181D02*
X64639160Y27993991D01*
X64639160Y27993991D02*
X64686779Y28041610D01*
X64686779Y28041610D02*
X64782017Y28089229D01*
X64782017Y28089229D02*
X65020112Y28089229D01*
X65020112Y28089229D02*
X65115350Y28041610D01*
X65115350Y28041610D02*
X65162969Y27993991D01*
X65162969Y27993991D02*
X65210588Y27898753D01*
X65210588Y27898753D02*
X65210588Y27660658D01*
X65210588Y27660658D02*
X65162969Y27565420D01*
X65162969Y27565420D02*
X65115350Y27517800D01*
X65115350Y27517800D02*
X65020112Y27470181D01*
X65020112Y27470181D02*
X64782017Y27470181D01*
X64782017Y27470181D02*
X64686779Y27517800D01*
X64686779Y27517800D02*
X64639160Y27565420D01*
X79758207Y40220181D02*
X79424874Y40696372D01*
X79186779Y40220181D02*
X79186779Y41220181D01*
X79186779Y41220181D02*
X79567731Y41220181D01*
X79567731Y41220181D02*
X79662969Y41172562D01*
X79662969Y41172562D02*
X79710588Y41124943D01*
X79710588Y41124943D02*
X79758207Y41029705D01*
X79758207Y41029705D02*
X79758207Y40886848D01*
X79758207Y40886848D02*
X79710588Y40791610D01*
X79710588Y40791610D02*
X79662969Y40743991D01*
X79662969Y40743991D02*
X79567731Y40696372D01*
X79567731Y40696372D02*
X79186779Y40696372D01*
X80139160Y40267800D02*
X80282017Y40220181D01*
X80282017Y40220181D02*
X80520112Y40220181D01*
X80520112Y40220181D02*
X80615350Y40267800D01*
X80615350Y40267800D02*
X80662969Y40315420D01*
X80662969Y40315420D02*
X80710588Y40410658D01*
X80710588Y40410658D02*
X80710588Y40505896D01*
X80710588Y40505896D02*
X80662969Y40601134D01*
X80662969Y40601134D02*
X80615350Y40648753D01*
X80615350Y40648753D02*
X80520112Y40696372D01*
X80520112Y40696372D02*
X80329636Y40743991D01*
X80329636Y40743991D02*
X80234398Y40791610D01*
X80234398Y40791610D02*
X80186779Y40839229D01*
X80186779Y40839229D02*
X80139160Y40934467D01*
X80139160Y40934467D02*
X80139160Y41029705D01*
X80139160Y41029705D02*
X80186779Y41124943D01*
X80186779Y41124943D02*
X80234398Y41172562D01*
X80234398Y41172562D02*
X80329636Y41220181D01*
X80329636Y41220181D02*
X80567731Y41220181D01*
X80567731Y41220181D02*
X80710588Y41172562D01*
X80996303Y41220181D02*
X81567731Y41220181D01*
X81282017Y40220181D02*
X81282017Y41220181D01*
X79639160Y35505896D02*
X80115350Y35505896D01*
X79543922Y35220181D02*
X79877255Y36220181D01*
X79877255Y36220181D02*
X80210588Y35220181D01*
X80448684Y36220181D02*
X81067731Y36220181D01*
X81067731Y36220181D02*
X80734398Y35839229D01*
X80734398Y35839229D02*
X80877255Y35839229D01*
X80877255Y35839229D02*
X80972493Y35791610D01*
X80972493Y35791610D02*
X81020112Y35743991D01*
X81020112Y35743991D02*
X81067731Y35648753D01*
X81067731Y35648753D02*
X81067731Y35410658D01*
X81067731Y35410658D02*
X81020112Y35315420D01*
X81020112Y35315420D02*
X80972493Y35267800D01*
X80972493Y35267800D02*
X80877255Y35220181D01*
X80877255Y35220181D02*
X80591541Y35220181D01*
X80591541Y35220181D02*
X80496303Y35267800D01*
X80496303Y35267800D02*
X80448684Y35315420D01*
X65115350Y30886848D02*
X65115350Y30220181D01*
X64877255Y31267800D02*
X64639160Y30553515D01*
X64639160Y30553515D02*
X65258207Y30553515D01*
X79960588Y22470181D02*
X79389160Y22470181D01*
X79674874Y22470181D02*
X79674874Y23470181D01*
X79674874Y23470181D02*
X79579636Y23327324D01*
X79579636Y23327324D02*
X79484398Y23232086D01*
X79484398Y23232086D02*
X79389160Y23184467D01*
X80817731Y23136848D02*
X80817731Y22470181D01*
X80579636Y23517800D02*
X80341541Y22803515D01*
X80341541Y22803515D02*
X80960588Y22803515D01*
X79639160Y30255896D02*
X80115350Y30255896D01*
X79543922Y29970181D02*
X79877255Y30970181D01*
X79877255Y30970181D02*
X80210588Y29970181D01*
X81067731Y29970181D02*
X80496303Y29970181D01*
X80782017Y29970181D02*
X80782017Y30970181D01*
X80782017Y30970181D02*
X80686779Y30827324D01*
X80686779Y30827324D02*
X80591541Y30732086D01*
X80591541Y30732086D02*
X80496303Y30684467D01*
X65115350Y25970181D02*
X64924874Y25970181D01*
X64924874Y25970181D02*
X64829636Y25922562D01*
X64829636Y25922562D02*
X64782017Y25874943D01*
X64782017Y25874943D02*
X64686779Y25732086D01*
X64686779Y25732086D02*
X64639160Y25541610D01*
X64639160Y25541610D02*
X64639160Y25160658D01*
X64639160Y25160658D02*
X64686779Y25065420D01*
X64686779Y25065420D02*
X64734398Y25017800D01*
X64734398Y25017800D02*
X64829636Y24970181D01*
X64829636Y24970181D02*
X65020112Y24970181D01*
X65020112Y24970181D02*
X65115350Y25017800D01*
X65115350Y25017800D02*
X65162969Y25065420D01*
X65162969Y25065420D02*
X65210588Y25160658D01*
X65210588Y25160658D02*
X65210588Y25398753D01*
X65210588Y25398753D02*
X65162969Y25493991D01*
X65162969Y25493991D02*
X65115350Y25541610D01*
X65115350Y25541610D02*
X65020112Y25589229D01*
X65020112Y25589229D02*
X64829636Y25589229D01*
X64829636Y25589229D02*
X64734398Y25541610D01*
X64734398Y25541610D02*
X64686779Y25493991D01*
X64686779Y25493991D02*
X64639160Y25398753D01*
X79960588Y17470181D02*
X79389160Y17470181D01*
X79674874Y17470181D02*
X79674874Y18470181D01*
X79674874Y18470181D02*
X79579636Y18327324D01*
X79579636Y18327324D02*
X79484398Y18232086D01*
X79484398Y18232086D02*
X79389160Y18184467D01*
X80579636Y18470181D02*
X80674874Y18470181D01*
X80674874Y18470181D02*
X80770112Y18422562D01*
X80770112Y18422562D02*
X80817731Y18374943D01*
X80817731Y18374943D02*
X80865350Y18279705D01*
X80865350Y18279705D02*
X80912969Y18089229D01*
X80912969Y18089229D02*
X80912969Y17851134D01*
X80912969Y17851134D02*
X80865350Y17660658D01*
X80865350Y17660658D02*
X80817731Y17565420D01*
X80817731Y17565420D02*
X80770112Y17517800D01*
X80770112Y17517800D02*
X80674874Y17470181D01*
X80674874Y17470181D02*
X80579636Y17470181D01*
X80579636Y17470181D02*
X80484398Y17517800D01*
X80484398Y17517800D02*
X80436779Y17565420D01*
X80436779Y17565420D02*
X80389160Y17660658D01*
X80389160Y17660658D02*
X80341541Y17851134D01*
X80341541Y17851134D02*
X80341541Y18089229D01*
X80341541Y18089229D02*
X80389160Y18279705D01*
X80389160Y18279705D02*
X80436779Y18374943D01*
X80436779Y18374943D02*
X80484398Y18422562D01*
X80484398Y18422562D02*
X80579636Y18470181D01*
X79960588Y20220181D02*
X79389160Y20220181D01*
X79674874Y20220181D02*
X79674874Y21220181D01*
X79674874Y21220181D02*
X79579636Y21077324D01*
X79579636Y21077324D02*
X79484398Y20982086D01*
X79484398Y20982086D02*
X79389160Y20934467D01*
X80817731Y21220181D02*
X80627255Y21220181D01*
X80627255Y21220181D02*
X80532017Y21172562D01*
X80532017Y21172562D02*
X80484398Y21124943D01*
X80484398Y21124943D02*
X80389160Y20982086D01*
X80389160Y20982086D02*
X80341541Y20791610D01*
X80341541Y20791610D02*
X80341541Y20410658D01*
X80341541Y20410658D02*
X80389160Y20315420D01*
X80389160Y20315420D02*
X80436779Y20267800D01*
X80436779Y20267800D02*
X80532017Y20220181D01*
X80532017Y20220181D02*
X80722493Y20220181D01*
X80722493Y20220181D02*
X80817731Y20267800D01*
X80817731Y20267800D02*
X80865350Y20315420D01*
X80865350Y20315420D02*
X80912969Y20410658D01*
X80912969Y20410658D02*
X80912969Y20648753D01*
X80912969Y20648753D02*
X80865350Y20743991D01*
X80865350Y20743991D02*
X80817731Y20791610D01*
X80817731Y20791610D02*
X80722493Y20839229D01*
X80722493Y20839229D02*
X80532017Y20839229D01*
X80532017Y20839229D02*
X80436779Y20791610D01*
X80436779Y20791610D02*
X80389160Y20743991D01*
X80389160Y20743991D02*
X80341541Y20648753D01*
X79389160Y27755896D02*
X79865350Y27755896D01*
X79293922Y27470181D02*
X79627255Y28470181D01*
X79627255Y28470181D02*
X79960588Y27470181D01*
X80484398Y28470181D02*
X80579636Y28470181D01*
X80579636Y28470181D02*
X80674874Y28422562D01*
X80674874Y28422562D02*
X80722493Y28374943D01*
X80722493Y28374943D02*
X80770112Y28279705D01*
X80770112Y28279705D02*
X80817731Y28089229D01*
X80817731Y28089229D02*
X80817731Y27851134D01*
X80817731Y27851134D02*
X80770112Y27660658D01*
X80770112Y27660658D02*
X80722493Y27565420D01*
X80722493Y27565420D02*
X80674874Y27517800D01*
X80674874Y27517800D02*
X80579636Y27470181D01*
X80579636Y27470181D02*
X80484398Y27470181D01*
X80484398Y27470181D02*
X80389160Y27517800D01*
X80389160Y27517800D02*
X80341541Y27565420D01*
X80341541Y27565420D02*
X80293922Y27660658D01*
X80293922Y27660658D02*
X80246303Y27851134D01*
X80246303Y27851134D02*
X80246303Y28089229D01*
X80246303Y28089229D02*
X80293922Y28279705D01*
X80293922Y28279705D02*
X80341541Y28374943D01*
X80341541Y28374943D02*
X80389160Y28422562D01*
X80389160Y28422562D02*
X80484398Y28470181D01*
X858780Y44174621D02*
X1858780Y44174621D01*
X858780Y43746050D02*
X1382590Y43746050D01*
X1382590Y43746050D02*
X1477828Y43793669D01*
X1477828Y43793669D02*
X1525447Y43888907D01*
X1525447Y43888907D02*
X1525447Y44031764D01*
X1525447Y44031764D02*
X1477828Y44127002D01*
X1477828Y44127002D02*
X1430209Y44174621D01*
X1525447Y43412716D02*
X1525447Y43031764D01*
X1858780Y43269859D02*
X1001638Y43269859D01*
X1001638Y43269859D02*
X906400Y43222240D01*
X906400Y43222240D02*
X858780Y43127002D01*
X858780Y43127002D02*
X858780Y43031764D01*
X1525447Y42841287D02*
X1525447Y42460335D01*
X1858780Y42698430D02*
X1001638Y42698430D01*
X1001638Y42698430D02*
X906400Y42650811D01*
X906400Y42650811D02*
X858780Y42555573D01*
X858780Y42555573D02*
X858780Y42460335D01*
X1525447Y42127001D02*
X525447Y42127001D01*
X1477828Y42127001D02*
X1525447Y42031763D01*
X1525447Y42031763D02*
X1525447Y41841287D01*
X1525447Y41841287D02*
X1477828Y41746049D01*
X1477828Y41746049D02*
X1430209Y41698430D01*
X1430209Y41698430D02*
X1334971Y41650811D01*
X1334971Y41650811D02*
X1049257Y41650811D01*
X1049257Y41650811D02*
X954019Y41698430D01*
X954019Y41698430D02*
X906400Y41746049D01*
X906400Y41746049D02*
X858780Y41841287D01*
X858780Y41841287D02*
X858780Y42031763D01*
X858780Y42031763D02*
X906400Y42127001D01*
X906400Y41269858D02*
X858780Y41174620D01*
X858780Y41174620D02*
X858780Y40984144D01*
X858780Y40984144D02*
X906400Y40888906D01*
X906400Y40888906D02*
X1001638Y40841287D01*
X1001638Y40841287D02*
X1049257Y40841287D01*
X1049257Y40841287D02*
X1144495Y40888906D01*
X1144495Y40888906D02*
X1192114Y40984144D01*
X1192114Y40984144D02*
X1192114Y41127001D01*
X1192114Y41127001D02*
X1239733Y41222239D01*
X1239733Y41222239D02*
X1334971Y41269858D01*
X1334971Y41269858D02*
X1382590Y41269858D01*
X1382590Y41269858D02*
X1477828Y41222239D01*
X1477828Y41222239D02*
X1525447Y41127001D01*
X1525447Y41127001D02*
X1525447Y40984144D01*
X1525447Y40984144D02*
X1477828Y40888906D01*
X954019Y40412715D02*
X906400Y40365096D01*
X906400Y40365096D02*
X858780Y40412715D01*
X858780Y40412715D02*
X906400Y40460334D01*
X906400Y40460334D02*
X954019Y40412715D01*
X954019Y40412715D02*
X858780Y40412715D01*
X1477828Y40412715D02*
X1430209Y40365096D01*
X1430209Y40365096D02*
X1382590Y40412715D01*
X1382590Y40412715D02*
X1430209Y40460334D01*
X1430209Y40460334D02*
X1477828Y40412715D01*
X1477828Y40412715D02*
X1382590Y40412715D01*
X1906400Y39222240D02*
X620685Y40079382D01*
X1906400Y38174621D02*
X620685Y39031763D01*
X1525447Y37412716D02*
X715923Y37412716D01*
X715923Y37412716D02*
X620685Y37460335D01*
X620685Y37460335D02*
X573066Y37507954D01*
X573066Y37507954D02*
X525447Y37603192D01*
X525447Y37603192D02*
X525447Y37746049D01*
X525447Y37746049D02*
X573066Y37841287D01*
X906400Y37412716D02*
X858780Y37507954D01*
X858780Y37507954D02*
X858780Y37698430D01*
X858780Y37698430D02*
X906400Y37793668D01*
X906400Y37793668D02*
X954019Y37841287D01*
X954019Y37841287D02*
X1049257Y37888906D01*
X1049257Y37888906D02*
X1334971Y37888906D01*
X1334971Y37888906D02*
X1430209Y37841287D01*
X1430209Y37841287D02*
X1477828Y37793668D01*
X1477828Y37793668D02*
X1525447Y37698430D01*
X1525447Y37698430D02*
X1525447Y37507954D01*
X1525447Y37507954D02*
X1477828Y37412716D01*
X858780Y36936525D02*
X1525447Y36936525D01*
X1858780Y36936525D02*
X1811161Y36984144D01*
X1811161Y36984144D02*
X1763542Y36936525D01*
X1763542Y36936525D02*
X1811161Y36888906D01*
X1811161Y36888906D02*
X1858780Y36936525D01*
X1858780Y36936525D02*
X1763542Y36936525D01*
X1525447Y36603192D02*
X1525447Y36222240D01*
X1858780Y36460335D02*
X1001638Y36460335D01*
X1001638Y36460335D02*
X906400Y36412716D01*
X906400Y36412716D02*
X858780Y36317478D01*
X858780Y36317478D02*
X858780Y36222240D01*
X858780Y35888906D02*
X1858780Y35888906D01*
X858780Y35460335D02*
X1382590Y35460335D01*
X1382590Y35460335D02*
X1477828Y35507954D01*
X1477828Y35507954D02*
X1525447Y35603192D01*
X1525447Y35603192D02*
X1525447Y35746049D01*
X1525447Y35746049D02*
X1477828Y35841287D01*
X1477828Y35841287D02*
X1430209Y35888906D01*
X1525447Y34555573D02*
X858780Y34555573D01*
X1525447Y34984144D02*
X1001638Y34984144D01*
X1001638Y34984144D02*
X906400Y34936525D01*
X906400Y34936525D02*
X858780Y34841287D01*
X858780Y34841287D02*
X858780Y34698430D01*
X858780Y34698430D02*
X906400Y34603192D01*
X906400Y34603192D02*
X954019Y34555573D01*
X858780Y34079382D02*
X1858780Y34079382D01*
X1477828Y34079382D02*
X1525447Y33984144D01*
X1525447Y33984144D02*
X1525447Y33793668D01*
X1525447Y33793668D02*
X1477828Y33698430D01*
X1477828Y33698430D02*
X1430209Y33650811D01*
X1430209Y33650811D02*
X1334971Y33603192D01*
X1334971Y33603192D02*
X1049257Y33603192D01*
X1049257Y33603192D02*
X954019Y33650811D01*
X954019Y33650811D02*
X906400Y33698430D01*
X906400Y33698430D02*
X858780Y33793668D01*
X858780Y33793668D02*
X858780Y33984144D01*
X858780Y33984144D02*
X906400Y34079382D01*
X954019Y33174620D02*
X906400Y33127001D01*
X906400Y33127001D02*
X858780Y33174620D01*
X858780Y33174620D02*
X906400Y33222239D01*
X906400Y33222239D02*
X954019Y33174620D01*
X954019Y33174620D02*
X858780Y33174620D01*
X906400Y32269859D02*
X858780Y32365097D01*
X858780Y32365097D02*
X858780Y32555573D01*
X858780Y32555573D02*
X906400Y32650811D01*
X906400Y32650811D02*
X954019Y32698430D01*
X954019Y32698430D02*
X1049257Y32746049D01*
X1049257Y32746049D02*
X1334971Y32746049D01*
X1334971Y32746049D02*
X1430209Y32698430D01*
X1430209Y32698430D02*
X1477828Y32650811D01*
X1477828Y32650811D02*
X1525447Y32555573D01*
X1525447Y32555573D02*
X1525447Y32365097D01*
X1525447Y32365097D02*
X1477828Y32269859D01*
X858780Y31698430D02*
X906400Y31793668D01*
X906400Y31793668D02*
X954019Y31841287D01*
X954019Y31841287D02*
X1049257Y31888906D01*
X1049257Y31888906D02*
X1334971Y31888906D01*
X1334971Y31888906D02*
X1430209Y31841287D01*
X1430209Y31841287D02*
X1477828Y31793668D01*
X1477828Y31793668D02*
X1525447Y31698430D01*
X1525447Y31698430D02*
X1525447Y31555573D01*
X1525447Y31555573D02*
X1477828Y31460335D01*
X1477828Y31460335D02*
X1430209Y31412716D01*
X1430209Y31412716D02*
X1334971Y31365097D01*
X1334971Y31365097D02*
X1049257Y31365097D01*
X1049257Y31365097D02*
X954019Y31412716D01*
X954019Y31412716D02*
X906400Y31460335D01*
X906400Y31460335D02*
X858780Y31555573D01*
X858780Y31555573D02*
X858780Y31698430D01*
X858780Y30936525D02*
X1525447Y30936525D01*
X1430209Y30936525D02*
X1477828Y30888906D01*
X1477828Y30888906D02*
X1525447Y30793668D01*
X1525447Y30793668D02*
X1525447Y30650811D01*
X1525447Y30650811D02*
X1477828Y30555573D01*
X1477828Y30555573D02*
X1382590Y30507954D01*
X1382590Y30507954D02*
X858780Y30507954D01*
X1382590Y30507954D02*
X1477828Y30460335D01*
X1477828Y30460335D02*
X1525447Y30365097D01*
X1525447Y30365097D02*
X1525447Y30222240D01*
X1525447Y30222240D02*
X1477828Y30127001D01*
X1477828Y30127001D02*
X1382590Y30079382D01*
X1382590Y30079382D02*
X858780Y30079382D01*
X1906400Y28888907D02*
X620685Y29746049D01*
X906400Y28603192D02*
X858780Y28507954D01*
X858780Y28507954D02*
X858780Y28317478D01*
X858780Y28317478D02*
X906400Y28222240D01*
X906400Y28222240D02*
X1001638Y28174621D01*
X1001638Y28174621D02*
X1049257Y28174621D01*
X1049257Y28174621D02*
X1144495Y28222240D01*
X1144495Y28222240D02*
X1192114Y28317478D01*
X1192114Y28317478D02*
X1192114Y28460335D01*
X1192114Y28460335D02*
X1239733Y28555573D01*
X1239733Y28555573D02*
X1334971Y28603192D01*
X1334971Y28603192D02*
X1382590Y28603192D01*
X1382590Y28603192D02*
X1477828Y28555573D01*
X1477828Y28555573D02*
X1525447Y28460335D01*
X1525447Y28460335D02*
X1525447Y28317478D01*
X1525447Y28317478D02*
X1477828Y28222240D01*
X1858780Y27269859D02*
X1858780Y27746049D01*
X1858780Y27746049D02*
X1382590Y27793668D01*
X1382590Y27793668D02*
X1430209Y27746049D01*
X1430209Y27746049D02*
X1477828Y27650811D01*
X1477828Y27650811D02*
X1477828Y27412716D01*
X1477828Y27412716D02*
X1430209Y27317478D01*
X1430209Y27317478D02*
X1382590Y27269859D01*
X1382590Y27269859D02*
X1287352Y27222240D01*
X1287352Y27222240D02*
X1049257Y27222240D01*
X1049257Y27222240D02*
X954019Y27269859D01*
X954019Y27269859D02*
X906400Y27317478D01*
X906400Y27317478D02*
X858780Y27412716D01*
X858780Y27412716D02*
X858780Y27650811D01*
X858780Y27650811D02*
X906400Y27746049D01*
X906400Y27746049D02*
X954019Y27793668D01*
X858780Y26269859D02*
X858780Y26841287D01*
X858780Y26555573D02*
X1858780Y26555573D01*
X1858780Y26555573D02*
X1715923Y26650811D01*
X1715923Y26650811D02*
X1620685Y26746049D01*
X1620685Y26746049D02*
X1573066Y26841287D01*
X1858780Y25365097D02*
X1858780Y25841287D01*
X1858780Y25841287D02*
X1382590Y25888906D01*
X1382590Y25888906D02*
X1430209Y25841287D01*
X1430209Y25841287D02*
X1477828Y25746049D01*
X1477828Y25746049D02*
X1477828Y25507954D01*
X1477828Y25507954D02*
X1430209Y25412716D01*
X1430209Y25412716D02*
X1382590Y25365097D01*
X1382590Y25365097D02*
X1287352Y25317478D01*
X1287352Y25317478D02*
X1049257Y25317478D01*
X1049257Y25317478D02*
X954019Y25365097D01*
X954019Y25365097D02*
X906400Y25412716D01*
X906400Y25412716D02*
X858780Y25507954D01*
X858780Y25507954D02*
X858780Y25746049D01*
X858780Y25746049D02*
X906400Y25841287D01*
X906400Y25841287D02*
X954019Y25888906D01*
X858780Y24365097D02*
X858780Y24936525D01*
X858780Y24650811D02*
X1858780Y24650811D01*
X1858780Y24650811D02*
X1715923Y24746049D01*
X1715923Y24746049D02*
X1620685Y24841287D01*
X1620685Y24841287D02*
X1573066Y24936525D01*
X1858780Y24031763D02*
X1858780Y23365097D01*
X1858780Y23365097D02*
X858780Y23793668D01*
X1858780Y23079382D02*
X1858780Y22412716D01*
X1858780Y22412716D02*
X858780Y22841287D01*
X1858780Y21603192D02*
X1858780Y21793668D01*
X1858780Y21793668D02*
X1811161Y21888906D01*
X1811161Y21888906D02*
X1763542Y21936525D01*
X1763542Y21936525D02*
X1620685Y22031763D01*
X1620685Y22031763D02*
X1430209Y22079382D01*
X1430209Y22079382D02*
X1049257Y22079382D01*
X1049257Y22079382D02*
X954019Y22031763D01*
X954019Y22031763D02*
X906400Y21984144D01*
X906400Y21984144D02*
X858780Y21888906D01*
X858780Y21888906D02*
X858780Y21698430D01*
X858780Y21698430D02*
X906400Y21603192D01*
X906400Y21603192D02*
X954019Y21555573D01*
X954019Y21555573D02*
X1049257Y21507954D01*
X1049257Y21507954D02*
X1287352Y21507954D01*
X1287352Y21507954D02*
X1382590Y21555573D01*
X1382590Y21555573D02*
X1430209Y21603192D01*
X1430209Y21603192D02*
X1477828Y21698430D01*
X1477828Y21698430D02*
X1477828Y21888906D01*
X1477828Y21888906D02*
X1430209Y21984144D01*
X1430209Y21984144D02*
X1382590Y22031763D01*
X1382590Y22031763D02*
X1287352Y22079382D01*
X1858780Y20603192D02*
X1858780Y21079382D01*
X1858780Y21079382D02*
X1382590Y21127001D01*
X1382590Y21127001D02*
X1430209Y21079382D01*
X1430209Y21079382D02*
X1477828Y20984144D01*
X1477828Y20984144D02*
X1477828Y20746049D01*
X1477828Y20746049D02*
X1430209Y20650811D01*
X1430209Y20650811D02*
X1382590Y20603192D01*
X1382590Y20603192D02*
X1287352Y20555573D01*
X1287352Y20555573D02*
X1049257Y20555573D01*
X1049257Y20555573D02*
X954019Y20603192D01*
X954019Y20603192D02*
X906400Y20650811D01*
X906400Y20650811D02*
X858780Y20746049D01*
X858780Y20746049D02*
X858780Y20984144D01*
X858780Y20984144D02*
X906400Y21079382D01*
X906400Y21079382D02*
X954019Y21127001D01*
X1906400Y19412716D02*
X620685Y20269858D01*
X858780Y19079382D02*
X1858780Y19079382D01*
X1239733Y18984144D02*
X858780Y18698430D01*
X1525447Y18698430D02*
X1144495Y19079382D01*
X1525447Y17841287D02*
X858780Y17841287D01*
X1525447Y18269858D02*
X1001638Y18269858D01*
X1001638Y18269858D02*
X906400Y18222239D01*
X906400Y18222239D02*
X858780Y18127001D01*
X858780Y18127001D02*
X858780Y17984144D01*
X858780Y17984144D02*
X906400Y17888906D01*
X906400Y17888906D02*
X954019Y17841287D01*
X858780Y17365096D02*
X1525447Y17365096D01*
X1334971Y17365096D02*
X1430209Y17317477D01*
X1430209Y17317477D02*
X1477828Y17269858D01*
X1477828Y17269858D02*
X1525447Y17174620D01*
X1525447Y17174620D02*
X1525447Y17079382D01*
X858780Y16746048D02*
X1525447Y16746048D01*
X1858780Y16746048D02*
X1811161Y16793667D01*
X1811161Y16793667D02*
X1763542Y16746048D01*
X1763542Y16746048D02*
X1811161Y16698429D01*
X1811161Y16698429D02*
X1858780Y16746048D01*
X1858780Y16746048D02*
X1763542Y16746048D01*
X1525447Y16365096D02*
X858780Y16127001D01*
X1525447Y15888906D02*
X858780Y16127001D01*
X858780Y16127001D02*
X620685Y16222239D01*
X620685Y16222239D02*
X573066Y16269858D01*
X573066Y16269858D02*
X525447Y16365096D01*
X858780Y15365096D02*
X906400Y15460334D01*
X906400Y15460334D02*
X954019Y15507953D01*
X954019Y15507953D02*
X1049257Y15555572D01*
X1049257Y15555572D02*
X1334971Y15555572D01*
X1334971Y15555572D02*
X1430209Y15507953D01*
X1430209Y15507953D02*
X1477828Y15460334D01*
X1477828Y15460334D02*
X1525447Y15365096D01*
X1525447Y15365096D02*
X1525447Y15222239D01*
X1525447Y15222239D02*
X1477828Y15127001D01*
X1477828Y15127001D02*
X1430209Y15079382D01*
X1430209Y15079382D02*
X1334971Y15031763D01*
X1334971Y15031763D02*
X1049257Y15031763D01*
X1049257Y15031763D02*
X954019Y15079382D01*
X954019Y15079382D02*
X906400Y15127001D01*
X906400Y15127001D02*
X858780Y15222239D01*
X858780Y15222239D02*
X858780Y15365096D01*
X858780Y14603191D02*
X1858780Y14603191D01*
X1239733Y14507953D02*
X858780Y14222239D01*
X1525447Y14222239D02*
X1144495Y14603191D01*
X858780Y13365096D02*
X1382590Y13365096D01*
X1382590Y13365096D02*
X1477828Y13412715D01*
X1477828Y13412715D02*
X1525447Y13507953D01*
X1525447Y13507953D02*
X1525447Y13698429D01*
X1525447Y13698429D02*
X1477828Y13793667D01*
X906400Y13365096D02*
X858780Y13460334D01*
X858780Y13460334D02*
X858780Y13698429D01*
X858780Y13698429D02*
X906400Y13793667D01*
X906400Y13793667D02*
X1001638Y13841286D01*
X1001638Y13841286D02*
X1096876Y13841286D01*
X1096876Y13841286D02*
X1192114Y13793667D01*
X1192114Y13793667D02*
X1239733Y13698429D01*
X1239733Y13698429D02*
X1239733Y13460334D01*
X1239733Y13460334D02*
X1287352Y13365096D01*
X1525447Y12888905D02*
X858780Y12888905D01*
X1430209Y12888905D02*
X1477828Y12841286D01*
X1477828Y12841286D02*
X1525447Y12746048D01*
X1525447Y12746048D02*
X1525447Y12603191D01*
X1525447Y12603191D02*
X1477828Y12507953D01*
X1477828Y12507953D02*
X1382590Y12460334D01*
X1382590Y12460334D02*
X858780Y12460334D01*
X858780Y10650810D02*
X1334971Y10984143D01*
X858780Y11222238D02*
X1858780Y11222238D01*
X1858780Y11222238D02*
X1858780Y10841286D01*
X1858780Y10841286D02*
X1811161Y10746048D01*
X1811161Y10746048D02*
X1763542Y10698429D01*
X1763542Y10698429D02*
X1668304Y10650810D01*
X1668304Y10650810D02*
X1525447Y10650810D01*
X1525447Y10650810D02*
X1430209Y10698429D01*
X1430209Y10698429D02*
X1382590Y10746048D01*
X1382590Y10746048D02*
X1334971Y10841286D01*
X1334971Y10841286D02*
X1334971Y11222238D01*
X906400Y9841286D02*
X858780Y9936524D01*
X858780Y9936524D02*
X858780Y10127000D01*
X858780Y10127000D02*
X906400Y10222238D01*
X906400Y10222238D02*
X1001638Y10269857D01*
X1001638Y10269857D02*
X1382590Y10269857D01*
X1382590Y10269857D02*
X1477828Y10222238D01*
X1477828Y10222238D02*
X1525447Y10127000D01*
X1525447Y10127000D02*
X1525447Y9936524D01*
X1525447Y9936524D02*
X1477828Y9841286D01*
X1477828Y9841286D02*
X1382590Y9793667D01*
X1382590Y9793667D02*
X1287352Y9793667D01*
X1287352Y9793667D02*
X1192114Y10269857D01*
X1525447Y9460333D02*
X858780Y9222238D01*
X858780Y9222238D02*
X1525447Y8984143D01*
X954019Y8603190D02*
X906400Y8555571D01*
X906400Y8555571D02*
X858780Y8603190D01*
X858780Y8603190D02*
X906400Y8650809D01*
X906400Y8650809D02*
X954019Y8603190D01*
X954019Y8603190D02*
X858780Y8603190D01*
X858780Y7603191D02*
X858780Y8174619D01*
X858780Y7888905D02*
X1858780Y7888905D01*
X1858780Y7888905D02*
X1715923Y7984143D01*
X1715923Y7984143D02*
X1620685Y8079381D01*
X1620685Y8079381D02*
X1573066Y8174619D01*
X64639160Y36124943D02*
X64686779Y36172562D01*
X64686779Y36172562D02*
X64782017Y36220181D01*
X64782017Y36220181D02*
X65020112Y36220181D01*
X65020112Y36220181D02*
X65115350Y36172562D01*
X65115350Y36172562D02*
X65162969Y36124943D01*
X65162969Y36124943D02*
X65210588Y36029705D01*
X65210588Y36029705D02*
X65210588Y35934467D01*
X65210588Y35934467D02*
X65162969Y35791610D01*
X65162969Y35791610D02*
X64591541Y35220181D01*
X64591541Y35220181D02*
X65210588Y35220181D01*
X64829636Y20541610D02*
X64734398Y20589229D01*
X64734398Y20589229D02*
X64686779Y20636848D01*
X64686779Y20636848D02*
X64639160Y20732086D01*
X64639160Y20732086D02*
X64639160Y20779705D01*
X64639160Y20779705D02*
X64686779Y20874943D01*
X64686779Y20874943D02*
X64734398Y20922562D01*
X64734398Y20922562D02*
X64829636Y20970181D01*
X64829636Y20970181D02*
X65020112Y20970181D01*
X65020112Y20970181D02*
X65115350Y20922562D01*
X65115350Y20922562D02*
X65162969Y20874943D01*
X65162969Y20874943D02*
X65210588Y20779705D01*
X65210588Y20779705D02*
X65210588Y20732086D01*
X65210588Y20732086D02*
X65162969Y20636848D01*
X65162969Y20636848D02*
X65115350Y20589229D01*
X65115350Y20589229D02*
X65020112Y20541610D01*
X65020112Y20541610D02*
X64829636Y20541610D01*
X64829636Y20541610D02*
X64734398Y20493991D01*
X64734398Y20493991D02*
X64686779Y20446372D01*
X64686779Y20446372D02*
X64639160Y20351134D01*
X64639160Y20351134D02*
X64639160Y20160658D01*
X64639160Y20160658D02*
X64686779Y20065420D01*
X64686779Y20065420D02*
X64734398Y20017800D01*
X64734398Y20017800D02*
X64829636Y19970181D01*
X64829636Y19970181D02*
X65020112Y19970181D01*
X65020112Y19970181D02*
X65115350Y20017800D01*
X65115350Y20017800D02*
X65162969Y20065420D01*
X65162969Y20065420D02*
X65210588Y20160658D01*
X65210588Y20160658D02*
X65210588Y20351134D01*
X65210588Y20351134D02*
X65162969Y20446372D01*
X65162969Y20446372D02*
X65115350Y20493991D01*
X65115350Y20493991D02*
X65020112Y20541610D01*
X64591541Y33720181D02*
X65210588Y33720181D01*
X65210588Y33720181D02*
X64877255Y33339229D01*
X64877255Y33339229D02*
X65020112Y33339229D01*
X65020112Y33339229D02*
X65115350Y33291610D01*
X65115350Y33291610D02*
X65162969Y33243991D01*
X65162969Y33243991D02*
X65210588Y33148753D01*
X65210588Y33148753D02*
X65210588Y32910658D01*
X65210588Y32910658D02*
X65162969Y32815420D01*
X65162969Y32815420D02*
X65115350Y32767800D01*
X65115350Y32767800D02*
X65020112Y32720181D01*
X65020112Y32720181D02*
X64734398Y32720181D01*
X64734398Y32720181D02*
X64639160Y32767800D01*
X64639160Y32767800D02*
X64591541Y32815420D01*
X64210588Y38672562D02*
X64115350Y38720181D01*
X64115350Y38720181D02*
X63972493Y38720181D01*
X63972493Y38720181D02*
X63829636Y38672562D01*
X63829636Y38672562D02*
X63734398Y38577324D01*
X63734398Y38577324D02*
X63686779Y38482086D01*
X63686779Y38482086D02*
X63639160Y38291610D01*
X63639160Y38291610D02*
X63639160Y38148753D01*
X63639160Y38148753D02*
X63686779Y37958277D01*
X63686779Y37958277D02*
X63734398Y37863039D01*
X63734398Y37863039D02*
X63829636Y37767800D01*
X63829636Y37767800D02*
X63972493Y37720181D01*
X63972493Y37720181D02*
X64067731Y37720181D01*
X64067731Y37720181D02*
X64210588Y37767800D01*
X64210588Y37767800D02*
X64258207Y37815420D01*
X64258207Y37815420D02*
X64258207Y38148753D01*
X64258207Y38148753D02*
X64067731Y38148753D01*
X64686779Y37720181D02*
X64686779Y38720181D01*
X64686779Y38720181D02*
X65258207Y37720181D01*
X65258207Y37720181D02*
X65258207Y38720181D01*
X65734398Y37720181D02*
X65734398Y38720181D01*
X65734398Y38720181D02*
X65972493Y38720181D01*
X65972493Y38720181D02*
X66115350Y38672562D01*
X66115350Y38672562D02*
X66210588Y38577324D01*
X66210588Y38577324D02*
X66258207Y38482086D01*
X66258207Y38482086D02*
X66305826Y38291610D01*
X66305826Y38291610D02*
X66305826Y38148753D01*
X66305826Y38148753D02*
X66258207Y37958277D01*
X66258207Y37958277D02*
X66210588Y37863039D01*
X66210588Y37863039D02*
X66115350Y37767800D01*
X66115350Y37767800D02*
X65972493Y37720181D01*
X65972493Y37720181D02*
X65734398Y37720181D01*
X64591541Y23470181D02*
X65258207Y23470181D01*
X65258207Y23470181D02*
X64829636Y22470181D01*
X79043922Y38720181D02*
X79377255Y37720181D01*
X79377255Y37720181D02*
X79710588Y38720181D01*
X80615350Y37815420D02*
X80567731Y37767800D01*
X80567731Y37767800D02*
X80424874Y37720181D01*
X80424874Y37720181D02*
X80329636Y37720181D01*
X80329636Y37720181D02*
X80186779Y37767800D01*
X80186779Y37767800D02*
X80091541Y37863039D01*
X80091541Y37863039D02*
X80043922Y37958277D01*
X80043922Y37958277D02*
X79996303Y38148753D01*
X79996303Y38148753D02*
X79996303Y38291610D01*
X79996303Y38291610D02*
X80043922Y38482086D01*
X80043922Y38482086D02*
X80091541Y38577324D01*
X80091541Y38577324D02*
X80186779Y38672562D01*
X80186779Y38672562D02*
X80329636Y38720181D01*
X80329636Y38720181D02*
X80424874Y38720181D01*
X80424874Y38720181D02*
X80567731Y38672562D01*
X80567731Y38672562D02*
X80615350Y38624943D01*
X81615350Y37815420D02*
X81567731Y37767800D01*
X81567731Y37767800D02*
X81424874Y37720181D01*
X81424874Y37720181D02*
X81329636Y37720181D01*
X81329636Y37720181D02*
X81186779Y37767800D01*
X81186779Y37767800D02*
X81091541Y37863039D01*
X81091541Y37863039D02*
X81043922Y37958277D01*
X81043922Y37958277D02*
X80996303Y38148753D01*
X80996303Y38148753D02*
X80996303Y38291610D01*
X80996303Y38291610D02*
X81043922Y38482086D01*
X81043922Y38482086D02*
X81091541Y38577324D01*
X81091541Y38577324D02*
X81186779Y38672562D01*
X81186779Y38672562D02*
X81329636Y38720181D01*
X81329636Y38720181D02*
X81424874Y38720181D01*
X81424874Y38720181D02*
X81567731Y38672562D01*
X81567731Y38672562D02*
X81615350Y38624943D01*
X64258207Y42720181D02*
X63924874Y43196372D01*
X63686779Y42720181D02*
X63686779Y43720181D01*
X63686779Y43720181D02*
X64067731Y43720181D01*
X64067731Y43720181D02*
X64162969Y43672562D01*
X64162969Y43672562D02*
X64210588Y43624943D01*
X64210588Y43624943D02*
X64258207Y43529705D01*
X64258207Y43529705D02*
X64258207Y43386848D01*
X64258207Y43386848D02*
X64210588Y43291610D01*
X64210588Y43291610D02*
X64162969Y43243991D01*
X64162969Y43243991D02*
X64067731Y43196372D01*
X64067731Y43196372D02*
X63686779Y43196372D01*
X64591541Y43720181D02*
X65258207Y42720181D01*
X65258207Y43720181D02*
X64591541Y42720181D01*
X65829636Y43720181D02*
X65924874Y43720181D01*
X65924874Y43720181D02*
X66020112Y43672562D01*
X66020112Y43672562D02*
X66067731Y43624943D01*
X66067731Y43624943D02*
X66115350Y43529705D01*
X66115350Y43529705D02*
X66162969Y43339229D01*
X66162969Y43339229D02*
X66162969Y43101134D01*
X66162969Y43101134D02*
X66115350Y42910658D01*
X66115350Y42910658D02*
X66067731Y42815420D01*
X66067731Y42815420D02*
X66020112Y42767800D01*
X66020112Y42767800D02*
X65924874Y42720181D01*
X65924874Y42720181D02*
X65829636Y42720181D01*
X65829636Y42720181D02*
X65734398Y42767800D01*
X65734398Y42767800D02*
X65686779Y42815420D01*
X65686779Y42815420D02*
X65639160Y42910658D01*
X65639160Y42910658D02*
X65591541Y43101134D01*
X65591541Y43101134D02*
X65591541Y43339229D01*
X65591541Y43339229D02*
X65639160Y43529705D01*
X65639160Y43529705D02*
X65686779Y43624943D01*
X65686779Y43624943D02*
X65734398Y43672562D01*
X65734398Y43672562D02*
X65829636Y43720181D01*
X64734398Y17470181D02*
X64924874Y17470181D01*
X64924874Y17470181D02*
X65020112Y17517800D01*
X65020112Y17517800D02*
X65067731Y17565420D01*
X65067731Y17565420D02*
X65162969Y17708277D01*
X65162969Y17708277D02*
X65210588Y17898753D01*
X65210588Y17898753D02*
X65210588Y18279705D01*
X65210588Y18279705D02*
X65162969Y18374943D01*
X65162969Y18374943D02*
X65115350Y18422562D01*
X65115350Y18422562D02*
X65020112Y18470181D01*
X65020112Y18470181D02*
X64829636Y18470181D01*
X64829636Y18470181D02*
X64734398Y18422562D01*
X64734398Y18422562D02*
X64686779Y18374943D01*
X64686779Y18374943D02*
X64639160Y18279705D01*
X64639160Y18279705D02*
X64639160Y18041610D01*
X64639160Y18041610D02*
X64686779Y17946372D01*
X64686779Y17946372D02*
X64734398Y17898753D01*
X64734398Y17898753D02*
X64829636Y17851134D01*
X64829636Y17851134D02*
X65020112Y17851134D01*
X65020112Y17851134D02*
X65115350Y17898753D01*
X65115350Y17898753D02*
X65162969Y17946372D01*
X65162969Y17946372D02*
X65210588Y18041610D01*
X71936779Y14970181D02*
X71936779Y15970181D01*
X71936779Y15970181D02*
X72317731Y15970181D01*
X72317731Y15970181D02*
X72412969Y15922562D01*
X72412969Y15922562D02*
X72460588Y15874943D01*
X72460588Y15874943D02*
X72508207Y15779705D01*
X72508207Y15779705D02*
X72508207Y15636848D01*
X72508207Y15636848D02*
X72460588Y15541610D01*
X72460588Y15541610D02*
X72412969Y15493991D01*
X72412969Y15493991D02*
X72317731Y15446372D01*
X72317731Y15446372D02*
X71936779Y15446372D01*
X72936779Y14970181D02*
X72936779Y15636848D01*
X72936779Y15446372D02*
X72984398Y15541610D01*
X72984398Y15541610D02*
X73032017Y15589229D01*
X73032017Y15589229D02*
X73127255Y15636848D01*
X73127255Y15636848D02*
X73222493Y15636848D01*
X73698684Y14970181D02*
X73603446Y15017800D01*
X73603446Y15017800D02*
X73555827Y15065420D01*
X73555827Y15065420D02*
X73508208Y15160658D01*
X73508208Y15160658D02*
X73508208Y15446372D01*
X73508208Y15446372D02*
X73555827Y15541610D01*
X73555827Y15541610D02*
X73603446Y15589229D01*
X73603446Y15589229D02*
X73698684Y15636848D01*
X73698684Y15636848D02*
X73841541Y15636848D01*
X73841541Y15636848D02*
X73936779Y15589229D01*
X73936779Y15589229D02*
X73984398Y15541610D01*
X73984398Y15541610D02*
X74032017Y15446372D01*
X74032017Y15446372D02*
X74032017Y15160658D01*
X74032017Y15160658D02*
X73984398Y15065420D01*
X73984398Y15065420D02*
X73936779Y15017800D01*
X73936779Y15017800D02*
X73841541Y14970181D01*
X73841541Y14970181D02*
X73698684Y14970181D01*
X75222494Y14970181D02*
X75222494Y15970181D01*
X75222494Y15970181D02*
X75555827Y15255896D01*
X75555827Y15255896D02*
X75889160Y15970181D01*
X75889160Y15970181D02*
X75889160Y14970181D01*
X76365351Y14970181D02*
X76365351Y15636848D01*
X76365351Y15970181D02*
X76317732Y15922562D01*
X76317732Y15922562D02*
X76365351Y15874943D01*
X76365351Y15874943D02*
X76412970Y15922562D01*
X76412970Y15922562D02*
X76365351Y15970181D01*
X76365351Y15970181D02*
X76365351Y15874943D01*
X77270112Y15017800D02*
X77174874Y14970181D01*
X77174874Y14970181D02*
X76984398Y14970181D01*
X76984398Y14970181D02*
X76889160Y15017800D01*
X76889160Y15017800D02*
X76841541Y15065420D01*
X76841541Y15065420D02*
X76793922Y15160658D01*
X76793922Y15160658D02*
X76793922Y15446372D01*
X76793922Y15446372D02*
X76841541Y15541610D01*
X76841541Y15541610D02*
X76889160Y15589229D01*
X76889160Y15589229D02*
X76984398Y15636848D01*
X76984398Y15636848D02*
X77174874Y15636848D01*
X77174874Y15636848D02*
X77270112Y15589229D01*
X77698684Y14970181D02*
X77698684Y15636848D01*
X77698684Y15446372D02*
X77746303Y15541610D01*
X77746303Y15541610D02*
X77793922Y15589229D01*
X77793922Y15589229D02*
X77889160Y15636848D01*
X77889160Y15636848D02*
X77984398Y15636848D01*
X78460589Y14970181D02*
X78365351Y15017800D01*
X78365351Y15017800D02*
X78317732Y15065420D01*
X78317732Y15065420D02*
X78270113Y15160658D01*
X78270113Y15160658D02*
X78270113Y15446372D01*
X78270113Y15446372D02*
X78317732Y15541610D01*
X78317732Y15541610D02*
X78365351Y15589229D01*
X78365351Y15589229D02*
X78460589Y15636848D01*
X78460589Y15636848D02*
X78603446Y15636848D01*
X78603446Y15636848D02*
X78698684Y15589229D01*
X78698684Y15589229D02*
X78746303Y15541610D01*
X78746303Y15541610D02*
X78793922Y15446372D01*
X78793922Y15446372D02*
X78793922Y15160658D01*
X78793922Y15160658D02*
X78746303Y15065420D01*
X78746303Y15065420D02*
X78698684Y15017800D01*
X78698684Y15017800D02*
X78603446Y14970181D01*
X78603446Y14970181D02*
X78460589Y14970181D01*
X79960588Y24970181D02*
X79389160Y24970181D01*
X79674874Y24970181D02*
X79674874Y25970181D01*
X79674874Y25970181D02*
X79579636Y25827324D01*
X79579636Y25827324D02*
X79484398Y25732086D01*
X79484398Y25732086D02*
X79389160Y25684467D01*
X80865350Y25970181D02*
X80389160Y25970181D01*
X80389160Y25970181D02*
X80341541Y25493991D01*
X80341541Y25493991D02*
X80389160Y25541610D01*
X80389160Y25541610D02*
X80484398Y25589229D01*
X80484398Y25589229D02*
X80722493Y25589229D01*
X80722493Y25589229D02*
X80817731Y25541610D01*
X80817731Y25541610D02*
X80865350Y25493991D01*
X80865350Y25493991D02*
X80912969Y25398753D01*
X80912969Y25398753D02*
X80912969Y25160658D01*
X80912969Y25160658D02*
X80865350Y25065420D01*
X80865350Y25065420D02*
X80817731Y25017800D01*
X80817731Y25017800D02*
X80722493Y24970181D01*
X80722493Y24970181D02*
X80484398Y24970181D01*
X80484398Y24970181D02*
X80389160Y25017800D01*
X80389160Y25017800D02*
X80341541Y25065420D01*
X63543922Y46220181D02*
X64115350Y46220181D01*
X63829636Y45220181D02*
X63829636Y46220181D01*
X64353446Y46220181D02*
X65020112Y45220181D01*
X65020112Y46220181D02*
X64353446Y45220181D01*
X65591541Y46220181D02*
X65686779Y46220181D01*
X65686779Y46220181D02*
X65782017Y46172562D01*
X65782017Y46172562D02*
X65829636Y46124943D01*
X65829636Y46124943D02*
X65877255Y46029705D01*
X65877255Y46029705D02*
X65924874Y45839229D01*
X65924874Y45839229D02*
X65924874Y45601134D01*
X65924874Y45601134D02*
X65877255Y45410658D01*
X65877255Y45410658D02*
X65829636Y45315420D01*
X65829636Y45315420D02*
X65782017Y45267800D01*
X65782017Y45267800D02*
X65686779Y45220181D01*
X65686779Y45220181D02*
X65591541Y45220181D01*
X65591541Y45220181D02*
X65496303Y45267800D01*
X65496303Y45267800D02*
X65448684Y45315420D01*
X65448684Y45315420D02*
X65401065Y45410658D01*
X65401065Y45410658D02*
X65353446Y45601134D01*
X65353446Y45601134D02*
X65353446Y45839229D01*
X65353446Y45839229D02*
X65401065Y46029705D01*
X65401065Y46029705D02*
X65448684Y46124943D01*
X65448684Y46124943D02*
X65496303Y46172562D01*
X65496303Y46172562D02*
X65591541Y46220181D01*
X64210588Y41172562D02*
X64115350Y41220181D01*
X64115350Y41220181D02*
X63972493Y41220181D01*
X63972493Y41220181D02*
X63829636Y41172562D01*
X63829636Y41172562D02*
X63734398Y41077324D01*
X63734398Y41077324D02*
X63686779Y40982086D01*
X63686779Y40982086D02*
X63639160Y40791610D01*
X63639160Y40791610D02*
X63639160Y40648753D01*
X63639160Y40648753D02*
X63686779Y40458277D01*
X63686779Y40458277D02*
X63734398Y40363039D01*
X63734398Y40363039D02*
X63829636Y40267800D01*
X63829636Y40267800D02*
X63972493Y40220181D01*
X63972493Y40220181D02*
X64067731Y40220181D01*
X64067731Y40220181D02*
X64210588Y40267800D01*
X64210588Y40267800D02*
X64258207Y40315420D01*
X64258207Y40315420D02*
X64258207Y40648753D01*
X64258207Y40648753D02*
X64067731Y40648753D01*
X64686779Y40220181D02*
X64686779Y41220181D01*
X64686779Y41220181D02*
X65258207Y40220181D01*
X65258207Y40220181D02*
X65258207Y41220181D01*
X65734398Y40220181D02*
X65734398Y41220181D01*
X65734398Y41220181D02*
X65972493Y41220181D01*
X65972493Y41220181D02*
X66115350Y41172562D01*
X66115350Y41172562D02*
X66210588Y41077324D01*
X66210588Y41077324D02*
X66258207Y40982086D01*
X66258207Y40982086D02*
X66305826Y40791610D01*
X66305826Y40791610D02*
X66305826Y40648753D01*
X66305826Y40648753D02*
X66258207Y40458277D01*
X66258207Y40458277D02*
X66210588Y40363039D01*
X66210588Y40363039D02*
X66115350Y40267800D01*
X66115350Y40267800D02*
X65972493Y40220181D01*
X65972493Y40220181D02*
X65734398Y40220181D01*
X79758207Y45220181D02*
X79424874Y45696372D01*
X79186779Y45220181D02*
X79186779Y46220181D01*
X79186779Y46220181D02*
X79567731Y46220181D01*
X79567731Y46220181D02*
X79662969Y46172562D01*
X79662969Y46172562D02*
X79710588Y46124943D01*
X79710588Y46124943D02*
X79758207Y46029705D01*
X79758207Y46029705D02*
X79758207Y45886848D01*
X79758207Y45886848D02*
X79710588Y45791610D01*
X79710588Y45791610D02*
X79662969Y45743991D01*
X79662969Y45743991D02*
X79567731Y45696372D01*
X79567731Y45696372D02*
X79186779Y45696372D01*
X80139160Y45505896D02*
X80615350Y45505896D01*
X80043922Y45220181D02*
X80377255Y46220181D01*
X80377255Y46220181D02*
X80710588Y45220181D01*
X80948684Y46220181D02*
X81186779Y45220181D01*
X81186779Y45220181D02*
X81377255Y45934467D01*
X81377255Y45934467D02*
X81567731Y45220181D01*
X81567731Y45220181D02*
X81805827Y46220181D01*
X79639160Y33005896D02*
X80115350Y33005896D01*
X79543922Y32720181D02*
X79877255Y33720181D01*
X79877255Y33720181D02*
X80210588Y32720181D01*
X80496303Y33624943D02*
X80543922Y33672562D01*
X80543922Y33672562D02*
X80639160Y33720181D01*
X80639160Y33720181D02*
X80877255Y33720181D01*
X80877255Y33720181D02*
X80972493Y33672562D01*
X80972493Y33672562D02*
X81020112Y33624943D01*
X81020112Y33624943D02*
X81067731Y33529705D01*
X81067731Y33529705D02*
X81067731Y33434467D01*
X81067731Y33434467D02*
X81020112Y33291610D01*
X81020112Y33291610D02*
X80448684Y32720181D01*
X80448684Y32720181D02*
X81067731Y32720181D01*
X79460588Y43672562D02*
X79365350Y43720181D01*
X79365350Y43720181D02*
X79222493Y43720181D01*
X79222493Y43720181D02*
X79079636Y43672562D01*
X79079636Y43672562D02*
X78984398Y43577324D01*
X78984398Y43577324D02*
X78936779Y43482086D01*
X78936779Y43482086D02*
X78889160Y43291610D01*
X78889160Y43291610D02*
X78889160Y43148753D01*
X78889160Y43148753D02*
X78936779Y42958277D01*
X78936779Y42958277D02*
X78984398Y42863039D01*
X78984398Y42863039D02*
X79079636Y42767800D01*
X79079636Y42767800D02*
X79222493Y42720181D01*
X79222493Y42720181D02*
X79317731Y42720181D01*
X79317731Y42720181D02*
X79460588Y42767800D01*
X79460588Y42767800D02*
X79508207Y42815420D01*
X79508207Y42815420D02*
X79508207Y43148753D01*
X79508207Y43148753D02*
X79317731Y43148753D01*
X79936779Y42720181D02*
X79936779Y43720181D01*
X79936779Y43720181D02*
X80508207Y42720181D01*
X80508207Y42720181D02*
X80508207Y43720181D01*
X80984398Y42720181D02*
X80984398Y43720181D01*
X80984398Y43720181D02*
X81222493Y43720181D01*
X81222493Y43720181D02*
X81365350Y43672562D01*
X81365350Y43672562D02*
X81460588Y43577324D01*
X81460588Y43577324D02*
X81508207Y43482086D01*
X81508207Y43482086D02*
X81555826Y43291610D01*
X81555826Y43291610D02*
X81555826Y43148753D01*
X81555826Y43148753D02*
X81508207Y42958277D01*
X81508207Y42958277D02*
X81460588Y42863039D01*
X81460588Y42863039D02*
X81365350Y42767800D01*
X81365350Y42767800D02*
X81222493Y42720181D01*
X81222493Y42720181D02*
X80984398Y42720181D01*
X31476667Y27476800D02*
X31619524Y27429181D01*
X31619524Y27429181D02*
X31857619Y27429181D01*
X31857619Y27429181D02*
X31952857Y27476800D01*
X31952857Y27476800D02*
X32000476Y27524420D01*
X32000476Y27524420D02*
X32048095Y27619658D01*
X32048095Y27619658D02*
X32048095Y27714896D01*
X32048095Y27714896D02*
X32000476Y27810134D01*
X32000476Y27810134D02*
X31952857Y27857753D01*
X31952857Y27857753D02*
X31857619Y27905372D01*
X31857619Y27905372D02*
X31667143Y27952991D01*
X31667143Y27952991D02*
X31571905Y28000610D01*
X31571905Y28000610D02*
X31524286Y28048229D01*
X31524286Y28048229D02*
X31476667Y28143467D01*
X31476667Y28143467D02*
X31476667Y28238705D01*
X31476667Y28238705D02*
X31524286Y28333943D01*
X31524286Y28333943D02*
X31571905Y28381562D01*
X31571905Y28381562D02*
X31667143Y28429181D01*
X31667143Y28429181D02*
X31905238Y28429181D01*
X31905238Y28429181D02*
X32048095Y28381562D01*
X32381429Y28429181D02*
X32619524Y27429181D01*
X32619524Y27429181D02*
X32810000Y28143467D01*
X32810000Y28143467D02*
X33000476Y27429181D01*
X33000476Y27429181D02*
X33238572Y28429181D01*
X34095714Y28429181D02*
X33619524Y28429181D01*
X33619524Y28429181D02*
X33571905Y27952991D01*
X33571905Y27952991D02*
X33619524Y28000610D01*
X33619524Y28000610D02*
X33714762Y28048229D01*
X33714762Y28048229D02*
X33952857Y28048229D01*
X33952857Y28048229D02*
X34048095Y28000610D01*
X34048095Y28000610D02*
X34095714Y27952991D01*
X34095714Y27952991D02*
X34143333Y27857753D01*
X34143333Y27857753D02*
X34143333Y27619658D01*
X34143333Y27619658D02*
X34095714Y27524420D01*
X34095714Y27524420D02*
X34048095Y27476800D01*
X34048095Y27476800D02*
X33952857Y27429181D01*
X33952857Y27429181D02*
X33714762Y27429181D01*
X33714762Y27429181D02*
X33619524Y27476800D01*
X33619524Y27476800D02*
X33571905Y27524420D01*
X31921905Y10755181D02*
X31921905Y11755181D01*
X31921905Y11755181D02*
X32160000Y11755181D01*
X32160000Y11755181D02*
X32302857Y11707562D01*
X32302857Y11707562D02*
X32398095Y11612324D01*
X32398095Y11612324D02*
X32445714Y11517086D01*
X32445714Y11517086D02*
X32493333Y11326610D01*
X32493333Y11326610D02*
X32493333Y11183753D01*
X32493333Y11183753D02*
X32445714Y10993277D01*
X32445714Y10993277D02*
X32398095Y10898039D01*
X32398095Y10898039D02*
X32302857Y10802800D01*
X32302857Y10802800D02*
X32160000Y10755181D01*
X32160000Y10755181D02*
X31921905Y10755181D01*
X33398095Y11755181D02*
X32921905Y11755181D01*
X32921905Y11755181D02*
X32874286Y11278991D01*
X32874286Y11278991D02*
X32921905Y11326610D01*
X32921905Y11326610D02*
X33017143Y11374229D01*
X33017143Y11374229D02*
X33255238Y11374229D01*
X33255238Y11374229D02*
X33350476Y11326610D01*
X33350476Y11326610D02*
X33398095Y11278991D01*
X33398095Y11278991D02*
X33445714Y11183753D01*
X33445714Y11183753D02*
X33445714Y10945658D01*
X33445714Y10945658D02*
X33398095Y10850420D01*
X33398095Y10850420D02*
X33350476Y10802800D01*
X33350476Y10802800D02*
X33255238Y10755181D01*
X33255238Y10755181D02*
X33017143Y10755181D01*
X33017143Y10755181D02*
X32921905Y10802800D01*
X32921905Y10802800D02*
X32874286Y10850420D01*
X28588095Y10435181D02*
X28588095Y11435181D01*
X29159523Y10435181D02*
X28730952Y11006610D01*
X29159523Y11435181D02*
X28588095Y10863753D01*
X31476667Y47016800D02*
X31619524Y46969181D01*
X31619524Y46969181D02*
X31857619Y46969181D01*
X31857619Y46969181D02*
X31952857Y47016800D01*
X31952857Y47016800D02*
X32000476Y47064420D01*
X32000476Y47064420D02*
X32048095Y47159658D01*
X32048095Y47159658D02*
X32048095Y47254896D01*
X32048095Y47254896D02*
X32000476Y47350134D01*
X32000476Y47350134D02*
X31952857Y47397753D01*
X31952857Y47397753D02*
X31857619Y47445372D01*
X31857619Y47445372D02*
X31667143Y47492991D01*
X31667143Y47492991D02*
X31571905Y47540610D01*
X31571905Y47540610D02*
X31524286Y47588229D01*
X31524286Y47588229D02*
X31476667Y47683467D01*
X31476667Y47683467D02*
X31476667Y47778705D01*
X31476667Y47778705D02*
X31524286Y47873943D01*
X31524286Y47873943D02*
X31571905Y47921562D01*
X31571905Y47921562D02*
X31667143Y47969181D01*
X31667143Y47969181D02*
X31905238Y47969181D01*
X31905238Y47969181D02*
X32048095Y47921562D01*
X32381429Y47969181D02*
X32619524Y46969181D01*
X32619524Y46969181D02*
X32810000Y47683467D01*
X32810000Y47683467D02*
X33000476Y46969181D01*
X33000476Y46969181D02*
X33238572Y47969181D01*
X33571905Y47873943D02*
X33619524Y47921562D01*
X33619524Y47921562D02*
X33714762Y47969181D01*
X33714762Y47969181D02*
X33952857Y47969181D01*
X33952857Y47969181D02*
X34048095Y47921562D01*
X34048095Y47921562D02*
X34095714Y47873943D01*
X34095714Y47873943D02*
X34143333Y47778705D01*
X34143333Y47778705D02*
X34143333Y47683467D01*
X34143333Y47683467D02*
X34095714Y47540610D01*
X34095714Y47540610D02*
X33524286Y46969181D01*
X33524286Y46969181D02*
X34143333Y46969181D01*
X20766667Y8482800D02*
X20909524Y8435181D01*
X20909524Y8435181D02*
X21147619Y8435181D01*
X21147619Y8435181D02*
X21242857Y8482800D01*
X21242857Y8482800D02*
X21290476Y8530420D01*
X21290476Y8530420D02*
X21338095Y8625658D01*
X21338095Y8625658D02*
X21338095Y8720896D01*
X21338095Y8720896D02*
X21290476Y8816134D01*
X21290476Y8816134D02*
X21242857Y8863753D01*
X21242857Y8863753D02*
X21147619Y8911372D01*
X21147619Y8911372D02*
X20957143Y8958991D01*
X20957143Y8958991D02*
X20861905Y9006610D01*
X20861905Y9006610D02*
X20814286Y9054229D01*
X20814286Y9054229D02*
X20766667Y9149467D01*
X20766667Y9149467D02*
X20766667Y9244705D01*
X20766667Y9244705D02*
X20814286Y9339943D01*
X20814286Y9339943D02*
X20861905Y9387562D01*
X20861905Y9387562D02*
X20957143Y9435181D01*
X20957143Y9435181D02*
X21195238Y9435181D01*
X21195238Y9435181D02*
X21338095Y9387562D01*
X21671429Y9435181D02*
X21909524Y8435181D01*
X21909524Y8435181D02*
X22100000Y9149467D01*
X22100000Y9149467D02*
X22290476Y8435181D01*
X22290476Y8435181D02*
X22528572Y9435181D01*
X23052381Y9006610D02*
X22957143Y9054229D01*
X22957143Y9054229D02*
X22909524Y9101848D01*
X22909524Y9101848D02*
X22861905Y9197086D01*
X22861905Y9197086D02*
X22861905Y9244705D01*
X22861905Y9244705D02*
X22909524Y9339943D01*
X22909524Y9339943D02*
X22957143Y9387562D01*
X22957143Y9387562D02*
X23052381Y9435181D01*
X23052381Y9435181D02*
X23242857Y9435181D01*
X23242857Y9435181D02*
X23338095Y9387562D01*
X23338095Y9387562D02*
X23385714Y9339943D01*
X23385714Y9339943D02*
X23433333Y9244705D01*
X23433333Y9244705D02*
X23433333Y9197086D01*
X23433333Y9197086D02*
X23385714Y9101848D01*
X23385714Y9101848D02*
X23338095Y9054229D01*
X23338095Y9054229D02*
X23242857Y9006610D01*
X23242857Y9006610D02*
X23052381Y9006610D01*
X23052381Y9006610D02*
X22957143Y8958991D01*
X22957143Y8958991D02*
X22909524Y8911372D01*
X22909524Y8911372D02*
X22861905Y8816134D01*
X22861905Y8816134D02*
X22861905Y8625658D01*
X22861905Y8625658D02*
X22909524Y8530420D01*
X22909524Y8530420D02*
X22957143Y8482800D01*
X22957143Y8482800D02*
X23052381Y8435181D01*
X23052381Y8435181D02*
X23242857Y8435181D01*
X23242857Y8435181D02*
X23338095Y8482800D01*
X23338095Y8482800D02*
X23385714Y8530420D01*
X23385714Y8530420D02*
X23433333Y8625658D01*
X23433333Y8625658D02*
X23433333Y8816134D01*
X23433333Y8816134D02*
X23385714Y8911372D01*
X23385714Y8911372D02*
X23338095Y8958991D01*
X23338095Y8958991D02*
X23242857Y9006610D01*
X10921905Y51755181D02*
X10921905Y52755181D01*
X10921905Y52755181D02*
X11160000Y52755181D01*
X11160000Y52755181D02*
X11302857Y52707562D01*
X11302857Y52707562D02*
X11398095Y52612324D01*
X11398095Y52612324D02*
X11445714Y52517086D01*
X11445714Y52517086D02*
X11493333Y52326610D01*
X11493333Y52326610D02*
X11493333Y52183753D01*
X11493333Y52183753D02*
X11445714Y51993277D01*
X11445714Y51993277D02*
X11398095Y51898039D01*
X11398095Y51898039D02*
X11302857Y51802800D01*
X11302857Y51802800D02*
X11160000Y51755181D01*
X11160000Y51755181D02*
X10921905Y51755181D01*
X11826667Y52755181D02*
X12445714Y52755181D01*
X12445714Y52755181D02*
X12112381Y52374229D01*
X12112381Y52374229D02*
X12255238Y52374229D01*
X12255238Y52374229D02*
X12350476Y52326610D01*
X12350476Y52326610D02*
X12398095Y52278991D01*
X12398095Y52278991D02*
X12445714Y52183753D01*
X12445714Y52183753D02*
X12445714Y51945658D01*
X12445714Y51945658D02*
X12398095Y51850420D01*
X12398095Y51850420D02*
X12350476Y51802800D01*
X12350476Y51802800D02*
X12255238Y51755181D01*
X12255238Y51755181D02*
X11969524Y51755181D01*
X11969524Y51755181D02*
X11874286Y51802800D01*
X11874286Y51802800D02*
X11826667Y51850420D01*
X7588095Y51435181D02*
X7588095Y52435181D01*
X8159523Y51435181D02*
X7730952Y52006610D01*
X8159523Y52435181D02*
X7588095Y51863753D01*
X10921905Y3755181D02*
X10921905Y4755181D01*
X10921905Y4755181D02*
X11160000Y4755181D01*
X11160000Y4755181D02*
X11302857Y4707562D01*
X11302857Y4707562D02*
X11398095Y4612324D01*
X11398095Y4612324D02*
X11445714Y4517086D01*
X11445714Y4517086D02*
X11493333Y4326610D01*
X11493333Y4326610D02*
X11493333Y4183753D01*
X11493333Y4183753D02*
X11445714Y3993277D01*
X11445714Y3993277D02*
X11398095Y3898039D01*
X11398095Y3898039D02*
X11302857Y3802800D01*
X11302857Y3802800D02*
X11160000Y3755181D01*
X11160000Y3755181D02*
X10921905Y3755181D01*
X12064762Y4326610D02*
X11969524Y4374229D01*
X11969524Y4374229D02*
X11921905Y4421848D01*
X11921905Y4421848D02*
X11874286Y4517086D01*
X11874286Y4517086D02*
X11874286Y4564705D01*
X11874286Y4564705D02*
X11921905Y4659943D01*
X11921905Y4659943D02*
X11969524Y4707562D01*
X11969524Y4707562D02*
X12064762Y4755181D01*
X12064762Y4755181D02*
X12255238Y4755181D01*
X12255238Y4755181D02*
X12350476Y4707562D01*
X12350476Y4707562D02*
X12398095Y4659943D01*
X12398095Y4659943D02*
X12445714Y4564705D01*
X12445714Y4564705D02*
X12445714Y4517086D01*
X12445714Y4517086D02*
X12398095Y4421848D01*
X12398095Y4421848D02*
X12350476Y4374229D01*
X12350476Y4374229D02*
X12255238Y4326610D01*
X12255238Y4326610D02*
X12064762Y4326610D01*
X12064762Y4326610D02*
X11969524Y4278991D01*
X11969524Y4278991D02*
X11921905Y4231372D01*
X11921905Y4231372D02*
X11874286Y4136134D01*
X11874286Y4136134D02*
X11874286Y3945658D01*
X11874286Y3945658D02*
X11921905Y3850420D01*
X11921905Y3850420D02*
X11969524Y3802800D01*
X11969524Y3802800D02*
X12064762Y3755181D01*
X12064762Y3755181D02*
X12255238Y3755181D01*
X12255238Y3755181D02*
X12350476Y3802800D01*
X12350476Y3802800D02*
X12398095Y3850420D01*
X12398095Y3850420D02*
X12445714Y3945658D01*
X12445714Y3945658D02*
X12445714Y4136134D01*
X12445714Y4136134D02*
X12398095Y4231372D01*
X12398095Y4231372D02*
X12350476Y4278991D01*
X12350476Y4278991D02*
X12255238Y4326610D01*
X7588095Y3435181D02*
X7588095Y4435181D01*
X8159523Y3435181D02*
X7730952Y4006610D01*
X8159523Y4435181D02*
X7588095Y3863753D01*
X53421905Y51755181D02*
X53421905Y52755181D01*
X53421905Y52755181D02*
X53660000Y52755181D01*
X53660000Y52755181D02*
X53802857Y52707562D01*
X53802857Y52707562D02*
X53898095Y52612324D01*
X53898095Y52612324D02*
X53945714Y52517086D01*
X53945714Y52517086D02*
X53993333Y52326610D01*
X53993333Y52326610D02*
X53993333Y52183753D01*
X53993333Y52183753D02*
X53945714Y51993277D01*
X53945714Y51993277D02*
X53898095Y51898039D01*
X53898095Y51898039D02*
X53802857Y51802800D01*
X53802857Y51802800D02*
X53660000Y51755181D01*
X53660000Y51755181D02*
X53421905Y51755181D01*
X54945714Y51755181D02*
X54374286Y51755181D01*
X54660000Y51755181D02*
X54660000Y52755181D01*
X54660000Y52755181D02*
X54564762Y52612324D01*
X54564762Y52612324D02*
X54469524Y52517086D01*
X54469524Y52517086D02*
X54374286Y52469467D01*
X50088095Y51435181D02*
X50088095Y52435181D01*
X50659523Y51435181D02*
X50230952Y52006610D01*
X50659523Y52435181D02*
X50088095Y51863753D01*
X72811932Y11556581D02*
X72478599Y12032772D01*
X72240504Y11556581D02*
X72240504Y12556581D01*
X72240504Y12556581D02*
X72621456Y12556581D01*
X72621456Y12556581D02*
X72716694Y12508962D01*
X72716694Y12508962D02*
X72764313Y12461343D01*
X72764313Y12461343D02*
X72811932Y12366105D01*
X72811932Y12366105D02*
X72811932Y12223248D01*
X72811932Y12223248D02*
X72764313Y12128010D01*
X72764313Y12128010D02*
X72716694Y12080391D01*
X72716694Y12080391D02*
X72621456Y12032772D01*
X72621456Y12032772D02*
X72240504Y12032772D01*
X73621456Y11604200D02*
X73526218Y11556581D01*
X73526218Y11556581D02*
X73335742Y11556581D01*
X73335742Y11556581D02*
X73240504Y11604200D01*
X73240504Y11604200D02*
X73192885Y11699439D01*
X73192885Y11699439D02*
X73192885Y12080391D01*
X73192885Y12080391D02*
X73240504Y12175629D01*
X73240504Y12175629D02*
X73335742Y12223248D01*
X73335742Y12223248D02*
X73526218Y12223248D01*
X73526218Y12223248D02*
X73621456Y12175629D01*
X73621456Y12175629D02*
X73669075Y12080391D01*
X73669075Y12080391D02*
X73669075Y11985153D01*
X73669075Y11985153D02*
X73192885Y11889915D01*
X74050028Y11604200D02*
X74145266Y11556581D01*
X74145266Y11556581D02*
X74335742Y11556581D01*
X74335742Y11556581D02*
X74430980Y11604200D01*
X74430980Y11604200D02*
X74478599Y11699439D01*
X74478599Y11699439D02*
X74478599Y11747058D01*
X74478599Y11747058D02*
X74430980Y11842296D01*
X74430980Y11842296D02*
X74335742Y11889915D01*
X74335742Y11889915D02*
X74192885Y11889915D01*
X74192885Y11889915D02*
X74097647Y11937534D01*
X74097647Y11937534D02*
X74050028Y12032772D01*
X74050028Y12032772D02*
X74050028Y12080391D01*
X74050028Y12080391D02*
X74097647Y12175629D01*
X74097647Y12175629D02*
X74192885Y12223248D01*
X74192885Y12223248D02*
X74335742Y12223248D01*
X74335742Y12223248D02*
X74430980Y12175629D01*
X75288123Y11604200D02*
X75192885Y11556581D01*
X75192885Y11556581D02*
X75002409Y11556581D01*
X75002409Y11556581D02*
X74907171Y11604200D01*
X74907171Y11604200D02*
X74859552Y11699439D01*
X74859552Y11699439D02*
X74859552Y12080391D01*
X74859552Y12080391D02*
X74907171Y12175629D01*
X74907171Y12175629D02*
X75002409Y12223248D01*
X75002409Y12223248D02*
X75192885Y12223248D01*
X75192885Y12223248D02*
X75288123Y12175629D01*
X75288123Y12175629D02*
X75335742Y12080391D01*
X75335742Y12080391D02*
X75335742Y11985153D01*
X75335742Y11985153D02*
X74859552Y11889915D01*
X75621457Y12223248D02*
X76002409Y12223248D01*
X75764314Y12556581D02*
X75764314Y11699439D01*
X75764314Y11699439D02*
X75811933Y11604200D01*
X75811933Y11604200D02*
X75907171Y11556581D01*
X75907171Y11556581D02*
X76002409Y11556581D01*
X76097648Y11461343D02*
X76859552Y11461343D01*
X77050029Y11604200D02*
X77192886Y11556581D01*
X77192886Y11556581D02*
X77430981Y11556581D01*
X77430981Y11556581D02*
X77526219Y11604200D01*
X77526219Y11604200D02*
X77573838Y11651820D01*
X77573838Y11651820D02*
X77621457Y11747058D01*
X77621457Y11747058D02*
X77621457Y11842296D01*
X77621457Y11842296D02*
X77573838Y11937534D01*
X77573838Y11937534D02*
X77526219Y11985153D01*
X77526219Y11985153D02*
X77430981Y12032772D01*
X77430981Y12032772D02*
X77240505Y12080391D01*
X77240505Y12080391D02*
X77145267Y12128010D01*
X77145267Y12128010D02*
X77097648Y12175629D01*
X77097648Y12175629D02*
X77050029Y12270867D01*
X77050029Y12270867D02*
X77050029Y12366105D01*
X77050029Y12366105D02*
X77097648Y12461343D01*
X77097648Y12461343D02*
X77145267Y12508962D01*
X77145267Y12508962D02*
X77240505Y12556581D01*
X77240505Y12556581D02*
X77478600Y12556581D01*
X77478600Y12556581D02*
X77621457Y12508962D01*
X77954791Y12556581D02*
X78192886Y11556581D01*
X78192886Y11556581D02*
X78383362Y12270867D01*
X78383362Y12270867D02*
X78573838Y11556581D01*
X78573838Y11556581D02*
X78811934Y12556581D01*
X50826667Y27516800D02*
X50969524Y27469181D01*
X50969524Y27469181D02*
X51207619Y27469181D01*
X51207619Y27469181D02*
X51302857Y27516800D01*
X51302857Y27516800D02*
X51350476Y27564420D01*
X51350476Y27564420D02*
X51398095Y27659658D01*
X51398095Y27659658D02*
X51398095Y27754896D01*
X51398095Y27754896D02*
X51350476Y27850134D01*
X51350476Y27850134D02*
X51302857Y27897753D01*
X51302857Y27897753D02*
X51207619Y27945372D01*
X51207619Y27945372D02*
X51017143Y27992991D01*
X51017143Y27992991D02*
X50921905Y28040610D01*
X50921905Y28040610D02*
X50874286Y28088229D01*
X50874286Y28088229D02*
X50826667Y28183467D01*
X50826667Y28183467D02*
X50826667Y28278705D01*
X50826667Y28278705D02*
X50874286Y28373943D01*
X50874286Y28373943D02*
X50921905Y28421562D01*
X50921905Y28421562D02*
X51017143Y28469181D01*
X51017143Y28469181D02*
X51255238Y28469181D01*
X51255238Y28469181D02*
X51398095Y28421562D01*
X51731429Y28469181D02*
X51969524Y27469181D01*
X51969524Y27469181D02*
X52160000Y28183467D01*
X52160000Y28183467D02*
X52350476Y27469181D01*
X52350476Y27469181D02*
X52588572Y28469181D01*
X53398095Y28135848D02*
X53398095Y27469181D01*
X53160000Y28516800D02*
X52921905Y27802515D01*
X52921905Y27802515D02*
X53540952Y27802515D01*
X12476667Y47016800D02*
X12619524Y46969181D01*
X12619524Y46969181D02*
X12857619Y46969181D01*
X12857619Y46969181D02*
X12952857Y47016800D01*
X12952857Y47016800D02*
X13000476Y47064420D01*
X13000476Y47064420D02*
X13048095Y47159658D01*
X13048095Y47159658D02*
X13048095Y47254896D01*
X13048095Y47254896D02*
X13000476Y47350134D01*
X13000476Y47350134D02*
X12952857Y47397753D01*
X12952857Y47397753D02*
X12857619Y47445372D01*
X12857619Y47445372D02*
X12667143Y47492991D01*
X12667143Y47492991D02*
X12571905Y47540610D01*
X12571905Y47540610D02*
X12524286Y47588229D01*
X12524286Y47588229D02*
X12476667Y47683467D01*
X12476667Y47683467D02*
X12476667Y47778705D01*
X12476667Y47778705D02*
X12524286Y47873943D01*
X12524286Y47873943D02*
X12571905Y47921562D01*
X12571905Y47921562D02*
X12667143Y47969181D01*
X12667143Y47969181D02*
X12905238Y47969181D01*
X12905238Y47969181D02*
X13048095Y47921562D01*
X13381429Y47969181D02*
X13619524Y46969181D01*
X13619524Y46969181D02*
X13810000Y47683467D01*
X13810000Y47683467D02*
X14000476Y46969181D01*
X14000476Y46969181D02*
X14238572Y47969181D01*
X14524286Y47969181D02*
X15143333Y47969181D01*
X15143333Y47969181D02*
X14810000Y47588229D01*
X14810000Y47588229D02*
X14952857Y47588229D01*
X14952857Y47588229D02*
X15048095Y47540610D01*
X15048095Y47540610D02*
X15095714Y47492991D01*
X15095714Y47492991D02*
X15143333Y47397753D01*
X15143333Y47397753D02*
X15143333Y47159658D01*
X15143333Y47159658D02*
X15095714Y47064420D01*
X15095714Y47064420D02*
X15048095Y47016800D01*
X15048095Y47016800D02*
X14952857Y46969181D01*
X14952857Y46969181D02*
X14667143Y46969181D01*
X14667143Y46969181D02*
X14571905Y47016800D01*
X14571905Y47016800D02*
X14524286Y47064420D01*
X50826667Y47016800D02*
X50969524Y46969181D01*
X50969524Y46969181D02*
X51207619Y46969181D01*
X51207619Y46969181D02*
X51302857Y47016800D01*
X51302857Y47016800D02*
X51350476Y47064420D01*
X51350476Y47064420D02*
X51398095Y47159658D01*
X51398095Y47159658D02*
X51398095Y47254896D01*
X51398095Y47254896D02*
X51350476Y47350134D01*
X51350476Y47350134D02*
X51302857Y47397753D01*
X51302857Y47397753D02*
X51207619Y47445372D01*
X51207619Y47445372D02*
X51017143Y47492991D01*
X51017143Y47492991D02*
X50921905Y47540610D01*
X50921905Y47540610D02*
X50874286Y47588229D01*
X50874286Y47588229D02*
X50826667Y47683467D01*
X50826667Y47683467D02*
X50826667Y47778705D01*
X50826667Y47778705D02*
X50874286Y47873943D01*
X50874286Y47873943D02*
X50921905Y47921562D01*
X50921905Y47921562D02*
X51017143Y47969181D01*
X51017143Y47969181D02*
X51255238Y47969181D01*
X51255238Y47969181D02*
X51398095Y47921562D01*
X51731429Y47969181D02*
X51969524Y46969181D01*
X51969524Y46969181D02*
X52160000Y47683467D01*
X52160000Y47683467D02*
X52350476Y46969181D01*
X52350476Y46969181D02*
X52588572Y47969181D01*
X53493333Y46969181D02*
X52921905Y46969181D01*
X53207619Y46969181D02*
X53207619Y47969181D01*
X53207619Y47969181D02*
X53112381Y47826324D01*
X53112381Y47826324D02*
X53017143Y47731086D01*
X53017143Y47731086D02*
X52921905Y47683467D01*
X53421905Y3755181D02*
X53421905Y4755181D01*
X53421905Y4755181D02*
X53660000Y4755181D01*
X53660000Y4755181D02*
X53802857Y4707562D01*
X53802857Y4707562D02*
X53898095Y4612324D01*
X53898095Y4612324D02*
X53945714Y4517086D01*
X53945714Y4517086D02*
X53993333Y4326610D01*
X53993333Y4326610D02*
X53993333Y4183753D01*
X53993333Y4183753D02*
X53945714Y3993277D01*
X53945714Y3993277D02*
X53898095Y3898039D01*
X53898095Y3898039D02*
X53802857Y3802800D01*
X53802857Y3802800D02*
X53660000Y3755181D01*
X53660000Y3755181D02*
X53421905Y3755181D01*
X54326667Y4755181D02*
X54993333Y4755181D01*
X54993333Y4755181D02*
X54564762Y3755181D01*
X50088095Y3435181D02*
X50088095Y4435181D01*
X50659523Y3435181D02*
X50230952Y4006610D01*
X50659523Y4435181D02*
X50088095Y3863753D01*
X42266667Y8482800D02*
X42409524Y8435181D01*
X42409524Y8435181D02*
X42647619Y8435181D01*
X42647619Y8435181D02*
X42742857Y8482800D01*
X42742857Y8482800D02*
X42790476Y8530420D01*
X42790476Y8530420D02*
X42838095Y8625658D01*
X42838095Y8625658D02*
X42838095Y8720896D01*
X42838095Y8720896D02*
X42790476Y8816134D01*
X42790476Y8816134D02*
X42742857Y8863753D01*
X42742857Y8863753D02*
X42647619Y8911372D01*
X42647619Y8911372D02*
X42457143Y8958991D01*
X42457143Y8958991D02*
X42361905Y9006610D01*
X42361905Y9006610D02*
X42314286Y9054229D01*
X42314286Y9054229D02*
X42266667Y9149467D01*
X42266667Y9149467D02*
X42266667Y9244705D01*
X42266667Y9244705D02*
X42314286Y9339943D01*
X42314286Y9339943D02*
X42361905Y9387562D01*
X42361905Y9387562D02*
X42457143Y9435181D01*
X42457143Y9435181D02*
X42695238Y9435181D01*
X42695238Y9435181D02*
X42838095Y9387562D01*
X43171429Y9435181D02*
X43409524Y8435181D01*
X43409524Y8435181D02*
X43600000Y9149467D01*
X43600000Y9149467D02*
X43790476Y8435181D01*
X43790476Y8435181D02*
X44028572Y9435181D01*
X44314286Y9435181D02*
X44980952Y9435181D01*
X44980952Y9435181D02*
X44552381Y8435181D01*
X12476667Y27476800D02*
X12619524Y27429181D01*
X12619524Y27429181D02*
X12857619Y27429181D01*
X12857619Y27429181D02*
X12952857Y27476800D01*
X12952857Y27476800D02*
X13000476Y27524420D01*
X13000476Y27524420D02*
X13048095Y27619658D01*
X13048095Y27619658D02*
X13048095Y27714896D01*
X13048095Y27714896D02*
X13000476Y27810134D01*
X13000476Y27810134D02*
X12952857Y27857753D01*
X12952857Y27857753D02*
X12857619Y27905372D01*
X12857619Y27905372D02*
X12667143Y27952991D01*
X12667143Y27952991D02*
X12571905Y28000610D01*
X12571905Y28000610D02*
X12524286Y28048229D01*
X12524286Y28048229D02*
X12476667Y28143467D01*
X12476667Y28143467D02*
X12476667Y28238705D01*
X12476667Y28238705D02*
X12524286Y28333943D01*
X12524286Y28333943D02*
X12571905Y28381562D01*
X12571905Y28381562D02*
X12667143Y28429181D01*
X12667143Y28429181D02*
X12905238Y28429181D01*
X12905238Y28429181D02*
X13048095Y28381562D01*
X13381429Y28429181D02*
X13619524Y27429181D01*
X13619524Y27429181D02*
X13810000Y28143467D01*
X13810000Y28143467D02*
X14000476Y27429181D01*
X14000476Y27429181D02*
X14238572Y28429181D01*
X15048095Y28429181D02*
X14857619Y28429181D01*
X14857619Y28429181D02*
X14762381Y28381562D01*
X14762381Y28381562D02*
X14714762Y28333943D01*
X14714762Y28333943D02*
X14619524Y28191086D01*
X14619524Y28191086D02*
X14571905Y28000610D01*
X14571905Y28000610D02*
X14571905Y27619658D01*
X14571905Y27619658D02*
X14619524Y27524420D01*
X14619524Y27524420D02*
X14667143Y27476800D01*
X14667143Y27476800D02*
X14762381Y27429181D01*
X14762381Y27429181D02*
X14952857Y27429181D01*
X14952857Y27429181D02*
X15048095Y27476800D01*
X15048095Y27476800D02*
X15095714Y27524420D01*
X15095714Y27524420D02*
X15143333Y27619658D01*
X15143333Y27619658D02*
X15143333Y27857753D01*
X15143333Y27857753D02*
X15095714Y27952991D01*
X15095714Y27952991D02*
X15048095Y28000610D01*
X15048095Y28000610D02*
X14952857Y28048229D01*
X14952857Y28048229D02*
X14762381Y28048229D01*
X14762381Y28048229D02*
X14667143Y28000610D01*
X14667143Y28000610D02*
X14619524Y27952991D01*
X14619524Y27952991D02*
X14571905Y27857753D01*
X31921905Y51755181D02*
X31921905Y52755181D01*
X31921905Y52755181D02*
X32160000Y52755181D01*
X32160000Y52755181D02*
X32302857Y52707562D01*
X32302857Y52707562D02*
X32398095Y52612324D01*
X32398095Y52612324D02*
X32445714Y52517086D01*
X32445714Y52517086D02*
X32493333Y52326610D01*
X32493333Y52326610D02*
X32493333Y52183753D01*
X32493333Y52183753D02*
X32445714Y51993277D01*
X32445714Y51993277D02*
X32398095Y51898039D01*
X32398095Y51898039D02*
X32302857Y51802800D01*
X32302857Y51802800D02*
X32160000Y51755181D01*
X32160000Y51755181D02*
X31921905Y51755181D01*
X32874286Y52659943D02*
X32921905Y52707562D01*
X32921905Y52707562D02*
X33017143Y52755181D01*
X33017143Y52755181D02*
X33255238Y52755181D01*
X33255238Y52755181D02*
X33350476Y52707562D01*
X33350476Y52707562D02*
X33398095Y52659943D01*
X33398095Y52659943D02*
X33445714Y52564705D01*
X33445714Y52564705D02*
X33445714Y52469467D01*
X33445714Y52469467D02*
X33398095Y52326610D01*
X33398095Y52326610D02*
X32826667Y51755181D01*
X32826667Y51755181D02*
X33445714Y51755181D01*
X28588095Y51435181D02*
X28588095Y52435181D01*
X29159523Y51435181D02*
X28730952Y52006610D01*
X29159523Y52435181D02*
X28588095Y51863753D01*
X53421905Y10755181D02*
X53421905Y11755181D01*
X53421905Y11755181D02*
X53660000Y11755181D01*
X53660000Y11755181D02*
X53802857Y11707562D01*
X53802857Y11707562D02*
X53898095Y11612324D01*
X53898095Y11612324D02*
X53945714Y11517086D01*
X53945714Y11517086D02*
X53993333Y11326610D01*
X53993333Y11326610D02*
X53993333Y11183753D01*
X53993333Y11183753D02*
X53945714Y10993277D01*
X53945714Y10993277D02*
X53898095Y10898039D01*
X53898095Y10898039D02*
X53802857Y10802800D01*
X53802857Y10802800D02*
X53660000Y10755181D01*
X53660000Y10755181D02*
X53421905Y10755181D01*
X54850476Y11421848D02*
X54850476Y10755181D01*
X54612381Y11802800D02*
X54374286Y11088515D01*
X54374286Y11088515D02*
X54993333Y11088515D01*
X50088095Y10435181D02*
X50088095Y11435181D01*
X50659523Y10435181D02*
X50230952Y11006610D01*
X50659523Y11435181D02*
X50088095Y10863753D01*
X10921905Y10755181D02*
X10921905Y11755181D01*
X10921905Y11755181D02*
X11160000Y11755181D01*
X11160000Y11755181D02*
X11302857Y11707562D01*
X11302857Y11707562D02*
X11398095Y11612324D01*
X11398095Y11612324D02*
X11445714Y11517086D01*
X11445714Y11517086D02*
X11493333Y11326610D01*
X11493333Y11326610D02*
X11493333Y11183753D01*
X11493333Y11183753D02*
X11445714Y10993277D01*
X11445714Y10993277D02*
X11398095Y10898039D01*
X11398095Y10898039D02*
X11302857Y10802800D01*
X11302857Y10802800D02*
X11160000Y10755181D01*
X11160000Y10755181D02*
X10921905Y10755181D01*
X12350476Y11755181D02*
X12160000Y11755181D01*
X12160000Y11755181D02*
X12064762Y11707562D01*
X12064762Y11707562D02*
X12017143Y11659943D01*
X12017143Y11659943D02*
X11921905Y11517086D01*
X11921905Y11517086D02*
X11874286Y11326610D01*
X11874286Y11326610D02*
X11874286Y10945658D01*
X11874286Y10945658D02*
X11921905Y10850420D01*
X11921905Y10850420D02*
X11969524Y10802800D01*
X11969524Y10802800D02*
X12064762Y10755181D01*
X12064762Y10755181D02*
X12255238Y10755181D01*
X12255238Y10755181D02*
X12350476Y10802800D01*
X12350476Y10802800D02*
X12398095Y10850420D01*
X12398095Y10850420D02*
X12445714Y10945658D01*
X12445714Y10945658D02*
X12445714Y11183753D01*
X12445714Y11183753D02*
X12398095Y11278991D01*
X12398095Y11278991D02*
X12350476Y11326610D01*
X12350476Y11326610D02*
X12255238Y11374229D01*
X12255238Y11374229D02*
X12064762Y11374229D01*
X12064762Y11374229D02*
X11969524Y11326610D01*
X11969524Y11326610D02*
X11921905Y11278991D01*
X11921905Y11278991D02*
X11874286Y11183753D01*
X7588095Y10435181D02*
X7588095Y11435181D01*
X8159523Y10435181D02*
X7730952Y11006610D01*
X8159523Y11435181D02*
X7588095Y10863753D01*
D11*
%TO.C,SW5*%
X25825000Y26995000D02*
X39795000Y26995000D01*
X25825000Y13025000D02*
X25825000Y26995000D01*
X39795000Y26995000D02*
X39795000Y13025000D01*
X39795000Y13025000D02*
X25825000Y13025000D01*
%TO.C,D5*%
X29890000Y9090000D02*
X30540000Y9090000D01*
X30540000Y10210000D02*
X30540000Y7970000D01*
X30540000Y7970000D02*
X34780000Y7970000D01*
X31140000Y10210000D02*
X31140000Y7970000D01*
X31260000Y10210000D02*
X31260000Y7970000D01*
X31380000Y10210000D02*
X31380000Y7970000D01*
X34780000Y10210000D02*
X30540000Y10210000D01*
X34780000Y7970000D02*
X34780000Y10210000D01*
X35430000Y9090000D02*
X34780000Y9090000D01*
%TO.C,SW2*%
X25825000Y46535000D02*
X39795000Y46535000D01*
X25825000Y32565000D02*
X25825000Y46535000D01*
X39795000Y46535000D02*
X39795000Y32565000D01*
X39795000Y32565000D02*
X25825000Y32565000D01*
%TO.C,SW8*%
X18980000Y3440000D02*
X18980000Y5640000D01*
X19450000Y1470000D02*
X24650000Y1470000D01*
X20050000Y7710000D02*
X24450000Y7710000D01*
X25220000Y5640000D02*
X25220000Y3440000D01*
X23514214Y4590000D02*
G75*
G03*
X23514214Y4590000I-1414214J0D01*
G01*
%TO.C,D3*%
X8890000Y50090000D02*
X9540000Y50090000D01*
X9540000Y51210000D02*
X9540000Y48970000D01*
X9540000Y48970000D02*
X13780000Y48970000D01*
X10140000Y51210000D02*
X10140000Y48970000D01*
X10260000Y51210000D02*
X10260000Y48970000D01*
X10380000Y51210000D02*
X10380000Y48970000D01*
X13780000Y51210000D02*
X9540000Y51210000D01*
X13780000Y48970000D02*
X13780000Y51210000D01*
X14430000Y50090000D02*
X13780000Y50090000D01*
%TO.C,D8*%
X8890000Y2090000D02*
X9540000Y2090000D01*
X9540000Y3210000D02*
X9540000Y970000D01*
X9540000Y970000D02*
X13780000Y970000D01*
X10140000Y3210000D02*
X10140000Y970000D01*
X10260000Y3210000D02*
X10260000Y970000D01*
X10380000Y3210000D02*
X10380000Y970000D01*
X13780000Y3210000D02*
X9540000Y3210000D01*
X13780000Y970000D02*
X13780000Y3210000D01*
X14430000Y2090000D02*
X13780000Y2090000D01*
%TO.C,D1*%
X51390000Y50090000D02*
X52040000Y50090000D01*
X52040000Y51210000D02*
X52040000Y48970000D01*
X52040000Y48970000D02*
X56280000Y48970000D01*
X52640000Y51210000D02*
X52640000Y48970000D01*
X52760000Y51210000D02*
X52760000Y48970000D01*
X52880000Y51210000D02*
X52880000Y48970000D01*
X56280000Y51210000D02*
X52040000Y51210000D01*
X56280000Y48970000D02*
X56280000Y51210000D01*
X56930000Y50090000D02*
X56280000Y50090000D01*
%TO.C,SW0*%
X72230000Y6361400D02*
X72230000Y8561400D01*
X72700000Y4391400D02*
X77900000Y4391400D01*
X73300000Y10631400D02*
X77700000Y10631400D01*
X78470000Y8561400D02*
X78470000Y6361400D01*
X76764214Y7511400D02*
G75*
G03*
X76764214Y7511400I-1414214J0D01*
G01*
%TO.C,SW4*%
X45175000Y27035000D02*
X59145000Y27035000D01*
X45175000Y13065000D02*
X45175000Y27035000D01*
X59145000Y27035000D02*
X59145000Y13065000D01*
X59145000Y13065000D02*
X45175000Y13065000D01*
%TO.C,SW3*%
X6825000Y46535000D02*
X20795000Y46535000D01*
X6825000Y32565000D02*
X6825000Y46535000D01*
X20795000Y46535000D02*
X20795000Y32565000D01*
X20795000Y32565000D02*
X6825000Y32565000D01*
%TO.C,SW1*%
X45175000Y46535000D02*
X59145000Y46535000D01*
X45175000Y32565000D02*
X45175000Y46535000D01*
X59145000Y46535000D02*
X59145000Y32565000D01*
X59145000Y32565000D02*
X45175000Y32565000D01*
%TO.C,D7*%
X51390000Y2090000D02*
X52040000Y2090000D01*
X52040000Y3210000D02*
X52040000Y970000D01*
X52040000Y970000D02*
X56280000Y970000D01*
X52640000Y3210000D02*
X52640000Y970000D01*
X52760000Y3210000D02*
X52760000Y970000D01*
X52880000Y3210000D02*
X52880000Y970000D01*
X56280000Y3210000D02*
X52040000Y3210000D01*
X56280000Y970000D02*
X56280000Y3210000D01*
X56930000Y2090000D02*
X56280000Y2090000D01*
%TO.C,SW7*%
X40480000Y3440000D02*
X40480000Y5640000D01*
X40950000Y1470000D02*
X46150000Y1470000D01*
X41550000Y7710000D02*
X45950000Y7710000D01*
X46720000Y5640000D02*
X46720000Y3440000D01*
X45014214Y4590000D02*
G75*
G03*
X45014214Y4590000I-1414214J0D01*
G01*
%TO.C,SW6*%
X6825000Y26995000D02*
X20795000Y26995000D01*
X6825000Y13025000D02*
X6825000Y26995000D01*
X20795000Y26995000D02*
X20795000Y13025000D01*
X20795000Y13025000D02*
X6825000Y13025000D01*
%TO.C,D2*%
X29890000Y50090000D02*
X30540000Y50090000D01*
X30540000Y51210000D02*
X30540000Y48970000D01*
X30540000Y48970000D02*
X34780000Y48970000D01*
X31140000Y51210000D02*
X31140000Y48970000D01*
X31260000Y51210000D02*
X31260000Y48970000D01*
X31380000Y51210000D02*
X31380000Y48970000D01*
X34780000Y51210000D02*
X30540000Y51210000D01*
X34780000Y48970000D02*
X34780000Y51210000D01*
X35430000Y50090000D02*
X34780000Y50090000D01*
%TO.C,D4*%
X51390000Y9090000D02*
X52040000Y9090000D01*
X52040000Y10210000D02*
X52040000Y7970000D01*
X52040000Y7970000D02*
X56280000Y7970000D01*
X52640000Y10210000D02*
X52640000Y7970000D01*
X52760000Y10210000D02*
X52760000Y7970000D01*
X52880000Y10210000D02*
X52880000Y7970000D01*
X56280000Y10210000D02*
X52040000Y10210000D01*
X56280000Y7970000D02*
X56280000Y10210000D01*
X56930000Y9090000D02*
X56280000Y9090000D01*
%TO.C,D6*%
X8890000Y9090000D02*
X9540000Y9090000D01*
X9540000Y10210000D02*
X9540000Y7970000D01*
X9540000Y7970000D02*
X13780000Y7970000D01*
X10140000Y10210000D02*
X10140000Y7970000D01*
X10260000Y10210000D02*
X10260000Y7970000D01*
X10380000Y10210000D02*
X10380000Y7970000D01*
X13780000Y10210000D02*
X9540000Y10210000D01*
X13780000Y7970000D02*
X13780000Y10210000D01*
X14430000Y9090000D02*
X13780000Y9090000D01*
%TD*%
M02*
